<?xml version="1.0" encoding="UTF-8"?>
<svg id="Layer_2" data-name="Layer 2" xmlns="http://www.w3.org/2000/svg" viewBox="0 0 635.7 458.17">
  <defs>
    <style>
      .cls-1 {
        fill: #c962a2;
      }

      .cls-1, .cls-2 {
        stroke-width: 0px;
      }

      .cls-2 {
        fill: #fff;
      }
    </style>
  </defs>
  <g id="Layer_1-2" data-name="Layer 1">
    <g>
      <path class="cls-2" d="M0,0h635.7v458.17H0C0,305.44,0,152.72,0,0ZM420.22,346.31c.34-.17.54-.33.77-.39,7.06-1.86,14.13-3.71,21.19-5.55.74-.19,1.51-.27,2.24-.5,4.18-1.32,7.93-.51,11.67,1.73,9.29,5.55,22.41.55,25-8.98.99-3.65,3.3-6.67,6.16-9.22,3.97-3.54,8.76-5.46,13.73-7.03,4.77-1.51,9.61-2.83,14.32-4.51,4.89-1.73,8.28-5.23,10.39-9.95.59-1.32,1.04-2.69,1.61-4.02.96-2.26,1.77-4.62,2.97-6.74,4.22-7.47,8.54-14.89,12.95-22.25.8-1.33,2.07-2.54,3.4-3.35,5.41-3.27,8.6-10.62,6.64-17.54-2.03-7.18-3.6-14.5-5.18-21.8-1.09-5.06-1.66-10.23-2.82-15.27-4.35-19.02-13.47-35.25-28.4-48.07-14.13-12.13-29.87-21.57-47.05-28.66-17.08-7.05-34.71-12.41-52.77-16.31-9.96-2.15-20-3.85-30.17-4.7-4.23-.35-8.46-.72-12.68-1.05-5.75-.45-11.5-1.09-17.26-1.27-7.48-.22-14.98-.25-22.45-.02-6.19.19-12.37.78-18.53,1.37-6.59.63-13.19,1.26-19.72,2.27-12.59,1.93-25.03,4.65-37.36,7.88-20.7,5.41-40.73,12.64-59.9,22.16-2.98,1.48-5.86,1.44-8.74-.23-3.83-2.21-7.63-4.46-11.51-6.58-8.08-4.42-16.41-8.22-25.6-9.77-.54-.09-1.03-.43-1.9-.8.7-1.09,1.18-2.07,1.87-2.86,3.99-4.63,8-9.24,12.06-13.82,6.36-7.18,12.77-14.33,19.15-21.5,1.41-1.59,2.88-3.13,4.13-4.84,2.65-3.63,2.75-6.98.35-10.66-4.87-7.49-10.54-14.38-16.01-21.42-2.49-3.21-5.81-4.69-10.01-4.58-6.72.18-13.44.01-20.16.06-15.22.1-30.44.24-45.67.37-2.72.02-4.95,1.1-6.63,3.23-6.17,7.79-12.38,15.55-18.46,23.41-2.78,3.6-2.46,6.38.69,9.77,1.62,1.75,3.26,3.47,4.83,5.25,7.1,8.11,14.18,16.24,21.26,24.37,3.29,3.78,6.56,7.57,9.82,11.38.46.53.8,1.16,1.28,1.86-.86.38-1.39.64-1.94.86-5.69,2.25-11.45,4.33-17.05,6.77-11.08,4.82-21.29,11-29.58,19.99-2.3,2.5-4.5,5.09-6.8,7.59-9.94,10.8-17.89,22.82-23.11,36.63-5.22,13.83-7.94,28.09-7.87,42.84.02,5.41.57,10.85,1.25,16.23,1.93,15.13,6.09,29.59,13.4,43.06,6.27,11.56,14.51,21.51,24.57,29.99,8.77,7.39,18.53,13.19,28.82,18.2,11.82,5.76,24.32,8.59,37.41,8.66,5.59.03,11.22-.35,16.76-1.06,5.03-.64,10.02-1.79,14.94-3.07,6.06-1.57,11.47-4.64,16.77-7.91,5.55-3.43,11.58-5.3,18.2-4.68,1.13.11,2.23.41,3.6.67-.39,1.34-.65,2.3-.94,3.25-.91,2.91-2.01,5.78-2.72,8.75-2.01,8.4-.73,16.18,4.77,23.09.72.9,1.3,2.02,1.57,3.13.61,2.48,1.93,4.51,3.48,6.45.98,1.23,2.2,2.19,3.77,2.46,1.75.3,3.53.57,5.31.61,6.18.14,12-1.44,17.29-4.54,8.46-4.96,14.06-11.91,14.58-22.18.07-1.37.6-2.72,1.03-4.53.56.8.8,1.13,1.03,1.47,1.91,2.81,3.76,5.66,5.75,8.41,5.03,6.92,11.86,9.93,20.36,9.09,4.22-.42,8.43-.93,12.64-1.45,5.65-.7,10.74-2.4,14.2-7.4,2.66-3.83,6.55-4.88,11.26-3.27-.3.61-.57,1.21-.89,1.8-2.16,3.95-4.52,7.81-6.47,11.86-3.34,6.92-3.73,14.09-.72,21.23,3.11,7.37,6.96,14.37,11.12,21.21.87,1.43,2,2.49,3.5,3.23,4.42,2.18,9.05,2.51,13.89,2,13.14-1.37,25.57-11.95,28.16-25.17.94-4.83,1.69-9.7,2.53-14.55.38-2.18.76-4.36,1.14-6.54.2-.02.39-.04.59-.07.89,1.62,1.87,3.2,2.66,4.86,1.75,3.72,3.9,7.17,6.76,10.13,7.32,7.58,16.56,10.82,26.81,11.31,8.24.39,15.51-2.62,21.9-7.69,3.02-2.39,5.74-5.18,6.67-9.09,1.52-6.41,2.02-12.91,1.13-19.46-.91-6.72-3.54-12.72-7.69-18.08-1.39-1.8-2.56-3.75-3.28-5.97Z"/>
      <path class="cls-1" d="M420.22,346.31c.72,2.23,1.89,4.17,3.28,5.97,4.15,5.36,6.78,11.36,7.69,18.08.89,6.55.39,13.05-1.13,19.46-.93,3.92-3.66,6.7-6.67,9.09-6.39,5.07-13.65,8.09-21.9,7.69-10.25-.49-19.49-3.73-26.81-11.31-2.86-2.96-5.01-6.41-6.76-10.13-.78-1.67-1.77-3.25-2.66-4.86-.2.02-.39.04-.59.07-.38,2.18-.76,4.36-1.14,6.54-.84,4.85-1.59,9.72-2.53,14.55-2.58,13.21-15.01,23.79-28.16,25.17-4.84.51-9.47.18-13.89-2-1.5-.74-2.63-1.8-3.5-3.23-4.16-6.83-8.01-13.84-11.12-21.21-3.01-7.14-2.62-14.31.72-21.23,1.95-4.05,4.31-7.91,6.47-11.86.32-.58.59-1.19.89-1.8-4.71-1.61-8.6-.56-11.26,3.27-3.47,5-8.56,6.7-14.2,7.4-4.21.52-8.42,1.03-12.64,1.45-8.5.85-15.34-2.16-20.36-9.09-2-2.75-3.84-5.61-5.75-8.41-.23-.34-.47-.67-1.03-1.47-.43,1.81-.96,3.16-1.03,4.53-.52,10.27-6.12,17.22-14.58,22.18-5.29,3.11-11.11,4.68-17.29,4.54-1.77-.04-3.55-.31-5.31-.61-1.57-.27-2.78-1.23-3.77-2.46-1.55-1.94-2.87-3.97-3.48-6.45-.27-1.11-.86-2.23-1.57-3.13-5.5-6.91-6.78-14.68-4.77-23.09.71-2.96,1.81-5.83,2.72-8.75.3-.95.56-1.92.94-3.25-1.37-.26-2.47-.57-3.6-.67-6.62-.62-12.65,1.25-18.2,4.68-5.3,3.28-10.71,6.34-16.77,7.91-4.92,1.28-9.91,2.43-14.94,3.07-5.54.71-11.17,1.09-16.76,1.06-13.09-.08-25.59-2.9-37.41-8.66-10.28-5.01-20.05-10.81-28.82-18.2-10.05-8.47-18.3-18.43-24.57-29.99-7.3-13.47-11.47-27.93-13.4-43.06-.68-5.38-1.23-10.82-1.25-16.23-.07-14.75,2.65-29.01,7.87-42.84,5.21-13.81,13.17-25.83,23.11-36.63,2.3-2.5,4.5-5.09,6.8-7.59,8.29-8.98,18.49-15.17,29.58-19.99,5.61-2.44,11.37-4.52,17.05-6.77.55-.22,1.08-.48,1.94-.86-.47-.69-.82-1.32-1.28-1.86-3.26-3.8-6.53-7.6-9.82-11.38-7.08-8.13-14.16-16.26-21.26-24.37-1.57-1.79-3.21-3.51-4.83-5.25-3.15-3.4-3.47-6.17-.69-9.77,6.08-7.86,12.29-15.62,18.46-23.41,1.69-2.13,3.92-3.21,6.63-3.23,15.22-.13,30.44-.27,45.67-.37,6.72-.04,13.45.12,20.16-.06,4.2-.11,7.52,1.37,10.01,4.58,5.47,7.04,11.14,13.94,16.01,21.42,2.4,3.69,2.3,7.03-.35,10.66-1.25,1.71-2.72,3.26-4.13,4.84-6.38,7.17-12.78,14.32-19.15,21.5-4.05,4.58-8.07,9.19-12.06,13.82-.69.8-1.17,1.77-1.87,2.86.87.37,1.36.71,1.9.8,9.19,1.54,17.52,5.35,25.6,9.77,3.88,2.12,7.68,4.37,11.51,6.58,2.88,1.66,5.76,1.71,8.74.23,19.17-9.52,39.2-16.75,59.9-22.16,12.33-3.22,24.77-5.94,37.36-7.88,6.54-1,13.14-1.64,19.72-2.27,6.17-.59,12.35-1.18,18.53-1.37,7.48-.23,14.97-.21,22.45.02,5.76.17,11.51.81,17.26,1.27,4.23.33,8.46.7,12.68,1.05,10.17.85,20.21,2.55,30.17,4.7,18.06,3.9,35.69,9.25,52.77,16.31,17.17,7.09,32.92,16.53,47.05,28.66,14.94,12.83,24.05,29.06,28.4,48.07,1.15,5.04,1.72,10.21,2.82,15.27,1.58,7.3,3.14,14.62,5.18,21.8,1.96,6.92-1.23,14.27-6.64,17.54-1.33.8-2.61,2.02-3.4,3.35-4.41,7.36-8.73,14.78-12.95,22.25-1.2,2.13-2.01,4.48-2.97,6.74-.56,1.33-1.02,2.7-1.61,4.02-2.11,4.72-5.5,8.22-10.39,9.95-4.71,1.67-9.55,3-14.32,4.51-4.97,1.57-9.76,3.48-13.73,7.03-2.86,2.55-5.17,5.57-6.16,9.22-2.59,9.53-15.71,14.53-25,8.98-3.74-2.24-7.49-3.05-11.67-1.73-.73.23-1.5.31-2.24.5-7.07,1.84-14.13,3.69-21.19,5.55-.23.06-.43.22-.77.39ZM274.81,305.22c2.43-.99,4.87-1.96,7.28-2.97,2.59-1.08,5.18-2.1,8.03-2.29,7.58-.51,12.07-4.07,13.45-11.53.93-5.06,1.12-10.27,1.33-15.43.12-3.09-1.77-5.08-4.82-5.65-1.99-.38-4.02-.65-6.05-.79-7.78-.55-15.35,0-22.56,3.53-5.62,2.75-9.35,6.93-11.25,12.79-1.15,3.55-2.01,7.19-3.18,10.72-.56,1.69-.6,3.26-.22,4.96,1.17,5.25,3.64,6.67,8.65,4.77,2.46-.93,4.84-2.07,7.27-3.06,1.44-.59,2.91-1.08,4.85-1.79-1.19,2.51-2.13,4.48-3.07,6.45-.02.17-.03.34-.05.51l.34-.22ZM353.35,354.1c-.31.27-.7.48-.91.81-2.23,3.51-4.49,6.99-6.63,10.56-3.95,6.61-9,12.29-14.44,17.67l.04.04c.2-.8.22-1.7.63-2.37,2.85-4.62,5.71-9.24,8.71-13.76,2.25-3.4,4.73-6.64,7.06-9.99.92-1.33.85-1.38-.75-2.5-.37.28-.79.56-1.16.9-3.75,3.45-7.49,6.92-11.25,10.37-.56.51-1.04,1.44-2.21.66.3-.46.53-.9.83-1.29,2.85-3.71,5.71-7.4,8.56-11.11,1.33-1.73,1.32-1.74-.62-3.67-.86.59-1.73,1.24-2.65,1.81-2.88,1.79-5.68,3.76-8.69,5.29-8.96,4.56-15.38,11.4-19.01,20.75-3.22,8.32-3.77,16.75.19,24.98,2.32,4.81,5,9.46,7.69,14.08,3.41,5.85,9.41,7.41,14.94,6.39,8.05-1.49,14.67-5.7,20.11-11.74,2.33-2.58,3.76-5.65,4.08-9.16.36-3.89.86-7.77,1.01-11.66.31-8.06.39-16.13.65-24.2.06-1.79-.58-3.01-2.14-4.18-.2.68-.37,1.14-.47,1.61-1.87,9.14-3.73,18.29-5.59,27.43-.1.5-.13,1.05-.39,1.45-.17.27-.69.42-1.04.41-.2,0-.54-.45-.55-.7-.03-.76.05-1.52.14-2.28.25-2.11.53-4.21.77-6.31.82-7.16,1.68-14.32,2.44-21.49.31-2.94.42-5.9.62-8.85.08-.05.16-.1.24-.15-.04,0-.11,0-.13.01-.04.05-.05.12-.07.17ZM317.58,315.84c1.67.27,3.34.48,5,.81,2.55.51,5.08,1.09,8.01,1.73-.5-.9-.75-1.42-1.07-1.89-3.08-4.45-7.21-7.69-12.12-9.85-11.07-4.86-22.27-4.83-33.47-.44-3.1,1.22-6.09,2.78-8.19,5.46-5.13,6.53-5.59,13.67-2.17,21.06,1.13,2.45,1.98,4.95,1.97,7.57-.03,6.21,2.94,11.04,6.7,15.56,1.28,1.54,2.92,2.56,4.96,2.9,4.1.67,8.17,1.53,12.29,2.04,8.54,1.05,16.34-1.09,23.42-5.92,4.82-3.28,8.91-7.34,12.61-11.81.12-.15.09-.42.18-.89-7.36,1.5-14.56,2.96-21.92,4.46-.12-.89-.2-1.44-.29-2.16,8.05-2.26,16.15-3.89,24.24-6.27-1.85-3.37-4.41-5.02-8.21-5.31.8-1.28,1.39-2.23,2.16-3.46.7,1.49,1.22,2.61,1.75,3.75,2.62-1.64,2.73-1.9,1.99-4.49-.51-1.77-1.46-3.3-2.9-4.4-1.34-1.02-2.79-1.95-4.3-2.71-2.58-1.3-5.27-2.38-7.84-3.68-1.02-.52-1.85-1.4-2.76-2.12l-.03.03ZM370.31,317.47c.67-.5,1.39-.94,1.99-1.5,3.18-2.95,6.33-5.92,9.49-8.88.24-.22.55-.36.93-.61.4.46.76.87,1.15,1.32-2.72,3.13-5.23,6.24-7.96,9.14-3.49,3.7-3.02,8.15-3.09,12.79,1.23,0,2.16,0,3.08,0,5.27,0,10.54-.01,15.81.01.83,0,1.91-.36,2.33,1.22-6.59,1.3-13.08,2.58-19.57,3.87-.03.17-.05.35-.08.52,1.99,1.02,3.97,2.04,6.52,3.35-2.46.77-4.33,1.36-6.79,2.13,5.51,3.11,10.44,5.9,15.49,8.75-.34.74-.6,1.31-.89,1.93-5.15-.87-10.15-1.72-15.15-2.57-.06.17-.12.33-.19.5,5.25,4.99,10.49,9.97,16.09,15.29-.97.22-1.47.51-1.8.38-.61-.25-1.14-.72-1.68-1.14-4.19-3.19-8.36-6.41-12.56-9.58-.5-.38-1.15-.56-1.74-.83-.06-.08-.12-.16-.18-.25,0,.05-.02.13,0,.15.05.04.12.06.19.08.23.62.4,1.28.71,1.87,2.06,4,4.15,7.99,6.22,11.99.42.81.8,1.64,1.45,2.99-.96-.21-1.58-.17-1.86-.46-.59-.59-1.01-1.36-1.47-2.07-3.13-4.76-6.24-9.52-9.38-14.28-.37-.56-.86-1.04-1.51-1.82-.71,3.33-1.04,6.17-.41,9.06.6,2.73,1.11,5.49,1.7,8.22,1.61,7.38,4.26,14.29,8.72,20.48,3.86,5.35,8.9,8.7,15.39,10.05,6.37,1.33,12.65,1.05,18.93-.41,4.09-.95,8-2.36,11.47-4.76,2.63-1.83,4.54-4.17,4.08-7.66-.54-4.09-.1-8.15.48-12.17.65-4.48.52-8.77-1.69-12.86-3.3-6.11-7.72-11.19-13.71-14.76-1.71-1.02-3.71-1.63-5.66-2.14-5.42-1.41-10.88-2.67-16.32-3.97-.67-.16-1.54-.28-1.3-1.16.13-.46.87-.91,1.42-1.06,1.96-.54,3.95-.97,5.95-1.39,3.15-.67,6.31-1.32,9.47-1.94,9.25-1.81,15.64-7.47,20.36-15.26,4.44-7.33,5.71-15.51,6.22-23.9.27-4.43-1.55-7.45-5.22-9.7-2.6-1.59-5.08-3.38-7.58-5.13-3.14-2.19-6.64-3.17-10.38-2.56-8.36,1.35-15.63,5.05-21.84,10.79-6.38,5.9-10.58,13.23-13.72,21.22-.83,2.12-1.42,4.33-2.12,6.5-.06.11-.11.22-.17.33.12-.05.24-.1.36-.15ZM317.93,301.72l.41.18c0-.19,0-.39,0-.58-1.3-3.77-2.68-7.52-3.88-11.32-1.26-3.99-1.95-8.12-1.73-12.3.5-9.58,4.26-17.82,11.13-24.47,4.33-4.19,9.06-7.96,13.63-11.89,1.3-1.12,2.89-1.38,4.56-1.25,2.75.22,5.33,1,7.76,2.32,2.39,1.3,4.73,2.73,7.25,3.72,9.02,3.55,14.76,10.05,17.71,19.15,1.76,5.44,2.61,11.06,3.07,16.74.17,2.08.43,4.15.68,6.59,1.04-.63,1.76-1.01,2.43-1.48,4.6-3.21,9.19-6.44,13.78-9.67,5.08-3.57,10.57-5.77,16.94-4.99,3.81.47,7.22,2.04,10.3,4.17,3.7,2.56,7.16,5.46,10.82,8.08,1.69,1.21,2.48,2.77,2.63,4.71.21,2.87.32,5.76.46,8.64.04.8,0,1.61,0,2.63.96-.21,1.55-.27,2.09-.47,5.49-2.05,11.12-3.81,16.44-6.25,11.2-5.14,22.26-10.6,33.33-16.01,9.29-4.53,17.87-10.14,25.47-17.21,4.69-4.36,9.03-9.04,12.57-14.36,2.6-3.93,3.38-8.27,1.3-12.84-2.53-5.55-5.86-10.53-10.15-14.87-14.02-14.16-30.49-24.67-48.75-32.43-15.84-6.74-32.32-11.5-49.08-15.35-10.36-2.38-20.79-4.36-31.35-5.55-11.24-1.27-22.52-1.98-33.84-2.18-16.68-.3-33.33-.24-49.95,1.51-10.75,1.13-21.4,2.8-31.88,5.45-14.59,3.69-28.81,8.63-43.1,13.3-3.16,1.03-3.94,2.76-2.93,5.91.15.48.36.95.55,1.43,1.88,4.74,3.86,9.44,5.6,14.22,2.39,6.56,4.29,13.25,4.8,20.26.13,1.76.29,3.6.91,5.23,1,2.62,3.03,4.44,5.57,5.71,7.39,3.7,12.31,9.6,14.72,17.42,1.24,4.04,1.81,8.28,2.7,12.42.16.77.37,1.53.58,2.39,6.12-1.83,11.88-3.61,17.68-5.25,4.82-1.36,9.63-2.87,14.76-2.46,3.86.31,7.24,1.65,10.05,4.39,3.37,3.29,4.95,7.42,4.88,11.94-.07,4.9-.78,9.8-1.26,14.69-.21,2.17-.53,4.33-.82,6.7,3.86,1.12,7.52,2.18,11.17,3.24ZM169.91,165.41c-.36-.34-.61-.72-.96-.89-3.28-1.6-6.47-3.47-9.89-4.67-9.73-3.43-19.83-4.45-30.12-4-8.38.36-16.55,1.69-24.49,4.39-6.57,2.23-12.74,5.27-18.06,9.77-6.25,5.28-11.94,11.11-17.06,17.5-6.82,8.52-12.1,17.87-15.24,28.34-3.88,12.95-4.7,26.17-3.16,39.57,2.07,17.99,9.42,33.54,21.53,46.92,16.96,18.74,38.07,27.61,63.36,26.48,9.97-.45,19.46-2.93,28.59-6.86,3.02-1.3,4.3-4.19,3.17-7.29-.52-1.42-1.3-2.76-2.02-4.11-1.16-2.17-2.53-4.24-3.53-6.49-3.52-7.92-6.88-15.91-10.36-23.84-2.76-6.3-5.22-12.79-10.65-17.46-.25-.22-.43-.52-.65-.78-3.8-4.57-4.41-9.5-2.01-14.97,1.15-2.62,2.13-5.4,2.63-8.21,1.04-5.84,1.68-11.76,2.53-17.63,1.23-8.59,2.95-17.07,5.78-25.28,3.36-9.74,8.55-18.28,16.74-24.8,1.82-1.45,2.89-3.49,3.89-5.66ZM533.15,232.7c.36-.25.56-.32.62-.45,2.49-5.31,3.83-10.92,3.75-16.76-.08-5.82-1.43-11.42-3.74-16.8-2.83-6.61-6.6-12.65-10.8-18.44-8.46-11.67-18.81-21.27-31.69-27.86-7.03-3.59-14.32-6.68-21.56-9.84-11.3-4.93-22.77-9.43-34.6-12.94-14.12-4.18-28.47-7.23-43.12-8.77-9.2-.96-18.42-1.94-27.65-2.29-14.1-.55-28.23-.47-42.31.77-7.44.66-14.89,1.27-22.31,2.06-12.68,1.35-25.19,3.71-37.59,6.68-19.1,4.58-37.22,11.83-55.02,19.97-3.03,1.39-5.07,3.82-7.42,6.41,2.17.4,4.04.75,6.01,1.11.02,2.51,1.21,4.32,2.62,6.07,1.22,1.52,2.36,3.12,3.5,4.7,2.24,3.1,4.46,6.22,6.69,9.32,1.99,2.76,3.61,3.33,6.8,2.37.81-.24,1.61-.56,2.41-.83,7.73-2.6,15.38-5.47,23.2-7.73,11.6-3.36,23.6-4.87,35.51-6.64,8.73-1.29,17.5-2.33,26.28-3.19,8.45-.82,16.92-1.55,25.4-1.8,8.57-.25,17.17.09,25.75.25,10.2.19,20.34,1.25,30.45,2.59,10.19,1.34,20.29,3.18,30.32,5.42,13.37,2.99,26.35,7.31,39.23,11.9,14.45,5.15,27.77,12.45,39.58,22.28,5.02,4.18,9.75,8.73,14.52,13.21,5.04,4.74,9.59,9.87,12.6,16.22.55,1.16,1.72,2.03,2.58,3.01ZM170.54,325.22c-1.83.84-3.51,1.64-5.21,2.4-4.04,1.79-7.99,3.82-12.14,5.28-11.37,3.99-23.01,4.94-34.88,2.42-6.53-1.39-12.72-3.7-18.79-6.36-10.05-4.41-19.3-10.08-26.98-18.02-6.7-6.93-12.61-14.5-17.41-22.88-3.82-6.67-6.74-13.7-8.26-21.29-1.3-6.5-2.2-13.04-2.62-19.67-.5-7.94.06-15.78,1.5-23.57,2.79-15.17,9.32-28.66,18.52-40.97,7.35-9.82,16.1-18.02,27.31-23.21,6.62-3.06,13.47-5.65,20.25-8.36,10.46-4.18,21.2-4.45,32.05-1.92,11.16,2.6,21.67,6.95,31.68,12.5,4.4,2.44,8.46,5.39,12.14,8.84,6.13,5.75,11.02,12.48,15.33,19.64,7.22,12.01,11.54,24.92,12,39.02.04,1.32.4,2.63.67,4.28,5.09-2.23,9.87-4.34,14.93-6.55-.27-2.47-.14-4.94-.84-7.13-2.6-8.17-5.29-16.33-8.3-24.35-4.31-11.47-10.46-21.94-18.66-31.1-13.19-14.73-29.77-23.73-48.87-28.31-6.25-1.5-11.59-.04-15.76,5.08-.69.85-1.57,1.56-2.45,2.21-3,2.24-5.89,2.33-8.93.11-1.36-.99-2.52-2.27-3.69-3.49-3.21-3.33-6.97-5.07-11.67-4.18-1.83.35-3.68.65-5.47,1.16-21.21,6.02-38.82,17.49-52.15,35.12-12.79,16.93-20.86,35.9-23.87,56.96-1.61,11.29-1.24,22.53.89,33.71,2.36,12.38,6.84,23.99,13.06,34.93,7.39,12.99,16.69,24.41,28.5,33.65,11.37,8.9,24.39,14.38,38.34,17.79,6.61,1.62,13.29,2.92,20.11,2.95,5.09.02,10.17-.56,15.17-1.61,11.01-2.31,21.62-5.92,32.02-10.15.91-.37,1.8-.81,2.69-1.22-2.37-5-6.32-5.63-9.95-4.17-1.02.41-2.02.88-3.03,1.34-4.42,1.99-8.84,3.98-13.62,4.97-2.84.59-5.71,1.07-9.2.47.97-.42,1.4-.64,1.86-.79,3.46-1.18,6.93-2.31,10.37-3.54,3.84-1.37,7.71-2.68,11.44-4.31,3.71-1.62,4.19-3.74,1.92-7.67ZM177.4,171.27c-.23.06-.47.07-.67.18-5.44,2.85-9.95,6.77-13.47,11.83-4.7,6.75-7.3,14.35-9.05,22.28-.99,4.5-1.51,9.05-.53,13.64.73,3.4,1.76,6.69,4.28,9.71.75-.93,1.43-1.65,1.96-2.47,1.02-1.57,1.87-3.25,2.95-4.77,1.12-1.59,2.26-3.22,3.67-4.53,1.59-1.48,3.57-2.38,6.14-2.28-.54,1.15-.91,2-1.34,2.82-2.28,4.37-4.57,8.73-6.86,13.1-2.73,5.2-2.58,10.26.75,15.16.57.84,1.2,1.66,1.89,2.4,4.01,4.28,7.93,8.65,12.11,12.76,6.69,6.58,13.96,12.43,22.42,16.66.64.32,1.33.56,2.26.95.29-2.73.54-5.16.82-7.57,1.05-9.11,2.38-18.18,4.94-27.01,1.7-5.87,1.85-11.77.4-17.62-1.85-7.41-4.03-14.73-6.1-22.08-.64-2.27-1.36-4.52-2.07-6.84-.6.06-1.02.07-1.42.16-4.45.94-8.09,3.4-11.61,6.14-2.75,2.14-5.51,4.27-8.37,6.24-2.01,1.39-4.27,2.32-7.18,2.63.44-1.06.69-1.83,1.06-2.54,2.35-4.58,5.93-8.06,10.12-10.92,3.51-2.4,7.12-4.64,10.68-6.97.75-.49,1.44-1.06,2.3-1.71-2.7-3.12-5.19-6.01-7.71-8.87-1.63-1.85-3.25-3.71-4.99-5.46-1.65-1.66-3.86-1.76-5.46-.16-4.09,4.08-8.24,8.14-10.94,13.36-3.01,5.81-6,11.62-9.01,17.43-.37.72-.8,1.42-1.2,2.13,2.72-14.46,10.25-26.39,19.24-37.76ZM362.55,315.98l.54.27c.42-.67.92-1.3,1.25-2.01,1.53-3.32,3.05-6.64,4.49-10,2.4-5.58,3.95-11.41,4.36-17.47.62-9.22-1.5-17.85-5.9-25.98-1.42-2.63-3.35-4.39-6.04-5.53-1.13-.48-2.16-.94-3.3.18-.7-.9-1.27-1.62-1.84-2.35-2.7-3.47-6.1-5.94-10.43-6.87-3.3-.71-6.68-.9-9.5,1.41-2.49,2.04-4.9,4.22-7.12,6.56-2.8,2.95-4.61,6.44-5,10.63-.55,6-1.26,11.98-1.91,17.96-.06.57-.26,1.12-.39,1.68-.16-.03-.32-.05-.48-.08-.45-4.07-.9-8.14-1.35-12.21-1.43,2.27-1.89,4.69-1.96,7.2-.13,5.14.67,10.15,2.12,15.07,1.97,6.68,5.94,11.8,12.09,15.09,1.79.95,3.17,2.24,4.41,3.77,2.03,2.51,4.09,5,6.16,7.47.34.41.83.69,1.36,1.13,1.27-2.93,1.16-5.67.23-8.38-.63-1.84-1.49-3.6-2.22-5.41-.72-1.79-1.41-3.6-2.16-5.54.79-.39,1.35-.66,2.08-1.02,2.85,6.06,5.61,11.94,8.44,17.95.86-.44,1.43-.73,2.02-1.03-.62-7.09-2.32-13.91-2.77-21.03,1.54.46,1.58.44,1.76,1.09.45,1.55.86,3.11,1.29,4.66,1.14,4.18,2.26,8.36,3.41,12.53.19.71.24,1.61,1.58,1.35.19-.73.46-1.52.59-2.33.74-4.61,1.45-9.22,2.18-13.83.14-.88.12-1.84.93-2.38.33.1.62.15.62.2.17,5.75.31,11.49.45,17.24ZM542.93,232.15c-.83,1.03-1.34,1.58-1.76,2.19-2.86,4.22-5.73,8.44-8.56,12.68-8.75,13.11-19.86,23.85-32.9,32.64-14.29,9.63-29.92,16.39-46.36,21.37-4.22,1.28-8.51,2.36-12.74,3.62-3.59,1.07-6.01,3.39-7.1,7.04-.46,1.55-.94,3.09-1.48,4.61-3.5,9.93-9.5,17.56-19.64,21.44-.86.33-1.66.86-2.41,1.41-1.41,1.03-1.41,1.23-.25,3.16.37-.05.79-.07,1.19-.16,8.23-1.68,16.46-3.37,24.69-5.05,2.33-.48,4.68-.85,6.97-1.49,3.48-.96,4.96-3.33,4.55-6.92-.09-.76-.21-1.52-.39-2.26-.93-3.87-.41-7.63,1.04-11.24,2.41-6.01,6.16-10.72,12.84-12.39,7.3-1.83,12.82,0,17.23,6.05,1.49,2.04,2.58,4.38,3.86,6.58.88,1.51,1.78,3.01,2.78,4.69,5.19-3.67,10.09-7.13,15.07-10.64-.42-1.18-.77-2.13-1.09-3.09-1.28-3.88-2.28-7.8-2.19-11.96.21-9.43,11.29-16.91,19.7-13.54,2.95,1.18,5.68,2.66,8.26,4.48.73.51,1.47.99,2.37,1.6,2.43-3.77,4.78-7.2,6.91-10.77,2.99-5.01,4.02-10.11,1.98-16.03-2.48-7.18-.66-13.76,5.14-18.96,1.13-1.01,2.43-1.83,3.81-2.85-.45-1.85-.91-3.71-1.52-6.21ZM233.39,273.27c.17.01.34.02.51.03.83,2.57,1.62,5.16,2.49,7.71.9,2.65,1.73,5.34,2.88,7.88,1.26,2.76,3.37,3.3,5.82,1.57,5.73-4.03,9.49-9.41,10.74-16.38,1.15-6.41.31-12.68-1.46-18.86-1.43-5-4.32-8.97-8.68-11.88-3.82-2.54-7.55-5.21-11.39-7.73-1.55-1.02-3.22-1.93-4.94-2.6-3.61-1.4-6.57-.32-8.45,3.05-.9,1.62-1.52,3.4-2.25,5.12-.3.7-.5,1.45-.86,2.11-3.21,5.88-5.2,12.14-6.09,18.77-1.02,7.59.17,14.77,4.25,21.27,2.84,4.52,6.09,8.79,9.2,13.15.89,1.25,2.08,2.15,3.72,2.6,1-1.48,1.93-2.89,2.89-4.28,1-1.43,1.3-2.95.53-4.56-1.09-2.29-2.24-4.56-3.46-7.05,1.46-3.18,3-6.55,4.55-9.93ZM208.43,323.08c6.01-2.81,11.55-5.4,17.1-7.99,0-.17-.02-.34-.03-.5-4.8-1.57-9.6-3.13-14.54-4.74.19-1.62.37-3.11.55-4.61.16-1.33-.15-2.4-1.14-3.46-2.57-2.76-2.36-4.4.64-6.7.74-.57,1.56-1.03,2.33-1.56.45-.32.86-.68,1.32-1.05-2.15-3.25-5.33-4.41-8.67-5.22-7.91-1.91-15.69-1.08-23.36,1.32-4.19,1.31-8.01,3.27-11.31,6.2-2.04,1.82-3.22,4.05-2.89,6.76.32,2.59.89,5.17,1.59,7.69,1.52,5.5,3.4,10.88,6.36,15.79,3.25,5.4,7.66,9.31,14.13,10.32,3.44.53,6.89,1,10.34,1.41,2.02.24,4.06.5,6.09.46,5.54-.1,10.72-4.69,11.56-10.3-3.14-1.19-6.35-2.41-10.07-3.82ZM232.39,343.09c-.52-1.04-.96-1.74-1.24-2.5-.47-1.31-1.3-1.84-2.71-1.73-1.52.12-3.06.09-4.59.01-2.28-.12-4.67.06-6.81-.59-3.5-1.06-6.28-.18-9.02,1.9-9.29,7.04-11.91,21.85-5.36,31.71,1.84,2.77,2.99,5.64,3.56,8.88.91,5.16,3.53,6.69,8.57,5.26.33-.09.64-.23.97-.32,3.01-.89,6-1.85,9.04-2.65,11.31-3.01,17.94-11.18,18.24-22.85.14-5.52,0-11.05-.03-16.57,0-.4-.16-.79-.28-1.33-.9.05-1.7.09-2.56.13-.85,6.22-2.25,12.02-5.43,17.26-1.56-.68-1.61-.69-1.29-2.19.56-2.66,1.19-5.3,1.78-7.95.8-3.63,1.59-7.26,2.41-11.03-.79-.24-1.39-.42-1.98-.6-1.08,1.72-2.06,3.28-3.25,5.17ZM151.36,83.79h-42.34c6.68,18.1,12.95,36.07,19.64,53.92,1.13-.22,1.95-.38,2.91-.57,6.57-17.71,13.14-35.41,19.8-53.34ZM252.92,351.97c-1.09-2.78-2.12-5.37-3.11-7.98-.26-.67-.56-1.42-1.38-1.1-.51.2-1.02.84-1.18,1.38-.18.61-.04,1.34.1,1.99.23,1.08.54,2.14.86,3.2,1.58,5.3,3.33,10.52,6.55,15.12,4.25,6.08,10.1,9.14,17.47,9.36,3.77.11,7.4-.77,11.08-1.35,3.52-.55,5.76-2.9,8.59-4.61-1.82-2.75-4.03-4.44-6.72-5.72-7.74-3.67-12.01-9.88-12.43-18.42-.22-4.42-1.81-8.09-4.65-11.28-2.98-3.34-6.57-5.81-11.37-7.06,0,1.69.13,3.12-.03,4.53-.36,3.34-1.81,4.36-5.14,3.84-.21-.03-.45.09-.69.13-.06.3-.14.55-.16.79-.25,2.75.95,5.11,1.95,7.55.92,2.26,1.76,4.59,2.36,6.95.41,1.6-.08,2.03-2.1,2.67ZM451.39,323.8c0,.76-.08,1.54.01,2.29.71,5.68,3,10.26,8.82,12.25,2.28.78,4.62.83,7.01.52,4.33-.56,7.84-2.48,9.82-6.4,3.46-6.85,3.45-13.78-.6-20.39-4.94-8.07-14.16-7.11-19.13-2.61-4.25,3.84-5.96,8.74-5.94,14.34ZM119.67,126.71c-.21-.94-.25-1.35-.39-1.73-4.56-12.34-9.17-24.67-13.66-37.04-1.49-4.09-4.32-5.87-8.53-5.85-4.93.03-9.86,0-14.8.02-.53,0-1.06.17-1.8.3.5.71.81,1.21,1.18,1.65,3.33,3.97,6.68,7.93,10.01,11.9,4.64,5.53,9.31,11.04,13.9,16.61,4.12,4.99,8.52,9.68,14.08,14.14ZM157.48,278.36c.96-.64,1.76-1.29,2.66-1.74,2.04-1.02,4.05-2.22,6.22-2.85,3.94-1.14,7.58-.4,10.52,2.71.93.99,1.82,2.04,2.84,2.93,2.83,2.48,8.4,2.43,11.39-.22-9.31-5.76-17.2-13.1-24.42-21.14-7.3-8.13-13.05-17.34-17.81-27.37-1.09.71-1.99,1.3-2.95,1.93,1.89,4.32,3.47,8.52,6.34,12.09,2.86,3.56,4.69,7.59,3.93,12.25-.39,2.39-1.42,4.68-2.15,7.02-.35,1.12-.88,2.24-.95,3.38-.24,4.19,1.06,7.84,4.38,11ZM150.31,77.38c-.56-.91-.85-1.49-1.24-2-2.55-3.39-5.06-6.81-7.71-10.12-2.23-2.78-4.56-5.47-6.99-8.08-.83-.89-1.99-1.67-3.14-2-1.94-.57-3.42.55-4.62,2-5.3,6.4-10.6,12.81-15.88,19.22-.18.21-.18.57-.3.99h39.89ZM178.1,83.72c-.09-.19-.18-.38-.28-.57-5.43,0-10.86-.05-16.29.02-3.16.04-5.17,1.94-6.49,4.62-.67,1.37-1.14,2.83-1.71,4.25-4.49,11.19-8.98,22.38-13.47,33.57-.33.83-.67,1.66-1.16,2.88.91-.12,1.48-.04,1.77-.27.65-.53,1.19-1.21,1.73-1.86,4.57-5.48,9.11-10.99,13.71-16.44,5.2-6.17,10.46-12.3,15.69-18.45,2.18-2.57,4.34-5.16,6.51-7.74ZM521.79,296.18c0-.68.07-1.37-.01-2.04-.43-3.64-1.75-6.79-5.29-8.43-6.11-2.83-13.48.36-15.55,6.75-1.29,3.97-.89,7.93,1.05,11.61,3.08,5.8,10.91,6.94,15.69,2.42,2.97-2.81,4.12-6.33,4.11-10.31ZM104.48,76.82c-3.3-7.63-6.43-14.87-9.73-22.53-2.67,3.79-5.11,7.13-7.41,10.56-2.27,3.38-4.91,6.53-6.99,10.47,8.21.51,15.94.99,24.13,1.5ZM182.14,76.35c-5.32-7.05-10.29-13.66-15.59-20.68-3.24,7.12-6.27,13.78-9.41,20.68h24.99ZM153.74,74.47c3.05-6.93,6.12-13.17,8.82-19.79h-23.78c5.02,6.64,9.8,12.96,14.96,19.79ZM123.36,54.66h-23.8c2.61,6.44,5.14,12.67,7.86,19.39,5.41-6.58,10.49-12.76,15.94-19.39ZM179.41,282.65c-1.5-.96-2.87-1.76-4.17-2.67-.97-.68-1.82-1.53-2.78-2.23-1.42-1.03-3.12-1.24-4.6-.49-2.71,1.37-4.9,3.37-5.75,6.45-.17.63-.26,1.37-.13,2,.58,2.65,1.92,4.83,4.38,6.5,4.38-3.21,8.73-6.4,13.04-9.56ZM155.26,253.84c-2.07-2.24-3.85-4.28-5.76-6.17-1.53-1.52-3.51-1.76-5.43-.94-2.02.86-2.85,2.71-2.58,4.79.19,1.45.65,3.02,1.48,4.21,1.48,2.12,3.32,3.99,5.17,6.15,2.42-2.73,4.65-5.24,7.13-8.03ZM536.95,253.96c2.38,2.51,4.72,4.98,7.28,7.68,1.96-2.85,3.96-5.24,5.1-8.19.38-.98.61-2.02-.19-2.87-1.43-1.5-2.94-2.93-4.26-4.23-2.75,2.64-5.23,5.03-7.92,7.62Z"/>
      <path class="cls-2" d="M317.93,301.72c-3.66-1.06-7.31-2.13-11.17-3.25.29-2.37.61-4.53.82-6.7.48-4.89,1.19-9.79,1.26-14.69.07-4.52-1.51-8.65-4.88-11.94-2.81-2.75-6.19-4.08-10.05-4.39-5.12-.41-9.94,1.1-14.76,2.46-5.8,1.64-11.56,3.42-17.68,5.25-.21-.86-.42-1.62-.58-2.39-.88-4.15-1.45-8.39-2.7-12.42-2.41-7.82-7.33-13.72-14.72-17.42-2.53-1.27-4.57-3.09-5.57-5.71-.62-1.62-.78-3.46-.91-5.23-.51-7.02-2.41-13.71-4.8-20.26-1.75-4.79-3.73-9.49-5.6-14.22-.19-.47-.39-.94-.55-1.43-1-3.15-.23-4.88,2.93-5.91,14.29-4.67,28.51-9.61,43.1-13.3,10.48-2.65,21.13-4.32,31.88-5.45,16.62-1.75,33.27-1.81,49.95-1.51,11.32.2,22.6.92,33.84,2.18,10.56,1.19,20.99,3.17,31.35,5.55,16.76,3.85,33.24,8.62,49.08,15.35,18.26,7.76,34.73,18.27,48.75,32.43,4.29,4.33,7.62,9.32,10.15,14.87,2.08,4.57,1.3,8.91-1.3,12.84-3.53,5.32-7.88,10-12.57,14.36-7.6,7.06-16.17,12.67-25.47,17.21-11.08,5.41-22.13,10.87-33.33,16.01-5.32,2.44-10.94,4.2-16.44,6.25-.54.2-1.12.26-2.09.47,0-1.02.03-1.83,0-2.63-.13-2.88-.24-5.76-.46-8.64-.14-1.94-.94-3.5-2.63-4.71-3.66-2.62-7.12-5.53-10.82-8.08-3.09-2.13-6.49-3.7-10.3-4.17-6.37-.78-11.86,1.42-16.94,4.99-4.59,3.23-9.18,6.46-13.78,9.67-.67.47-1.39.85-2.43,1.48-.26-2.44-.52-4.51-.68-6.59-.46-5.68-1.31-11.3-3.07-16.74-2.95-9.11-8.69-15.6-17.71-19.15-2.52-.99-4.86-2.43-7.25-3.72-2.43-1.32-5.01-2.1-7.76-2.32-1.66-.13-3.26.13-4.56,1.25-4.57,3.93-9.3,7.7-13.63,11.89-6.87,6.64-10.63,14.89-11.13,24.47-.22,4.18.47,8.31,1.73,12.3,1.2,3.8,2.58,7.55,3.88,11.32l-.42.4Z"/>
      <path class="cls-2" d="M169.91,165.41c-1,2.17-2.07,4.21-3.89,5.66-8.19,6.52-13.38,15.07-16.74,24.8-2.83,8.21-4.55,16.7-5.78,25.28-.84,5.88-1.49,11.79-2.53,17.63-.5,2.81-1.48,5.59-2.63,8.21-2.4,5.47-1.79,10.4,2.01,14.97.22.26.4.56.65.78,5.43,4.68,7.89,11.17,10.65,17.46,3.48,7.94,6.84,15.92,10.36,23.84,1,2.24,2.37,4.32,3.53,6.49.72,1.35,1.5,2.68,2.02,4.11,1.13,3.11-.15,5.99-3.17,7.29-9.13,3.93-18.62,6.42-28.59,6.86-25.28,1.14-46.4-7.74-63.36-26.48-12.11-13.37-19.46-28.93-21.53-46.92-1.54-13.4-.72-26.62,3.16-39.57,3.14-10.47,8.42-19.82,15.24-28.34,5.12-6.39,10.81-12.22,17.06-17.5,5.33-4.5,11.49-7.54,18.06-9.77,7.94-2.7,16.12-4.03,24.49-4.39,10.3-.45,20.39.57,30.12,4,3.42,1.21,6.61,3.07,9.89,4.67.35.17.61.55.96.89Z"/>
      <path class="cls-2" d="M533.15,232.7c-.86-.98-2.02-1.85-2.58-3.01-3.02-6.34-7.56-11.48-12.6-16.22-4.77-4.48-9.5-9.02-14.52-13.21-11.81-9.84-25.13-17.13-39.58-22.28-12.88-4.59-25.86-8.91-39.23-11.9-10.03-2.25-20.13-4.08-30.32-5.42-10.11-1.33-20.24-2.4-30.45-2.59-8.58-.16-17.18-.5-25.75-.25-8.48.25-16.95.98-25.4,1.8-8.78.86-17.56,1.9-26.28,3.19-11.92,1.76-23.91,3.28-35.51,6.64-7.82,2.26-15.47,5.13-23.2,7.73-.81.27-1.6.58-2.41.83-3.19.95-4.82.38-6.8-2.37-2.24-3.1-4.45-6.22-6.69-9.32-1.15-1.58-2.28-3.18-3.5-4.7-1.4-1.75-2.6-3.57-2.62-6.07-1.96-.36-3.83-.71-6.01-1.11,2.35-2.58,4.39-5.02,7.42-6.41,17.8-8.14,35.92-15.39,55.02-19.97,12.4-2.97,24.91-5.33,37.59-6.68,7.43-.79,14.87-1.41,22.31-2.06,14.08-1.24,28.21-1.32,42.31-.77,9.23.36,18.46,1.33,27.65,2.29,14.64,1.54,29,4.59,43.12,8.77,11.84,3.5,23.3,8.01,34.6,12.94,7.24,3.16,14.54,6.25,21.56,9.84,12.88,6.58,23.24,16.19,31.69,27.86,4.2,5.79,7.97,11.83,10.8,18.44,2.3,5.38,3.66,10.98,3.74,16.8.08,5.84-1.25,11.45-3.75,16.76-.06.13-.26.19-.62.45ZM208.31,153.55c.63-.2,1.28-.35,1.88-.61,3.04-1.31,5.97-2.94,9.11-3.91,13.47-4.18,26.98-8.21,40.5-12.22,13.21-3.92,26.64-6.8,40.38-8.17,9.38-.93,18.73-2.12,28.09-3.2,1.77-.2,3.54-.43,5.3-.68,1.33-.19,1.76-.85.97-2.19-.92.1-1.83.22-2.75.29-9.74.7-19.5,1.21-29.22,2.15-6.75.65-13.53,1.48-20.14,2.91-9.79,2.11-19.47,4.74-29.14,7.32-13.06,3.48-25.91,7.65-38.36,12.96-2.73,1.17-4.89,2.98-6.58,5.39-.07.02-.15.03-.21.07-.03.02-.03.09-.04.14.07-.08.14-.17.2-.25ZM363.26,123.68c1.24.31,2.11.61,3,.75,7.79,1.22,15.59,2.39,23.37,3.62,7.87,1.25,15.81,2.2,23.59,3.91,13.25,2.91,26.4,6.3,39.59,9.49.92.22,1.85.45,3.17.77-.79-1.49-1.57-2.12-2.68-2.52-5.02-1.83-9.99-3.81-15.04-5.58-10.56-3.71-21.65-4.85-32.62-6.52-6.87-1.04-13.79-1.8-20.67-2.81-7.06-1.04-14.13-1.79-21.71-1.1ZM487.79,156.63c-.05.1-.09.19-.14.29.88.61,1.75,1.23,2.64,1.82,7.94,5.18,15.2,11.18,21.6,18.17,9.57,10.45,16.08,22.49,18.75,36.48.68,3.56,1.14,7.16,1.71,10.78.89-7.72-.42-15.11-3.05-22.3-3.98-10.86-10.2-20.33-18.07-28.74-6.26-6.69-13.48-12.14-21.85-15.98-.51-.23-1.07-.34-1.6-.51ZM519.41,204.52c2.44,4.04,4.78,7.95,7.17,11.83.18.29.71.36,1.07.54.12-.12.24-.24.36-.37-2.24-4.32-4.47-8.63-6.77-13.06-.75.43-1.23.7-1.84,1.05Z"/>
      <path class="cls-2" d="M170.54,325.22c2.27,3.92,1.79,6.05-1.92,7.67-3.73,1.63-7.61,2.93-11.44,4.31-3.44,1.23-6.92,2.36-10.37,3.54-.45.16-.89.38-1.86.79,3.49.6,6.36.12,9.2-.47,4.78-.99,9.2-2.98,13.62-4.97,1.01-.45,2.01-.93,3.03-1.34,3.63-1.46,7.58-.83,9.95,4.17-.89.41-1.78.85-2.69,1.22-10.4,4.23-21,7.84-32.02,10.15-5,1.05-10.08,1.63-15.17,1.61-6.82-.02-13.5-1.33-20.11-2.95-13.95-3.41-26.96-8.88-38.34-17.79-11.81-9.24-21.11-20.65-28.5-33.65-6.22-10.94-10.7-22.55-13.06-34.93-2.13-11.18-2.51-22.42-.89-33.71,3.01-21.06,11.07-40.04,23.87-56.96,13.33-17.63,30.93-29.1,52.15-35.12,1.79-.51,3.64-.81,5.47-1.16,4.7-.89,8.46.85,11.67,4.18,1.18,1.22,2.33,2.5,3.69,3.49,3.04,2.22,5.92,2.13,8.93-.11.88-.66,1.77-1.37,2.45-2.21,4.16-5.12,9.51-6.58,15.76-5.08,19.1,4.58,35.68,13.58,48.87,28.31,8.2,9.16,14.35,19.63,18.66,31.1,3.02,8.03,5.7,16.18,8.3,24.35.7,2.2.57,4.66.84,7.13-5.06,2.22-9.84,4.32-14.93,6.55-.27-1.65-.63-2.96-.67-4.28-.46-14.1-4.78-27.02-12-39.02-4.3-7.16-9.2-13.88-15.33-19.64-3.68-3.46-7.74-6.4-12.14-8.84-10-5.55-20.51-9.9-31.68-12.5-10.84-2.53-21.59-2.25-32.05,1.92-6.78,2.71-13.63,5.3-20.25,8.36-11.21,5.19-19.96,13.38-27.31,23.21-9.2,12.3-15.73,25.8-18.52,40.97-1.43,7.79-2,15.63-1.5,23.57.42,6.63,1.31,13.16,2.62,19.67,1.52,7.59,4.44,14.62,8.26,21.29,4.8,8.38,10.71,15.95,17.41,22.88,7.68,7.94,16.93,13.62,26.98,18.02,6.07,2.66,12.27,4.98,18.79,6.36,11.87,2.52,23.51,1.57,34.88-2.42,4.15-1.46,8.11-3.49,12.14-5.28,1.7-.75,3.37-1.55,5.21-2.4ZM56.16,181.11c.78-.76,1.62-1.47,2.33-2.29,4.68-5.4,9.7-10.45,15.2-15.02,9.94-8.25,21.05-14.26,33.62-17.44,1.51-.38,3.01-.77,4.51-1.15-.9-.5-1.79-.73-2.7-.8-3.71-.29-7.29.48-10.73,1.73-14.14,5.17-26.3,13.35-36.35,24.55-2.02,2.25-3.51,4.98-5.1,7.58-.5.81-.52,1.91-.76,2.88-.04.05-.09.1-.13.16.03-.06.07-.13.1-.19Z"/>
      <path class="cls-2" d="M371.71,353.58c.58.27,1.24.45,1.74.83,4.2,3.17,8.38,6.39,12.56,9.58.54.41,1.07.89,1.68,1.14.33.13.83-.15,1.8-.38-5.6-5.32-10.84-10.31-16.09-15.29.06-.17.12-.33.19-.5,5,.85,10.01,1.69,15.15,2.57.29-.62.55-1.19.89-1.93-5.05-2.85-9.98-5.63-15.49-8.75,2.46-.77,4.33-1.36,6.79-2.13-2.55-1.31-4.54-2.33-6.52-3.35.03-.17.05-.35.08-.52,6.49-1.28,12.98-2.57,19.57-3.87-.42-1.58-1.5-1.22-2.33-1.22-5.27-.03-10.54-.01-15.81-.01-.92,0-1.85,0-3.08,0,.07-4.65-.39-9.1,3.09-12.79,2.73-2.9,5.25-6,7.96-9.14-.39-.45-.75-.86-1.15-1.32-.38.25-.7.39-.93.61-3.17,2.96-6.31,5.94-9.49,8.88-.61.56-1.32,1-1.99,1.5-.06-.06-.12-.12-.19-.18.7-2.17,1.29-4.38,2.13-6.5,3.14-7.99,7.34-15.33,13.72-21.22,6.21-5.74,13.48-9.44,21.84-10.79,3.74-.61,7.24.37,10.38,2.56,2.5,1.75,4.98,3.54,7.58,5.13,3.67,2.25,5.49,5.27,5.22,9.7-.51,8.4-1.78,16.58-6.22,23.9-4.72,7.79-11.11,13.45-20.36,15.26-3.16.62-6.32,1.27-9.47,1.94-1.99.42-3.98.86-5.95,1.39-.55.15-1.3.6-1.42,1.06-.24.88.62,1,1.3,1.16,5.45,1.31,10.9,2.56,16.32,3.97,1.95.51,3.95,1.12,5.66,2.14,5.98,3.57,10.41,8.65,13.71,14.76,2.21,4.09,2.34,8.38,1.69,12.86-.58,4.03-1.02,8.08-.48,12.17.46,3.48-1.45,5.83-4.08,7.66-3.47,2.4-7.38,3.81-11.47,4.76-6.28,1.46-12.56,1.73-18.93.41-6.49-1.35-11.53-4.7-15.39-10.05-4.46-6.18-7.11-13.1-8.72-20.48-.6-2.73-1.1-5.49-1.7-8.22-.64-2.89-.3-5.73.41-9.06.65.77,1.13,1.26,1.51,1.82,3.14,4.75,6.25,9.52,9.38,14.28.47.71.89,1.47,1.47,2.07.28.29.91.24,1.86.46-.65-1.34-1.03-2.18-1.45-2.99-2.07-4-4.16-7.99-6.22-11.99-.3-.59-.47-1.24-.71-1.87h-.01ZM379.93,319.57c.66,1.82,1.77,1.34,2.7,1.16,5.33-1,10.23-3.16,14.84-5.93,4.08-2.45,8.03-5.11,12.03-7.69.69-.44,1.61-.87.5-2.1-9.97,4.83-19.96,9.66-30.07,14.56Z"/>
      <path class="cls-2" d="M177.4,171.27c-8.99,11.37-16.53,23.29-19.24,37.76.4-.71.82-1.41,1.2-2.13,3.01-5.81,6.01-11.62,9.01-17.43,2.7-5.22,6.85-9.28,10.94-13.36,1.6-1.6,3.82-1.5,5.46.16,1.74,1.75,3.36,3.61,4.99,5.46,2.52,2.86,5,5.76,7.71,8.87-.86.64-1.55,1.22-2.3,1.71-3.56,2.33-7.17,4.57-10.68,6.97-4.19,2.86-7.77,6.33-10.12,10.92-.36.71-.62,1.48-1.06,2.54,2.91-.3,5.17-1.24,7.18-2.63,2.86-1.98,5.63-4.1,8.37-6.24,3.51-2.74,7.15-5.2,11.61-6.14.4-.08.82-.09,1.42-.16.7,2.32,1.43,4.57,2.07,6.84,2.07,7.35,4.25,14.68,6.1,22.08,1.46,5.85,1.31,11.75-.4,17.62-2.56,8.83-3.89,17.9-4.94,27.01-.28,2.42-.52,4.84-.82,7.57-.93-.39-1.61-.63-2.26-.95-8.46-4.22-15.73-10.08-22.42-16.66-4.18-4.11-8.1-8.48-12.11-12.76-.69-.74-1.32-1.56-1.89-2.4-3.33-4.89-3.48-9.96-.75-15.16,2.29-4.36,4.58-8.73,6.86-13.1.43-.82.79-1.67,1.34-2.82-2.57-.1-4.55.8-6.14,2.28-1.41,1.31-2.55,2.94-3.67,4.53-1.07,1.53-1.93,3.2-2.95,4.77-.53.82-1.21,1.54-1.96,2.47-2.52-3.02-3.55-6.3-4.28-9.71-.98-4.58-.46-9.14.53-13.64,1.75-7.93,4.35-15.53,9.05-22.28,3.52-5.06,8.02-8.97,13.47-11.83.2-.1.45-.12.67-.18ZM162.31,217.09c2.95-5.64,5.83-11.17,8.8-16.86-.91-.32-1.51-.53-2.18-.76-2.89,5.64-5.7,11.12-8.57,16.71.75.35,1.25.58,1.96.91Z"/>
      <path class="cls-2" d="M362.55,315.98c-.14-5.75-.29-11.49-.45-17.24,0-.05-.3-.1-.62-.2-.81.54-.79,1.5-.93,2.38-.73,4.61-1.43,9.22-2.18,13.83-.13.81-.4,1.61-.59,2.33-1.34.26-1.38-.64-1.58-1.35-1.15-4.17-2.27-8.35-3.41-12.53-.42-1.56-.84-3.12-1.29-4.66-.19-.65-.23-.63-1.76-1.09.44,7.11,2.15,13.93,2.77,21.03-.59.3-1.16.59-2.02,1.03-2.82-6.01-5.59-11.89-8.44-17.95-.73.36-1.29.63-2.08,1.02.75,1.94,1.44,3.75,2.16,5.54.73,1.81,1.59,3.57,2.22,5.41.93,2.71,1.05,5.46-.23,8.38-.53-.44-1.02-.72-1.36-1.13-2.07-2.47-4.13-4.96-6.16-7.47-1.24-1.53-2.62-2.82-4.41-3.77-6.16-3.29-10.12-8.41-12.09-15.09-1.45-4.92-2.25-9.93-2.12-15.07.06-2.51.52-4.93,1.96-7.2.45,4.07.9,8.14,1.35,12.21.16.03.32.05.48.08.13-.56.33-1.12.39-1.68.66-5.99,1.36-11.97,1.91-17.96.38-4.18,2.2-7.67,5-10.63,2.22-2.34,4.63-4.51,7.12-6.56,2.82-2.31,6.2-2.12,9.5-1.41,4.33.93,7.74,3.4,10.43,6.87.57.73,1.13,1.45,1.84,2.35,1.14-1.11,2.17-.66,3.3-.18,2.69,1.14,4.62,2.91,6.04,5.53,4.4,8.14,6.51,16.76,5.9,25.98-.41,6.06-1.95,11.89-4.36,17.47-1.45,3.36-2.96,6.68-4.49,10-.33.71-.83,1.34-1.25,2.01l-.54-.27Z"/>
      <path class="cls-2" d="M317.61,315.81c.91.72,1.74,1.6,2.76,2.12,2.57,1.31,5.27,2.38,7.84,3.68,1.51.76,2.95,1.68,4.3,2.71,1.45,1.1,2.39,2.63,2.9,4.4.74,2.58.63,2.84-1.99,4.49-.53-1.14-1.06-2.26-1.75-3.75-.77,1.23-1.36,2.18-2.16,3.46,3.8.28,6.37,1.94,8.21,5.31-8.09,2.37-16.19,4.01-24.24,6.27.1.72.17,1.26.29,2.16,7.36-1.5,14.56-2.96,21.92-4.46-.09.47-.06.74-.18.89-3.7,4.47-7.8,8.53-12.61,11.81-7.08,4.83-14.88,6.97-23.42,5.92-4.12-.51-8.19-1.37-12.29-2.04-2.03-.33-3.67-1.35-4.96-2.9-3.76-4.52-6.73-9.35-6.7-15.56.01-2.62-.83-5.13-1.97-7.57-3.42-7.4-2.96-14.53,2.17-21.06,2.1-2.68,5.09-4.24,8.19-5.46,11.2-4.39,22.4-4.43,33.47.44,4.91,2.16,9.03,5.39,12.12,9.85.32.47.57.99,1.07,1.89-2.94-.64-5.47-1.22-8.01-1.73-1.65-.33-3.33-.54-5-.81-.06-.04-.12-.08-.18-.13.07.03.14.06.21.1ZM329.04,332.81c-.48-1.12-.91-2.13-1.43-3.37-2.43,1.94-4.56,3.65-6.7,5.36.06.1.13.2.19.31,2.56-.74,5.13-1.48,7.94-2.29Z"/>
      <path class="cls-2" d="M331.37,383.15c5.44-5.38,10.5-11.06,14.44-17.67,2.13-3.57,4.4-7.05,6.63-10.56.21-.33.6-.54.91-.81,0,0-.04-.04-.04-.04-.2,2.95-.31,5.91-.62,8.85-.76,7.17-1.61,14.33-2.44,21.49-.24,2.11-.53,4.21-.77,6.31-.09.76-.17,1.52-.14,2.28,0,.25.35.69.55.7.36,0,.87-.15,1.04-.41.26-.4.29-.96.39-1.45,1.87-9.14,3.72-18.29,5.59-27.43.1-.47.27-.93.47-1.61,1.56,1.16,2.2,2.39,2.14,4.18-.26,8.06-.34,16.14-.65,24.2-.15,3.9-.65,7.78-1.01,11.66-.32,3.51-1.76,6.58-4.08,9.16-5.44,6.04-12.06,10.25-20.11,11.74-5.53,1.02-11.53-.54-14.94-6.39-2.69-4.62-5.37-9.27-7.69-14.08-3.97-8.23-3.41-16.67-.19-24.98,3.62-9.35,10.05-16.19,19.01-20.75,3.01-1.53,5.81-3.5,8.69-5.29.92-.57,1.8-1.22,2.65-1.81,1.94,1.93,1.95,1.94.62,3.67-2.85,3.71-5.71,7.4-8.56,11.11-.3.39-.53.82-.83,1.29,1.17.78,1.65-.14,2.21-.66,3.76-3.45,7.5-6.92,11.25-10.37.37-.34.79-.61,1.16-.9,1.6,1.12,1.67,1.17.75,2.5-2.32,3.35-4.81,6.6-7.06,9.99-3,4.53-5.86,9.14-8.71,13.76-.41.67-.43,1.57-.63,2.37-.1.06-.2.13-.3.19.05,0,.13.02.16-.01.05-.06.07-.14.1-.22Z"/>
      <path class="cls-2" d="M542.93,232.15c.61,2.5,1.07,4.36,1.52,6.21-1.38,1.02-2.68,1.84-3.81,2.85-5.79,5.2-7.62,11.78-5.14,18.96,2.04,5.91,1.01,11.01-1.98,16.03-2.13,3.57-4.48,7-6.91,10.77-.9-.6-1.65-1.08-2.37-1.6-2.57-1.82-5.31-3.3-8.26-4.48-8.41-3.37-19.48,4.12-19.7,13.54-.09,4.15.91,8.07,2.19,11.96.31.96.67,1.9,1.09,3.09-4.98,3.51-9.88,6.97-15.07,10.64-.99-1.68-1.89-3.17-2.78-4.69-1.28-2.2-2.37-4.54-3.86-6.58-4.41-6.06-9.93-7.89-17.23-6.05-6.68,1.67-10.43,6.38-12.84,12.39-1.45,3.6-1.97,7.37-1.04,11.24.18.74.3,1.5.39,2.26.41,3.59-1.07,5.95-4.55,6.92-2.28.63-4.64,1.01-6.97,1.49-8.23,1.69-16.46,3.37-24.69,5.05-.41.08-.82.11-1.19.16-1.16-1.93-1.17-2.13.25-3.16.75-.55,1.55-1.08,2.41-1.41,10.13-3.88,16.13-11.52,19.64-21.44.54-1.52,1.02-3.06,1.48-4.61,1.09-3.64,3.5-5.97,7.1-7.04,4.23-1.26,8.51-2.34,12.74-3.62,16.44-4.98,32.07-11.74,46.36-21.37,13.04-8.78,24.15-19.52,32.9-32.64,2.83-4.24,5.69-8.46,8.56-12.68.41-.61.92-1.16,1.76-2.19Z"/>
      <path class="cls-2" d="M233.39,273.27c-1.55,3.38-3.1,6.76-4.55,9.93,1.23,2.49,2.37,4.76,3.46,7.05.77,1.61.47,3.12-.53,4.56-.97,1.39-1.9,2.8-2.89,4.28-1.64-.44-2.83-1.35-3.72-2.6-3.11-4.36-6.36-8.62-9.2-13.15-4.08-6.49-5.28-13.67-4.25-21.27.9-6.64,2.88-12.89,6.09-18.77.36-.66.56-1.41.86-2.11.73-1.72,1.34-3.5,2.25-5.12,1.88-3.37,4.84-4.44,8.45-3.05,1.73.67,3.39,1.58,4.94,2.6,3.84,2.51,7.57,5.19,11.39,7.73,4.36,2.9,7.25,6.88,8.68,11.88,1.77,6.17,2.61,12.45,1.46,18.86-1.25,6.97-5.01,12.35-10.74,16.38-2.45,1.73-4.57,1.19-5.82-1.57-1.15-2.54-1.98-5.23-2.88-7.88-.87-2.56-1.66-5.14-2.49-7.71-.17-.01-.34-.02-.51-.03Z"/>
      <path class="cls-2" d="M208.43,323.08c3.72,1.41,6.92,2.63,10.07,3.82-.84,5.61-6.03,10.19-11.56,10.3-2.03.04-4.07-.21-6.09-.46-3.45-.42-6.9-.88-10.34-1.41-6.47-1-10.88-4.92-14.13-10.32-2.96-4.92-4.84-10.3-6.36-15.79-.7-2.52-1.27-5.1-1.59-7.69-.33-2.71.85-4.94,2.89-6.76,3.3-2.94,7.12-4.9,11.31-6.2,7.68-2.4,15.46-3.24,23.36-1.32,3.33.81,6.52,1.97,8.67,5.22-.46.37-.87.73-1.32,1.05-.77.54-1.59.99-2.33,1.56-3,2.31-3.21,3.94-.64,6.7.99,1.06,1.3,2.13,1.14,3.46-.18,1.5-.36,3-.55,4.61,4.94,1.61,9.74,3.18,14.54,4.74,0,.17.02.34.03.5-5.54,2.59-11.09,5.18-17.1,7.99Z"/>
      <path class="cls-2" d="M232.39,343.09c1.19-1.9,2.17-3.46,3.25-5.17.59.18,1.19.36,1.98.6-.82,3.77-1.61,7.4-2.41,11.03-.59,2.65-1.22,5.29-1.78,7.95-.31,1.5-.27,1.51,1.29,2.19,3.18-5.23,4.59-11.04,5.43-17.26.87-.04,1.67-.09,2.56-.13.12.54.28.94.28,1.33.03,5.52.18,11.05.03,16.57-.3,11.67-6.92,19.84-18.24,22.85-3.03.81-6.03,1.76-9.04,2.65-.33.1-.64.23-.97.32-5.04,1.44-7.66-.1-8.57-5.26-.57-3.24-1.72-6.11-3.56-8.88-6.54-9.85-3.93-24.67,5.36-31.71,2.74-2.08,5.52-2.96,9.02-1.9,2.13.65,4.53.47,6.81.59,1.53.08,3.07.11,4.59-.01,1.42-.11,2.24.42,2.71,1.73.27.76.71,1.46,1.24,2.5ZM213.93,372.94c1.93-2.73,3.86-5.45,5.91-8.36-1.07-.55-1.78-.92-2.67-1.38-.82,2.2-1.61,4.15-2.29,6.14-.4,1.18-.62,2.42-.93,3.64l-.26.21s.12,0,.14-.04c.04-.06.06-.14.08-.21Z"/>
      <path class="cls-2" d="M274.52,304.93c.94-1.97,1.88-3.94,3.07-6.45-1.93.71-3.41,1.2-4.85,1.79-2.43,1-4.82,2.13-7.27,3.06-5.02,1.9-7.48.48-8.65-4.77-.38-1.7-.34-3.27.22-4.96,1.18-3.54,2.03-7.18,3.18-10.72,1.9-5.86,5.63-10.04,11.25-12.79,7.21-3.53,14.78-4.08,22.56-3.53,2.02.14,4.05.41,6.05.79,3.04.58,4.94,2.56,4.82,5.65-.21,5.16-.39,10.37-1.33,15.43-1.38,7.46-5.86,11.01-13.45,11.53-2.85.19-5.44,1.21-8.03,2.29-2.42,1.01-4.85,1.98-7.28,2.97-.1-.1-.19-.2-.29-.29ZM266.13,296.74c4.3-3.12,8.34-6.04,12.45-9.03-.49-.64-.79-1.02-1.21-1.57-4.23,2.83-8.38,5.6-12.64,8.44.49.76.85,1.3,1.4,2.15Z"/>
      <path class="cls-2" d="M151.36,83.79c-6.66,17.94-13.22,35.64-19.8,53.34-.96.19-1.78.35-2.91.57-6.69-17.85-12.95-35.81-19.64-53.92h42.34Z"/>
      <path class="cls-2" d="M252.92,351.97c2.03-.64,2.51-1.07,2.1-2.67-.6-2.36-1.44-4.69-2.36-6.95-1-2.44-2.2-4.8-1.95-7.55.02-.25.1-.49.16-.79.24-.05.47-.17.69-.13,3.34.52,4.78-.51,5.14-3.84.15-1.4.03-2.84.03-4.53,4.8,1.25,8.39,3.72,11.37,7.06,2.84,3.18,4.43,6.85,4.65,11.28.42,8.54,4.69,14.74,12.43,18.42,2.69,1.27,4.9,2.96,6.72,5.72-2.83,1.71-5.06,4.06-8.59,4.61-3.69.58-7.32,1.46-11.08,1.35-7.38-.22-13.23-3.28-17.47-9.36-3.22-4.6-4.97-9.82-6.55-15.12-.32-1.06-.63-2.12-.86-3.2-.14-.65-.28-1.39-.1-1.99.16-.54.67-1.18,1.18-1.38.82-.32,1.12.43,1.38,1.1,1,2.61,2.03,5.21,3.11,7.98Z"/>
      <path class="cls-2" d="M451.39,323.8c-.02-5.6,1.69-10.5,5.94-14.34,4.98-4.5,14.2-5.46,19.13,2.61,4.05,6.62,4.06,13.55.6,20.39-1.98,3.92-5.49,5.84-9.82,6.4-2.4.31-4.74.25-7.01-.52-5.82-1.99-8.11-6.57-8.82-12.25-.09-.75-.01-1.53-.01-2.29Z"/>
      <path class="cls-2" d="M119.67,126.71c-5.57-4.46-9.97-9.15-14.08-14.14-4.6-5.57-9.26-11.08-13.9-16.61-3.33-3.97-6.68-7.92-10.01-11.9-.37-.44-.68-.95-1.18-1.65.74-.13,1.27-.3,1.8-.3,4.93-.02,9.86.01,14.8-.02,4.22-.02,7.05,1.75,8.53,5.85,4.49,12.37,9.1,24.69,13.66,37.04.14.37.18.78.39,1.73Z"/>
      <path class="cls-2" d="M157.48,278.36c-3.31-3.16-4.62-6.81-4.38-11,.07-1.14.6-2.26.95-3.38.73-2.34,1.76-4.63,2.15-7.02.76-4.66-1.07-8.69-3.93-12.25-2.87-3.57-4.45-7.77-6.34-12.09.96-.63,1.86-1.21,2.95-1.93,4.76,10.03,10.5,19.23,17.81,27.37,7.22,8.04,15.11,15.38,24.42,21.14-2.98,2.65-8.55,2.7-11.39.22-1.02-.89-1.9-1.94-2.84-2.93-2.94-3.11-6.58-3.85-10.52-2.71-2.17.63-4.18,1.82-6.22,2.85-.9.45-1.7,1.1-2.66,1.74Z"/>
      <path class="cls-2" d="M150.31,77.38h-39.89c.12-.42.12-.77.3-.99,5.28-6.42,10.58-12.82,15.88-19.22,1.2-1.45,2.69-2.56,4.62-2,1.15.34,2.32,1.12,3.14,2,2.43,2.61,4.76,5.3,6.99,8.08,2.65,3.31,5.16,6.73,7.71,10.12.39.51.68,1.09,1.24,2Z"/>
      <path class="cls-2" d="M178.1,83.72c-2.17,2.58-4.33,5.17-6.51,7.74-5.23,6.15-10.48,12.28-15.69,18.45-4.6,5.46-9.13,10.96-13.71,16.44-.54.65-1.08,1.33-1.73,1.86-.29.24-.85.15-1.77.27.49-1.22.83-2.05,1.16-2.88,4.49-11.19,8.98-22.38,13.47-33.57.57-1.42,1.03-2.89,1.71-4.25,1.32-2.68,3.33-4.57,6.49-4.62,5.43-.07,10.86-.02,16.29-.02.09.19.18.38.28.57Z"/>
      <path class="cls-2" d="M521.79,296.18c.01,3.98-1.14,7.5-4.11,10.31-4.78,4.52-12.61,3.38-15.69-2.42-1.95-3.67-2.34-7.63-1.05-11.61,2.07-6.39,9.44-9.58,15.55-6.75,3.54,1.64,4.85,4.79,5.29,8.43.08.67.01,1.36.01,2.04Z"/>
      <path class="cls-2" d="M104.48,76.82c-8.19-.51-15.92-.99-24.13-1.5,2.08-3.94,4.72-7.09,6.99-10.47,2.31-3.43,4.74-6.77,7.41-10.56,3.31,7.66,6.44,14.9,9.73,22.53Z"/>
      <path class="cls-2" d="M182.14,76.35h-24.99c3.14-6.9,6.17-13.56,9.41-20.68,5.29,7.02,10.27,13.62,15.59,20.68Z"/>
      <path class="cls-2" d="M153.74,74.47c-5.16-6.83-9.94-13.15-14.96-19.79h23.78c-2.69,6.62-5.77,12.87-8.82,19.79Z"/>
      <path class="cls-2" d="M123.36,54.66c-5.45,6.63-10.53,12.81-15.94,19.39-2.72-6.72-5.25-12.95-7.86-19.39h23.8Z"/>
      <path class="cls-2" d="M179.41,282.65c-4.31,3.16-8.66,6.35-13.04,9.56-2.45-1.67-3.8-3.84-4.38-6.5-.14-.63-.05-1.36.13-2,.84-3.08,3.03-5.09,5.75-6.45,1.48-.75,3.18-.54,4.6.49.96.7,1.81,1.55,2.78,2.23,1.3.91,2.66,1.71,4.17,2.67Z"/>
      <path class="cls-2" d="M155.26,253.84c-2.48,2.8-4.7,5.3-7.13,8.03-1.85-2.16-3.69-4.03-5.17-6.15-.82-1.18-1.29-2.75-1.48-4.21-.27-2.08.57-3.93,2.58-4.79,1.92-.82,3.89-.58,5.43.94,1.91,1.9,3.69,3.94,5.76,6.17Z"/>
      <path class="cls-2" d="M536.95,253.96c2.69-2.59,5.17-4.97,7.92-7.62,1.32,1.3,2.83,2.73,4.26,4.23.81.85.57,1.89.19,2.87-1.14,2.95-3.14,5.34-5.1,8.19-2.55-2.7-4.9-5.17-7.28-7.68Z"/>
      <path class="cls-2" d="M370.31,317.47c-.12.05-.24.1-.36.15.06-.11.11-.22.17-.33.06.06.13.12.19.18Z"/>
      <path class="cls-2" d="M371.72,353.57c-.06-.03-.14-.04-.19-.08-.03-.02,0-.1,0-.15.06.08.12.16.18.25,0,0,.01-.01.01-.01Z"/>
      <path class="cls-2" d="M353.35,354.1c.02-.06.03-.13.07-.17.02-.02.08-.01.13-.01-.08.05-.16.1-.24.15,0,0,.04.04.04.04Z"/>
      <path class="cls-2" d="M318.34,301.31c0,.19,0,.39,0,.58-.14-.06-.27-.12-.41-.18.14-.13.28-.27.42-.4Z"/>
      <path class="cls-2" d="M274.81,305.22l-.34.22c.02-.17.03-.34.05-.52.1.1.2.19.29.29Z"/>
      <path class="cls-1" d="M208.35,153.59c1.69-2.41,3.85-4.23,6.58-5.39,12.45-5.31,25.29-9.47,38.36-12.96,9.68-2.58,19.36-5.2,29.14-7.32,6.62-1.43,13.39-2.27,20.14-2.91,9.72-.93,19.48-1.45,29.22-2.15.92-.07,1.83-.19,2.75-.29.79,1.34.36,2-.97,2.19-1.76.25-3.53.47-5.3.68-9.36,1.08-18.71,2.27-28.09,3.2-13.74,1.37-27.17,4.25-40.38,8.17-13.52,4.01-27.03,8.04-40.5,12.22-3.14.97-6.07,2.61-9.11,3.91-.6.26-1.25.41-1.88.61l.04.04Z"/>
      <path class="cls-1" d="M363.26,123.68c7.58-.7,14.64.06,21.71,1.1,6.88,1.01,13.8,1.77,20.67,2.81,10.97,1.67,22.07,2.81,32.62,6.52,5.04,1.77,10.01,3.75,15.04,5.58,1.11.4,1.89,1.03,2.68,2.52-1.32-.32-2.24-.54-3.17-.77-13.19-3.19-26.33-6.59-39.59-9.49-7.77-1.71-15.72-2.66-23.59-3.91-7.79-1.23-15.58-2.4-23.37-3.62-.89-.14-1.76-.43-3-.75Z"/>
      <path class="cls-1" d="M487.79,156.63c.54.17,1.1.28,1.6.51,8.37,3.84,15.59,9.29,21.85,15.98,7.86,8.41,14.09,17.88,18.07,28.74,2.63,7.19,3.94,14.58,3.05,22.3-.57-3.62-1.03-7.22-1.71-10.78-2.68-13.98-9.18-26.03-18.75-36.48-6.41-6.99-13.66-12.99-21.6-18.17-.89-.58-1.76-1.21-2.64-1.82.05-.1.09-.19.14-.29Z"/>
      <path class="cls-1" d="M519.41,204.52c.61-.35,1.09-.62,1.84-1.05,2.29,4.42,4.53,8.74,6.77,13.06-.12.12-.24.24-.36.37-.37-.17-.89-.25-1.07-.54-2.39-3.88-4.74-7.79-7.17-11.83Z"/>
      <path class="cls-1" d="M208.31,153.55c-.07.08-.14.17-.2.25.01-.05,0-.12.04-.14.06-.04.14-.05.21-.07,0,0-.04-.04-.04-.04Z"/>
      <path class="cls-1" d="M56.19,181.14c.24-.97.26-2.07.76-2.88,1.59-2.6,3.09-5.33,5.1-7.58,10.05-11.2,22.21-19.38,36.35-24.55,3.44-1.26,7.02-2.02,10.73-1.73.9.07,1.8.3,2.7.8-1.5.38-3.01.77-4.51,1.15-12.57,3.19-23.68,9.19-33.62,17.44-5.5,4.57-10.53,9.62-15.2,15.02-.71.82-1.55,1.53-2.33,2.29l.03.03Z"/>
      <path class="cls-1" d="M56.16,181.11c-.03.06-.07.13-.1.19.04-.05.09-.1.13-.16,0,0-.03-.03-.03-.03Z"/>
      <path class="cls-1" d="M379.93,319.57c10.12-4.9,20.1-9.73,30.07-14.56,1.1,1.23.18,1.66-.5,2.1-4,2.58-7.95,5.24-12.03,7.69-4.61,2.77-9.51,4.92-14.84,5.93-.93.18-2.04.66-2.7-1.16Z"/>
      <path class="cls-1" d="M162.31,217.09c-.7-.33-1.21-.56-1.96-.91,2.87-5.6,5.68-11.07,8.57-16.71.67.24,1.27.44,2.18.76-2.97,5.69-5.85,11.21-8.8,16.86Z"/>
      <path class="cls-1" d="M329.04,332.81c-2.81.81-5.38,1.55-7.94,2.29-.06-.1-.13-.2-.19-.31,2.14-1.71,4.27-3.42,6.7-5.36.53,1.24.96,2.26,1.43,3.37Z"/>
      <path class="cls-1" d="M317.61,315.81c-.07-.03-.14-.06-.21-.1.06.04.12.08.18.13,0,0,.03-.03.03-.03Z"/>
      <path class="cls-1" d="M331.37,383.15c-.03.07-.05.16-.1.22-.02.03-.1.01-.16.01.1-.06.2-.13.3-.19,0,0-.04-.04-.04-.04Z"/>
      <path class="cls-1" d="M213.97,372.98c.3-1.22.53-2.46.93-3.64.67-1.99,1.46-3.94,2.29-6.14.89.46,1.6.83,2.67,1.38-2.06,2.91-3.98,5.63-5.91,8.36,0,0,.04.04.04.04Z"/>
      <path class="cls-1" d="M213.93,372.94c-.03.07-.04.15-.08.21-.02.03-.09.03-.14.04.09-.07.17-.14.26-.21,0,0-.04-.04-.04-.04Z"/>
      <path class="cls-1" d="M266.13,296.74c-.55-.85-.91-1.39-1.4-2.15,4.26-2.85,8.41-5.62,12.64-8.44.42.55.72.93,1.21,1.57-4.12,2.98-8.15,5.91-12.45,9.03Z"/>
    </g>
  </g>
</svg>