<svg xmlns="http://www.w3.org/2000/svg" viewBox="0 0 200 200" fill="none">
  <g stroke="#D46E9E" stroke-width="1.5" stroke-linecap="round" stroke-linejoin="round" opacity="0.7">
    <!-- Main Peony Flower -->
    <path d="M100 80 C90 60, 70 55, 65 70 C60 85, 75 95, 100 90" />
    <path d="M100 80 C110 60, 130 55, 135 70 C140 85, 125 95, 100 90" />
    <path d="M100 85 C85 70, 60 75, 60 90 C60 105, 80 110, 100 100" />
    <path d="M100 85 C115 70, 140 75, 140 90 C140 105, 120 110, 100 100" />
    <path d="M100 90 C80 85, 55 95, 58 115 C61 135, 85 130, 100 115" />
    <path d="M100 90 C120 85, 145 95, 142 115 C139 135, 115 130, 100 115" />
    
    <!-- Center details -->
    <circle cx="100" cy="95" r="8" />
    <circle cx="100" cy="95" r="4" fill="#D46E9E" />
    
    <!-- Leaves -->
    <path d="M65 115 C45 125, 30 145, 40 160 C50 175, 75 165, 85 140" />
    <path d="M70 120 C55 130, 45 145, 52 155" />
    
    <path d="M135 115 C155 125, 170 145, 160 160 C150 175, 125 165, 115 140" />
    <path d="M130 120 C145 130, 155 145, 148 155" />
    
    <!-- Small decorative flowers -->
    <circle cx="45" cy="50" r="12" />
    <circle cx="45" cy="50" r="6" />
    <path d="M45 38 C45 32, 50 28, 55 35" />
    <path d="M45 38 C45 32, 40 28, 35 35" />
    
    <circle cx="155" cy="55" r="10" />
    <circle cx="155" cy="55" r="5" />
    
    <!-- Buds -->
    <path d="M30 90 C20 85, 15 95, 25 105 C35 115, 40 105, 35 95" />
    <path d="M170 95 C180 90, 185 100, 175 110 C165 120, 160 110, 165 100" />
    
    <!-- Decorative stems and vines -->
    <path d="M85 140 C75 155, 60 165, 50 180" />
    <path d="M115 140 C125 155, 140 165, 150 180" />
    
    <!-- Small dots for decoration -->
    <circle cx="55" cy="170" r="2" fill="#D46E9E" />
    <circle cx="145" cy="175" r="2" fill="#D46E9E" />
    <circle cx="35" cy="70" r="1.5" fill="#D46E9E" />
    <circle cx="165" cy="75" r="1.5" fill="#D46E9E" />
  </g>
</svg>
