<?xml version="1.0" encoding="UTF-8"?>
<svg id="Layer_2" data-name="Layer 2" xmlns="http://www.w3.org/2000/svg" viewBox="0 0 538.32 456.08">
  <defs>
    <style>
      .cls-1 {
        fill: #fffeff;
      }

      .cls-1, .cls-2 {
        stroke-width: 0px;
      }

      .cls-2 {
        fill: #cd6aa7;
      }
    </style>
  </defs>
  <g id="Layer_1-2" data-name="Layer 1">
    <g>
      <path class="cls-1" d="M538.32,456.08H0C0,304.05,0,152.03,0,0c179.44,0,358.88,0,538.32,0v456.08ZM428.37,382.11c.11.09.21.18.32.27-.04-.16-.07-.32-.11-.48-1.07-2.26-2.68-3.98-4.64-5.57-2.48-2.01-5.15-3.48-8.17-4.37-1.68-.5-3.41-.93-5.39-.54,4.13,2.51,8.07,4.92,12.03,7.29,1.96,1.17,3.97,2.27,5.95,3.39ZM199.76,82.66c.56.52.95.89,1.35,1.25,1.8,1.6,3.68,3.09,6.2,3.32,2.3.21,4.6.37,6.9.54,3.29.25,6.59.35,9.85.78,2.4.32,4.66.97,5.57,3.86.79,2.55.44,5.47-1.63,6.88-1.06.73-2.42,1.01-3.62,1.52-5.02,2.15-7.37,5.8-7.16,11.2.16,4.19.32,8.39.36,12.58.02,2.52-1.33,4.46-3.37,5.74-1.87,1.17-3.95,2.01-5.94,2.99-5.68,2.8-11.45,5.45-17.03,8.45-4.8,2.58-9.49,5.4-14.03,8.41-5.68,3.76-10.63,8.44-15.44,13.24-3.48,3.48-6.71,7.22-9.99,10.91-1.77,1.99-3.53,4.02-5.1,6.17-3.58,4.91-7.16,9.82-10.51,14.89-1.94,2.94-3.56,6.11-5.09,9.29-1.74,3.63-3.48,7.3-4.74,11.11-1.95,5.94-3.77,11.94-5.12,18.04-1.93,8.72-2.66,17.6-2.31,26.55.28,7.26.93,14.45,3.1,21.44,1.72,5.54,3.25,11.13,5,16.66,1.61,5.09,3.33,10.15,5.15,15.17,1.55,4.24,3.21,8.45,5.02,12.58,1.73,3.95,3.68,7.81,5.62,11.66,1.48,2.94,3.16,5.77,4.64,8.71.81,1.59,1.39,3.29,2.19,5.19-1.85-.33-3.33-.78-4.41-1.86-3.08-3.07-6.13-6.18-9.07-9.39-1.83-1.99-3.57-4.09-5.1-6.32-3.55-5.18-7.05-10.39-10.34-15.73-1.89-3.07-3.49-6.35-4.96-9.64-1.91-4.27-3.77-8.59-5.29-13.01-1.78-5.17-3.34-10.43-4.68-15.73-1.01-4.03-1.74-8.16-2.2-12.28-.6-5.35-.29-10.66,3.21-15.19,1.22-1.58,2.66-3,4.02-4.47,1.02-1.1,2.28-2.03,3.09-3.26,1.06-1.6,1.89-3.37,2.62-5.15,1.86-4.58,2.94-9.39,3.15-14.32.35-7.89-.39-15.65-3.93-22.9-1.3-2.66-2.51-5.38-3.92-7.99-1.39-2.57-3.36-3.16-5.68-1.86-.45.25-.89.62-1.2,1.04-.53.69-1.16.7-1.87.48-.43-.13-.85-.33-1.27-.5-5.19-2.1-10.1-1.56-14.62,1.73-.95.69-1.57.58-2.41.04-1.04-.66-2.08-1.36-3.2-1.84-3.43-1.48-6.32-.62-8.36,2.52-1.59,2.44-3.03,4.97-4.6,7.42-1.26,1.95-1.3,1.92-3.41,1.11-.46-.18-.94-.31-1.4-.49-5.67-2.3-11.22-2.02-16.57.92-2.38,1.31-4.63,2.83-5.72,5.56-1.24,3.11-.77,6.16.05,9.22.4,1.49.88,2.97,1.36,4.54-1.22.23-2.3.34-3.32.63-1.8.52-3.66.98-5.35,1.77-2.59,1.21-2.88,4.25-.81,6.26,2.12,2.05,4.26,4.1,6.24,6.29,3.1,3.43,6.53,6.45,10.24,9.21,4.52,3.35,9.6,5.44,14.92,6.96,6.26,1.79,12.6,3.32,18.91,4.93.75.19,1.55.26,2.32.28.92.03,1.64-.24,1.88-1.34.12-.56.57-1.09.98-1.54,1.34-1.46,3.19-1.55,4.99-1.81,1.7-.24,3.56-.14,4.82-1.57.83-.95,1.49-1.09,2.15.01.22.37.29.94.18,1.36-.14.54-.57.99-.78,1.51-1.27,3.13-2.55,6.26-3.73,9.42-.22.59-.25,1.39-.04,1.97,1.6,4.27,3.28,8.51,4.93,12.77,1.77,4.56,3.52,9.13,5.28,13.69,1.63,4.22,3.27,8.43,4.9,12.64,1.69,4.37,3.38,8.75,5.04,13.13,1.15,3.04,2.26,6.11,3.39,9.16.32.86.62,1.73,1.03,2.87-.58-.25-.86-.33-1.08-.48-1.58-1.11-3.16-2.21-4.71-3.36-3-2.23-5.94-4.55-8.99-6.71-4.28-3.04-8.19-6.47-11.11-10.87-2.04-3.08-3.94-6.26-5.79-9.46-1.65-2.84-3.11-5.79-4.73-8.64-2.61-4.61-6.13-8.41-10.45-11.49-5.21-3.71-11.1-5.46-17.39-5.59-4.27-.08-8.59.21-12.81.82-4.1.59-8.18,1.59-12.16,2.79-2.75.83-4.33,3.39-3.41,6.19.18.54.5,1.02.71,1.55,1.86,4.57,3.74,9.12,5.55,13.71,2.3,5.82,5.5,10.98,10.34,15.09,2.62,2.22,5.52,3.9,8.68,5.09,7.02,2.63,14.2,2.68,21.42.89.88-.22,1.87-.69,2.42-1.36,1.37-1.67,2.6-3.47,3.73-5.32,1.02-1.68,1.98-3.4,3.93-4.09,1.11-.39,2.36-.45,2.55-2.3,1.57,2.03,2.89,3.74,4.26,5.51-1.77,1.31-3.39,2.51-5.21,3.85,1.63.52,2.98.89,4.29,1.37,9.42,3.43,18.08,8.29,26.21,14.11,3.33,2.38,6.54,4.94,9.74,7.51,2.18,1.75,4.22,3.67,6.32,5.52,2,1.77,4.06,3.48,5.98,5.34,1.04,1.01,1.85,2.26,2.77,3.4-.14-.25-.57-.31-.96-.45-1.59-.57-3.16-1.17-4.75-1.75-8.5-3.07-17.23-5.02-26.25-5.7-10.54-.79-20.82.45-30.89,3.62-9.18,2.9-17.61,7.32-25.58,12.65-3.34,2.24-6.64,4.58-9.69,7.2-5.36,4.61-10.58,9.4-15.73,14.25-2.6,2.45-4.93,5.18-7.36,7.8-.59.64-1.11,1.35-1.8,2.2,2.12.31,3.83-.31,5.47-1.03,6.73-2.96,13.61-5.46,20.85-6.86,6.58-1.27,13.2-1.56,19.81-.49,8.67,1.4,17.33,2.86,25.96,4.46,9.92,1.84,19.87,3.06,29.99,2.65,5.54-.23,11.08-.67,16.4-2.16,6.97-1.95,13.82-4.34,20.71-6.56,2.78-.9,5.52-1.95,8.32-2.78,2.09-.62,3.76.14,4.9,1.91.73,1.13,1.44,2.28,2.2,3.4,1.53,2.27,3.04,4.57,4.66,6.78,1.77,2.42,3.67,4.74,5.48,7.12,3.06,4.02,6.54,7.58,10.91,10.22,2.8,1.69,5.82,2.78,9.05,3.07,2.99.27,6.03.06,9.02.33,7.07.63,14.14.93,21.25.75,10.23-.25,20.48-.21,30.71-.29,10.65-.09,21.3-.17,31.95-.28,5.69-.06,11.39-.2,17.08-.22,4.02-.01,6.07,1.57,7.32,5.36.29.88.73,1.71,1.1,2.57,1.32,3.03,3.34,5.45,6.13,7.24,2.51,1.61,5.22,2.36,8.2,2.2,3.02-.16,5.98.05,8.92,1,6.48,2.1,12.81,1.69,18.68-1.94,3.25-2.01,6.11-4.53,8.78-7.32,2.36-2.46,4.13-5.25,5.59-8.18,1.27-2.54,1.97-5.42,2.53-8.23.45-2.24.98-4.41,1.97-6.46.16-.33.49-.58.74-.87.22.31.51.59.63.93,1.37,3.91,2.65,7.85,4.96,11.38,1.66,2.53,3.15,5.14,5.15,7.48,2.35,2.75,4.99,5.11,7.79,7.34,3.91,3.13,8.32,4.74,13.39,4.52.6-.92.09-1.32-.74-1.73-2.21-1.09-4.45-2.13-6.54-3.41-3.67-2.24-6.82-5.15-9.69-8.32-1.92-2.12-3.74-4.4-5.17-6.86-1.93-3.33-3.66-6.82-5.08-10.39-1.38-3.46-1.82-7.19-1.61-10.95.06-1.14.29-2.28.44-3.42.13,0,.26,0,.39,0,.57.97,1.22,1.9,1.71,2.91,1.39,2.85,2.7,5.75,4.07,8.61.65,1.37.88,1.4,2.38.41-.75-2.66-1.58-5.36-2.27-8.09-1.33-5.28-2.58-10.58-3.86-15.88-.5-2.05-.32-2.42,1.67-3.12.3-.11.84-.02,1.05.19,1.87,1.85,3.7,3.74,5.53,5.63,1.48,1.53,2.92,3.1,4.42,4.62,1.55,1.57,3.16,3.08,4.78,4.65.42-.34.83-.66,1.38-1.11-3.72-5.23-7.41-10.43-11.24-15.81.8-.27,1.39-.6,2.01-.66,1.43-.13,2.88-.1,4.32-.2,2.44-.17,3.21-1.16,2.81-3.58-.12-.75-.3-1.49-.47-2.32.38.07.62.11.85.16,4.39.95,8.79,1.88,13.18,2.86,5.72,1.28,11.41,2.71,16.48,5.78,5.56,3.36,9.64,7.99,11.66,14.29,1.31,4.09,1.71,8.31,1.83,12.56.06,2.06.2,4.12-.75,6.07-1.58,3.24-3.12,6.51-4.63,9.79-1.33,2.89-3.5,4.92-6.28,6.38-3.01,1.58-6.22,1.71-9.52,1.47-1.55-.11-3.14-.12-4.67.11-3.02.44-4.64,4.22-4.41,7.12,1.7-.38,3.38-.77,5.06-1.14,4.55-.99,9.11-1.98,13.67-2.94,2.92-.62,5.54-1.92,7.81-3.79,2.59-2.13,3.62-5.23,4.54-8.31.65-2.16.74-4.59,1.78-6.51,3.4-6.28,3.25-12.56,1.04-19.13-1.66-4.92-4.68-9.02-7.28-13.39-.32-.54-.6-1.11-1-1.84,1.25-.11,2.31-.02,3.26-.32,3.69-1.15,7.41-2.26,10.99-3.69,4.04-1.6,7.44-4.15,9.07-8.37,1.09-2.83,2.08-5.74,2.66-8.71,1.02-5.17,1.55-10.44,2.55-15.62.55-2.86-.05-5.23-1.95-7.3-1.8-1.97-3.63-3.93-5.56-5.76-2.28-2.16-4.09-4.59-5.18-7.55-.14-.37-.37-.8-.68-1.01-1.62-1.11-3.22-2.27-4.94-3.2-3.97-2.14-8.36-2.68-12.76-3.1-4.43-.42-8.85-.7-12.81-3.2-2.19-1.38-4.18-4.33-3.66-6.91.37-1.81-.06-3.21-1.04-4.6-.33-.47-.69-.92-.97-1.41-2.31-4.02-4.61-8.06-6.92-12.08-1.13-1.98-2.27-3.95-3.45-5.98-.7.52-1.12.84-1.55,1.15-2.18,1.52-3.51,1.06-4.39-1.45-.7-1.98-1.44-3.94-2.22-5.89-.14-.34-.65-.85-.82-.79-.46.17-1.01.51-1.2.93-.36.77-.49,1.65-.73,2.49-.2.71-.42,1.42-.63,2.13-.13,0-.26,0-.4,0-.3-.47-.61-.93-.9-1.41-.6-.98-1.23-1.95-1.78-2.96-1.26-2.34-2.73-4.61-3.63-7.09-1-2.77.52-4.72,3.47-4.93,2.09-.15,4.19-.09,6.29-.16,3.13-.1,6.26-.37,9.39-.33,2.86.04,5.5,1.05,7.26,3.4,1.58,2.13,2.98,4.42,4.23,6.77,1.33,2.5,2.55,5.01,4.33,7.29,2.5,3.2,5.63,5.21,9.47,6.29.74.21,1.48.52,2.12.94,2.89,1.87,4.89,4.47,6.1,7.68,1.18,3.13,2.32,6.27,3.52,9.53.42-2.51.82-4.85,1.26-7.45.87.63,1.49,1.29,2.25,1.59,1.4.54,1.3,1.35.88,2.51-.67,1.85.03,2.94,1.96,3.31,1.25.24,2.57.29,3.77.69,4.22,1.39,8.4,2.93,12.62,4.33.92.3,1.08.82.84,1.57-.25.78.1,2.01-1.5,1.83-2.58-.29-5.2-.27-7.76-.66-5.86-.91-11.7-1.98-17.55-3-2.06-.36-4.11-.77-6.24-1.17-.19.66-.34,1.19-.51,1.77,1.21.44,2.26,1.01,3.37,1.2,2.63.46,5.3.68,7.93,1.15,1.13.21,2.53.51,3.22,1.29,2.81,3.16,6.32,4.94,10.31,5.95,6.18,1.56,12.2,3.82,18.66,4.22,6.3.39,12.21-.81,17.71-3.9,4.11-2.31,7.52-5.49,10.36-9.18,2.37-3.07,4.77-6.19,6.09-9.95,1.19-3.38.81-5.84-1.58-7.74-1.13-.9-2.54-1.63-3.94-1.96-4.16-.99-8.38-1.75-12.58-2.58-1.26-.25-2.53-.46-4.1-.75.47-.33.62-.45.79-.55,2.22-1.25,4.43-2.52,6.67-3.75,3.12-1.71,5.71-4.05,7.85-6.83,1.94-2.52,3.05-5.49,3.52-8.62.75-5,1.31-10.02,1.99-15.02.71-5.2-1.83-7.78-5.75-9.35-2.62-1.05-5.16-2.31-7.67-3.61-2.44-1.27-4.75-2.79-7.21-4.02-1.56-.78-3.17-1.64-5.05-1.34-4.8.76-9.61,1.53-14.41,2.3-1.62.26-3.23.57-5.04.89.11-1.58.2-3,.3-4.43.48-6.55.32-12.93-2.93-18.98-2.57-4.8-5.65-8.93-10.55-11.5-3.38-1.77-6.95-2.49-10.76-2.04-5.64.67-10.29,3.54-14.83,6.64-2.31,1.57-4.53,3.26-6.82,4.86-.31.22-.9.4-1.17.25-2.5-1.33-4.98-2.71-7.43-4.13-2.28-1.31-4.49-2.73-6.79-4-1.93-1.07-3.92-1.04-5.93-.04-1.95.97-3.53,2.37-5,3.94-.28.3-.64.54-1.08.91-.4-1.74-.91-3.24-1.07-4.77-.24-2.32-.19-4.62.4-6.95.97-3.79,2.38-7.19,5.39-9.88,2.86-2.55,6.12-4.24,9.8-4.96,3.55-.7,7.19-.89,10.77-1.46,5.02-.79,9.87-2.2,14.53-4.3,4.26-1.92,8.19-4.36,11.75-7.36,1.91-1.61,3.5-3.62,5.49-5.12,3.62-2.74,6.14-6.47,9.2-9.7,2.76-2.92,5.24-6.11,7.84-9.19.85-1,1.68-2.02,2.57-3.08-1.56,0-3.02-.16-4.44.03-6.21.82-12.42,1.65-18.61,2.66-9.94,1.63-19.75,3.7-28.64,8.85-4.65,2.69-8.45,6.23-11.5,10.59-1.67,2.38-3.13,4.91-4.69,7.37-2.73,4.3-5.45,8.61-8.2,12.89-.33.51-.81.91-1.22,1.37-.33-.71-.69-1.41-.96-2.14-.09-.24.02-.57.09-.85.34-1.43.71-2.85,1.03-4.29,1.25-5.49,2.34-11.01,5.03-16.08,1.6-3.01,2.96-6.15,5.37-8.63,1.62-1.67,3.26-3.33,4.93-4.95,2.61-2.53,5.76-4.25,9.02-5.72,2.51-1.14,4.36-2.9,5.87-5.11.18-.27.27-.82.11-1.07-1.46-2.37-2.88-4.79-4.53-7.02-.7-.95-1.28-2.55-3.17-1.83.06-.49.08-.81.13-1.12.49-2.63,1.55-4.98,3.19-7.11,1.42-1.84,2.87-3.59,4.91-4.8,3.53-2.11,7.02-4.28,10.53-6.42,4.64-2.82,9.26-5.67,13.94-8.42,2.03-1.19,4.18-2.23,6.6-2.26.92-.01,2.16.14,2.7.73.93,1.02,1.65,2.38,2.06,3.71.69,2.23.21,4.37-.69,6.57-1.37,3.33-3.12,6.24-5.7,8.81-3.24,3.22-6.38,6.5-10.17,9.09-2.86,1.95-5.94,3.45-9.32,4.09-1.81.34-2.92,1.3-3.98,2.63.28.37.52.69.9,1.18,4.74-2.25,9.54-4.33,14.14-6.78,4.28-2.28,8.23-5.11,11.47-8.79,2.5-2.85,4.74-5.86,6.14-9.45,1.89-4.84,1.75-9.42-1.46-13.7-1.74-2.32-4.07-3.35-6.89-2.94-1.99.29-3.93.88-5.88,1.42-.86.23-1.4.08-1.83-.72-.48-.91-1.12-1.73-1.6-2.64-.49-.91-1.16-1.14-1.89-.94-.15,1.94-.13,3.76-.45,5.52-.88,4.74-4.39,7.38-8.19,9.66-5.1,3.07-10.27,6.04-15.42,9.04-1.11.65-2.26,1.23-3.4,1.84-1.27-2.57-2.48-4.95-3.64-7.35-1.19-2.45-2.32-4.92-3.53-7.36-1.05-2.13-2.35-4.16-3.24-6.35-1.92-4.73-.44-8.53,2.66-11.17,2.92-2.48,6.4-2.9,10.03-2.4,6.82.93,13.63,1.95,20.44,2.93,1.31.19,2.62.35,4.1.54-.36-.65-.58-1.09-.83-1.51-1.99-3.33-4.87-4.88-8.78-4.41-.94.11-1.9.1-2.84.04-4.28-.29-8.55-.65-12.82-.91-.84-.05-1.78.02-2.54.35-2.68,1.16-5.31,2.44-7.94,3.72-1.65.8-3.26,1.66-4.9,2.49-.63-1.03-1.1-1.85-1.61-2.65-1.13-1.76-1.78-2.05-3.52-.84-1.94,1.36-3.75,2.95-5.4,4.65-1.83,1.88-3.5,3.92-5.07,6.03-1.68,2.26-3.67,4.49-4.64,7.06-3.24,8.65-3.04,17.29,1.6,25.49,1.08,1.91,2.39,3.84,4.03,5.25,2.56,2.2,4.46,4.9,6.04,7.72,4.21,7.51,4.53,15.47,1.81,23.57-.71,2.1-1.44,4.27-3.29,5.93-.17-.35-.31-.62-.43-.91-1.47-3.66-2.9-7.33-4.41-10.96-1.31-3.16-2.97-6.11-4.98-8.91-3.33-4.63-6.8-9.14-10.57-13.42-1.68-1.91-3.2-3.94-4.87-5.86-2.48-2.85-5.01-5.65-7.53-8.46-.34-.38-.69-.76-1.16-1.27-.55,1.75-1.22,3.31-1.51,4.93-1.21,6.79-1.31,13.55.58,20.3,1.35,4.8,2.64,9.57,5.37,13.85,1.7,2.68,3.38,5.32,5.59,7.65,2.96,3.11,6.3,5.6,10.13,7.54,2.66,1.35,5.44,2.62,7.41,5,.53.64,1.11,1.48,1.14,2.24.2,7.05.26,14.11.39,21.17.03,1.41-.85,1.99-1.93,2.47-1.09-1.71-2.13-3.36-3.19-5-1.76-2.76-3.47-5.56-5.32-8.27-1.62-2.37-3.41-4.62-5.13-6.92-3.4-4.56-7.18-8.77-11.36-12.61-2.97-2.72-5.91-5.48-9.05-8-3.39-2.72-6.93-5.25-10.5-7.71-3.71-2.56-7.49-5.04-11.35-7.39-2.77-1.68-5.62-3.31-8.59-4.56-4.09-1.73-8.32-3.09-12.5-4.6-4.12-1.48-5.72-3.69-5.66-8.08.02-1.73.23-3.46.31-5.18.23-4.95.06-9.79-3.22-13.97-1.22-1.56-2.61-2.81-4.29-3.83-1.25-.76-2.5-1.6-3.52-2.64-2.03-2.05-2.37-5.37-1.03-7.94.88-1.69,2.85-2.4,5.68-1.94,3.6.59,7.2.72,10.84.41,10.5-.9,19.41-5.15,26.68-12.73,1.87-1.95,3.41-4.34,3.46-7.19.16-8.41.25-16.83.2-25.25,0-1.34-.5-3.03-1.39-3.95-1.65-1.72-3.79-2.97-5.69-4.47-3.3-2.6-6.81-4.85-10.62-6.64-4.86-2.28-9.92-3.54-15.29-3.52-3.55.01-7.09.16-10.64.21-7.55.1-15.11.23-22.66.24-12.97,0-25.93-.07-38.9-.12-5.86-.02-11.73-.09-17.59-.11-2.76,0-5.54-.12-8.27.17-5.55.59-10.54,2.87-15.27,5.69-3.92,2.33-7.71,4.87-11.63,7.21-1.33.79-1.94,1.84-2.09,3.26-.1.94-.16,1.89-.16,2.84-.01,7.15-.02,14.29,0,21.44,0,1.06.1,2.16.36,3.19,1.63,6.48,5.98,10.49,11.96,12.97.83.34,1.74.49,2.89.8-1.99-3.21-3.76-6.07-5.62-9.07,2.68-.79,5.03-.32,6.74,1.38,1.74,1.73,3,3.96,4.42,6,.23.33.25.81.39,1.3-1.77.16-3.36.31-5.13.47ZM447.73,388.31c-1.15-.71-2.03-1.25-2.92-1.8-.1.12-.21.23-.31.35.64.84,1.27,1.68,2.03,2.68.36-.36.66-.67,1.2-1.23ZM434.45,375.97c-.13.02-.25.03-.38.05-.04.38-.26.98-.1,1.11.8.66,1.7,1.19,2.57,1.77.1-.13.21-.25.31-.38l-2.4-2.56ZM437.35,379.3c-.07-.04-.13-.08-.19-.11l-.09.23c.07.02.14.07.2.05.04,0,.05-.11.08-.17ZM444.59,386.35c-.05-.05-.09-.13-.15-.14-.05-.01-.12.05-.18.07.06.07.12.14.19.19.01,0,.09-.08.14-.12Z"/>
      <path class="cls-2" d="M199.76,82.66c1.78-.16,3.36-.31,5.13-.47-.14-.49-.16-.97-.39-1.3-1.43-2.04-2.68-4.27-4.42-6-1.71-1.69-4.06-2.17-6.74-1.38,1.86,3,3.64,5.87,5.62,9.07-1.15-.31-2.06-.46-2.89-.8-5.98-2.47-10.33-6.49-11.96-12.97-.26-1.03-.35-2.12-.36-3.19-.03-7.15-.02-14.29,0-21.44,0-.95.07-1.9.16-2.84.15-1.43.76-2.47,2.09-3.26,3.92-2.33,7.72-4.87,11.63-7.21,4.73-2.82,9.72-5.11,15.27-5.69,2.73-.29,5.51-.17,8.27-.17,5.86.01,11.73.08,17.59.11,12.97.05,25.93.13,38.9.12,7.55,0,15.11-.14,22.66-.24,3.55-.05,7.09-.2,10.64-.21,5.36-.02,10.43,1.24,15.29,3.52,3.82,1.79,7.32,4.04,10.62,6.64,1.9,1.49,4.03,2.75,5.69,4.47.89.93,1.38,2.61,1.39,3.95.05,8.41-.05,16.83-.2,25.25-.05,2.85-1.59,5.24-3.46,7.19-7.27,7.58-16.17,11.83-26.68,12.73-3.64.31-7.24.18-10.84-.41-2.83-.47-4.8.25-5.68,1.94-1.34,2.58-1,5.9,1.03,7.94,1.02,1.03,2.27,1.87,3.52,2.64,1.68,1.02,3.07,2.27,4.29,3.83,3.27,4.18,3.44,9.02,3.22,13.97-.08,1.73-.29,3.46-.31,5.18-.06,4.38,1.54,6.59,5.66,8.08,4.18,1.5,8.42,2.87,12.5,4.6,2.98,1.26,5.83,2.88,8.59,4.56,3.85,2.34,7.63,4.82,11.35,7.39,3.57,2.47,7.12,5,10.5,7.71,3.14,2.52,6.08,5.28,9.05,8,4.19,3.84,7.96,8.06,11.36,12.61,1.72,2.3,3.51,4.56,5.13,6.92,1.85,2.7,3.55,5.5,5.32,8.27,1.05,1.65,2.1,3.3,3.19,5,1.07-.48,1.95-1.07,1.93-2.47-.13-7.06-.2-14.11-.39-21.17-.02-.76-.61-1.6-1.14-2.24-1.97-2.38-4.75-3.66-7.41-5-3.83-1.94-7.17-4.43-10.13-7.54-2.21-2.32-3.88-4.97-5.59-7.65-2.72-4.28-4.02-9.04-5.37-13.85-1.89-6.75-1.79-13.5-.58-20.3.29-1.62.96-3.18,1.51-4.93.46.51.81.88,1.16,1.27,2.51,2.82,5.05,5.61,7.53,8.46,1.67,1.92,3.19,3.95,4.87,5.86,3.77,4.28,7.24,8.79,10.57,13.42,2.01,2.8,3.67,5.75,4.98,8.91,1.51,3.64,2.94,7.31,4.41,10.96.12.29.26.56.43.91,1.86-1.66,2.58-3.82,3.29-5.93,2.72-8.09,2.41-16.06-1.81-23.57-1.58-2.82-3.48-5.51-6.04-7.72-1.64-1.41-2.95-3.34-4.03-5.25-4.64-8.21-4.84-16.84-1.6-25.49.96-2.57,2.95-4.8,4.64-7.06,1.57-2.1,3.24-4.15,5.07-6.03,1.65-1.7,3.46-3.3,5.4-4.65,1.74-1.22,2.38-.92,3.52.84.51.79.98,1.62,1.61,2.65,1.64-.84,3.25-1.7,4.9-2.49,2.63-1.27,5.26-2.55,7.94-3.72.76-.33,1.7-.4,2.54-.35,4.28.27,8.55.62,12.82.91.94.06,1.91.08,2.84-.04,3.92-.47,6.79,1.08,8.78,4.41.25.42.47.85.83,1.51-1.48-.19-2.8-.35-4.1-.54-6.81-.98-13.62-2.01-20.44-2.93-3.62-.49-7.11-.08-10.03,2.4-3.1,2.64-4.58,6.44-2.66,11.17.89,2.19,2.18,4.22,3.24,6.35,1.21,2.44,2.34,4.91,3.53,7.36,1.17,2.4,2.37,4.78,3.64,7.35,1.14-.61,2.29-1.19,3.4-1.84,5.15-3,10.32-5.96,15.42-9.04,3.8-2.29,7.31-4.92,8.19-9.66.33-1.76.31-3.58.45-5.52.74-.2,1.41.03,1.89.94.48.91,1.12,1.73,1.6,2.64.43.81.97.96,1.83.72,1.94-.53,3.89-1.13,5.88-1.42,2.82-.41,5.15.62,6.89,2.94,3.21,4.28,3.36,8.86,1.46,13.7-1.4,3.58-3.64,6.6-6.14,9.45-3.24,3.69-7.19,6.52-11.47,8.79-4.6,2.45-9.4,4.53-14.14,6.78-.38-.5-.62-.82-.9-1.18,1.06-1.32,2.17-2.29,3.98-2.63,3.38-.64,6.46-2.14,9.32-4.09,3.79-2.59,6.93-5.87,10.17-9.09,2.58-2.57,4.34-5.48,5.7-8.81.9-2.2,1.38-4.34.69-6.57-.41-1.34-1.13-2.69-2.06-3.71-.54-.59-1.78-.74-2.7-.73-2.41.03-4.57,1.07-6.6,2.26-4.68,2.75-9.3,5.6-13.94,8.42-3.51,2.14-7,4.31-10.53,6.42-2.03,1.21-3.49,2.96-4.91,4.8-1.64,2.13-2.71,4.48-3.19,7.11-.06.31-.08.64-.13,1.12,1.89-.72,2.47.88,3.17,1.83,1.65,2.23,3.07,4.65,4.53,7.02.15.25.07.8-.11,1.07-1.5,2.21-3.36,3.98-5.87,5.11-3.26,1.48-6.42,3.19-9.02,5.72-1.67,1.62-3.31,3.28-4.93,4.95-2.42,2.49-3.77,5.62-5.37,8.63-2.69,5.07-3.79,10.59-5.03,16.08-.33,1.43-.7,2.86-1.03,4.29-.07.28-.18.61-.09.85.27.73.63,1.43.96,2.14.41-.45.9-.86,1.22-1.37,2.75-4.29,5.47-8.59,8.2-12.89,1.56-2.46,3.02-4.99,4.69-7.37,3.05-4.35,6.85-7.89,11.5-10.59,8.89-5.15,18.7-7.21,28.64-8.85,6.18-1.01,12.39-1.84,18.61-2.66,1.42-.19,2.88-.03,4.44-.03-.89,1.06-1.72,2.08-2.57,3.08-2.6,3.08-5.07,6.27-7.84,9.19-3.06,3.23-5.58,6.97-9.2,9.7-1.98,1.5-3.58,3.51-5.49,5.12-3.56,3.01-7.49,5.44-11.75,7.36-4.66,2.1-9.51,3.51-14.53,4.3-3.58.56-7.22.76-10.77,1.46-3.67.72-6.94,2.41-9.8,4.96-3.02,2.69-4.42,6.1-5.39,9.88-.6,2.33-.64,4.63-.4,6.95.16,1.53.66,3.02,1.07,4.77.44-.37.8-.61,1.08-.91,1.47-1.57,3.05-2.97,5-3.94,2.01-.99,4-1.03,5.93.04,2.3,1.27,4.51,2.69,6.79,4,2.46,1.41,4.93,2.8,7.43,4.13.28.15.86-.03,1.17-.25,2.29-1.6,4.51-3.29,6.82-4.86,4.54-3.1,9.19-5.97,14.83-6.64,3.81-.45,7.38.27,10.76,2.04,4.9,2.57,7.97,6.71,10.55,11.5,3.25,6.06,3.4,12.43,2.93,18.98-.1,1.42-.2,2.85-.3,4.43,1.81-.32,3.42-.63,5.04-.89,4.8-.78,9.6-1.54,14.41-2.3,1.88-.3,3.49.56,5.05,1.34,2.46,1.23,4.77,2.76,7.21,4.02,2.51,1.3,5.05,2.56,7.67,3.61,3.92,1.57,6.46,4.15,5.75,9.35-.68,5.01-1.24,10.03-1.99,15.02-.47,3.13-1.58,6.11-3.52,8.62-2.14,2.78-4.74,5.12-7.85,6.83-2.24,1.23-4.45,2.49-6.67,3.75-.17.09-.32.22-.79.55,1.57.29,2.84.5,4.1.75,4.2.84,8.42,1.59,12.58,2.58,1.4.33,2.81,1.06,3.94,1.96,2.4,1.9,2.77,4.36,1.58,7.74-1.32,3.75-3.72,6.87-6.09,9.95-2.84,3.69-6.25,6.87-10.36,9.18-5.5,3.09-11.41,4.28-17.71,3.9-6.46-.4-12.48-2.65-18.66-4.22-3.99-1.01-7.5-2.79-10.31-5.95-.69-.78-2.09-1.09-3.22-1.29-2.63-.48-5.3-.69-7.93-1.15-1.11-.2-2.16-.76-3.37-1.2.17-.58.32-1.11.51-1.77,2.13.4,4.18.81,6.24,1.17,5.85,1.02,11.69,2.09,17.55,3,2.56.4,5.18.38,7.76.66,1.6.18,1.25-1.05,1.5-1.83.24-.75.08-1.26-.84-1.57-4.22-1.41-8.4-2.94-12.62-4.33-1.2-.4-2.51-.45-3.77-.69-1.94-.37-2.63-1.46-1.96-3.31.42-1.16.52-1.97-.88-2.51-.76-.29-1.38-.96-2.25-1.59-.44,2.61-.84,4.95-1.26,7.45-1.2-3.26-2.35-6.4-3.52-9.53-1.21-3.21-3.21-5.81-6.1-7.68-.64-.42-1.38-.73-2.12-.94-3.84-1.09-6.97-3.09-9.47-6.29-1.78-2.27-2.99-4.79-4.33-7.29-1.25-2.34-2.65-4.64-4.23-6.77-1.75-2.36-4.39-3.36-7.26-3.4-3.13-.04-6.26.22-9.39.33-2.1.07-4.2,0-6.29.16-2.95.21-4.47,2.16-3.47,4.93.89,2.48,2.37,4.75,3.63,7.09.54,1.01,1.18,1.98,1.78,2.96.29.48.6.94.9,1.41.13,0,.26,0,.4,0,.21-.71.43-1.42.63-2.13.24-.83.37-1.71.73-2.49.2-.42.74-.76,1.2-.93.16-.06.68.45.82.79.78,1.95,1.52,3.91,2.22,5.89.89,2.51,2.22,2.97,4.39,1.45.44-.3.86-.63,1.55-1.15,1.17,2.03,2.31,4,3.45,5.98,2.31,4.03,4.61,8.06,6.92,12.08.28.49.64.94.97,1.41.98,1.39,1.4,2.78,1.04,4.6-.52,2.58,1.47,5.53,3.66,6.91,3.96,2.49,8.38,2.77,12.81,3.2,4.41.42,8.8.97,12.76,3.1,1.72.93,3.32,2.09,4.94,3.2.31.21.54.64.68,1.01,1.09,2.96,2.9,5.39,5.18,7.55,1.94,1.83,3.76,3.79,5.56,5.76,1.9,2.07,2.49,4.44,1.95,7.3-.99,5.18-1.53,10.45-2.55,15.62-.58,2.97-1.57,5.88-2.66,8.71-1.63,4.22-5.03,6.77-9.07,8.37-3.59,1.42-7.3,2.54-10.99,3.69-.95.29-2.01.21-3.26.32.39.73.67,1.29,1,1.84,2.6,4.37,5.62,8.47,7.28,13.39,2.22,6.57,2.36,12.84-1.04,19.13-1.04,1.93-1.14,4.35-1.78,6.51-.92,3.08-1.95,6.18-4.54,8.31-2.27,1.87-4.89,3.17-7.81,3.79-4.56.96-9.11,1.95-13.67,2.94-1.69.37-3.37.76-5.06,1.14-.23-2.9,1.39-6.68,4.41-7.12,1.53-.22,3.12-.22,4.67-.11,3.3.24,6.5.11,9.52-1.47,2.78-1.46,4.95-3.48,6.28-6.38,1.51-3.28,3.04-6.55,4.63-9.79.96-1.96.81-4.02.75-6.07-.12-4.26-.52-8.47-1.83-12.56-2.02-6.29-6.1-10.93-11.66-14.29-5.08-3.07-10.76-4.5-16.48-5.78-4.39-.98-8.78-1.91-13.18-2.86-.24-.05-.47-.09-.85-.16.17.84.35,1.58.47,2.32.4,2.42-.37,3.41-2.81,3.58-1.44.1-2.89.06-4.32.2-.62.06-1.21.39-2.01.66,3.83,5.38,7.52,10.58,11.24,15.81-.55.44-.96.77-1.38,1.11-1.62-1.57-3.22-3.09-4.78-4.65-1.5-1.51-2.94-3.09-4.42-4.62-1.83-1.89-3.66-3.78-5.53-5.63-.21-.21-.75-.29-1.05-.19-1.99.7-2.16,1.07-1.67,3.12,1.28,5.29,2.53,10.6,3.86,15.88.69,2.74,1.52,5.44,2.27,8.09-1.51.98-1.73.95-2.38-.41-1.37-2.86-2.68-5.76-4.07-8.61-.49-1.01-1.13-1.94-1.71-2.91-.13,0-.26,0-.39,0-.15,1.14-.38,2.27-.44,3.42-.21,3.75.24,7.48,1.61,10.95,1.42,3.58,3.14,7.06,5.08,10.39,1.43,2.46,3.26,4.74,5.17,6.86,2.87,3.17,6.03,6.07,9.69,8.32,2.09,1.28,4.33,2.32,6.54,3.41.83.41,1.34.81.74,1.73-5.07.22-9.48-1.4-13.39-4.52-2.8-2.24-5.44-4.59-7.79-7.34-2-2.34-3.49-4.94-5.15-7.48-2.31-3.53-3.59-7.46-4.96-11.38-.12-.34-.42-.62-.63-.93-.25.29-.58.54-.74.87-.99,2.05-1.52,4.22-1.97,6.46-.56,2.81-1.27,5.69-2.53,8.23-1.46,2.93-3.23,5.72-5.59,8.18-2.68,2.79-5.53,5.31-8.78,7.32-5.87,3.63-12.2,4.04-18.68,1.94-2.93-.95-5.89-1.16-8.92-1-2.98.16-5.69-.59-8.2-2.2-2.79-1.79-4.81-4.21-6.13-7.24-.37-.85-.81-1.69-1.1-2.57-1.25-3.79-3.3-5.38-7.32-5.36-5.69.02-11.39.16-17.08.22-10.65.11-21.3.19-31.95.28-10.24.09-20.48.04-30.71.29-7.11.18-14.18-.12-21.25-.75-2.99-.27-6.03-.06-9.02-.33-3.23-.29-6.24-1.38-9.05-3.07-4.37-2.64-7.85-6.19-10.91-10.22-1.81-2.39-3.72-4.71-5.48-7.12-1.62-2.21-3.12-4.51-4.66-6.78-.76-1.12-1.46-2.27-2.2-3.4-1.14-1.77-2.82-2.52-4.9-1.91-2.8.83-5.54,1.88-8.32,2.78-6.89,2.22-13.74,4.61-20.71,6.56-5.32,1.49-10.86,1.93-16.4,2.16-10.12.41-20.07-.81-29.99-2.65-8.63-1.6-17.29-3.06-25.96-4.46-6.62-1.07-13.23-.78-19.81.49-7.24,1.4-14.12,3.9-20.85,6.86-1.64.72-3.35,1.34-5.47,1.03.69-.85,1.2-1.56,1.8-2.2,2.43-2.62,4.76-5.36,7.36-7.8,5.15-4.85,10.37-9.64,15.73-14.25,3.04-2.62,6.35-4.96,9.69-7.2,7.96-5.33,16.4-9.76,25.58-12.65,10.06-3.17,20.35-4.42,30.89-3.62,9.03.68,17.76,2.63,26.25,5.7,1.59.57,3.16,1.18,4.75,1.75.4.14.82.2.96.45-.91-1.14-1.72-2.39-2.77-3.4-1.92-1.85-3.98-3.57-5.98-5.34-2.1-1.85-4.14-3.76-6.32-5.52-3.19-2.57-6.4-5.13-9.74-7.51-8.13-5.82-16.79-10.69-26.21-14.11-1.31-.48-2.66-.85-4.29-1.37,1.82-1.34,3.44-2.54,5.21-3.85-1.36-1.76-2.69-3.47-4.26-5.51-.19,1.85-1.44,1.91-2.55,2.3-1.96.69-2.91,2.42-3.93,4.09-1.13,1.85-2.36,3.65-3.73,5.32-.55.67-1.54,1.14-2.42,1.36-7.22,1.79-14.39,1.74-21.42-.89-3.17-1.19-6.06-2.87-8.68-5.09-4.84-4.11-8.03-9.27-10.34-15.09-1.81-4.58-3.69-9.14-5.55-13.71-.21-.53-.54-1.01-.71-1.55-.92-2.8.66-5.36,3.41-6.19,3.97-1.21,8.05-2.2,12.16-2.79,4.23-.61,8.54-.9,12.81-.82,6.29.12,12.18,1.88,17.39,5.59,4.32,3.07,7.84,6.87,10.45,11.49,1.62,2.86,3.08,5.8,4.73,8.64,1.86,3.2,3.75,6.38,5.79,9.46,2.92,4.4,6.82,7.83,11.11,10.87,3.05,2.16,5.99,4.48,8.99,6.71,1.55,1.15,3.13,2.25,4.71,3.36.22.16.5.23,1.08.48-.41-1.14-.71-2.01-1.03-2.87-1.13-3.06-2.23-6.12-3.39-9.16-1.66-4.38-3.35-8.76-5.04-13.13-1.63-4.22-3.27-8.43-4.9-12.64-1.76-4.56-3.52-9.13-5.28-13.69-1.65-4.25-3.33-8.49-4.93-12.77-.22-.58-.18-1.38.04-1.97,1.19-3.16,2.47-6.29,3.73-9.42.21-.53.65-.98.78-1.51.11-.42.04-.99-.18-1.36-.66-1.11-1.32-.96-2.15-.01-1.26,1.43-3.12,1.33-4.82,1.57-1.79.26-3.65.35-4.99,1.81-.41.45-.86.98-.98,1.54-.24,1.11-.96,1.37-1.88,1.34-.78-.02-1.57-.09-2.32-.28-6.31-1.61-12.64-3.14-18.91-4.93-5.32-1.52-10.4-3.61-14.92-6.96-3.71-2.76-7.13-5.78-10.24-9.21-1.98-2.19-4.12-4.24-6.24-6.29-2.07-2-1.78-5.05.81-6.26,1.69-.79,3.54-1.25,5.35-1.77,1.02-.29,2.09-.41,3.32-.63-.47-1.57-.95-3.04-1.36-4.54-.82-3.06-1.29-6.12-.05-9.22,1.09-2.73,3.34-4.26,5.72-5.56,5.34-2.94,10.9-3.21,16.57-.92.46.19.94.32,1.4.49,2.1.81,2.15.85,3.41-1.11,1.58-2.45,3.01-4.98,4.6-7.42,2.04-3.13,4.93-4,8.36-2.52,1.12.48,2.16,1.18,3.2,1.84.84.54,1.47.65,2.41-.04,4.52-3.29,9.43-3.83,14.62-1.73.42.17.83.36,1.27.5.71.22,1.35.22,1.87-.48.31-.41.75-.78,1.2-1.04,2.32-1.29,4.3-.71,5.68,1.86,1.41,2.61,2.61,5.32,3.92,7.99,3.55,7.25,4.28,15,3.93,22.9-.22,4.93-1.29,9.73-3.15,14.32-.72,1.78-1.56,3.55-2.62,5.15-.81,1.23-2.07,2.16-3.09,3.26-1.37,1.47-2.8,2.89-4.02,4.47-3.5,4.52-3.8,9.83-3.21,15.19.46,4.13,1.19,8.26,2.2,12.28,1.34,5.3,2.9,10.56,4.68,15.73,1.52,4.42,3.38,8.74,5.29,13.01,1.48,3.3,3.07,6.57,4.96,9.64,3.3,5.34,6.8,10.55,10.34,15.73,1.53,2.23,3.27,4.33,5.1,6.32,2.94,3.21,5.99,6.32,9.07,9.39,1.09,1.08,2.57,1.53,4.41,1.86-.79-1.91-1.38-3.6-2.19-5.19-1.49-2.93-3.16-5.77-4.64-8.71-1.94-3.85-3.89-7.71-5.62-11.66-1.81-4.13-3.48-8.34-5.02-12.58-1.83-5.02-3.54-10.08-5.15-15.17-1.75-5.53-3.28-11.12-5-16.66-2.17-6.99-2.82-14.18-3.1-21.44-.35-8.95.38-17.83,2.31-26.55,1.35-6.09,3.17-12.1,5.12-18.04,1.25-3.81,3-7.48,4.74-11.11,1.53-3.18,3.15-6.35,5.09-9.29,3.35-5.07,6.93-9.98,10.51-14.89,1.57-2.15,3.32-4.18,5.1-6.17,3.28-3.68,6.5-7.42,9.99-10.91,4.8-4.8,9.76-9.48,15.44-13.24,4.54-3.01,9.23-5.83,14.03-8.41,5.58-3,11.34-5.65,17.03-8.45,1.99-.98,4.07-1.81,5.94-2.99,2.03-1.28,3.39-3.22,3.37-5.74-.04-4.19-.19-8.39-.36-12.58-.21-5.4,2.14-9.05,7.16-11.2,1.21-.52,2.56-.8,3.62-1.52,2.07-1.42,2.42-4.34,1.63-6.88-.9-2.89-3.16-3.54-5.57-3.86-3.26-.43-6.57-.54-9.85-.78-2.3-.17-4.6-.33-6.9-.54-2.52-.23-4.39-1.73-6.2-3.32-.4-.35-.79-.73-1.35-1.25ZM267.13,343.1c.05.04.1.08.15.11l-.02-.25c-.71-2.22-1.42-4.43-2.12-6.65-1.77-5.55-3.55-11.11-5.31-16.67-1.99-6.26-3.95-12.54-5.97-18.79-.11-.36-.61-.88-.86-.85-.61.09-1.48.05-1.45,1.12.07,2.13-.1,4.29.16,6.4.66,5.35,2.01,10.52,3.89,15.61,2,5.43,4.21,10.71,7.3,15.61,1.11,1.75,2.35,3.35,4.23,4.35ZM414.39,132.85l.02.02c.03-.28.01-.58.11-.84.49-1.25,1-2.5,1.53-3.74.3-.71.1-1.15-.58-1.5-.9-.46-1.77-.97-2.9-1.6.95-.87,1.87-1.52,2.55-2.38,2.7-3.4,3.95-7.2,2.9-11.55-.77-3.19-2.26-6.05-3.82-8.91-1.89-3.46-3.55-7.04-5.28-10.58-1.1-2.26-2.12-4.56-3.24-6.81-.92-1.84-1.93-3.64-2.92-5.5-1.38,1.74-2.75,3.28-3.9,4.96-2.39,3.49-4.95,6.91-6.91,10.63-2.86,5.43-3.13,11.21-.88,16.99.88,2.28,2.08,4.37,4.48,5.64v-12.54c.26.17.37.37.44.59,1.28,3.68,2.55,7.36,3.84,11.04.95,2.72,1.85,5.46,2.9,8.15.41,1.04,1.11,1.98,1.76,2.91,1.9,2.73,3.46,5.49,1.54,8.9-.22.38-.27,1-.13,1.42.76,2.37,1.61,4.72,2.55,7.41,5.76-5.56,11.31-10.91,16.85-16.25-1.18-1.83-1.65-1.94-3.27-.92-2.23,1.41-4.47,2.79-6.71,4.17-.26.16-.6.2-.91.29ZM380.2,275.64c-2.13.97-4.3,1.87-6.38,2.95-.87.45-1.8,1.14-2.27,1.97-1.6,2.86-3.14,5.78-4.46,8.78-1.4,3.2-2.43,6.56-3.8,9.78-1.24,2.91-1.97,5.91-2.14,9.03-.25,4.58.79,8.88,3.05,12.89.61,1.09,1.19,2.19,1.78,3.29.13-.04.27-.08.4-.12-.14-1.78-.25-3.56-.44-5.34-.45-4.22-1.1-8.42-.6-12.68.26-2.2.74-4.34,1.87-6.29.03.79-.09,1.55-.09,2.32-.03,5.34.22,10.63,1.33,15.91,1.55,7.37,3.77,14.45,7.03,21.22.48.99,1.07,1.04,1.95.94,1.07-.12.77-.91.77-1.5.01-10.04,0-20.08,0-30.12v-1.42c1.04-.33,1.19.17,1.22.91.14,2.88.33,5.76.48,8.64.36,6.79.69,13.59,1.05,20.38.03.66.15,1.32.26,2.2,1-2.3,1.93-4.33,2.77-6.41,1.83-4.53,3.63-9.07,5.39-13.62,1.44-3.72,2.83-7.47,4.22-11.22.25-.67.57-.97,1.27-.65.36.17.74.3,1.14.45-.45,2.89-1.1,5.59-2.41,8.17-1.67,3.3-2.9,6.83-4.56,10.14-1.7,3.41-2.35,6.99-2.34,10.71,0,1.5.37,3,.57,4.5.13.01.26.02.39.04,4.35-5.01,8.69-10.02,13.04-15.03.16.05.32.09.49.14,0,.47.15.99-.02,1.39-1.14,2.63-2.38,5.22-3.54,7.84-.93,2.09-1.79,4.22-2.66,6.29,1.66,1.18,1.64,1.17,2.69-.27.63-.86,1.36-1.64,1.99-2.5,3.49-4.72,7.02-9.42,10.42-14.2,1.8-2.54,3.52-5.17,4.99-7.91,3.03-5.64,4.77-11.67,5.03-18.11.12-2.87-.45-5.63-1.04-8.38-.73-3.4-2.51-6.07-5.69-7.81-2.98-1.63-6.19-2.42-9.45-3.1-3.11-.64-6.08-1.29-8.45-3.85-2.02-2.17-4.99-2.45-7.53-.98-2.96,1.71-6.46,2.68-8.58,5.7-.38-.33-.74-.63-1.1-.95,1.75-1.3,1.97-1.81,1.93-4.17.03-.03.06-.05.09-.08-.02.03-.05.07-.07.1ZM46.84,379.48s.02.02.02.02c.42-.25.81-.55,1.25-.73,4.93-1.95,9.82-4.04,14.83-5.76,9.24-3.19,18.71-5.49,28.43-6.64,5.52-.65,11.06-1.18,16.61-1.43,7.71-.35,15.43-.09,23.09.92,5.99.79,11.97,1.76,17.94,2.7,2.09.33,4.15.85,6.44,1.32-.26-.41-.37-.62-.52-.81-1.72-2.2-3.44-4.39-5.17-6.58-1.04-1.33-2.37-2.01-4.02-1.4-1.78.66-3.27.04-4.83-.69-2.87-1.35-5.71-2.79-8.68-3.88-9.17-3.38-18.64-5.05-28.44-4.55-3.16.16-6.33.41-9.47.86-8.94,1.27-17.22,4.55-25.28,8.46-4.48,2.17-8.87,4.54-13.38,6.64-4.16,1.94-8.06,4.32-11.64,7.14-3.26,2.57-6.3,5.43-8.81,8.8-.97,1.3-2.02,2.55-3.08,3.88.29.09.38.14.44.13.84-.19,1.68-.4,2.52-.6,6.75-1.62,13.58-2.66,20.52-2.81,4.16-.09,8.34-.05,12.49.25,4.51.32,9.04.78,13.48,1.6,6.63,1.22,13.17,2.94,19.79,4.2,4.11.78,8.3,1.38,12.47,1.53,3.93.15,7.9-.28,11.83-.66,7.85-.76,15.5-2.61,22.98-5.06,5.04-1.65,10-3.55,14.99-5.34-.73-2.02-1.32-2.44-3.61-2.44h-35.19c-.02-.13-.04-.26-.06-.39.75-.37,1.49-1.01,2.27-1.08,3.98-.35,7.97-.56,11.96-.82,4.11-.27,8.22-.52,12.34-.8,1.25-.08,2.49-.21,3.73-.32-.32-.41-.68-.56-1.04-.66-4.21-1.13-8.4-2.33-12.63-3.36-7.58-1.83-15.3-2.91-23.08-3.24-6.88-.29-13.77-.18-20.61.89-7.68,1.2-15.42,2.13-23.03,3.68-7.77,1.58-15.41,3.77-23.1,5.7-1.59.4-3.16.87-4.74,1.31ZM356.89,331.28c-2.23-2.3-4.51-4.55-6.67-6.91-2.2-2.41-4.66-4.44-7.73-5.59-5.18-1.95-10.57-1.88-15.98-1.35-3.4.33-6.8.69-10.2,1.11-3.06.38-6.13.73-9.15,1.31-3.85.74-7.26,4.73-7.03,9.36.23,4.86.26,9.72.52,14.57.09,1.72.45,3.47,1,5.11,1.16,3.49,2.84,6.66,5.45,9.4,2.98,3.14,6.34,5.57,10.32,7.21,9.17,3.79,18.3,3.53,27.37-.35,1.77-.76,1.89-.81,1.4-2.58-.6-2.17.62-3.02,2.57-2.87,1.52.12,3.02.38,4.53.59,2.54.35,5.09.74,7.59-.1,1.86-.63,3.61-1.49,4.7-3.39-15.46-5.71-30.8-11.38-46.14-17.05.57-.17,1.09-.19,1.61-.12,6.1.84,11.99,2.5,17.76,4.61,7.07,2.58,14.1,5.29,21.17,7.88,2.26.83,4.61,1.44,6.92,2.15-.25-.79-.66-1.34-1.03-1.91-1.23-1.9-1-2.67,1.03-3.63.45-.21.87-.49,1.34-.63.83-.24,1.06-.77,1.05-1.58-.03-2.15-.03-4.3-.01-6.44.01-2.12-.21-4.09-1.72-5.85-1.55-1.8-2.76-3.9-4.2-5.81-2.78-3.71-5.65-7.35-8.42-11.07-.94-1.26-1.36-2.73-.85-4.33,1.39-4.33,2.64-8.71,4.19-12.98,1.65-4.55,3.52-9.01,5.38-13.48,1.69-4.06,3.85-7.84,7.19-10.81.83-.74,1.66-1.54,2.63-2.03,3.12-1.58,4.54-4.18,4.45-7.53-.24-8.57-.61-17.14-.94-25.71-.14-3.67-.31-7.33-.48-11-.08-1.59-.2-3.18-.3-4.77.11-.07.22-.14.33-.22.39.44,1.05.85,1.12,1.34.43,2.78.74,5.58,1.05,8.39.22,2.05.39,4.1.56,6.15.56,7.06,1.12,14.13,1.64,21.2.16,2.22.16,4.45.31,6.67.14,2.01.76,2.63,2.74,2.43,1.75-.18,3.47-.65,5.19-1.05.19-.05.38-.48.42-.76.68-4.73,1.33-9.46,1.99-14.19.21-1.55.2-3.02-.4-4.57-1.01-2.63-1.87-5.35-2.45-8.1-.5-2.36-.66-4.82-.76-7.24-.22-5.04.67-9.97,1.81-14.86.59-2.56,1.53-5.14.85-7.78-.52-2.03-1.29-4.04-2.22-5.92-1.6-3.23-3.38-6.38-5.15-9.53-3.04-5.38-6.57-10.42-10.49-15.19-1.7-2.06-3.33-4.19-5.16-6.12-4.03-4.23-8.11-8.42-12.3-12.49-2.18-2.12-4.57-4.04-6.99-5.88-5.5-4.19-11.23-8.02-17.19-11.55-4.33-2.57-9-4.21-13.65-5.92-1.19,1.28-1.27,1.38-.05,2.3,1.63,1.23,3.4,2.3,5.12,3.41,5.08,3.27,10.3,6.34,15.22,9.84,5.77,4.11,10.96,8.97,15.63,14.3,2.87,3.27,5.31,6.91,7.91,10.41.59.79.98,1.72,1.54,2.53,2.61,3.78,3.11,8.32,4.77,12.5-.64.27-1.1.47-1.43.61-1.22-2.25-2.33-4.4-3.55-6.49-1.7-2.9-3.41-5.81-5.26-8.61-1.56-2.36-3.32-4.59-5.04-6.83-3.03-3.97-6.56-7.48-10.21-10.88-3.36-3.12-6.82-6.08-10.64-8.61-3.39-2.24-6.72-4.61-10.28-6.56-5.09-2.77-10.31-5.3-15.56-7.76-4.71-2.21-9.64-3.81-14.75-4.81-5.14-1.01-10.3-1.23-15.49-.34-1.3.23-2.18,1-2.5,2.27-.19.75-.28,1.55-.26,2.32.06,2.8.26,5.61.24,8.41-.02,3.2-1.21,5.9-3.82,7.91-.43.33-.78,1-.82,1.54-.3,4.69-.52,9.38-.76,14.08-.32,6.13-.65,12.27-.96,18.4-.05,1.05,0,2.11,0,3.23.45.02.81.06,1.17.06,13.13.02,26.27.03,39.41.04,2.27,0,4.54-.02,6.81-.05,3.13-.04,6.27-.24,9.4-.11,2.81.12,5.02,1.36,5.18,4.64.03.7.15,1.39.15,2.09-.05,4.75-.18,9.49-.18,14.24-.03,25.12-.04,50.23-.07,75.35,0,1.89-.08,3.8-.25,5.68-.37,4.02-2.15,6.32-5.49,6.66-1.67.17-3.38.05-5.07-.04-2.26-.13-4.51-.48-6.77-.54-5.49-.15-10.98-.21-16.46-.26-11.39-.12-22.79-.21-34.18-.3-1.34-.01-2.09.86-1.82,2.14.72,3.44,1.41,6.89,2.25,10.31,1.49,6.02,3,12.04,5.61,17.7,1.63,3.54,3.13,7.14,4.91,10.6,1.67,3.25,3.54,6.39,5.49,9.48,1.31,2.07,2.95,3.93,4.33,5.97.3.45.35,1.46.04,1.84-.43.53-1.29.71-1.92,1.02-1.62-2.62-3.14-5.06-4.63-7.52-1-1.66-1.96-3.35-2.91-5.03-.3-.53-.65-.9-1.26-.48-.52.36-1.44.51-.9,1.52,1.2,2.23,2.28,4.53,3.63,6.67.73,1.15,1.87,2.05,2.89,3,.81.75,1.71,1.41,2.56,2.1-1.2,2.55-2.82,2.77-4.38.58-1.27-1.77-2.49-3.56-3.7-5.37-1.95-2.94-3.91-5.88-5.79-8.87-1.36-2.16-2.65-4.37-3.9-6.6-2.08-3.72-4.3-7.38-6.1-11.23-2.63-5.62-3.3-11.84-4.9-17.77-.57-2.11-.89-4.28-1.5-6.37-.58-1.99-1.88-3.42-4.03-3.72-1.41-.2-2.85-.23-4.28-.23-9,0-18.01.04-27.01.08-2.27.01-4.53.21-6.8.15-3.91-.1-5.45-1.67-5.53-5.56-.05-2.35.02-4.71.02-7.06.02-20.49.04-40.98.05-61.47,0-5.04-.03-10.08-.03-15.12,0-4.42-.06-8.84.05-13.26.07-3.16,1.33-4.79,4.21-4.88,2.22-.06,4.44,0,6.66,0,12.59-.06,25.19-.15,37.78-.18,2.07,0,3.97-.31,5.8-1.38,1.14-.67,1.86-1.44,1.98-2.74.44-4.72.88-9.43,1.3-14.15.24-2.71.45-5.42.65-8.13.2-2.67.43-5.34.52-8.02.04-1.14.17-2.44-1.14-3.16-2.42-1.33-2.92-2.76-2.74-5.49.25-3.65.24-7.32.17-10.97-.03-1.77-2.24-3.99-4.02-4.17-4.79-.47-9.59-1.05-14.4-1.17-3.98-.1-8,.2-11.96.67-8.8,1.04-16.91,4.05-24.29,9.04-2.68,1.81-5.54,3.35-8.28,5.07-5.11,3.21-10.35,6.25-15.26,9.76-5.76,4.12-10.84,9.09-15.74,14.2-1.79,1.87-3.54,3.8-5.11,5.85-3.57,4.66-7.07,9.38-10.51,14.14-1.66,2.3-3.19,4.7-4.61,7.15-1.87,3.23-3.74,6.49-5.32,9.87-1.84,3.94-3.69,7.92-4.95,12.06-1.9,6.23-3.51,12.57-4.83,18.95-.82,3.97-1.08,8.09-1.22,12.16-.27,7.86-.03,15.68,1.56,23.45,1.43,7,2.58,14.05,5.15,20.77,1.86,4.87,3.47,9.83,5.33,14.69,1.63,4.25,3.4,8.46,5.2,12.64,1.64,3.81,3.36,7.58,5.13,11.33,1.69,3.56,3.44,7.1,5.25,10.6,1.62,3.14,3.33,6.24,5.06,9.32,1.69,3,3.44,5.98,5.23,8.92,1.66,2.74,3.38,5.44,5.13,8.12,1.75,2.68,3.55,5.33,5.38,7.96,1.55,2.22,3.1,4.45,4.76,6.59,3.55,4.58,7.14,9.12,10.79,13.63,1.96,2.42,3.97,4.83,6.16,7.04.96.97,2.36,1.74,3.68,2.04,2.72.62,5.51,1.03,8.3,1.21,5.55.35,11.12.54,16.68.71,5.07.15,10.15.18,15.23.26,5.86.09,11.72.17,17.58.25,7.06.09,14.12.2,21.17.24,12,.08,24.02.4,35.97-1.21.36-.05.9-.44.96-.75.12-.57.47-1.39-.47-1.68-1.96-.61-3.9-1.46-5.9-1.69-7.86-.89-15.73-1.69-23.61-2.31-6.9-.54-13.82-1.05-20.73-1.11-7.42-.06-14.84.36-22.25.68-2.96.13-5.91.52-8.85.84-4.05.44-8.09,1.09-12.15,1.33-3.9.23-7.82.04-11.74.03-1.93,0-3.86,0-6.11,0,.36-.32.42-.41.48-.42,4.75-.78,9.5-1.6,14.26-2.31,5.98-.9,11.97-1.81,17.97-2.52,5.19-.62,10.41-1.15,15.62-1.4,9.28-.44,18.56-.04,27.8.96,4.5.48,9,1,13.5,1.54,5.72.69,11.44,1.42,17.16,2.12,1.24.15,2.5.22,3.76.33.65-4.79,1.5-9.27,3.85-13.36,1.54-2.68,3.08-5.29,5.08-7.69,2.9-3.49,6.36-6.3,9.97-9.38-.67,0-1.2-.09-1.69.02-1.4.31-2.85.54-4.16,1.09-6.89,2.89-14.14,3.81-21.5,3.9-6.55.08-13.11-.24-19.67-.36-6.19-.11-12.38-.22-18.57-.24-5.98-.01-11.97.08-17.95.15-3.59.05-7.18.22-10.76.23-6.06.02-12.11.46-18.17-.17-7.05-.73-13.48-2.91-18.93-7.57-.69-.59-1.33-1.23-2.07-1.76-2.13-1.52-4.35-2.93-6.45-4.51-3.98-2.99-7.98-5.96-11.8-9.16-3.02-2.52-5.91-5.24-8.61-8.1-1.87-1.99-3.45-4.3-4.95-6.6-1.95-3-3.77-6.08-5.5-9.21-1.69-3.05-3.22-6.19-4.75-9.33-1.82-3.73-3.63-7.46-5.34-11.24-1.66-3.66-3.36-7.32-4.72-11.1-1.07-2.96-1.92-6.06-2.42-9.17-1.41-8.8-1.73-17.71-1.98-26.61-.13-4.7-.05-9.41.16-14.11.32-7.08.65-14.17,1.32-21.22.53-5.55,1.48-11.04,3.46-16.33,1.55-4.16,2.92-8.37,5.29-12.18,1.73-2.79,3.32-5.67,4.99-8.49,2.16-3.64,4.38-7.25,6.51-10.9.44-.75.89-.94,1.75-.59-1.06,2.39-1.95,4.81-3.17,7.03-1.85,3.38-4.15,6.52-5.86,9.95-2.06,4.14-4.08,8.38-5.46,12.78-1.86,5.94-3.46,12.01-4.51,18.14-1.15,6.68-1.81,13.48-2.19,20.25-.33,5.71-.1,11.47.13,17.2.25,6.24.94,12.43,2.42,18.54,1.54,6.34,2.7,12.78,5.25,18.84,1.74,4.12,3.32,8.31,5.19,12.37,1.61,3.5,3.48,6.89,5.33,10.27,1.66,3.02,3.39,6.01,5.2,8.94,1.71,2.76,3.56,5.42,5.38,8.11,2.8,4.15,6.2,7.76,9.87,11.15,3.75,3.47,7.89,6.35,12.44,8.6,6.28,3.12,12.92,5.35,19.6,7.42,6.99,2.17,14.14,3.57,21.47,3.74,4.2.1,8.4-.31,12.61-.36,4.08-.05,8.17.04,12.25.14,5.32.13,10.63.33,15.95.49,4.21.13,8.42.18,12.62.36,5.97.26,11.93.64,17.9.92,4.09.19,7.82-1.43,11.65-2.51.39-.11.67-.95.79-1.49.04-.21-.47-.64-.82-.8-2.68-1.26-5.42-2.39-8.05-3.74-4.77-2.44-8.34-6.23-11.28-10.62-2.53-3.78-3.72-8.15-4.8-12.47-1.39-5.58-1.54-11.34-1.47-17.08.04-2.98,1.2-5.51,3.86-7.16,1.39-.87,2.73-1.84,4.16-2.64,3.34-1.85,6.66-3.77,10.11-5.38,7.36-3.45,15.12-4.73,23.24-3.76,4.33.52,8.15,2.38,12.03,4.07-.44,1.42-1.37,1.47-2.54,1.3-5.88-.84-11.76-1.75-17.72-1.4-2.81.17-5.65.58-8.39,1.24-1.82.44-3.57,1.39-4.52,3.33.2.07.31.14.42.14.5,0,.99-.01,1.48-.07,6.09-.62,12.19-.74,18.28-.17,3.91.37,7.71,1.19,11.38,2.68,3.04,1.24,5.64,3.05,7.75,5.53,1.66,1.95,2.53,4.31,2.84,7.02ZM262.56,196.09v-.03c-11.77,0-23.54,0-35.31,0-5.45,0-10.91-.1-16.35.05-4.02.11-6.13.93-5.99,6.15.08,2.97.05,5.95.05,8.92,0,19.62,0,39.24,0,58.86,0,7.19,0,14.37,0,21.56,0,3.38,1.62,5.03,4.96,5.1,1.03.02,2.06,0,3.09,0,17.25-.07,34.51-.16,51.76-.2,13.71-.03,27.42-.02,41.13,0,3.63,0,7.26.18,10.88.14,1.72-.02,3.6-.19,4.38-2.12.49-1.22.93-2.57.94-3.86.15-13.95.19-27.91.29-41.86.06-8.46.18-16.92.24-25.38.05-7.27-.02-14.54.11-21.81.06-3.1-2.29-5.04-4.6-5.28-1.51-.16-3.04-.23-4.56-.23-17.02-.02-34.03,0-51.05,0ZM323.12,42.44c-.58,0-1.07,0-1.56,0-16.59.05-33.19.13-49.78.16-17.63.03-35.26,0-52.9.02-1.19,0-2.39.08-3.57.25-6.63.99-10.38,4.68-10.85,11.39-.22,3.16-.16,6.35-.22,9.52,0,.44-.04.87-.05,1.29-2.39.24-2.44.2-2.44-2.02,0-6.24,0-12.47,0-18.71v-1.69c-3.24,0-6.35-.1-9.46.03-1.97.08-2.89,1.02-3.22,2.98-.25,1.45-.37,2.94-.38,4.42-.01,2.97.1,5.94.14,8.91.03,1.89-.1,3.79.04,5.67.22,2.95,2.05,4.79,4.98,4.73,2.48-.05,4.96-.57,7.44-.83,1.17-.13,2.55-.58,3.48-.14,2.86,1.33,5.85,1.37,8.84,1.41,13.45.15,26.91.2,40.37.27,6.48.03,12.97.08,19.45.04,14.03-.07,28.07-.17,42.1-.31,2.08-.02,4.16-.11,6.05-1.37,1.05-.71,1.58-1.43,1.58-2.67,0-7.56.04-15.11.07-22.67,0-.16-.04-.32-.09-.67ZM433.31,235.77c-1.23-1.64-1.13-3.33-1.11-5.02.07-4.97-.84-9.67-3.4-14.06-2.56-4.38-6.06-7.74-10.23-10.48-1.89-1.24-3.83-2.44-5.85-3.44-3.27-1.63-6.1-.61-7.3,2.55-.68,1.79-1.29,3.63-1.68,5.5-.7,3.38-1.36,6.79-1.78,10.21-.92,7.57-.75,15.06,2.91,22.03,1.24,2.36,2.56,4.7,4.03,6.93.65,1,1.74,1.71,2.73,2.66.83-1.27,1.45-2.23,2.1-3.24,2.79,2.17,5.5,4.28,8.38,6.51-.03-.59-.01-.92-.07-1.23-.4-2.23-.82-4.46-1.23-6.68q-.35-1.89,1.5-2.29c.11-.02.24.03.42.05,1.65,5.88,3.3,11.76,4.95,17.65.1.01.2.02.31.03.27-.84.76-1.68.76-2.51-.02-2.42-.13-4.84-.41-7.24-.36-3.09,1.07-6,3.78-7.21,2.43,3.33,4.87,6.67,7.42,10.16.85-2.23,1.58-4.29,2.42-6.32,2.16-5.26,1.85-10.84,2.09-16.33.16-3.79.05-7.6.06-11.4,0-.39,0-.79,0-1.16h2.63c.29,3.61-.18,7.07-.76,10.53-.52,3.11-.73,6.17.47,9.25.51,1.31.61,2.95.35,4.34-.36,1.89-1.2,3.7-1.92,5.51-.99,2.49-2.04,4.95-3.13,7.4-.35.79-.32,1.32.67,1.84,1.18-1.06,2.47-2.12,3.65-3.29,3.54-3.5,7.04-7.03,10.54-10.57,2.4-2.43,4.81-4.86,7.11-7.38,1.26-1.39,2.55-2.85,3.39-4.5,2.36-4.6,2.87-9.57,2.3-14.68-.68-6.07-2.99-11.37-7.59-15.48-1.48-1.32-3.22-2.37-5.21-2.89-.79,1.02-1.5,1.94-2.23,2.88-.62-1.64-1.11-3.26-1.84-4.77-.85-1.78-2.09-2.23-4-1.71-.51.14-1.04.29-1.51.53-3.86,2.01-7.75,3.97-11.55,6.08-2.95,1.64-4.48,4.25-4.23,7.65.13,1.69.5,3.44,1.14,5.01,2.45,6.04,2.74,12.14.91,18.57ZM377.93,372.04c-.74.29-1.02.36-1.26.49-2.52,1.4-5.03,2.8-7.54,4.22-.74.42-1.65.71-2.18,1.32-1.99,2.29-3.84,4.71-5.78,7.05-1.01,1.22-2.11,2.37-3.06,3.44-.63-.45-1.09-.77-1.89-1.34,8.63-4.82,12.39-12.7,15.39-21.4-3.6.14-7.07.08-10.49.45-4.49.49-8.7,2.1-12.84,3.86-6.94,2.96-12.96,7.28-18.39,12.45-.86.82-1.56,1.83-2.44,2.63-2.87,2.61-4.67,5.93-6.17,9.39-.72,1.66-.99,3.57-1.2,5.4-.39,3.46.16,6.84,1.57,10.03,1.16,2.62,2.49,5.17,3.7,7.77,1.46,3.13,3.5,5.87,5.9,8.3,1.24,1.26,2.79,2.03,4.73,2.01,7.67-.06,15.1-1.38,22.15-4.36,5.12-2.16,9.18-5.69,12-10.58,2.28-3.95,2.69-8.43,3.58-12.74,1.37-6.69,2.38-13.46,3.43-20.21.4-2.58.51-5.21.78-8.16ZM411.45,356.51c.3.43.66.84.91,1.3,1.29,2.44,3.43,3.71,6,4.36,3.83.97,7.64,1.99,11.49,2.86,4.89,1.11,9.79,1.09,14.69-.11,7.12-1.74,12.7-5.71,16.88-11.64,1.69-2.4,2.67-5.19,3.33-8.07.23-.99.64-1.95,1.03-2.89.85-2.03,1.97-3.97,2.55-6.07.63-2.29.02-4.69-2.02-5.96-3.37-2.1-7-3.77-10.5-5.65-1.89-1.01-3.75-2.06-5.83-3.21,2.27-.46,4.29-.82,6.27-1.32.48-.12.94-.71,1.17-1.2.09-.19-.38-.79-.72-1.03-1.05-.72-2.12-1.43-3.25-2-1.09-.55-2.24-1.16-3.42-1.33-2.76-.39-5.56-.73-8.34-.75-6.89-.04-12.93,2.57-18.38,6.59-2.58,1.9-5.03,3.99-7.48,6.06-4.34,3.66-8.63,7.37-12.94,11.06-.24.2-.42.46-.66.72,1.49,1.68,3.3,2.7,5.31,3.37,2.88.95,5.7.23,8.53-.33,2.22-.44,4.46-.8,6.7-1.19.04.16.09.33.13.49-6.54,3.41-13.08,6.81-19.6,10.21.07.89.48,1.26,1.3,1.15.49-.06.98-.13,1.47-.16,7.58-.34,15.15-.68,22.73-1,4.9-.21,9.8-.39,14.71-.59.68-.03,1.35-.1,2.07-.15v1.3c-1.21.22-2.37.55-3.55.63-7.31.52-14.63,1.05-21.95,1.45-3.17.17-6.12.76-8.62,3.11ZM498.5,240.14c.07-1.13.17-2.07.19-3.01.11-3.62-2.49-4.97-5.48-4.78-1.39.09-2.78.37-4.12.75-4.58,1.32-9.19,2.56-13.67,4.17-3.28,1.18-6.76,2.02-9.42,4.69-1.37,1.38-1.96,2.67-1.75,4.56.34,3.11-1.05,5.47-3.47,7.31-1.1.84-2.17,1.7-3.24,2.54,1.05,1.74,1.38,1.92,2.35,1.35,5.19-3.03,10.37-6.06,15.56-9.08.41-.24.85-.42,1.28-.63l.26.21c-.14.31-.21.7-.44.91-3.91,3.64-7.86,7.24-11.76,10.9-2.86,2.68-5.64,5.43-8.47,8.13-.72.69-1.5,1.31-2.25,1.97,1.03.25,1.93.24,2.82.25,5.02.09,10.05.1,15.06.32,1.62.07,3.21.68,4.82,1.04-.02.13-.05.25-.07.38-.48.08-.96.19-1.45.23-7.38.69-14.76,1.36-22.14,2.07-.34.03-.88.39-.92.65-.08.57-.46,1.38.47,1.68,1.01.32,2.03.73,3.07.86,4.12.52,8.26.96,12.39,1.41,4.62.51,9.24,1.24,13.87,1.43,4.95.2,9.85-.44,14.53-2.31,6.08-2.43,11.07-6.11,14.09-12.07,1.22-2.4,1.88-4.88.92-7.62-.65-1.86-.54-3.84-.03-5.73.59-2.16,1.44-4.26,1.93-6.45.91-4.08-.5-5.68-4.24-6.09-2.28-.25-4.6-.06-6.9-.06-1.23,0-2.46,0-3.77,0ZM264.61,130.83c5.42-.25,9.95-.45,14.48-.66,7.74-.37,15.38-1.54,22.97-3.03.33-.06.78-.49.84-.81.19-1.01.23-2.04.3-3.07.22-3.58.71-7.16.57-10.72-.16-4.01-1.63-6.46-5.69-7.68-4.91-1.47-9.93-2.36-15.05-2.44-5.03-.08-10.07.04-15.1.15-4.41.1-8.82.29-13.22.48-7.49.34-14.98.74-22.48,1.06-2.94.12-5.72.62-8.06,2.55-.82.68-1.4,1.44-1.37,2.62.06,2.35-.13,4.72.06,7.06.23,2.78.61,5.56,1.17,8.29.55,2.65,1.09,2.98,3.8,3.3.98.12,1.97.18,2.95.29,4.04.46,8.08,1.09,12.13,1.38,7.52.53,15.06.87,21.71,1.24ZM100.75,228.55c.21.03.42.05.63.08v15.3c.34-.14.46-.3.52-.48.87-2.83,1.94-5.62,2.54-8.5,1.75-8.38,1.31-16.41-4.56-23.31-1.3-1.53-2.64-3.09-4.19-4.35-2.12-1.73-4.46-3.18-6.71-4.75,1.32-1.63,1.31-1.61,3.35-.78,2.66,1.09,5.34,2.17,8.02,3.22,1,.4,2.04.72,3.17,1.11-.17-1.89-.22-3.58-.5-5.23-.27-1.61-.57-3.17-2.36-4.06-2.42-1.19-4.79-.87-7.06.02-2.5.99-4.85,2.35-7.48,3.66-.69-.51-1.67-1.24-2.67-1.95-.8-.57-1.59-1.19-2.46-1.66-2.07-1.11-3.53-.71-4.65,1.33-.76,1.39-1.38,2.87-2,4.33-1.08,2.53-1.98,5.16-3.2,7.62-1.78,3.58-2.94,7.25-3.03,11.3-.11,4.85,1.16,9.31,3.16,13.66,1.17,2.56,2.48,4.92,4.61,6.9,3.16,2.95,6.75,4.85,10.96,5.5,1.67.26,3.42.36,5.21-.25-2.69-6.71-5.32-13.3-7.97-19.93,1.25-.46,1.45.55,1.74,1.11,1.82,3.54,3.59,7.11,5.33,10.7,1.37,2.82,2.59,5.71,4.05,8.48.44.83.72,2.34,2.44,1.83,1.04-6.99,2.08-13.95,3.11-20.92ZM320.52,73.95h-115.04c.68,2,1.27,3.86,1.95,5.69,1.14,3.06,3.54,4.55,6.65,4.59,6.27.07,12.54-.04,18.81-.14,7.46-.12,14.92-.33,22.39-.48,5.73-.12,11.47-.25,17.2-.28,8.55-.05,17.09,0,25.64,0,5.41,0,10.81.03,16.22-.07,2.73-.05,3.94-1.06,4.76-3.67.56-1.79.94-3.64,1.44-5.62ZM205.64,39.14h1.45c37.57,0,75.14,0,112.72,0,.21,0,.46.08.61-.02.37-.23.85-.47,1-.82.16-.36.16-.99-.06-1.3-.89-1.29-1.87-2.5-2.84-3.73-1.88-2.4-4.28-3.8-7.39-3.77-7.55.08-15.1.22-22.65.23-24.03.03-48.06.01-72.09.01-1.81,0-3.54.34-5.01,1.44-2.68,1.99-4.29,4.78-5.74,7.96ZM83.38,308.7c1.04-2.36.68-4.47-.24-6.52-1.3-2.88-2.61-5.75-4-8.58-.75-1.54-1.57-3.06-2.57-4.45-.75-1.05-1.81-1.89-2.77-2.78-4.06-3.76-8.88-5.99-14.38-5.94-7.08.07-14.16.65-21.24.95-2.45.1-4.32,1.26-6.1,2.78,1.41,1.81,3.17,1.89,5.1,1.51,1.73-.34,3.48-.7,5.23-.85,6.5-.56,12.57,1.23,18.51,3.58,4.25,1.68,8.4,3.61,12.7,5.15,1.97.71,2.78,1.96,3.18,3.78-.76.9-1.55.53-2.29.04-3.64-2.38-7.6-4.11-11.69-5.53-5.63-1.95-11.45-3.01-17.37-3.56-1.65-.15-3.31-.22-4.97-.32-.1.15-.21.29-.31.44,1.57,2.18,3.14,4.36,4.71,6.54,2.92,4.04,6.52,7.37,10.54,10.31,3.5,2.55,7.23,4.57,11.36,5.87,4.24,1.34,8.54,1.7,12.92.74.95-.21,1.41-.57,1.32-1.64-.11-1.25-.03-2.51-.03-3.77l.3-.11c.65.74,1.31,1.49,2.09,2.38ZM411.77,172.59c.33.06.6.16.88.15,3.62-.06,7.25.08,10.84-.25,6.41-.59,12.37-2.82,17.8-6.21,3.51-2.19,6.93-4.63,10.01-7.38,3.8-3.38,7.23-7.18,10.78-10.83,1.43-1.47,2.84-2.97,4.14-4.55.86-1.05,2.52-1.95,1.1-3.85-.72.12-1.53.24-2.33.4-3.15.62-6.28,1.34-9.45,1.87-9.62,1.59-18.8,4.47-27.33,9.25-4.03,2.26-7.92,4.72-10.91,8.34-3.1,3.75-5.28,7.91-5.54,13.06ZM471.35,297.95c1.18.62,2.06,1.09,2.96,1.55,1.92.99,3.93,1.75,5.11,3.86,1.88,3.37,4.62,4.39,8.37,3.39,1.43-.38,2.81-.93,4.24-1.32,3.37-.92,6.77-1.74,10.12-2.73.85-.25,1.7-.86,2.31-1.53,1.76-1.95,3.4-4.01,5.08-6.03,1.1-1.33,2.2-2.65,3.27-4,.7-.88,1.34-1.81,2.17-2.93-20.44-2.44-40.61-4.85-60.67-7.25-.79,1.44-.19,1.89.96,2.24,4.87,1.5,9.72,3.07,14.58,4.61,5.64,1.79,11.28,3.57,16.95,5.36,0,1.16-.59,1.43-1.52,1.22-5.06-1.11-10.12-2.23-15.18-3.34-2.68-.59-5.35-1.17-8.07-1.77-.21.6-.38,1.09-.59,1.67,4.25,1.96,8.39,3.87,12.67,5.85-.95.39-1.69.7-2.75,1.14ZM236.04,97.36c.55,0,1.04,0,1.52,0,17.22,0,34.45,0,51.67,0,.25,0,.55.09.73-.02.36-.22.81-.5.92-.85.18-.57.08-1.23.17-1.84.3-1.99.64-3.97.97-6.02h-55.99v8.72ZM366.56,120.29c0,4.14-.13,7.97.04,11.79.17,3.68.79,7.28,1.93,10.86,2.07,6.49,5.44,12,11.04,15.91,2.79,1.95,5.86,3.48,8.83,5.17.47.27,1.05.36,1.93.64-4.17-6.28-8.14-12.26-12.13-18.26.88-.94,1.65-.84,2.68.08,2.55,2.29,4.55,4.95,6.22,7.91,1.01,1.79,2.19,3.48,3.29,5.22.36-.57.47-1.05.48-1.52.06-3.15-.95-5.98-2.29-8.83-2.09-4.42-4.53-8.61-7.53-12.43-3.38-4.29-6.97-8.41-10.53-12.55-1.19-1.38-2.56-2.6-3.96-3.99ZM35.74,230.24c1.41,2.05,2.66,3.86,3.9,5.67,2.79,4.09,6.4,7.3,10.71,9.67,2.55,1.41,5.22,2.63,7.93,3.69,1.22.48,2.69.58,4.01.45,2.66-.25,5.3-.76,7.94-1.19,1.23-.2,2.44-.46,3.77-.72-.23-.42-.32-.64-.46-.84-2.76-3.96-5.86-7.62-9.51-10.8-4.76-4.14-10.04-7.15-16.46-7.77-3.94-.38-7.7.29-11.82,1.83ZM75.81,318.24c-.29-.4-.34-.54-.43-.58-3.41-1.54-6.79-3.14-10.24-4.58-5.87-2.46-11.54-5.31-16.25-9.63-3.8-3.5-7.23-7.4-10.82-11.13-1.12-1.17-2.2-2.38-3.43-3.72-.04.41-.08.53-.06.64.96,5.27,2.25,10.39,4.96,15.12,2.05,3.58,4.36,6.87,7.49,9.55.87.74,1.82,1.38,2.76,2.04,5.52,3.86,11.68,4.96,18.23,4.03,2.57-.36,5.08-1.11,7.78-1.73ZM58.77,227.78c.74,0,1.5.09,2.22-.04.37-.06.89-.45.98-.78,1.38-5.27,2.72-10.55,3.99-15.85.12-.51-.11-1.35-.49-1.71-1.85-1.76-4.06-2.89-6.68-2.6-3.14.35-6.27.85-9.38,1.42-1.81.33-3.24,1.47-3.76,3.24-1.23,4.2-.95,8.32,1.98,11.78,2.87,3.39,6.77,4.66,11.14,4.53ZM338.02,68.36c0-8.23,0-16.31,0-24.4,0-.78-.44-.84-1.04-.83-2.56.01-5.12,0-7.67,0-.44,0-.87,0-1.3,0v25.22h10.01ZM109.47,198.11c-1,2.68-1.98,5.29-2.94,7.92-.36.99-.74,1.98-.97,3-.52,2.36.59,4.37,1.51,6.42,2.96,6.59,3.95,13.39,1.91,20.45-.41,1.43.05,2.71.61,4.11,1.01-.98,2.03-1.95,2.69-3.12,2.38-4.2,2.94-8.87,3.13-13.58.2-5.09-.44-10.11-1.66-15.05-.89-3.6-2.12-7.05-4.29-10.15ZM379.83,388.43c-.11-.02-.22-.04-.33-.06-1.51,2.08-2.32,4.48-3,6.92-1.21,4.38-2.27,8.8-3.55,13.15-1.12,3.81-2.68,7.44-5.52,10.34-1.26,1.3-2.48,2.69-3.92,3.75-4.38,3.2-9.41,4.83-14.74,5.55-1.51.2-3.02.38-4.78.6.37.24.48.36.62.41,3.41,1.2,6.95,1.72,10.47,1.03,8.8-1.7,15.07-7.01,19.52-14.56,2.5-4.24,3.24-9.12,4.03-13.88.73-4.37.82-8.84,1.2-13.27ZM474.47,310.84c-.03.14-.06.27-.09.41,1,.42,2,.86,3.01,1.25,8.93,3.46,17.48,2.61,25.49-2.58,4.63-3,7.76-7.39,10.29-12.22.26-.5.46-.9-.19-1.35-.77-.54-1.22-.43-1.7.34-2.02,3.29-4.44,6.26-7.42,8.7-1.17.96-2.63,1.87-4.08,2.12-4.86.86-9.77,1.44-14.67,2.08-3.54.46-7.1.84-10.64,1.26ZM259.47,142.58c-.08,0-.15,0-.23,0,.09,1.73.18,3.45.27,5.18.11,2.1,1.42,3.61,2.91,3.5,1.7-.13,3.38-.52,5.06-.88.2-.04.39-.57.43-.88.1-.94.09-1.89.16-2.83.2-2.67.5-5.33.6-8,.07-1.88-.96-3.03-2.68-3.05-1.72-.02-3.45.2-5.17.31-1,.07-1.33.73-1.35,1.59-.03,1.69,0,3.37,0,5.06ZM407.57,251.84c-.4-.35-.66-.59-.94-.81-3.36-2.62-6.04-5.85-7.85-9.67-2.99-6.32-2.86-13.01-1.84-19.74.36-2.38.85-4.74,1.31-7.28-1.13.13-2.12.25-3.11.37-.09,1.95-.24,3.76-.25,5.56-.03,7.54-.06,15.08,0,22.62.02,2.54.55,5,2.32,7,2.27,2.57,6.3,3.36,10.37,1.94ZM440.85,369.42c.6.14.78.23.97.23,2.96-.02,5.94.18,8.86-.14,3.98-.43,7.59-2.07,10.81-4.48,2.27-1.7,3.59-4.13,4.74-6.64.32-.71.35-1.55.51-2.32l-.29-.21c-8.43,4.47-16.85,8.93-25.6,13.57ZM262.81,192.63c1.01-12.37,1.99-24.51,2.98-36.69-.36-.08-.72-.19-1.09-.24-1.76-.25-1.89-.12-1.97,1.66-.08,1.73-.18,3.46-.31,5.18-.39,5.17-.79,10.35-1.2,15.52-.22,2.83-.43,5.67-.68,8.49-.17,1.89-.41,3.77-.63,5.74,1.04.12,1.92.22,2.89.34ZM423.86,305.47c-1.83,4.53-3.57,8.84-5.31,13.15.11.08.22.17.33.25,5.21-2.54,10.42-5.07,15.63-7.61,0-.13-.02-.26-.03-.39-3.5-1.78-6.99-3.56-10.62-5.4ZM387.41,384.21c.45-2.53.85-4.71,1.29-7.17-.78.31-1.29.46-1.75.69-1.88.94-2.19,1.96-1.15,3.79.45.78.92,1.54,1.61,2.69Z"/>
      <path class="cls-2" d="M428.37,382.12c-1.99-1.13-3.99-2.22-5.95-3.4-3.96-2.37-7.9-4.78-12.03-7.29,1.98-.39,3.71.04,5.39.54,3.01.89,5.69,2.36,8.17,4.37,1.96,1.59,3.57,3.31,4.64,5.57-.07.07-.14.14-.21.21Z"/>
      <path class="cls-2" d="M447.73,388.31c-.55.56-.85.86-1.2,1.23-.76-1-1.39-1.84-2.03-2.68.1-.12.21-.23.31-.35.89.55,1.77,1.09,2.92,1.8Z"/>
      <path class="cls-2" d="M434.45,375.97l2.4,2.56c-.1.13-.21.25-.31.38-.87-.58-1.77-1.12-2.57-1.77-.16-.13.06-.73.1-1.11.13-.02.25-.03.38-.05Z"/>
      <path class="cls-2" d="M437.35,379.3c-.03.06-.04.16-.08.17-.06.01-.13-.03-.2-.05l.09-.23c.06.04.13.07.19.11Z"/>
      <path class="cls-2" d="M428.59,381.91c.04.16.07.32.11.48-.11-.09-.21-.18-.32-.27.07-.07.14-.14.21-.21Z"/>
      <path class="cls-2" d="M444.59,386.35s-.13.13-.14.12c-.07-.05-.13-.13-.19-.19.06-.03.13-.09.18-.07.06.01.1.09.15.14Z"/>
      <path class="cls-1" d="M356.89,331.28c-.31-2.71-1.19-5.07-2.84-7.02-2.11-2.48-4.71-4.29-7.75-5.53-3.66-1.49-7.47-2.31-11.38-2.68-6.1-.58-12.19-.46-18.28.17-.49.05-.99.06-1.48.07-.11,0-.22-.07-.42-.14.95-1.94,2.7-2.89,4.52-3.33,2.74-.66,5.57-1.07,8.39-1.24,5.96-.36,11.84.56,17.72,1.4,1.17.17,2.1.12,2.54-1.3-3.88-1.7-7.7-3.56-12.03-4.07-8.12-.97-15.87.31-23.24,3.76-3.45,1.62-6.77,3.54-10.11,5.38-1.43.79-2.77,1.77-4.16,2.64-2.66,1.65-3.82,4.19-3.86,7.16-.08,5.73.07,11.5,1.47,17.08,1.08,4.32,2.27,8.69,4.8,12.47,2.94,4.39,6.51,8.18,11.28,10.62,2.63,1.35,5.37,2.48,8.05,3.74.34.16.86.6.82.8-.12.55-.4,1.38-.79,1.49-3.82,1.09-7.56,2.7-11.65,2.51-5.97-.28-11.93-.66-17.9-.92-4.2-.18-8.41-.24-12.62-.36-5.32-.16-10.63-.36-15.95-.49-4.08-.1-8.17-.19-12.25-.14-4.2.05-8.41.45-12.61.36-7.32-.17-14.47-1.58-21.47-3.74-6.69-2.07-13.32-4.3-19.6-7.42-4.55-2.26-8.69-5.13-12.44-8.6-3.67-3.4-7.07-7-9.87-11.15-1.82-2.69-3.67-5.36-5.38-8.11-1.82-2.93-3.55-5.92-5.2-8.94-1.85-3.38-3.72-6.77-5.33-10.27-1.87-4.06-3.45-8.25-5.19-12.37-2.56-6.06-3.71-12.5-5.25-18.84-1.48-6.11-2.17-12.3-2.42-18.54-.23-5.73-.46-11.49-.13-17.2.39-6.77,1.04-13.57,2.19-20.25,1.05-6.13,2.65-12.2,4.51-18.14,1.38-4.4,3.39-8.64,5.46-12.78,1.71-3.44,4.01-6.58,5.86-9.95,1.22-2.23,2.1-4.64,3.17-7.03-.86-.35-1.31-.16-1.75.59-2.14,3.65-4.35,7.26-6.51,10.9-1.68,2.82-3.26,5.7-4.99,8.49-2.36,3.81-3.73,8.02-5.29,12.18-1.97,5.29-2.93,10.79-3.46,16.33-.67,7.05-1,14.14-1.32,21.22-.21,4.7-.29,9.41-.16,14.11.25,8.9.57,17.8,1.98,26.61.5,3.11,1.35,6.21,2.42,9.17,1.37,3.77,3.06,7.43,4.72,11.1,1.71,3.78,3.51,7.52,5.34,11.24,1.53,3.14,3.07,6.28,4.75,9.33,1.73,3.13,3.55,6.22,5.5,9.21,1.5,2.3,3.07,4.61,4.95,6.6,2.7,2.86,5.59,5.58,8.61,8.1,3.82,3.19,7.82,6.16,11.8,9.16,2.09,1.58,4.31,2.98,6.45,4.51.73.52,1.38,1.17,2.07,1.76,5.46,4.66,11.88,6.83,18.93,7.57,6.06.63,12.11.18,18.17.17,3.59-.01,7.17-.18,10.76-.23,5.98-.08,11.97-.17,17.95-.15,6.19.02,12.38.13,18.57.24,6.56.11,13.12.44,19.67.36,7.36-.09,14.61-1.01,21.5-3.9,1.31-.55,2.76-.78,4.16-1.09.49-.11,1.02-.02,1.69-.02-3.6,3.08-7.07,5.89-9.97,9.38-2,2.4-3.54,5.02-5.08,7.69-2.35,4.09-3.2,8.58-3.85,13.36-1.26-.11-2.52-.18-3.76-.33-5.72-.69-11.44-1.43-17.16-2.12-4.5-.54-8.99-1.06-13.5-1.54-9.24-.99-18.52-1.4-27.8-.96-5.22.25-10.43.78-15.62,1.4-6.01.71-11.99,1.62-17.97,2.52-4.76.71-9.51,1.53-14.26,2.31-.07.01-.12.1-.48.42,2.24,0,4.18,0,6.11,0,3.91,0,7.84.19,11.74-.03,4.06-.24,8.1-.89,12.15-1.33,2.95-.32,5.9-.71,8.85-.84,7.41-.32,14.84-.74,22.25-.68,6.91.06,13.83.57,20.73,1.11,7.88.62,15.75,1.42,23.61,2.31,2.01.23,3.95,1.08,5.9,1.69.94.29.58,1.12.47,1.68-.06.31-.6.7-.96.75-11.95,1.61-23.96,1.29-35.97,1.21-7.06-.05-14.12-.15-21.17-.24-5.86-.07-11.72-.16-17.58-.25-5.08-.08-10.15-.11-15.23-.26-5.56-.17-11.13-.35-16.68-.71-2.78-.18-5.58-.59-8.3-1.21-1.33-.3-2.72-1.08-3.68-2.04-2.19-2.21-4.2-4.62-6.16-7.04-3.65-4.5-7.24-9.05-10.79-13.63-1.66-2.14-3.21-4.36-4.76-6.59-1.83-2.63-3.62-5.28-5.38-7.96-1.75-2.68-3.47-5.38-5.13-8.12-1.79-2.95-3.53-5.92-5.23-8.92-1.74-3.08-3.44-6.18-5.06-9.32-1.81-3.5-3.56-7.04-5.25-10.6-1.77-3.75-3.49-7.52-5.13-11.33-1.8-4.18-3.57-8.39-5.2-12.64-1.86-4.87-3.47-9.83-5.33-14.69-2.57-6.72-3.72-13.77-5.15-20.77-1.59-7.77-1.83-15.6-1.56-23.45.14-4.07.4-8.19,1.22-12.16,1.32-6.38,2.93-12.72,4.83-18.95,1.26-4.14,3.11-8.12,4.95-12.06,1.58-3.38,3.44-6.64,5.32-9.87,1.42-2.45,2.95-4.85,4.61-7.15,3.43-4.76,6.93-9.48,10.51-14.14,1.57-2.05,3.32-3.98,5.11-5.85,4.91-5.11,9.98-10.08,15.74-14.2,4.91-3.51,10.14-6.55,15.26-9.76,2.74-1.72,5.6-3.26,8.28-5.07,7.38-4.98,15.48-8,24.29-9.04,3.96-.47,7.98-.76,11.96-.67,4.81.12,9.61.7,14.4,1.17,1.78.17,3.99,2.4,4.02,4.17.07,3.66.08,7.33-.17,10.97-.19,2.73.32,4.17,2.74,5.49,1.31.72,1.18,2.02,1.14,3.16-.08,2.68-.32,5.35-.52,8.02-.2,2.71-.41,5.42-.65,8.13-.42,4.72-.86,9.44-1.3,14.15-.12,1.3-.84,2.07-1.98,2.74-1.83,1.07-3.73,1.37-5.8,1.38-12.59.03-25.19.12-37.78.18-2.22.01-4.44-.06-6.66,0-2.88.08-4.14,1.71-4.21,4.88-.1,4.42-.05,8.84-.05,13.26,0,5.04.03,10.08.03,15.12-.01,20.49-.03,40.98-.05,61.47,0,2.35-.07,4.71-.02,7.06.08,3.89,1.62,5.46,5.53,5.56,2.26.06,4.53-.14,6.8-.15,9-.05,18.01-.07,27.01-.08,1.43,0,2.87.03,4.28.23,2.15.3,3.45,1.73,4.03,3.72.61,2.09.94,4.26,1.5,6.37,1.6,5.94,2.27,12.15,4.9,17.77,1.8,3.85,4.02,7.51,6.1,11.23,1.25,2.23,2.53,4.44,3.9,6.6,1.88,2.99,3.84,5.93,5.79,8.87,1.2,1.81,2.43,3.6,3.7,5.37,1.57,2.19,3.19,1.97,4.38-.58-.85-.69-1.75-1.35-2.56-2.1-1.02-.95-2.16-1.85-2.89-3-1.35-2.14-2.43-4.44-3.63-6.67-.55-1.01.38-1.17.9-1.52.61-.42.96-.05,1.26.48.96,1.69,1.91,3.37,2.91,5.03,1.48,2.46,3.01,4.9,4.63,7.52.63-.31,1.49-.49,1.92-1.02.3-.38.26-1.39-.04-1.84-1.37-2.04-3.02-3.9-4.33-5.97-1.95-3.09-3.82-6.24-5.49-9.48-1.78-3.46-3.28-7.07-4.91-10.6-2.62-5.66-4.13-11.68-5.61-17.7-.84-3.41-1.53-6.86-2.25-10.31-.27-1.28.48-2.15,1.82-2.14,11.39.09,22.79.18,34.18.3,5.49.06,10.98.11,16.46.26,2.26.06,4.51.41,6.77.54,1.69.1,3.39.21,5.07.04,3.34-.34,5.12-2.63,5.49-6.66.17-1.89.25-3.79.25-5.68.03-25.12.03-50.23.07-75.35,0-4.75.13-9.49.18-14.24,0-.7-.11-1.39-.15-2.09-.16-3.28-2.37-4.52-5.18-4.64-3.13-.13-6.26.07-9.4.11-2.27.03-4.54.05-6.81.05-13.13,0-26.27-.02-39.41-.04-.36,0-.73-.03-1.17-.06,0-1.12-.05-2.18,0-3.23.31-6.13.64-12.27.96-18.4.25-4.69.46-9.39.76-14.08.03-.54.39-1.21.82-1.54,2.6-2.02,3.8-4.71,3.82-7.91.02-2.8-.19-5.61-.24-8.41-.02-.77.07-1.57.26-2.32.32-1.28,1.2-2.05,2.5-2.27,5.18-.9,10.34-.67,15.49.34,5.11,1,10.05,2.6,14.75,4.81,5.25,2.46,10.47,4.98,15.56,7.76,3.56,1.94,6.89,4.31,10.28,6.56,3.82,2.53,7.28,5.49,10.64,8.61,3.66,3.4,7.18,6.91,10.21,10.88,1.72,2.25,3.48,4.48,5.04,6.83,1.86,2.8,3.56,5.71,5.26,8.61,1.22,2.08,2.32,4.24,3.55,6.49.33-.14.79-.34,1.43-.61-1.66-4.18-2.16-8.72-4.77-12.5-.56-.81-.96-1.74-1.54-2.53-2.6-3.5-5.04-7.14-7.91-10.41-4.67-5.32-9.86-10.19-15.63-14.3-4.92-3.5-10.14-6.57-15.22-9.84-1.72-1.11-3.48-2.18-5.12-3.41-1.22-.92-1.14-1.02.05-2.3,4.65,1.71,9.32,3.35,13.65,5.92,5.96,3.53,11.69,7.36,17.19,11.55,2.42,1.84,4.81,3.76,6.99,5.88,4.19,4.07,8.27,8.26,12.3,12.49,1.84,1.93,3.47,4.06,5.16,6.12,3.92,4.77,7.45,9.81,10.49,15.19,1.78,3.14,3.55,6.29,5.15,9.53.93,1.88,1.7,3.89,2.22,5.92.68,2.64-.26,5.22-.85,7.78-1.14,4.89-2.03,9.81-1.81,14.86.11,2.42.26,4.88.76,7.24.59,2.75,1.44,5.47,2.45,8.1.6,1.56.61,3.02.4,4.57-.65,4.73-1.31,9.46-1.99,14.19-.04.28-.23.71-.42.76-1.72.4-3.44.87-5.19,1.05-1.98.21-2.6-.41-2.74-2.43-.15-2.22-.15-4.45-.31-6.67-.52-7.07-1.08-14.13-1.64-21.2-.16-2.05-.33-4.11-.56-6.15-.31-2.8-.62-5.6-1.05-8.39-.08-.49-.73-.9-1.12-1.34-.11.07-.22.14-.33.22.1,1.59.22,3.18.3,4.77.17,3.67.34,7.33.48,11,.33,8.57.71,17.14.94,25.71.09,3.34-1.33,5.95-4.45,7.53-.97.49-1.8,1.3-2.63,2.03-3.34,2.97-5.5,6.75-7.19,10.81-1.86,4.47-3.74,8.93-5.38,13.48-1.55,4.27-2.8,8.65-4.19,12.98-.51,1.6-.09,3.07.85,4.33,2.76,3.72,5.63,7.36,8.42,11.07,1.44,1.91,2.64,4.01,4.2,5.81,1.51,1.76,1.73,3.73,1.72,5.85-.01,2.15-.02,4.3.01,6.44.01.8-.22,1.34-1.05,1.58-.47.13-.89.42-1.34.63-2.04.96-2.26,1.73-1.03,3.63.37.57.78,1.12,1.03,1.91-2.31-.71-4.65-1.32-6.92-2.15-7.07-2.59-14.1-5.3-21.17-7.88-5.77-2.11-11.66-3.77-17.76-4.61-.51-.07-1.04-.06-1.61.12,15.34,5.67,30.68,11.34,46.14,17.05-1.09,1.9-2.84,2.76-4.7,3.39-2.5.85-5.05.45-7.59.1-1.51-.21-3.01-.47-4.53-.59-1.95-.15-3.16.7-2.57,2.87.49,1.77.37,1.82-1.4,2.58-9.07,3.88-18.2,4.14-27.37.35-3.97-1.64-7.33-4.07-10.32-7.21-2.61-2.75-4.28-5.92-5.45-9.4-.55-1.64-.91-3.39-1-5.11-.26-4.85-.29-9.72-.52-14.57-.22-4.63,3.18-8.62,7.03-9.36,3.02-.58,6.09-.94,9.15-1.31,3.39-.42,6.79-.78,10.2-1.11,5.4-.53,10.79-.6,15.98,1.35,3.06,1.15,5.53,3.18,7.73,5.59,2.16,2.36,4.44,4.61,6.67,6.91ZM374.98,203.51l-.13-.2c.05.06.09.13.14.19.11.6.17,1.22.34,1.81,1.21,4.12,2.47,8.23,3.65,12.36,1.38,4.81,2.69,9.64,4.03,14.46.04-2.33-.13-4.64-.35-6.94-.71-7.35-2.9-14.21-6.85-20.48-.26-.41-.56-.8-.83-1.2ZM212.42,363.61c.01.11.02.23,0,.05.11.14.04.05-.03-.03-1.38-2.08-2.75-4.16-4.14-6.23-1.67-2.49-3.35-4.97-5.02-7.45-1.84-2.72-3.69-5.44-5.51-8.17-2.58-3.86-5.12-7.74-7.73-11.58-.17-.25-.75-.45-1.06-.36-1.33.38-1.66,1.54-.86,2.66,1.91,2.71,3.82,5.42,5.71,8.14,1.8,2.6,3.56,5.22,5.37,7.82,1.72,2.46,3.55,4.84,5.19,7.34,1.98,3.02,4.76,5.21,7.42,7.54.17.15.43.18.65.27ZM196.8,390.63s.06.1.09.15c0-.03.01-.07,0-.08-.03-.02-.07-.03-.1-.05-.13-.21-.23-.45-.38-.63-2.79-3.34-5.65-6.62-8.36-10.02-1.94-2.44-3.72-5.02-5.5-7.58-1.78-2.56-3.53-5.16-5.2-7.79-1.79-2.81-3.5-5.66-5.19-8.52-1.65-2.79-3.26-5.61-4.83-8.45-1.79-3.23-3.53-6.49-5.25-9.77-1.81-3.46-3.57-6.94-5.34-10.42-1.66-3.25-3.31-6.51-4.95-9.77-1.74-3.44-3.49-6.89-5.22-10.33-1.31-2.61-2.58-5.25-3.92-7.85-.53-1.02-1.21-1.96-1.93-3.12-.05,2.27,1.01,3.89,1.82,5.63,1.91,4.09,3.63,8.27,5.56,12.35,1.39,2.93,2.99,5.75,4.49,8.62,1.78,3.43,3.55,6.86,5.33,10.29,1.82,3.5,3.63,7,5.47,10.49,1.74,3.31,3.51,6.61,5.28,9.9,1.57,2.92,3.14,5.85,4.77,8.74,1.66,2.93,3.36,5.82,5.1,8.7,3.03,5.03,6.63,9.61,10.98,13.57,2.07,1.88,4.21,3.67,6.34,5.47.27.23.64.32.97.47ZM175.33,173.65c.1.08.2.16.3.24,15.56-15.03,33.13-27.15,52.66-36.43-3.66.25-7.04,1.47-10.2,3.09-5.08,2.6-10.18,5.24-14.97,8.35-5.37,3.48-10.56,7.29-15.52,11.34-3.58,2.92-6.71,6.41-9.92,9.76-.99,1.03-1.59,2.43-2.36,3.66ZM137.6,263.96c2.13-16.43,4.24-32.72,6.35-49.02-7.1,15.68-8.29,32.12-6.35,49.02ZM190.3,350.85c.09-.06.18-.13.27-.19-.18-.35-.33-.72-.54-1.06-.76-1.21-1.58-2.39-2.31-3.62-1.8-2.99-3.56-6.01-5.35-9-1.62-2.72-3.26-5.42-4.89-8.13-1.75-2.92-3.5-5.85-5.24-8.78-2.37-4-4.72-8-7.08-12.01-.31-.52-.6-1.06-.9-1.58-.09.46-.01.86.14,1.22,1.35,3.21,2.63,6.46,4.08,9.62,1.5,3.28,3.14,6.5,4.75,9.73,3.04,6.1,6.78,11.75,11.14,16.97,1.93,2.31,3.95,4.55,5.93,6.83ZM367.99,219.17c1.2,14.74,2.41,29.73,3.64,44.84,4.02-17.95-.05-37.87-3.64-44.84ZM361.25,268.44c-4.4,13.03-8.77,25.98-13.14,38.93.11.04.22.07.32.11,5.56-6.8,13.99-30.28,12.82-39.03ZM151.77,256.29c1.22-11.29,2.44-22.58,3.66-33.87-5.94,10.78-6.61,22.13-3.66,33.87ZM156.9,282.58c-1.89.44-1.92.45-1.44,1.87.73,2.16,1.55,4.3,2.27,6.46.76,2.3,1.45,4.62,2.18,6.93.49,1.55.63,1.6,2.12.66-1.7-5.28-3.4-10.58-5.12-15.92ZM348.07,334.94c4.03,3.27,7.83,6.35,11.71,9.49-.24-4.34-6.07-8.96-11.71-9.49Z"/>
      <path class="cls-1" d="M262.56,196.09c17.02,0,34.03,0,51.05,0,1.52,0,3.05.07,4.56.23,2.31.24,4.65,2.18,4.6,5.28-.13,7.27-.06,14.54-.11,21.81-.06,8.46-.18,16.92-.24,25.38-.1,13.95-.15,27.91-.29,41.86-.01,1.29-.45,2.64-.94,3.86-.78,1.93-2.66,2.1-4.38,2.12-3.63.04-7.26-.13-10.88-.14-13.71-.02-27.42-.03-41.13,0-17.25.04-34.51.13-51.76.2-1.03,0-2.06.02-3.09,0-3.34-.07-4.95-1.71-4.96-5.1-.01-7.19,0-14.37,0-21.56,0-19.62,0-39.24,0-58.86,0-2.97.03-5.95-.05-8.92-.15-5.21,1.97-6.04,5.99-6.15,5.45-.14,10.9-.05,16.35-.05,11.77,0,23.54,0,35.31,0v.03Z"/>
      <path class="cls-1" d="M323.12,42.44c.05.34.09.51.09.67-.02,7.56-.06,15.11-.07,22.67,0,1.24-.53,1.97-1.58,2.67-1.88,1.27-3.96,1.35-6.05,1.37-14.03.14-28.07.24-42.1.31-6.48.03-12.97-.01-19.45-.04-13.46-.07-26.91-.12-40.37-.27-2.98-.03-5.98-.08-8.84-1.41-.94-.44-2.32.02-3.48.14-2.48.27-4.95.78-7.44.83-2.93.06-4.76-1.78-4.98-4.73-.14-1.88-.02-3.78-.04-5.67-.04-2.97-.15-5.94-.14-8.91,0-1.47.13-2.96.38-4.42.33-1.96,1.26-2.9,3.22-2.98,3.1-.13,6.22-.03,9.46-.03v1.69c0,6.24,0,12.47,0,18.71,0,2.22.05,2.26,2.44,2.02.02-.41.05-.85.05-1.29.07-3.17,0-6.36.22-9.52.47-6.71,4.22-10.4,10.85-11.39,1.18-.18,2.38-.25,3.57-.25,17.63-.02,35.26.01,52.9-.02,16.59-.03,33.19-.1,49.78-.16.49,0,.98,0,1.56,0ZM262.04,64.22c5.71-.01,9.67-2.83,10.55-6.51,1.5-6.23-3.83-10.73-9.66-9.22-3.13.81-5.63,2.48-7.7,5.03-1.61,1.99-1.53,4.07-.62,5.55.34.55.82,1.01,1.25,1.49,2.06,2.25,4.54,3.64,6.17,3.66Z"/>
      <path class="cls-1" d="M46.84,379.48c1.58-.44,3.15-.91,4.74-1.31,7.69-1.94,15.34-4.12,23.1-5.7,7.61-1.55,15.35-2.47,23.03-3.68,6.84-1.07,13.73-1.19,20.61-.89,7.79.33,15.5,1.41,23.08,3.24,4.23,1.02,8.42,2.23,12.63,3.36.37.1.72.25,1.04.66-1.24.11-2.49.24-3.73.32-4.11.28-8.22.53-12.34.8-3.99.26-7.98.47-11.96.82-.78.07-1.51.7-2.27,1.08.02.13.04.26.06.39h35.19c2.3,0,2.88.42,3.61,2.44-4.99,1.79-9.95,3.69-14.99,5.34-7.48,2.45-15.12,4.3-22.98,5.06-3.93.38-7.9.8-11.83.66-4.17-.16-8.36-.75-12.47-1.53-6.62-1.26-13.16-2.98-19.79-4.2-4.44-.82-8.97-1.27-13.48-1.6-4.15-.3-8.33-.34-12.49-.25-6.94.15-13.77,1.19-20.52,2.81-.84.2-1.68.41-2.52.6-.07.02-.15-.04-.44-.13,1.06-1.34,2.11-2.58,3.08-3.88,2.5-3.37,5.55-6.23,8.81-8.8,3.58-2.82,7.48-5.2,11.64-7.14,4.51-2.1,8.9-4.47,13.38-6.64,8.06-3.91,16.35-7.2,25.28-8.46,3.13-.44,6.3-.7,9.47-.86,9.79-.5,19.27,1.17,28.44,4.55,2.97,1.09,5.81,2.53,8.68,3.88,1.56.73,3.05,1.35,4.83.69,1.65-.61,2.97.07,4.02,1.4,1.72,2.19,3.45,4.38,5.17,6.58.15.19.26.4.52.81-2.29-.48-4.35-.99-6.44-1.32-5.97-.95-11.94-1.92-17.94-2.7-7.66-1.01-15.38-1.26-23.09-.92-5.55.25-11.09.78-16.61,1.43-9.72,1.14-19.19,3.45-28.43,6.64-5.01,1.73-9.9,3.82-14.83,5.76-.44.18-.84.48-1.25.73-.12.02-.23.04-.05,0-.14.12-.05.05.03-.03Z"/>
      <path class="cls-1" d="M433.31,235.77c1.83-6.43,1.53-12.53-.91-18.57-.64-1.57-1.01-3.32-1.14-5.01-.26-3.39,1.28-6.01,4.23-7.65,3.81-2.11,7.69-4.08,11.55-6.08.47-.24.99-.4,1.51-.53,1.91-.52,3.15-.06,4,1.71.72,1.51,1.22,3.13,1.84,4.77.73-.95,1.45-1.87,2.23-2.88,1.98.51,3.72,1.57,5.21,2.89,4.61,4.11,6.91,9.4,7.59,15.48.57,5.11.06,10.07-2.3,14.68-.84,1.65-2.13,3.11-3.39,4.5-2.3,2.53-4.71,4.95-7.11,7.38-3.49,3.54-7,7.07-10.54,10.57-1.18,1.17-2.47,2.23-3.65,3.29-.99-.52-1.02-1.05-.67-1.84,1.09-2.44,2.14-4.91,3.13-7.4.72-1.81,1.56-3.62,1.92-5.51.26-1.39.16-3.03-.35-4.34-1.2-3.08-.99-6.14-.47-9.25.58-3.46,1.04-6.92.76-10.53h-2.63c0,.37,0,.77,0,1.16-.01,3.8.1,7.6-.06,11.4-.24,5.49.08,11.07-2.09,16.33-.83,2.03-1.57,4.09-2.42,6.32-2.55-3.49-4.99-6.83-7.42-10.16-2.71,1.21-4.13,4.12-3.78,7.21.28,2.4.39,4.83.41,7.24,0,.84-.49,1.68-.76,2.51-.1-.01-.2-.02-.31-.03-1.65-5.89-3.3-11.77-4.95-17.65-.19-.03-.32-.08-.42-.05q-1.85.4-1.5,2.29c.41,2.23.83,4.45,1.23,6.68.06.32.04.65.07,1.23-2.88-2.24-5.59-4.34-8.38-6.51-.65,1.01-1.27,1.96-2.1,3.24-1-.95-2.08-1.66-2.73-2.66-1.46-2.23-2.78-4.57-4.03-6.93-3.66-6.97-3.83-14.45-2.91-22.03.42-3.43,1.07-6.83,1.78-10.21.39-1.87,1-3.71,1.68-5.5,1.2-3.16,4.03-4.18,7.3-2.55,2.02,1.01,3.96,2.2,5.85,3.44,4.17,2.74,7.67,6.11,10.23,10.48,2.56,4.38,3.47,9.09,3.4,14.06-.02,1.69-.11,3.39,1.11,5.02ZM412.91,245.88l.03.03-.03-.02c-.02-.58.02-1.16-.05-1.73-.48-3.84-.97-7.68-1.47-11.51-.3-2.28-.63-4.55-1-7.23-.77,1.23-1.51,2.09-1.9,3.08-2.48,6.32-.59,12.42,4.43,17.39Z"/>
      <path class="cls-1" d="M380.18,275.62c.05,2.37-.18,2.87-1.93,4.17.37.31.72.62,1.1.95,2.12-3.02,5.63-3.99,8.58-5.7,2.54-1.47,5.51-1.19,7.53.98,2.37,2.56,5.34,3.2,8.45,3.85,3.26.68,6.47,1.47,9.45,3.1,3.18,1.74,4.96,4.41,5.69,7.81.59,2.75,1.16,5.52,1.04,8.38-.26,6.44-2,12.47-5.03,18.11-1.47,2.74-3.19,5.37-4.99,7.91-3.4,4.79-6.93,9.48-10.42,14.2-.63.86-1.36,1.64-1.99,2.5-1.05,1.44-1.03,1.45-2.69.27.88-2.07,1.74-4.2,2.66-6.29,1.16-2.62,2.39-5.21,3.54-7.84.17-.39.02-.92.02-1.39-.16-.05-.32-.09-.49-.14-4.35,5.01-8.69,10.02-13.04,15.03-.13-.01-.26-.02-.39-.04-.2-1.5-.57-3-.57-4.5-.01-3.73.63-7.31,2.34-10.71,1.66-3.31,2.88-6.84,4.56-10.14,1.31-2.58,1.95-5.28,2.41-8.17-.4-.16-.78-.29-1.14-.45-.71-.32-1.03-.02-1.27.65-1.39,3.75-2.78,7.49-4.22,11.22-1.77,4.55-3.57,9.09-5.39,13.62-.84,2.08-1.77,4.11-2.77,6.41-.11-.88-.23-1.54-.26-2.2-.36-6.79-.7-13.59-1.05-20.38-.15-2.88-.34-5.76-.48-8.64-.04-.75-.18-1.24-1.22-.91v1.42c0,10.04,0,20.08,0,30.12,0,.6.3,1.38-.77,1.5-.87.1-1.47.05-1.95-.94-3.27-6.77-5.49-13.86-7.03-21.22-1.11-5.29-1.36-10.57-1.33-15.91,0-.77.13-1.53.09-2.32-1.12,1.95-1.61,4.1-1.87,6.29-.5,4.26.15,8.46.6,12.68.19,1.77.29,3.56.44,5.34-.13.04-.27.08-.4.12-.59-1.1-1.17-2.21-1.78-3.29-2.26-4-3.31-8.31-3.05-12.89.17-3.12.9-6.12,2.14-9.03,1.37-3.21,2.4-6.58,3.8-9.78,1.32-3,2.86-5.92,4.46-8.78.46-.83,1.39-1.52,2.27-1.97,2.08-1.08,4.25-1.98,6.38-2.95l-.02-.02Z"/>
      <path class="cls-1" d="M377.93,372.04c-.27,2.95-.38,5.58-.78,8.16-1.05,6.75-2.06,13.52-3.43,20.21-.88,4.31-1.3,8.78-3.58,12.74-2.82,4.9-6.88,8.42-12,10.58-7.05,2.98-14.48,4.31-22.15,4.36-1.94.01-3.49-.76-4.73-2.01-2.4-2.43-4.44-5.17-5.9-8.3-1.21-2.6-2.55-5.14-3.7-7.77-1.41-3.19-1.96-6.57-1.57-10.03.21-1.83.47-3.74,1.2-5.4,1.5-3.46,3.31-6.78,6.17-9.39.88-.8,1.57-1.81,2.44-2.63,5.43-5.18,11.45-9.49,18.39-12.45,4.14-1.77,8.35-3.38,12.84-3.86,3.42-.37,6.89-.31,10.49-.45-3,8.71-6.76,16.59-15.39,21.4.8.57,1.26.89,1.89,1.34.95-1.06,2.05-2.22,3.06-3.44,1.94-2.34,3.79-4.76,5.78-7.05.53-.61,1.44-.9,2.18-1.32,2.51-1.41,5.02-2.82,7.54-4.22.24-.13.51-.2,1.26-.49ZM340.03,390.63c1.1-.84,2.25-1.61,3.28-2.52,3.48-3.08,6.92-6.2,10.36-9.33,3.14-2.85,6.25-5.74,9.57-8.8-.57.19-.93.25-1.23.41-1.55.84-3.14,1.64-4.63,2.58-4.27,2.68-8.27,5.73-11.51,9.61-2.12,2.54-3.89,5.37-5.82,8.06l-.07.3c.02-.1.04-.21.05-.31ZM370.54,379.48c-2.8,4.45-5.57,8.85-8.41,13.35.78.44,1.54.87,2.4,1.35.1-.16.17-.26.23-.36,2.26-4.1,4.54-8.19,6.78-12.3.77-1.41.72-1.47-1-2.03Z"/>
      <path class="cls-1" d="M411.45,356.51c2.5-2.35,5.45-2.93,8.62-3.11,7.32-.4,14.63-.93,21.95-1.45,1.18-.08,2.34-.41,3.55-.63v-1.3c-.72.05-1.39.13-2.07.15-4.9.2-9.8.38-14.71.59-7.58.32-15.15.66-22.73,1-.49.02-.98.09-1.47.16-.82.11-1.23-.26-1.3-1.15,6.52-3.4,13.06-6.8,19.6-10.21-.04-.16-.09-.33-.13-.49-2.23.39-4.47.75-6.7,1.19-2.83.56-5.65,1.29-8.53.33-2.01-.67-3.82-1.69-5.31-3.37.23-.26.42-.51.66-.72,4.31-3.69,8.6-7.4,12.94-11.06,2.45-2.07,4.89-4.16,7.48-6.06,5.46-4.01,11.49-6.62,18.38-6.59,2.78.02,5.58.35,8.34.75,1.18.17,2.33.78,3.42,1.33,1.13.57,2.21,1.28,3.25,2,.34.23.81.84.72,1.03-.24.49-.69,1.07-1.17,1.2-1.98.51-4,.86-6.27,1.32,2.08,1.15,3.94,2.2,5.83,3.21,3.51,1.87,7.14,3.55,10.5,5.65,2.04,1.27,2.65,3.67,2.02,5.96-.58,2.1-1.7,4.04-2.55,6.07-.39.94-.8,1.9-1.03,2.89-.66,2.88-1.64,5.67-3.33,8.07-4.18,5.93-9.76,9.9-16.88,11.64-4.9,1.2-9.8,1.22-14.69.11-3.85-.87-7.67-1.89-11.49-2.86-2.57-.65-4.71-1.92-6-4.36-.25-.46-.6-.87-.91-1.3ZM441.73,321.88c-8.94-2.34-25.75,5.83-28.06,14.38,7.56-8.76,17.11-13.04,28.06-14.38Z"/>
      <path class="cls-1" d="M498.5,240.14c1.31,0,2.54,0,3.77,0,2.3,0,4.63-.19,6.9.06,3.74.41,5.15,2.02,4.24,6.09-.49,2.18-1.35,4.28-1.93,6.45-.51,1.89-.63,3.87.03,5.73.96,2.74.3,5.21-.92,7.62-3.02,5.96-8.01,9.65-14.09,12.07-4.68,1.87-9.58,2.51-14.53,2.31-4.64-.19-9.25-.93-13.87-1.43-4.13-.45-8.27-.89-12.39-1.41-1.04-.13-2.06-.53-3.07-.86-.94-.3-.55-1.11-.47-1.68.04-.26.58-.62.92-.65,7.38-.71,14.76-1.38,22.14-2.07.48-.05.96-.15,1.45-.23.02-.13.05-.25.07-.38-1.61-.36-3.2-.97-4.82-1.04-5.02-.22-10.04-.23-15.06-.32-.89-.02-1.78,0-2.82-.25.75-.66,1.53-1.28,2.25-1.97,2.83-2.7,5.62-5.45,8.47-8.13,3.9-3.66,7.85-7.26,11.76-10.9.23-.21.3-.6.44-.91l-.26-.21c-.43.21-.87.39-1.28.63-5.19,3.02-10.37,6.05-15.56,9.08-.97.57-1.3.39-2.35-1.35,1.07-.84,2.14-1.71,3.24-2.54,2.42-1.84,3.82-4.2,3.47-7.31-.21-1.88.38-3.18,1.75-4.56,2.66-2.67,6.14-3.5,9.42-4.69,4.48-1.61,9.09-2.85,13.67-4.17,1.34-.39,2.74-.67,4.12-.75,2.99-.19,5.59,1.16,5.48,4.78-.03.94-.12,1.88-.19,3.01ZM464.95,266.31c.03.12.06.25.08.37,5.13-.97,10.27-1.89,15.38-2.94,2.86-.59,5.37-2.02,7.79-3.62.99-.66,1.28-1.44.38-2.49-7.86,2.89-15.75,5.79-23.64,8.69Z"/>
      <path class="cls-1" d="M264.61,130.83c-6.66-.37-14.19-.71-21.71-1.24-4.06-.29-8.09-.91-12.13-1.38-.98-.11-1.97-.18-2.95-.29-2.71-.32-3.25-.65-3.8-3.3-.56-2.73-.94-5.51-1.17-8.29-.19-2.34,0-4.71-.06-7.06-.03-1.17.55-1.94,1.37-2.62,2.35-1.93,5.12-2.43,8.06-2.55,7.49-.31,14.98-.72,22.48-1.06,4.41-.2,8.81-.38,13.22-.48,5.03-.11,10.07-.24,15.1-.15,5.12.09,10.13.97,15.05,2.44,4.07,1.22,5.53,3.67,5.69,7.68.14,3.56-.34,7.15-.57,10.72-.06,1.03-.11,2.06-.3,3.07-.06.32-.51.74-.84.81-7.59,1.49-15.23,2.66-22.97,3.03-4.53.21-9.06.42-14.48.66ZM299.54,108.64h-72.46v1.38c5.81.34,11.56.72,17.31,1,4.65.23,9.31.45,13.96.48,6.69.05,13.38.04,20.06-.17,6.63-.2,13.25-.71,19.87-1.01,1.18-.05,1.59-.44,1.26-1.68ZM300.55,124.6c.13-1.12-.38-1.54-1.32-1.59-.99-.05-1.98-.09-2.97-.15-7.1-.42-14.16-.34-21.12,1.32-1.39.33-2.76.78-4.04,1.97,9.99-.53,19.7-1.04,29.45-1.56Z"/>
      <path class="cls-1" d="M100.75,228.55c-1.04,6.97-2.07,13.93-3.11,20.92-1.72.51-2-.99-2.44-1.83-1.45-2.77-2.68-5.66-4.05-8.48-1.74-3.58-3.51-7.15-5.33-10.7-.29-.56-.48-1.56-1.74-1.11,2.65,6.63,5.29,13.22,7.97,19.93-1.79.61-3.54.51-5.21.25-4.22-.65-7.81-2.55-10.96-5.5-2.12-1.99-3.43-4.35-4.61-6.9-1.99-4.35-3.27-8.81-3.16-13.66.1-4.04,1.25-7.71,3.03-11.3,1.22-2.46,2.12-5.08,3.2-7.62.62-1.46,1.25-2.94,2-4.33,1.11-2.05,2.58-2.45,4.65-1.33.87.47,1.65,1.08,2.46,1.66,1,.71,1.97,1.44,2.67,1.95,2.63-1.31,4.98-2.67,7.48-3.66,2.27-.89,4.64-1.21,7.06-.02,1.79.88,2.1,2.45,2.36,4.06.27,1.65.33,3.34.5,5.23-1.14-.4-2.17-.72-3.17-1.11-2.68-1.06-5.35-2.13-8.02-3.22-2.03-.83-2.03-.85-3.35.78,2.24,1.57,4.59,3.02,6.71,4.75,1.55,1.26,2.88,2.82,4.19,4.35,5.87,6.9,6.32,14.93,4.56,23.31-.6,2.89-1.68,5.67-2.54,8.5-.05.18-.18.34-.52.48v-15.3c-.21-.03-.42-.05-.63-.08ZM83.16,241.55c-2.34-3.32-4.59-6.52-6.87-9.75-.5.32-.93.6-1.33.86,2.34,3.29,4.62,6.52,6.95,9.79.44-.32.76-.55,1.24-.9Z"/>
      <path class="cls-1" d="M320.52,73.95c-.5,1.98-.88,3.83-1.44,5.62-.81,2.62-2.03,3.62-4.76,3.67-5.4.1-10.81.07-16.22.07-8.55,0-17.09-.04-25.64,0-5.73.03-11.47.16-17.2.28-7.46.15-14.92.36-22.39.48-6.27.1-12.54.22-18.81.14-3.11-.04-5.51-1.53-6.65-4.59-.68-1.83-1.27-3.7-1.95-5.69h115.04Z"/>
      <path class="cls-1" d="M205.64,39.14c1.46-3.18,3.07-5.96,5.74-7.96,1.47-1.1,3.2-1.44,5.01-1.44,24.03,0,48.06.02,72.09-.01,7.55,0,15.1-.16,22.65-.23,3.12-.03,5.51,1.37,7.39,3.77.96,1.23,1.95,2.45,2.84,3.73.22.31.22.93.06,1.3-.16.36-.63.6-1,.82-.15.09-.4.02-.61.02-37.57,0-75.14,0-112.72,0h-1.45Z"/>
      <path class="cls-1" d="M414.39,132.85c.3-.09.64-.13.91-.29,2.25-1.37,4.49-2.76,6.71-4.17,1.62-1.02,2.09-.91,3.27.92-5.54,5.35-11.09,10.7-16.85,16.25-.93-2.69-1.78-5.04-2.55-7.41-.14-.42-.09-1.04.13-1.42,1.92-3.41.36-6.16-1.54-8.9-.65-.93-1.35-1.87-1.76-2.91-1.05-2.68-1.95-5.42-2.9-8.15-1.28-3.68-2.56-7.36-3.84-11.04-.07-.21-.18-.42-.44-.59v12.54c-2.4-1.27-3.6-3.36-4.48-5.64-2.24-5.78-1.98-11.57.88-16.99,1.97-3.72,4.53-7.14,6.91-10.63,1.15-1.68,2.52-3.22,3.9-4.96.99,1.86,2.01,3.66,2.92,5.5,1.12,2.25,2.14,4.55,3.24,6.81,1.73,3.54,3.39,7.12,5.28,10.58,1.56,2.86,3.05,5.73,3.82,8.91,1.05,4.35-.2,8.16-2.9,11.55-.68.85-1.61,1.51-2.55,2.38,1.13.63,2,1.14,2.9,1.6.68.34.88.78.58,1.5-.53,1.24-1.04,2.48-1.53,3.74-.1.25-.08.56-.11.84-.04.03-.09.06-.13.08.03,0,.07,0,.08,0,.02-.03.02-.07.03-.1Z"/>
      <path class="cls-1" d="M83.38,308.7c-.78-.89-1.44-1.63-2.09-2.38l-.3.11c0,1.26-.08,2.52.03,3.77.09,1.07-.37,1.43-1.32,1.64-4.38.96-8.68.6-12.92-.74-4.12-1.3-7.86-3.32-11.36-5.87-4.02-2.93-7.62-6.26-10.54-10.31-1.57-2.18-3.14-4.36-4.71-6.54.1-.15.21-.29.31-.44,1.66.11,3.32.17,4.97.32,5.92.55,11.74,1.61,17.37,3.56,4.09,1.42,8.05,3.14,11.69,5.53.75.49,1.54.86,2.29-.04-.4-1.82-1.21-3.07-3.18-3.78-4.3-1.54-8.45-3.47-12.7-5.15-5.94-2.35-12.01-4.14-18.51-3.58-1.76.15-3.5.52-5.23.85-1.92.37-3.69.3-5.1-1.51,1.78-1.52,3.65-2.68,6.1-2.78,7.08-.3,14.15-.88,21.24-.95,5.51-.05,10.33,2.18,14.38,5.94.96.89,2.01,1.73,2.77,2.78.99,1.39,1.81,2.91,2.57,4.45,1.39,2.83,2.71,5.7,4,8.58.92,2.05,1.28,4.16.24,6.52Z"/>
      <path class="cls-1" d="M411.77,172.59c.25-5.14,2.43-9.3,5.54-13.06,2.99-3.62,6.89-6.08,10.91-8.34,8.53-4.78,17.71-7.65,27.33-9.25,3.17-.52,6.3-1.25,9.45-1.87.8-.16,1.61-.28,2.33-.4,1.42,1.9-.24,2.8-1.1,3.85-1.3,1.58-2.71,3.08-4.14,4.55-3.56,3.65-6.98,7.45-10.78,10.83-3.09,2.75-6.5,5.18-10.01,7.38-5.43,3.39-11.39,5.62-17.8,6.21-3.59.33-7.23.19-10.84.25-.28,0-.56-.09-.88-.15ZM420.63,162.54c.39.68.74,1.31,1.12,1.98,4.89-2.75,9.71-5.46,14.54-8.17-.35-.84-.45-1.77-1.7-1.11-4.58,2.43-9.18,4.8-13.96,7.3Z"/>
      <path class="cls-1" d="M471.35,297.95c1.07-.44,1.81-.75,2.75-1.14-4.28-1.98-8.42-3.89-12.67-5.85.2-.58.37-1.07.59-1.67,2.72.59,5.4,1.18,8.07,1.77,5.06,1.11,10.12,2.23,15.18,3.34.93.2,1.52-.06,1.52-1.22-5.66-1.79-11.31-3.58-16.95-5.36-4.86-1.54-9.71-3.11-14.58-4.61-1.15-.35-1.75-.81-.96-2.24,20.06,2.4,40.23,4.81,60.67,7.25-.83,1.12-1.47,2.05-2.17,2.93-1.07,1.35-2.17,2.68-3.27,4-1.68,2.02-3.32,4.08-5.08,6.03-.61.67-1.46,1.28-2.31,1.53-3.35.99-6.75,1.8-10.12,2.73-1.43.39-2.81.94-4.24,1.32-3.75,1-6.49-.02-8.37-3.39-1.18-2.11-3.18-2.87-5.11-3.86-.89-.46-1.78-.93-2.96-1.55Z"/>
      <path class="cls-1" d="M236.04,97.36v-8.72h55.99c-.33,2.05-.67,4.03-.97,6.02-.09.61,0,1.27-.17,1.84-.11.35-.57.63-.92.85-.18.11-.48.02-.73.02-17.22,0-34.45,0-51.67,0-.48,0-.97,0-1.52,0Z"/>
      <path class="cls-1" d="M366.56,120.29c1.4,1.4,2.78,2.61,3.96,3.99,3.56,4.14,7.15,8.26,10.53,12.55,3.01,3.82,5.44,8.01,7.53,12.43,1.34,2.84,2.35,5.67,2.29,8.83,0,.48-.12.95-.48,1.52-1.1-1.74-2.28-3.43-3.29-5.22-1.68-2.96-3.68-5.63-6.22-7.91-1.03-.92-1.8-1.02-2.68-.08,3.98,6,7.96,11.98,12.13,18.26-.88-.28-1.46-.37-1.93-.64-2.96-1.69-6.04-3.22-8.83-5.17-5.6-3.92-8.97-9.42-11.04-15.91-1.14-3.57-1.76-7.18-1.93-10.86-.17-3.82-.04-7.65-.04-11.79Z"/>
      <path class="cls-1" d="M35.74,230.24c4.12-1.54,7.88-2.21,11.82-1.83,6.42.62,11.69,3.63,16.46,7.77,3.66,3.18,6.75,6.84,9.51,10.8.14.2.24.42.46.84-1.33.25-2.55.52-3.77.72-2.64.43-5.28.94-7.94,1.19-1.32.12-2.79.02-4.01-.45-2.71-1.06-5.38-2.29-7.93-3.69-4.3-2.37-7.92-5.58-10.71-9.67-1.24-1.81-2.49-3.62-3.9-5.67Z"/>
      <path class="cls-1" d="M75.81,318.24c-2.7.61-5.21,1.36-7.78,1.73-6.55.92-12.71-.17-18.23-4.03-.94-.66-1.89-1.3-2.76-2.04-3.13-2.68-5.44-5.97-7.49-9.55-2.71-4.73-4-9.86-4.96-15.12-.02-.11.02-.23.06-.64,1.24,1.34,2.31,2.55,3.43,3.72,3.58,3.73,7.01,7.63,10.82,11.13,4.7,4.32,10.37,7.18,16.25,9.63,3.45,1.44,6.83,3.04,10.24,4.58.09.04.14.18.43.58Z"/>
      <path class="cls-1" d="M58.77,227.78c-4.37.12-8.27-1.14-11.14-4.53-2.93-3.47-3.21-7.58-1.98-11.78.51-1.76,1.94-2.91,3.76-3.24,3.11-.57,6.24-1.07,9.38-1.42,2.61-.29,4.83.84,6.68,2.6.38.36.62,1.2.49,1.71-1.27,5.3-2.61,10.58-3.99,15.85-.09.34-.61.72-.98.78-.72.12-1.48.04-2.22.04Z"/>
      <path class="cls-1" d="M338.02,68.36h-10.01v-25.22c.43,0,.87,0,1.3,0,2.56,0,5.12,0,7.67,0,.6,0,1.05.05,1.04.83-.01,8.08,0,16.17,0,24.4Z"/>
      <path class="cls-1" d="M109.47,198.11c2.18,3.09,3.41,6.55,4.29,10.15,1.22,4.94,1.86,9.96,1.66,15.05-.19,4.71-.75,9.38-3.13,13.58-.66,1.17-1.68,2.14-2.69,3.12-.56-1.41-1.02-2.68-.61-4.11,2.04-7.06,1.04-13.86-1.91-20.45-.92-2.06-2.02-4.06-1.51-6.42.22-1.02.61-2.01.97-3,.96-2.62,1.94-5.23,2.94-7.92Z"/>
      <path class="cls-1" d="M379.83,388.43c-.37,4.43-.47,8.9-1.2,13.27-.79,4.75-1.53,9.63-4.03,13.88-4.45,7.55-10.73,12.85-19.52,14.56-3.52.68-7.07.17-10.47-1.03-.14-.05-.26-.17-.62-.41,1.76-.22,3.27-.39,4.78-.6,5.34-.72,10.36-2.35,14.74-5.55,1.45-1.06,2.66-2.45,3.92-3.75,2.83-2.91,4.4-6.54,5.52-10.34,1.28-4.36,2.34-8.78,3.55-13.15.67-2.44,1.49-4.84,3-6.92.11.02.22.04.33.06Z"/>
      <path class="cls-1" d="M267.13,343.1c-1.87-1-3.12-2.6-4.22-4.35-3.09-4.9-5.3-10.18-7.3-15.61-1.88-5.09-3.23-10.26-3.89-15.61-.26-2.11-.09-4.26-.16-6.4-.03-1.07.84-1.03,1.45-1.12.25-.04.74.49.86.85,2.01,6.26,3.98,12.53,5.97,18.79,1.76,5.56,3.54,11.11,5.31,16.67.71,2.22,1.42,4.43,2.12,6.65-.05.05-.09.09-.14.14Z"/>
      <path class="cls-1" d="M474.47,310.84c3.55-.42,7.1-.8,10.64-1.26,4.9-.64,9.81-1.22,14.67-2.08,1.45-.26,2.91-1.17,4.08-2.12,2.98-2.44,5.4-5.41,7.42-8.7.47-.77.93-.88,1.7-.34.65.45.45.86.19,1.35-2.54,4.83-5.66,9.22-10.29,12.22-8.01,5.19-16.56,6.03-25.49,2.58-1.01-.39-2.01-.83-3.01-1.25.03-.14.06-.27.09-.41Z"/>
      <path class="cls-1" d="M259.47,142.58c0-1.69-.02-3.38,0-5.06.02-.86.35-1.52,1.35-1.59,1.72-.11,3.45-.33,5.17-.31,1.72.02,2.75,1.17,2.68,3.05-.1,2.67-.4,5.33-.6,8-.07.94-.07,1.89-.16,2.83-.03.32-.23.84-.43.88-1.67.36-3.36.75-5.06.88-1.49.12-2.8-1.4-2.91-3.5-.09-1.73-.18-3.45-.27-5.18.08,0,.15,0,.23,0Z"/>
      <path class="cls-1" d="M407.57,251.84c-4.07,1.42-8.1.63-10.37-1.94-1.77-2-2.3-4.46-2.32-7-.06-7.54-.03-15.08,0-22.62,0-1.81.16-3.61.25-5.56.99-.12,1.99-.23,3.11-.37-.46,2.54-.95,4.9-1.31,7.28-1.02,6.73-1.14,13.43,1.84,19.74,1.81,3.82,4.49,7.05,7.85,9.67.28.22.54.47.94.81Z"/>
      <path class="cls-1" d="M440.85,369.42c8.75-4.64,17.18-9.1,25.6-13.57l.29.21c-.16.78-.19,1.62-.51,2.32-1.15,2.51-2.46,4.94-4.74,6.64-3.22,2.41-6.83,4.05-10.81,4.48-2.92.32-5.9.12-8.86.14-.18,0-.37-.08-.97-.23Z"/>
      <path class="cls-1" d="M262.81,192.63c-.96-.11-1.85-.21-2.89-.34.22-1.97.46-3.86.63-5.74.25-2.83.46-5.66.68-8.49.4-5.17.81-10.35,1.2-15.52.13-1.73.22-3.45.31-5.18.09-1.77.22-1.9,1.97-1.66.36.05.72.16,1.09.24-.99,12.17-1.98,24.31-2.98,36.69Z"/>
      <path class="cls-1" d="M423.86,305.47c3.63,1.85,7.13,3.63,10.62,5.4,0,.13.02.26.03.39-5.21,2.54-10.42,5.07-15.63,7.61-.11-.08-.22-.17-.33-.25,1.74-4.31,3.48-8.62,5.31-13.15Z"/>
      <path class="cls-1" d="M387.41,384.21c-.69-1.14-1.16-1.91-1.61-2.69-1.04-1.82-.74-2.84,1.15-3.79.46-.23.97-.39,1.75-.69-.44,2.45-.83,4.64-1.29,7.17Z"/>
      <path class="cls-1" d="M267.27,342.96l.02.25c-.05-.04-.1-.08-.15-.11.04-.05.09-.09.14-.14Z"/>
      <path class="cls-1" d="M380.2,275.64s.05-.07.07-.1c-.03.03-.06.05-.09.08,0,0,.02.02.02.02Z"/>
      <path class="cls-2" d="M196.8,390.63c-.32-.16-.7-.25-.97-.47-2.13-1.81-4.28-3.6-6.34-5.47-4.35-3.96-7.95-8.54-10.98-13.57-1.74-2.88-3.44-5.78-5.1-8.7-1.63-2.89-3.2-5.82-4.77-8.74-1.77-3.29-3.53-6.59-5.28-9.9-1.84-3.49-3.65-6.99-5.47-10.49-1.78-3.43-3.54-6.86-5.33-10.29-1.5-2.87-3.1-5.7-4.49-8.62-1.93-4.08-3.65-8.26-5.56-12.35-.81-1.74-1.87-3.36-1.82-5.63.72,1.16,1.4,2.1,1.93,3.12,1.34,2.6,2.61,5.24,3.92,7.85,1.73,3.45,3.48,6.89,5.22,10.33,1.65,3.26,3.3,6.52,4.95,9.77,1.77,3.48,3.53,6.96,5.34,10.42,1.71,3.27,3.46,6.53,5.25,9.77,1.57,2.84,3.18,5.65,4.83,8.45,1.69,2.86,3.41,5.72,5.19,8.52,1.68,2.63,3.42,5.23,5.2,7.79,1.78,2.56,3.56,5.14,5.5,7.58,2.71,3.4,5.57,6.68,8.36,10.02.16.19.26.42.38.63l.02-.02Z"/>
      <path class="cls-2" d="M175.33,173.65c.78-1.23,1.38-2.63,2.36-3.66,3.21-3.35,6.34-6.84,9.92-9.76,4.96-4.05,10.15-7.86,15.52-11.34,4.78-3.1,9.88-5.74,14.97-8.35,3.17-1.62,6.54-2.85,10.2-3.09-19.53,9.29-37.1,21.41-52.66,36.43-.1-.08-.2-.16-.3-.24Z"/>
      <path class="cls-2" d="M137.6,263.96c-1.94-16.9-.75-33.33,6.35-49.02-2.11,16.29-4.22,32.58-6.35,49.02Z"/>
      <path class="cls-2" d="M190.3,350.85c-1.98-2.27-4-4.51-5.93-6.83-4.37-5.23-8.1-10.88-11.14-16.97-1.61-3.23-3.25-6.45-4.75-9.73-1.45-3.17-2.74-6.41-4.08-9.62-.15-.36-.23-.75-.14-1.22.3.53.59,1.06.9,1.58,2.36,4,4.71,8.01,7.08,12.01,1.74,2.93,3.49,5.85,5.24,8.78,1.63,2.71,3.27,5.42,4.89,8.13,1.79,3,3.55,6.01,5.35,9,.74,1.23,1.55,2.41,2.31,3.62.21.33.36.7.54,1.06-.09.06-.18.13-.27.19Z"/>
      <path class="cls-2" d="M212.42,363.61c-.22-.09-.48-.12-.65-.27-2.66-2.33-5.44-4.52-7.42-7.54-1.65-2.5-3.48-4.88-5.19-7.34-1.81-2.59-3.57-5.22-5.37-7.82-1.89-2.72-3.8-5.44-5.71-8.14-.79-1.13-.46-2.29.86-2.66.3-.09.88.11,1.06.36,2.6,3.84,5.15,7.72,7.73,11.58,1.82,2.73,3.67,5.44,5.51,8.17,1.68,2.48,3.35,4.96,5.02,7.45,1.39,2.07,2.76,4.15,4.14,6.23l.02-.02Z"/>
      <path class="cls-2" d="M367.99,219.17c3.59,6.96,7.66,26.88,3.64,44.84-1.23-15.1-2.44-30.09-3.64-44.84Z"/>
      <path class="cls-2" d="M361.25,268.44c1.17,8.75-7.25,32.23-12.82,39.03-.11-.04-.22-.07-.32-.11,4.37-12.95,8.74-25.9,13.14-38.93Z"/>
      <path class="cls-2" d="M151.77,256.29c-2.95-11.74-2.28-23.09,3.66-33.87-1.22,11.29-2.44,22.58-3.66,33.87Z"/>
      <path class="cls-2" d="M374.98,203.51c.28.4.57.79.83,1.2,3.95,6.27,6.14,13.13,6.85,20.48.22,2.3.4,4.61.35,6.94-1.34-4.82-2.66-9.65-4.03-14.46-1.18-4.13-2.44-8.24-3.65-12.36-.17-.59-.23-1.21-.34-1.81,0,0-.01.01-.01.01Z"/>
      <path class="cls-2" d="M156.9,282.58c1.72,5.35,3.42,10.64,5.12,15.92-1.49.94-1.63.89-2.12-.66-.72-2.31-1.41-4.64-2.18-6.93-.72-2.17-1.54-4.3-2.27-6.46-.48-1.42-.45-1.43,1.44-1.87Z"/>
      <path class="cls-2" d="M348.07,334.94c5.64.53,11.47,5.15,11.71,9.49-3.88-3.15-7.68-6.23-11.71-9.49Z"/>
      <path class="cls-2" d="M375,203.5c-.05-.06-.09-.13-.14-.19.04.07.09.14.13.2,0,0,.01-.01.01-.01Z"/>
      <path class="cls-2" d="M212.4,363.63c.07.09.14.18.03.03.02.18,0,.06,0-.05,0,0-.02.02-.02.02Z"/>
      <path class="cls-2" d="M196.78,390.65s.08.03.1.05c.01.01,0,.05,0,.08-.03-.05-.06-.1-.09-.15,0,0-.02.02-.02.02Z"/>
      <path class="cls-2" d="M262.04,64.22c-1.63-.02-4.11-1.41-6.17-3.66-.44-.48-.92-.94-1.25-1.49-.91-1.48-1-3.56.62-5.55,2.06-2.55,4.57-4.23,7.7-5.03,5.83-1.5,11.15,3,9.66,9.22-.88,3.69-4.84,6.5-10.55,6.51ZM263.91,62.46c.56-.64,1.13-1.17,1.56-1.8,1.01-1.45,2.08-2.88,2.89-4.44.72-1.39-1.92-4.59-3.49-4.38-.23.03-.48.17-.66.33-1.41,1.25-2.86,2.47-4.15,3.84-.3.32-.26,1.36.04,1.77,1.15,1.59,2.47,3.06,3.81,4.68Z"/>
      <path class="cls-2" d="M46.84,379.48c-.09.07-.17.15-.03.03-.18.03-.07.01.05,0,0,0-.02-.02-.02-.02Z"/>
      <path class="cls-2" d="M412.91,245.88c-5.02-4.97-6.91-11.07-4.43-17.39.39-.99,1.12-1.85,1.9-3.08.37,2.68.7,4.95,1,7.23.5,3.84.99,7.67,1.47,11.51.07.57.04,1.15.05,1.73h0Z"/>
      <polygon class="cls-2" points="412.9 245.89 412.93 245.91 412.91 245.88 412.9 245.89"/>
      <path class="cls-2" d="M340.05,390.64c1.93-2.7,3.71-5.52,5.82-8.06,3.24-3.88,7.24-6.93,11.51-9.61,1.49-.94,3.08-1.74,4.63-2.58.3-.16.66-.23,1.23-.41-3.33,3.06-6.44,5.94-9.57,8.8-3.44,3.13-6.88,6.25-10.36,9.33-1.03.91-2.18,1.69-3.28,2.52h.02Z"/>
      <path class="cls-2" d="M370.54,379.48c1.72.56,1.78.62,1,2.03-2.24,4.11-4.52,8.2-6.78,12.3-.06.11-.13.21-.23.36-.85-.48-1.62-.91-2.4-1.35,2.83-4.5,5.6-8.9,8.41-13.35Z"/>
      <path class="cls-2" d="M340.03,390.63c-.02.1-.04.21-.05.31.02-.1.05-.2.07-.3,0,0-.02-.01-.02-.01Z"/>
      <path class="cls-2" d="M441.73,321.88c-10.95,1.34-20.49,5.62-28.06,14.38,2.31-8.56,19.12-16.72,28.06-14.38Z"/>
      <path class="cls-2" d="M464.95,266.31c7.89-2.9,15.78-5.8,23.64-8.69.9,1.06.61,1.83-.38,2.49-2.41,1.61-4.93,3.04-7.79,3.62-5.11,1.05-10.25,1.97-15.38,2.94-.03-.12-.06-.25-.08-.37Z"/>
      <path class="cls-2" d="M299.54,108.64c.34,1.24-.08,1.63-1.26,1.68-6.63.31-13.24.81-19.87,1.01-6.68.21-13.37.22-20.06.17-4.66-.03-9.31-.25-13.96-.48-5.75-.28-11.5-.66-17.31-1v-1.38h72.46Z"/>
      <path class="cls-2" d="M300.55,124.6c-9.75.52-19.46,1.03-29.45,1.56,1.28-1.18,2.65-1.63,4.04-1.97,6.96-1.66,14.03-1.75,21.12-1.32.99.06,1.98.1,2.97.15.93.05,1.45.47,1.32,1.59Z"/>
      <path class="cls-2" d="M83.16,241.55c-.48.35-.8.58-1.24.9-2.33-3.28-4.61-6.5-6.95-9.79.4-.25.83-.53,1.33-.86,2.27,3.23,4.53,6.43,6.87,9.75Z"/>
      <path class="cls-2" d="M414.39,132.85s-.01.07-.03.1c0,.01-.05,0-.08,0,.04-.03.09-.06.13-.08,0,0-.02-.02-.02-.02Z"/>
      <path class="cls-2" d="M420.63,162.54c4.79-2.5,9.39-4.88,13.96-7.3,1.25-.66,1.35.26,1.7,1.11-4.83,2.72-9.66,5.43-14.54,8.17-.38-.67-.73-1.3-1.12-1.98Z"/>
      <path class="cls-1" d="M263.91,62.46c-1.34-1.61-2.65-3.08-3.81-4.68-.3-.41-.34-1.45-.04-1.77,1.29-1.37,2.74-2.58,4.15-3.84.18-.16.43-.29.66-.33,1.56-.21,4.2,2.99,3.49,4.38-.81,1.56-1.88,2.99-2.89,4.44-.44.63-1,1.16-1.56,1.8Z"/>
    </g>
  </g>
</svg>