<?xml version="1.0" encoding="UTF-8"?>
<svg id="Layer_2" data-name="Layer 2" xmlns="http://www.w3.org/2000/svg" viewBox="0 0 602.54 453.97">
  <defs>
    <style>
      .cls-1 {
        fill: #fffeff;
      }

      .cls-1, .cls-2 {
        stroke-width: 0px;
      }

      .cls-2 {
        fill: #c2579d;
      }
    </style>
  </defs>
  <g id="Layer_1-2" data-name="Layer 1">
    <g>
      <path class="cls-1" d="M602.54,453.97c-200.83,0-401.67,0-602.54,0V0h602.54v453.97ZM185.05,88.25c-.12-.12-.23-.24-.35-.36.33-.9.56-1.86.99-2.71,2.72-5.35,6.88-9.28,12.11-12.12,2.19-1.19,4.42-2.33,6.68-3.4,5.6-2.64,10.6-6.05,14.83-10.62,4.89-5.27,7.59-11.48,8.63-18.53.85-5.76.12-11.41-.74-17.08-.61-4.01-.85-8.03.67-11.93.57-1.45.15-2.79-.39-4.42-3.02,1.5-5.9,2.89-8.74,4.35-4.76,2.44-8.98,5.69-13.11,9.02-4.64,3.74-9.1,7.7-13.51,11.7-3.55,3.22-5.96,7.19-6.56,12.06-.54,4.44-.27,8.86.58,13.24,2.27,11.73-.79,22.02-8.31,31.12-.54.65-1.19,1.21-2.11,2.14-.08-3.06-.05-5.55.83-8.03,1.16-3.26,2.35-6.53,3.12-9.9.91-3.98.88-8.07-.95-11.84-1.48-3.03-3.17-5.98-4.98-8.82-3.08-4.82-6.3-9.55-9.51-14.28-2.61-3.85-5.69-7.31-8.91-10.69-3.05,3.77-3.02,3.78-3.91,8.22-1.16,5.78-2.07,11.59-1.85,17.51.23,6.26,1.93,12.04,5.6,17.21,2.69,3.79,5.97,6.94,9.75,9.62,2.76,1.95,4.78,4.53,6.09,7.65,1.58,3.73,1.24,7.13-1.98,9.85-2.95,2.49-6.01,4.84-9.02,7.26-7.7,6.2-14.47,13.25-20.08,21.43-5.71,8.33-9.99,17.28-12.49,27.07-3.51,13.74-4.05,27.53-.69,41.39.41,1.7.54,3.51.49,5.26-.05,1.83-1.03,3.23-3.05,4.19-.47-3.17-1.12-6.09-1.28-9.04-.32-5.63-.48-11.28-.48-16.92,0-7.51-.37-14.99-1.17-22.45-1.02-9.53-2.14-19.06-2.99-28.61-.29-3.26-.04-6.61.28-9.89.4-4.24,2.53-7.7,6.08-9.99,4.2-2.69,7.41-6.19,9.66-10.56,3.06-5.93,5.36-12.09,5.01-18.94-.25-4.9-1.62-9.53-3.46-14.02-1.16-2.82-2.44-5.63-4-8.24-1.65-2.77-4.65-3.52-7.57-2.21-.94.42-1.78,1.09-2.63,1.69-2.24,1.58-4.97,1.53-7.15-.18-.76-.6-1.46-1.27-2.22-1.87-2.35-1.87-4.81-3.55-7.8-4.21-4.26-.94-7.89.47-11.31,2.95-3.36,2.45-7.03,4.27-11.29,4.5-2.25.12-4.51.18-6.76.3-1.2.06-2.41.15-3.61.3-2.72.33-4.63,1.72-5.56,4.36-.3.83-.78,1.61-1.01,2.46-1.04,3.85-3.89,5.39-7.5,5.77-3.84.4-7.34,1.75-10.75,3.44-3.26,1.61-5.21,4.25-6.01,7.74-.3,1.33-.45,2.71-.51,4.07-.09,1.93.44,4.03-.16,5.76-.63,1.8-2.26,3.26-3.51,4.82-1.39,1.73-1.9,3.66-1.77,5.86.23,3.83,2.02,6.94,4.47,9.69,3.95,4.41,8.98,7.35,14.29,9.72,5.04,2.24,10.46,3.29,15.96,3.66,6.85.46,13.68.27,20.5-.77,3.75-.57,7.61-.63,10.68,2.41.76.76,1.73.72,2.88.09-1.05-1.81-2.06-3.57-3.26-5.64,4.64-1.27,9.11-1.45,13.89-2.04,0,1.82.18,3.42-.05,4.97-.26,1.81-1.7,2.81-3.89,2.95-1.8.12-3.61.1-5.47.14.12.43.12.62.21.71,3.2,3.25,4.67,7.35,5.3,11.71.95,6.56,2.52,12.97,4.24,19.35,1.18,4.35,2.45,8.69,3.38,13.1.76,3.63.58,5.98-3.21,8.13-1.45-4.05-3.05-8.01-4.27-12.09-1.38-4.63-2.3-9.39-3.64-14.03-2.43-8.44-8.25-14.13-15.77-18.05-5.8-3.03-12.18-4.63-18.55-6.11-2.41-.56-4.58,1.24-4.5,3.66.14,4.28.57,8.53,2.34,12.52,2.29,5.15,4.56,10.31,6.83,15.48.44,1.01.85,2.04,1.48,3.57-21.78-3.97-42.91-2.87-64.14,2.7.9,1.05,1.53,1.99,2.35,2.72,6.78,6.02,12.4,13.07,18.06,20.1,3.8,4.73,8.15,8.99,13.29,12.22,3.31,2.08,6.99,3.6,10.6,5.16,2.75,1.19,3.36,1.85,3.23,4.88-.02.48-.08.96-.14,1.44-.34,2.47-.83,4.93-1.01,7.42-.44,5.93.51,11.59,3.85,16.64,1.15,1.74,2.5,3.36,3.73,5.05.81,1.11,1.57,2.26,2.51,3.62-1.39.17-2.34.34-3.3.4-5.87.38-11.75.69-17.62,1.13-4.9.36-9.81.66-14.6,1.89-6.88,1.77-10.96,6.04-12.24,13.08-.69,3.82-.15,7.54.3,11.3.5,4.07,1,8.15,1.28,12.24.1,1.44.51,2.46,1.56,3.34,1.17.99,2.27,2.06,3.47,3.01,2.52,2,5.01,4.06,7.65,5.9,4.88,3.4,10.62,4.05,16.3,4.79,3.48.46,6.99.71,10.75,1.09-.32.62-.47.97-.68,1.29-1.89,2.9-3.7,5.87-5.71,8.68-3.37,4.72-3.18,9.61-1.05,14.68.84,2,2.33,3.35,4.43,3.75,1.97.38,3.98.51,5.99.64,3.64.24,7.21.62,10.48,2.5,1.09.63,2.39,1.01,3.64,1.26,6.09,1.22,12.08.59,17.82-1.65,4.81-1.88,8.88-4.72,11.59-9.41,1.7-2.95,4.09-5.5,6.38-8.5.34,1,.57,1.57.73,2.17,1.46,5.36,2.83,10.76,4.4,16.09.88,3,1.86,6.02,3.2,8.84,2.58,5.45,6.84,9.57,11.68,12.98,9.46,6.67,19.65,12.06,30.58,15.84,6.38,2.2,13.01,3.69,19.58,5.28,3.83.92,7.76,1.47,11.66,2.07,10.91,1.7,21.85,3.16,32.9,3.61,9.76.4,19.51.17,29.26-.44,7.44-.46,14.86-.22,22.01,2.14,2.89.95,5.58,2.49,8.44,3.54,4.31,1.58,8.69,2.96,13.04,4.41,6.13,2.05,12.46,2.4,18.86,2.25,5.76-.14,11.34-1.37,16.88-2.83,6.38-1.68,12.74-3.5,19.17-4.98,5.25-1.21,10.59-2.04,15.9-2.99,1.78-.32,3.59-.45,5.56-.69.11,1.12.19,1.89.28,2.73-1.87.7-3.6,1.33-5.32,1.97-7.44,2.78-15.25,3.98-23.04,5.26-6.69,1.1-13.23,2.69-19.39,5.73-5.7,2.81-10.91,6.22-15.24,10.89-3.28,3.54-6.44,7.19-9.7,10.76-2.44,2.68-4.97,5.28-7.42,7.95-2.39,2.61-4.75,5.25-7.07,7.93-1.18,1.37-1.63,3.03-1.67,4.85.37.09.6.18.83.19,9.36.19,18.69.14,27.97-1.44,7.62-1.29,14.91-3.41,21.67-7.22,3.61-2.03,6.91-4.5,9.81-7.41,6.23-6.24,10.54-13.82,14.29-21.7,2.91-6.11,7.06-10.92,13.15-13.96,2.09-1.05,4.21-2.02,6.35-2.97.63-.28,1.33-.38,1.93-.54.22.33.37.45.38.59.07.64.08,1.28.14,1.93.56,6.04,2.85,11.05,8.39,14.12,1.4.78,2.89,1.42,4.27,2.22,1.52.89,3.22,1.66,4.39,2.91,2.24,2.4,4.81,4.22,7.68,5.76,3.98,2.13,8.14,2.36,12.13.67,3.07-1.31,6.02-3.17,8.59-5.32,4.38-3.66,8.4-7.75,12.59-11.64.2-.18.53-.22.83-.33,1.69,4.46,4.48,7.86,8.17,10.7,3.1,2.38,6.45,4.26,9.9,6,10.74,5.45,19.67,3.37,26.94-4.58,3.57-3.91,6.6-8.32,9.84-12.54,3.74-4.87,3.54-12.64-1.56-17.39-2.48-2.31-4.96-4.61-7.47-6.88-1.8-1.62-1.83-1.73-.1-4.24,5.34.2,10.89.32,16.44.64,3.97.23,7.86.15,11.77-.75,5.91-1.35,10.14-5.71,10.95-12.02.27-2.08.43-4.17.67-6.25.58-5.13,1.35-10.24,1.7-15.38.43-6.43.6-12.88.72-19.33.23-11.93.36-23.87.49-35.81.18-15.65.35-31.29.48-46.94.11-12.42.19-24.84.25-37.26.02-2.87.68-5.56,1.65-8.25.92-2.56,1.84-5.2,2.19-7.88.57-4.39.7-8.83.99-13.26.23-3.56.71-7.08,2.04-10.39,1.35-3.36,1.82-6.83,1.83-10.4.01-3.47-.07-6.94.04-10.41.11-3.59.9-7.04,2.79-10.14,2.93-4.82,5.93-9.59,8.9-14.39,2.71-4.39,5.49-8.74,8.11-13.17,3.9-6.59,7.73-13.21,11.5-19.87,1.54-2.72,3.02-5.51,4.2-8.4.96-2.37.48-4.79-1.12-6.86-1.03-1.34-2.06-2.71-3.27-3.86-7.77-7.37-16.76-12.75-26.85-16.3-6.88-2.42-14.05-3.65-21.24-4.54-10.76-1.33-21.53-1.35-32.25.76-6.81,1.34-13.54,2.78-20.02,5.42-5.47,2.22-10.76,4.72-15.83,7.74-2.95,1.75-5.52,3.95-7.68,6.56-3.89,4.69-5.28,9.99-2.71,15.76,1.44,3.22,3.32,6.25,5.09,9.31,4.92,8.51,9.89,16.99,14.85,25.47,3.37,5.77,6.8,11.51,10.15,17.3,2.52,4.35,3.87,9.01,3.46,14.11-.13,1.69-.23,3.39-.17,5.07.34,9.61,1.76,19.09,3.4,28.54,1.34,7.7,2.85,15.4,2.95,23.24.24,20,.39,40.01.49,60.01.05,10.73-.08,21.46-.11,32.18-.02,8.87.02,17.75-.02,26.62-.02,4.42-.08,4.42-4.19,5.69-.54.17-1.08.32-1.62.49-3.07.92-6.14,1.83-9.44,2.82,0-1.07,0-1.86,0-2.65,0-2.17.15-4.35-.02-6.51-.56-7.4-4.15-12.97-10.68-16.44-2-1.07-3.08-2.49-3.53-4.55-.2-.94-.31-1.91-.32-2.87-.09-8.47-.13-16.94-.22-25.41-.01-1.04-.08-2.11-.33-3.12-.45-1.84-1.21-3.35-3.22-4.18-2.4-1-3.71-3.01-3.66-5.74.02-1.29,0-2.58-.04-3.87-.17-5.57-.48-11.09-2.68-16.36-.72-1.73-.93-3.77-.95-5.67-.12-12.42-.11-24.84-.19-37.27-.02-3.71-.17-7.42-.33-11.12-.14-3.4-1.98-5.78-4.96-7.13-1.47-.67-2.16-1.65-2.32-3.08-.23-2-.41-4.01-.42-6.02-.06-10.73.06-21.46-.12-32.19-.13-7.81-1.58-15.38-5.31-22.38-2.6-4.88-6.44-6.23-11.52-3.99-.37.16-.73.33-1.1.51-7.86,3.85-14.49,9.24-20.05,16-5.71,6.95-8.4,14.88-8.38,23.88.02,7.66-.3,15.31-.47,22.97-.04,2-.81,3.59-2.63,4.58-.35.19-.67.46-1.01.67-1.88,1.15-2.77,2.79-2.69,5.04.09,2.5,0,5,.03,7.5.15,15,.33,30,.44,45,.01,1.42-.22,2.9-.67,4.24-.51,1.51-1.25,3-2.16,4.31-2.15,3.1-2.58,6.52-2.37,10.15.1,1.68.04,3.39-.14,5.07-.14,1.25-.26,2.73-1.61,3.34-2.97,1.33-3.67,3.74-3.65,6.71.06,7.99.02,15.97.03,23.96.03,14.12.01,28.23.12,42.35.05,6.05-1.09,11.57-4.91,16.54-3.27,4.26-2.56,9.35,1.34,13.12,1.31,1.27,2.85,2.36,4.43,3.29,2.15,1.27,4.39,2.39,6.66,3.43,3.82,1.73,7.65,3.43,11.92,3.79.9.08,1.79.38,3.16.7-1.81,1.77-3.25,3.14-4.65,4.56-1.7,1.72-3.67,2.8-6.14,3.01-1.6.14-3.18.54-4.77.75-5.15.68-10.3.85-15.39-.33-1.87-.43-3.79-.94-5.49-1.81-6.37-3.28-12.68-6.69-18.96-10.14-1.6-.88-3.03-2.07-4.61-3.17,1.05-1.88,1.92-3.59,3.71-4.57,3.49-1.92,6.5-4.48,9.37-7.19,3.68-3.48,6.65-7.53,8.48-12.23,3.82-9.8,5.62-20.01,4.94-30.55-.4-6.23-2.43-11.95-6.18-17.04-4.08-5.54-9.31-9.81-14.93-13.6-6.58-4.42-13.82-7.61-21.14-10.56-7.93-3.2-16.16-5.52-24.43-7.64-.65-.17-1.28-.43-2.17-.74.49-.41.71-.65.97-.79,4.24-2.31,8.45-4.68,12.74-6.89,6.72-3.46,12.69-7.93,18.17-13.09,7.26-6.84,13.14-14.81,18.64-23.07,1.29-1.94,2.37-4.03,3.43-6.11,3.08-6.08,4.83-12.62,6.58-19.17,2.49-9.36,3.74-18.79,2.05-28.46-1.73-9.9-4.3-19.54-9.04-28.45-4.26-8-9.68-15.24-15.66-22.02-7.7-8.73-16.96-15.58-27.23-20.98-8.72-4.59-17.95-7.99-27.38-10.84-8.13-2.46-16.51-3.79-24.91-4.74-9.38-1.07-18.81-.95-28.21.47-8.85,1.34-17.68,2.68-26.15,5.72-4.85,1.74-9.71,3.45-14.58,5.16-.91.32-1.84.56-2.76.83Z"/>
      <path class="cls-2" d="M185.05,88.25c.92-.27,1.86-.51,2.76-.83,4.86-1.71,9.72-3.42,14.58-5.16,8.47-3.04,17.3-4.38,26.15-5.72,9.4-1.42,18.83-1.53,28.21-.47,8.4.95,16.78,2.28,24.91,4.74,9.42,2.85,18.66,6.25,27.38,10.84,10.27,5.4,19.53,12.25,27.23,20.98,5.98,6.78,11.4,14.01,15.66,22.02,4.74,8.91,7.3,18.55,9.04,28.45,1.7,9.67.44,19.1-2.05,28.46-1.74,6.55-3.5,13.09-6.58,19.17-1.05,2.08-2.13,4.17-3.43,6.11-5.5,8.26-11.38,16.23-18.64,23.07-5.48,5.16-11.46,9.63-18.17,13.09-4.29,2.21-8.5,4.58-12.74,6.89-.27.14-.48.38-.97.79.89.31,1.52.57,2.17.74,8.28,2.12,16.5,4.45,24.43,7.64,7.32,2.95,14.57,6.13,21.14,10.56,5.63,3.79,10.86,8.06,14.93,13.6,3.74,5.09,5.77,10.82,6.18,17.04.68,10.53-1.12,20.74-4.94,30.55-1.83,4.69-4.8,8.75-8.48,12.23-2.87,2.72-5.88,5.28-9.37,7.19-1.79.98-2.66,2.69-3.71,4.57,1.58,1.1,3.01,2.29,4.61,3.17,6.28,3.45,12.59,6.86,18.96,10.14,1.69.87,3.61,1.38,5.49,1.81,5.09,1.18,10.24,1.01,15.39.33,1.6-.21,3.17-.61,4.77-.75,2.47-.21,4.44-1.29,6.14-3.01,1.4-1.41,2.84-2.79,4.65-4.56-1.38-.31-2.26-.62-3.16-.7-4.27-.35-8.11-2.05-11.92-3.79-2.27-1.03-4.52-2.16-6.66-3.43-1.58-.93-3.11-2.02-4.43-3.29-3.9-3.77-4.61-8.85-1.34-13.12,3.82-4.98,4.96-10.49,4.91-16.54-.11-14.12-.09-28.23-.12-42.35-.01-7.99.03-15.97-.03-23.96-.02-2.97.68-5.38,3.65-6.71,1.35-.6,1.47-2.09,1.61-3.34.19-1.68.24-3.39.14-5.07-.21-3.63.23-7.05,2.37-10.15.91-1.31,1.64-2.8,2.16-4.31.45-1.34.68-2.82.67-4.24-.11-15-.29-30-.44-45-.03-2.5.06-5-.03-7.5-.08-2.25.8-3.88,2.69-5.04.34-.21.66-.47,1.01-.67,1.82-.99,2.59-2.57,2.63-4.58.17-7.66.49-15.31.47-22.97-.02-9,2.67-16.93,8.38-23.88,5.55-6.76,12.19-12.14,20.05-16,.36-.18.73-.35,1.1-.51,5.07-2.24,8.91-.89,11.52,3.99,3.73,7,5.19,14.57,5.31,22.38.18,10.73.06,21.46.12,32.19.01,2.01.2,4.02.42,6.02.16,1.42.85,2.41,2.32,3.08,2.98,1.35,4.82,3.73,4.96,7.13.15,3.71.3,7.41.33,11.12.08,12.42.06,24.85.19,37.27.02,1.9.23,3.94.95,5.67,2.2,5.27,2.51,10.79,2.68,16.36.04,1.29.06,2.58.04,3.87-.05,2.73,1.26,4.75,3.66,5.74,2.01.84,2.78,2.35,3.22,4.18.25,1.01.32,2.07.33,3.12.09,8.47.13,16.94.22,25.41,0,.96.12,1.93.32,2.87.45,2.06,1.53,3.49,3.53,4.55,6.53,3.48,10.12,9.04,10.68,16.44.16,2.16.02,4.34.02,6.51,0,.79,0,1.57,0,2.65,3.3-.98,6.37-1.9,9.44-2.82.54-.16,1.08-.32,1.62-.49,4.11-1.27,4.16-1.27,4.19-5.69.04-8.87,0-17.75.02-26.62.03-10.73.16-21.46.11-32.18-.1-20-.25-40.01-.49-60.01-.09-7.84-1.61-15.54-2.95-23.24-1.64-9.45-3.06-18.94-3.4-28.54-.06-1.69.04-3.39.17-5.07.41-5.09-.94-9.75-3.46-14.11-3.35-5.78-6.77-11.53-10.15-17.3-4.96-8.48-9.93-16.96-14.85-25.47-1.77-3.06-3.65-6.09-5.09-9.31-2.58-5.76-1.18-11.07,2.71-15.76,2.16-2.61,4.73-4.8,7.68-6.56,5.07-3.01,10.36-5.51,15.83-7.74,6.48-2.63,13.21-4.07,20.02-5.42,10.72-2.11,21.5-2.09,32.25-.76,7.18.89,14.35,2.12,21.24,4.54,10.09,3.55,19.09,8.93,26.85,16.3,1.22,1.16,2.24,2.53,3.27,3.86,1.6,2.07,2.08,4.49,1.12,6.86-1.18,2.89-2.65,5.68-4.2,8.4-3.77,6.66-7.6,13.29-11.5,19.87-2.63,4.44-5.4,8.79-8.11,13.17-2.97,4.8-5.97,9.57-8.9,14.39-1.89,3.1-2.68,6.56-2.79,10.14-.11,3.47-.03,6.94-.04,10.41-.01,3.57-.47,7.04-1.83,10.4-1.33,3.31-1.81,6.84-2.04,10.39-.29,4.42-.42,8.87-.99,13.26-.35,2.68-1.27,5.32-2.19,7.88-.97,2.69-1.63,5.38-1.65,8.25-.06,12.42-.14,24.84-.25,37.26-.14,15.65-.3,31.29-.48,46.94-.14,11.94-.27,23.87-.49,35.81-.12,6.45-.29,12.9-.72,19.33-.34,5.14-1.12,10.25-1.7,15.38-.23,2.08-.4,4.17-.67,6.25-.81,6.31-5.04,10.67-10.95,12.02-3.91.9-7.8.97-11.77.75-5.54-.32-11.09-.44-16.44-.64-1.73,2.51-1.7,2.62.1,4.24,2.51,2.27,4.99,4.57,7.47,6.88,5.1,4.75,5.3,12.52,1.56,17.39-3.24,4.21-6.27,8.62-9.84,12.54-7.27,7.95-16.2,10.03-26.94,4.58-3.44-1.75-6.8-3.62-9.9-6-3.69-2.84-6.48-6.23-8.17-10.7-.3.12-.63.15-.83.33-4.19,3.89-8.21,7.97-12.59,11.64-2.56,2.15-5.52,4.02-8.59,5.32-3.99,1.7-8.14,1.46-12.13-.67-2.88-1.54-5.44-3.36-7.68-5.76-1.17-1.25-2.87-2.02-4.39-2.91-1.38-.81-2.87-1.45-4.27-2.22-5.53-3.07-7.83-8.09-8.39-14.12-.06-.64-.07-1.29-.14-1.93-.01-.14-.16-.26-.38-.59-.59.16-1.3.26-1.93.54-2.13.95-4.26,1.93-6.35,2.97-6.08,3.04-10.24,7.85-13.15,13.96-3.75,7.88-8.06,15.46-14.29,21.7-2.9,2.91-6.21,5.38-9.81,7.41-6.76,3.81-14.05,5.93-21.67,7.22-9.28,1.58-18.61,1.63-27.97,1.44-.23,0-.46-.1-.83-.19.04-1.81.48-3.48,1.67-4.85,2.32-2.68,4.68-5.32,7.07-7.93,2.45-2.67,4.98-5.27,7.42-7.95,3.25-3.57,6.41-7.22,9.7-10.76,4.33-4.67,9.54-8.08,15.24-10.89,6.16-3.04,12.7-4.62,19.39-5.73,7.79-1.28,15.59-2.48,23.04-5.26,1.72-.64,3.45-1.28,5.32-1.97-.09-.84-.16-1.61-.28-2.73-1.96.24-3.78.38-5.56.69-5.31.94-10.65,1.78-15.9,2.99-6.43,1.48-12.79,3.29-19.17,4.98-5.54,1.46-11.11,2.69-16.88,2.83-6.4.16-12.73-.2-18.86-2.25-4.35-1.46-8.73-2.84-13.04-4.41-2.86-1.05-5.55-2.59-8.44-3.54-7.16-2.36-14.57-2.6-22.01-2.14-9.75.61-19.5.84-29.26.44-11.04-.45-21.99-1.91-32.9-3.61-3.9-.61-7.83-1.15-11.66-2.07-6.57-1.59-13.21-3.07-19.58-5.28-10.93-3.78-21.12-9.17-30.58-15.84-4.84-3.41-9.1-7.53-11.68-12.98-1.33-2.82-2.31-5.84-3.2-8.84-1.57-5.33-2.94-10.72-4.4-16.09-.16-.6-.4-1.18-.73-2.17-2.29,3.01-4.67,5.56-6.38,8.5-2.71,4.69-6.78,7.54-11.59,9.41-5.74,2.24-11.73,2.87-17.82,1.65-1.25-.25-2.54-.63-3.64-1.26-3.27-1.88-6.84-2.26-10.48-2.5-2-.13-4.02-.27-5.99-.64-2.1-.4-3.59-1.76-4.43-3.75-2.13-5.07-2.32-9.96,1.05-14.68,2.01-2.82,3.82-5.78,5.71-8.68.21-.31.35-.67.68-1.29-3.76-.37-7.27-.63-10.75-1.09-5.68-.74-11.43-1.39-16.3-4.79-2.64-1.84-5.13-3.9-7.65-5.9-1.2-.95-2.3-2.02-3.47-3.01-1.04-.88-1.46-1.9-1.56-3.34-.27-4.09-.78-8.17-1.28-12.24-.46-3.76-1-7.49-.3-11.3,1.28-7.04,5.36-11.31,12.24-13.08,4.8-1.23,9.7-1.53,14.6-1.89,5.87-.44,11.75-.74,17.62-1.13.96-.06,1.91-.23,3.3-.4-.94-1.35-1.7-2.5-2.51-3.62-1.23-1.69-2.58-3.31-3.73-5.05-3.34-5.06-4.29-10.72-3.85-16.64.19-2.48.67-4.95,1.01-7.42.07-.48.12-.96.14-1.44.14-3.03-.47-3.69-3.23-4.88-3.61-1.56-7.29-3.09-10.6-5.16-5.14-3.23-9.49-7.5-13.29-12.22-5.66-7.03-11.28-14.08-18.06-20.1-.82-.73-1.46-1.67-2.35-2.72,21.23-5.56,42.36-6.67,64.14-2.7-.63-1.53-1.03-2.56-1.48-3.57-2.27-5.16-4.54-10.32-6.83-15.48-1.77-3.99-2.19-8.24-2.34-12.52-.08-2.43,2.09-4.22,4.5-3.66,6.37,1.47,12.75,3.08,18.55,6.11,7.51,3.93,13.34,9.61,15.77,18.05,1.33,4.64,2.26,9.4,3.64,14.03,1.22,4.08,2.82,8.04,4.27,12.09,3.79-2.15,3.97-4.5,3.21-8.13-.93-4.41-2.2-8.75-3.38-13.1-1.72-6.38-3.29-12.79-4.24-19.35-.63-4.36-2.1-8.45-5.3-11.71-.09-.09-.09-.29-.21-.71,1.87-.04,3.67-.03,5.47-.14,2.19-.14,3.63-1.14,3.89-2.95.22-1.54.05-3.15.05-4.97-4.78.59-9.25.77-13.89,2.04,1.19,2.06,2.21,3.83,3.26,5.64-1.15.63-2.12.67-2.88-.09-3.07-3.04-6.92-2.98-10.68-2.41-6.82,1.04-13.65,1.24-20.5.77-5.5-.37-10.92-1.42-15.96-3.66-5.32-2.36-10.35-5.31-14.29-9.72-2.46-2.75-4.24-5.86-4.47-9.69-.13-2.2.38-4.13,1.77-5.86,1.25-1.56,2.88-3.02,3.51-4.82.6-1.72.07-3.83.16-5.76.06-1.36.21-2.74.51-4.07.8-3.49,2.75-6.13,6.01-7.74,3.41-1.69,6.91-3.03,10.75-3.44,3.61-.38,6.46-1.92,7.5-5.77.23-.85.71-1.62,1.01-2.46.94-2.64,2.84-4.03,5.56-4.36,1.2-.15,2.4-.24,3.61-.3,2.25-.12,4.51-.18,6.76-.3,4.27-.23,7.93-2.06,11.29-4.5,3.41-2.48,7.04-3.89,11.31-2.95,2.99.66,5.45,2.34,7.8,4.21.76.6,1.46,1.27,2.22,1.87,2.18,1.72,4.91,1.77,7.15.18.85-.6,1.69-1.27,2.63-1.69,2.93-1.31,5.92-.57,7.57,2.21,1.56,2.61,2.84,5.42,4,8.24,1.84,4.49,3.22,9.12,3.46,14.02.34,6.85-1.95,13.01-5.01,18.94-2.26,4.37-5.47,7.87-9.66,10.56-3.56,2.28-5.68,5.74-6.08,9.99-.31,3.28-.57,6.62-.28,9.89.84,9.55,1.96,19.07,2.99,28.61.8,7.46,1.17,14.94,1.17,22.45,0,5.64.16,11.29.48,16.92.17,2.95.82,5.87,1.28,9.04,2.02-.95,3-2.36,3.05-4.19.05-1.75-.08-3.56-.49-5.26-3.36-13.87-2.82-27.65.69-41.39,2.5-9.79,6.78-18.74,12.49-27.07,5.61-8.18,12.38-15.23,20.08-21.43,3.01-2.42,6.07-4.77,9.02-7.26,3.22-2.72,3.56-6.12,1.98-9.85-1.32-3.12-3.34-5.69-6.09-7.65-3.78-2.68-7.06-5.82-9.75-9.62-3.67-5.17-5.37-10.95-5.6-17.21-.22-5.92.68-11.73,1.85-17.51.89-4.44.87-4.45,3.91-8.22,3.22,3.38,6.3,6.84,8.91,10.69,3.21,4.73,6.43,9.46,9.51,14.28,1.81,2.84,3.5,5.79,4.98,8.82,1.84,3.77,1.86,7.86.95,11.84-.77,3.36-1.96,6.64-3.12,9.9-.88,2.48-.91,4.97-.83,8.03.92-.93,1.57-1.49,2.11-2.14,7.51-9.1,10.58-19.39,8.31-31.12-.85-4.37-1.12-8.8-.58-13.24.6-4.87,3.01-8.83,6.56-12.06,4.41-4,8.87-7.97,13.51-11.7,4.13-3.33,8.35-6.58,13.11-9.02,2.85-1.46,5.73-2.85,8.74-4.35.54,1.63.96,2.97.39,4.42-1.52,3.9-1.28,7.92-.67,11.93.86,5.67,1.59,11.32.74,17.08-1.04,7.05-3.74,13.26-8.63,18.53-4.23,4.57-9.24,7.98-14.83,10.62-2.26,1.07-4.48,2.2-6.68,3.4-5.23,2.84-9.39,6.77-12.11,12.12-.43.85-.67,1.8-.99,2.71-.07.12-.13.24-.2.36.18,0,.37,0,.55,0ZM137.42,227.92s0,0,0,0c-.18.6-.3,1.22-.55,1.79-1.02,2.28-2.14,4.51-3.1,6.82-2.39,5.73-3.57,11.69-3.13,17.93.14,1.9.3,3.8,1.15,5.72,5.57-2.4,10.99-4.73,16.37-7.04.88,1.29.2,1.74-.72,2.14-2.44,1.05-4.88,2.12-7.3,3.22-.74.34-1.66.53-2.1,1.72,11.68.67,21.15-4.24,30.37-10.34-.84-.88-1.44-1.63-2.16-2.25-5.62-4.82-11.27-9.61-16.9-14.42-1.29-1.1-2.56-2.21-3.78-3.38-.43-.42-.78-1-.98-1.57-.68-1.98-4.2-6.94-6.25-8.51-1.53,1.41-3.54,2.61-4.6,4.38-2.7,4.47-5.13,9.12-7.38,13.84-2.45,5.16-2.77,10.89-3.76,16.43-.12.7-.12,1.29.72,1.53.78.22,1.24-.14,1.48-.85.82-2.36,1.67-4.71,2.43-7.08,1.73-5.45,3.24-11,6.39-15.85,1.02-1.57,2.53-2.82,3.81-4.21ZM346.65,419.75c-.07-.07-.15-.15-.22-.22,1.68-3.23,3.35-6.46,5.13-9.87-.55,0-.78-.06-.98,0-3.51,1.15-6.38,3.31-9.16,5.67-4.29,3.64-8.61,7.27-13.82,9.59-1.1.49-2.12,1.16-3.24,1.6-2.91,1.15-5.84,2.21-8.77,3.31,0,0-.14-.17-.14-.17.23-.31.4-.69.7-.92,2.03-1.58,4.08-3.14,6.14-4.69,4.12-3.09,8.22-6.2,12.38-9.22,3.12-2.26,6.32-4.4,9.47-6.63.26-.18.36-.6.79-1.37-1.13.24-1.79.42-2.45.52-1.91.27-3.82.52-5.73.74-.72.08-1.3-.12-1.18-1.15.22-.12.48-.3.77-.4,3.49-1.21,6.99-2.42,10.49-3.6,2.98-1,5.98-1.92,8.95-2.93.87-.3,1.68-.78,2.6-1.21-1.45-1.56-1.81-1.65-4.45-1.32-4.01.49-7.88,1.42-11.7,2.81-6.06,2.21-11.49,5.5-16.49,9.44-4.86,3.83-9.32,8.14-13.43,12.79-4.05,4.58-8.24,9.04-12.34,13.58-1.06,1.17-2.02,2.44-3.25,3.93,3.12,0,5.91.06,8.7-.01,7.92-.22,15.66-1.42,23.23-3.92,6.17-2.04,11.92-4.82,17.45-8.16.55-.33,1.1-.68,1.61-1.07,7.78-5.97,12.58-13.87,15.05-23.27.1-.4.01-.85.01-1.41-.46.17-.77.26-1.05.39-3.18,1.48-4.91,4.31-6.59,7.16-1.14,1.94-2.1,4-3.34,5.88-1.24,1.88-2.71,3.63-5.11,4.14ZM97.23,79.83c.48.39,1.14.69,1.42,1.2,1.16,2.11,2.47,4.19,3.24,6.45.95,2.81,1.43,5.78,2.09,8.68.37,1.61,1.14,2.93,2.85,4.05.74-1.4,1.89-2.62,1.97-3.91.2-3.44.23-6.95-.21-10.37-1.01-7.73-5.32-13.71-10.87-18.88-6.34-5.91-13.9-8.89-22.56-9.02-4.18-.06-6.63,2.03-7.88,6.14-.61,2-1.13,4.03-1.63,6.06-.23.93-.47,1.9-.43,2.85.15,4.03.27,8.06.64,12.07.42,4.47,2.14,8.49,5.53,11.52,4.14,3.7,8.4,7.27,12.77,10.67,2.58,2.01,5.49,3.59,8.38,5.44.62-.82,1.03-1.37,1.47-1.96-.48-.54-.82-.98-1.23-1.37-3.16-2.99-6.37-5.93-9.49-8.96-3.97-3.86-7.27-8.19-8.9-13.6-.25-.82-.41-1.68-.61-2.51,2.07,2.63,3.63,5.41,5.32,8.12,2.89,4.65,6.41,8.66,11.66,10.74,1.43-1.26,1.45-1.27.98-2.59-.54-1.52-1.15-3.01-1.7-4.52-.3-.83-.3-1.57.98-1.86,2.25,3.31,4.49,6.61,6.72,9.89,2.4-1.3,2.39-1.3,1.98-3.56-.27-1.49-.48-2.98-.74-4.57.98-.16,1.74-.28,2.36-.38.95-2.25.5-4.23-.4-6.2-1-2.2-1.94-4.43-2.84-6.67-.38-.95-.57-1.97-.85-2.97l-.04.04ZM489.71,379.97c-1.04-.74-2.1-1.45-3.13-2.21-6.23-4.57-12.79-8.4-20.66-9.35-.79-.1-1.64-.36-2.63.26,1.19.84,2.18,1.53,3.15,2.24,3.9,2.85,7.83,5.64,11.66,8.57,3.41,2.6,5.7,6.09,7.38,10,.2.47.25,1,.37,1.5-2.88-2-5.36-4.31-7.13-7.17-1.84-2.98-4.34-5.25-7.24-6.95-3.81-2.23-7.88-4.02-11.84-5.99-.2-.1-.46-.06-.87-.11.15,1.11.3,2.15.45,3.25-1.65,0-3.09-.08-4.52.02-1.79.13-2.61.97-2.7,2.78-.06,1.2.03,2.42.21,3.61.61,4.03,2.39,7.67,3.96,11.37,1.41,3.34,2.84,6.67,4.25,10.01.27.63.78,1.33-.55,1.91-3.36-5.47-6.74-10.96-10.12-16.45-.39,1.45-.58,2.8-.37,4.08,1.66,10.11,8.19,16.28,16.93,20.54,3.88,1.9,8.24,2.13,12.41,2.98,2.41.49,3.15.21,4.38-1.94.98-1.72,2.25-2.84,4.15-3.42,2.88-.88,4.96-2.83,6.78-5.2,2.54-3.31,4.37-7.16,7.62-9.95.55-.47.75-1.58.77-2.4.17-8.23-6.71-15.68-14.26-17.29-.56-.12-1.16-.02-2.05-.02,1.45,1.86,2.66,3.43,3.88,5-.1.11-.19.22-.28.34ZM380.87,353.78c1.06.86,2.11,1.73,3.17,2.57,4.06,3.22,8.29,6.19,13.5,7.19,5.68,1.1,11.41.47,17.11.14,2.63-.15,5.26-.71,7.85-1.28,2.13-.47,4.07-1.5,5.94-2.68-1.18-.34-2.3-.49-3.41-.56-3.62-.22-7.24-.39-10.86-.61-1.62-.1-1.62-.13-1.22-1.99,2.22,0,4.47.05,6.72-.01,2.2-.06,4.43.28,6.75-.27-.18-.73-.33-1.26-.44-1.79-.45-2.31.23-3.44,2.51-4.2.61-.2,1.27-.28,1.85-.55.82-.39,1.59-.91,2.58-1.49-3.91-4.57-7.45-9.01-11.34-13.14-.78.65-1.32,1.11-2.07,1.74-2.16-1.31-4.32-2.62-6.48-3.93l.2-.42c2.62.8,5.24,1.59,7.85,2.39.1-.16.2-.33.3-.49-.6-.7-1.08-1.59-1.83-2.08-2.02-1.31-4.04-2.72-6.25-3.61-5.51-2.22-11.32-3.17-17.26-2.92-3.24.14-6.44.68-9.17,2.63-3.92,2.81-5.48,5.6-4.06,10.08.78,2.45.27,4.61-1.37,6.54-.52.61-1.03,1.25-1.66,1.74-4.51,3.5-4.11,9.66-.22,13.58,3.78,3.82,8.46,5.82,13.51,7.05,5.07,1.24,10.23,1.11,15.37.35.15-.02.27-.15.52-.3-.05-.47-.1-.99-.16-1.62-2.84-.32-5.57-.52-8.26-.95-3.73-.59-7.55-.98-11.12-2.12-4.32-1.37-7.44-4.35-8.54-9.01l-.03.03ZM99.65,236.65c.23.07.52.07.66.21,2.04,2.16,4.27,4.16,5.62,6.88,1.06,2.15,2.19,4.27,3.35,6.54,2.77,0,5.58.17,8.37-.05,2.97-.22,4.44-1.91,4.76-4.81.24-2.16.57-4.31.79-6.47.63-6.29.4-12.49-3.29-17.92-2.12-3.11-3.68-6.45-5.01-9.89-2.4-6.2-7.01-9.76-13.2-11.29-6.85-1.7-13.43-.65-19.52,3.03-.53.32-.99.75-1.61,1.23.75,1.11,1.39,2.12,2.09,3.08,2.01,2.72,4.06,5.41,6.08,8.12.34.46.95.91.27,1.81-1.83-2.14-3.56-4.23-5.35-6.25-1.54-1.74-3.11-3.45-4.75-5.09-.98-.97-2.29-1.15-3.61-.87-3.68.77-6.55,2.64-8.04,6.22-2.74,6.56-2.76,13.3-1.32,20.15.54,2.59,1.69,4.91,3.47,6.81,2.2,2.35,4.38,4.8,6.95,6.69,7.05,5.19,14.3,10.11,21.66,15.27.53-.9.95-1.63,1.42-2.43-5.02-4.14-9.88-8.14-14.73-12.15.12-.2.24-.41.37-.61,6.75,2.26,12.84,6.18,19.98,8.42-.24-.84-.36-1.36-.53-1.86-1.41-3.94-2.86-7.87-4.23-11.82-.33-.96-.41-2-.61-3.01l-.04.04ZM541.13,123.92c2.19-1.05,3.72-2.76,4.8-4.9,2.31-4.61,4.37-9.37,6.98-13.79,5.4-9.16,11.14-18.12,16.66-27.21,1.62-2.67,3.09-5.46,4.37-8.32,1.14-2.55.37-4.91-1.63-6.82-1.1-1.05-2.26-2.08-3.5-2.96-2.21-1.57-4.51-3.02-6.9-4.6-2.29,4.23-3.25,8.73-5.74,12.54-.04-1.08.14-2.09.33-3.09.5-2.61,1.12-5.2,1.48-7.83.26-1.88-1.59-4.5-3.36-5.16-.94-.35-2.69.47-3.67,1.85-.36.5-.55,1.15-.7,1.76-.99,4.23-1.96,8.47-2.89,12.72-.99,4.48-1.91,8.98-2.9,13.46-.24,1.09-.34,2.31-1.6,3.05-1.01-3.32-.69-6.42-.07-9.51,1.38-6.87,2.79-13.73,4.13-20.61,1.02-5.27.19-6.66-4.95-7.99-3.43-.89-6.94-1.45-10.37-2.3-5.69-1.42-11.5-1.59-17.28-1.49-5.29.09-10.58.56-15.84,1.58-8.17,1.58-16.28,3.15-23.73,7.08-1.41.74-2.91,1.32-4.63,2.09,2.22,7.41,4.4,14.7,6.72,22.46-.85-.19-1.4-.17-1.7-.43-.33-.29-.47-.83-.64-1.28-1.86-4.81-3.7-9.62-5.57-14.43-.61-1.56-1.27-3.1-2-4.86-2.59,1.76-5.08,3.24-7.34,5.02-4.67,3.68-5.2,6.14-2.63,11.52,1.67,3.49,3.38,6.96,5.18,10.38,4.35,8.27,8.69,16.55,13.17,24.75,2.55,4.66,5.3,9.21,8.08,13.74,1.59,2.59,3.26,5.16,5.6,7.32.63-.42,1.14-.76,1.8-1.19-4.11-8.21-8.17-16.33-12.32-24.63.84-.37,1.46-.64,2.25-.99.65,1.31,1.2,2.45,1.79,3.58,3.37,6.52,6.74,13.03,10.11,19.54.33.64.56,1.35.98,1.93.16.23.74.36,1.03.26.29-.1.65-.55.64-.84,0-.72-.16-1.44-.33-2.14-1.16-4.53-2.38-9.04-3.49-13.57-.49-2.01-.79-4.07-1.18-6.11,0,0-.03.03-.03.03.59.71,1.31,1.36,1.73,2.16.51.99.77,2.11,1.14,3.18,1.58,4.57,3.17,9.13,4.75,13.7.69,2,1.86,3.55,3.88,4.4,1.75-.72,1.09-2.08.83-3.28-2.89-13.79-5.81-27.59-8.7-41.38-.15-.73-.16-1.49-.3-2.76,2.09,2.07,3.42,3.96,3.92,6.28,1.65,7.64,3.29,15.28,4.81,22.94.95,4.82,1.61,9.69,2.54,14.51.71,3.69,2.02,4.72,5.79,4.86,2.42.09,4.84.09,7.26,0,4.05-.16,5.16-1.16,6.01-5.18.12-.55.2-1.11.26-1.67.65-6.17,1.22-12.35,1.94-18.5.67-5.69,1.83-11.29,3.73-16.71.2-.56.54-1.06.81-1.6.13.04.26.08.39.12-1.59,14.05-3.17,28.1-4.77,42.25,1.02.3,1.74.52,2.49.75.28-.63.5-1.05.67-1.5,2.29-6.02,4.56-12.05,6.88-18.06.22-.56.19-1.51,1.58-1.41-1.11,5.06-2.19,10.02-3.27,14.98.76-.16,1.12-.46,1.37-.83,3.88-5.65,7.42-11.51,10.48-17.66,5.24-10.55,9.49-21.52,13.79-32.47,1-2.55,2.09-5.06,3.13-7.59-2.12,10.75-5.67,21.02-9.91,31.05-3.38,8.02-6.99,15.94-10.47,23.91-.8,1.84-1.46,3.73-2.18,5.61-.01.18-.03.37-.04.55l.33-.27ZM280.1,257.68c0,.16,0,.31.01.47,3.05-.24,6.11-.37,9.14-.77,3.45-.46,6.82-1.38,9.85-3.13,3.62-2.09,7.11-4.41,10.67-6.62,8.4-5.21,16.03-11.37,22.8-18.57,3.49-3.7,6.61-7.71,9.26-12.05,5.68-9.3,9.58-19.33,11.77-30,1.51-7.32,1.85-14.71,1-22.13-.93-8.05-3.16-15.77-6.3-23.25-4.72-11.25-11.66-20.93-20.43-29.33-6.25-5.99-13.29-11.01-20.75-15.34-8.59-4.99-17.7-8.96-27.34-11.43-6.23-1.59-12.61-2.62-18.95-3.71-6.69-1.15-13.44-1.58-20.22-.71-2.79.36-5.58.79-8.39,1.01-10.14.81-20.17,2.14-29.85,5.47-4.95,1.7-9.89,3.37-14.62,5.68-6.32,3.07-12.35,6.59-18.02,10.74-7.11,5.21-13.74,10.94-19.57,17.57-3.9,4.44-7.27,9.26-9.45,14.8-1.56,3.97-2.94,8.01-4.41,12.02-3.7,10.12-5.11,20.66-5.05,31.34.04,8.29,2.33,16.23,5.37,23.92,2.06,5.21,4.9,9.96,8.44,14.3,2.49,3.06,4.95,6.15,7.4,9.24,4.02,5.07,8.38,9.81,13.87,13.34,3.38,2.18,6.85,4.23,10.28,6.33.89.55,1.78,1.11,2.69,1.63,3.56,2.03,7.01,4.3,10.72,6.02,7.56,3.5,15.62,4.3,23.87,3.77,7.64-.49,15.28-1.21,22.92-1.23,14.43-.03,28.85.37,43.28.59ZM217.06,353.12c-.44-.99-.14-1.49.66-1.59,1.12-.13,2.25-.2,3.38-.23,5.31-.17,10.63-.36,15.94-.46,9.99-.18,19.99-.29,29.99-.46,1.44-.02,2.62.29,3.67,1.4,2.41,2.54,5.45,3.37,8.84,2.64,7.63-1.64,15.39-2.51,22.97-4.45,11.17-2.87,22.25-5.85,32.56-11.22,6.86-3.57,13.04-7.99,18.45-13.49,3.27-3.33,5.63-7.25,6.56-11.9,1.54-7.65-.84-14.23-5.97-19.79-2.77-3-5.88-5.77-9.15-8.21-6.35-4.76-13.43-8.3-20.89-10.96-5.15-1.84-10.4-3.49-15.73-4.72-8.7-2.01-17.46-3.89-26.27-5.29-7.7-1.22-15.51-1.95-23.3-2.46-9.33-.62-18.67-.81-28.03-.27-10.62.61-21.2,1.36-31.66,3.47-8.44,1.7-16.9,3.2-25.17,5.75-9.13,2.81-18,6.14-26.08,11.27-3.94,2.5-7.75,5.22-11.39,8.13-2.95,2.36-5.53,5.15-7.56,8.42-2.99,4.84-3.87,10.03-2.69,15.55,1.45,6.79,5.59,11.88,10.67,16.28,5.09,4.41,10.92,7.74,17.08,10.37,4.88,2.08,9.92,3.86,15,5.36,6.56,1.94,13.21,3.57,19.88,5.12,3.91.91,7.92,1.41,11.89,2.08,10.34,1.74,20.8,2.48,31.24,3.07,8.76.5,17.58.29,26.36.11,3.24-.07,6.47-.96,9.81-1.5-.12-.8-.19-1.31-.29-2h-50.77ZM530.51,211.23h-32.24c-.11,2.07-.3,3.99-.31,5.9-.06,28.07-.09,56.14-.13,84.2,0,.56,0,1.13,0,1.69-.07,4.27-.16,8.54-.19,12.81,0,.88.19,1.76.31,2.64.12.94.68,1.47,1.61,1.48.92.01,1.54-.52,1.69-1.42.14-.87.18-1.77.19-2.65.12-16.04.22-32.09.33-48.13.03-3.79-.01-7.58.17-11.37.1-2.06.35-4.17,1.53-6.04.41,2.31.74,4.61.75,6.91.09,17.26.1,34.52.18,51.78.01,3.06.22,6.11.35,9.17.06,1.52.66,2.81,1.8,3.83,1.56,1.4,3.05,2.87,4.69,4.18,3.46,2.76,6.34,5.97,8.07,10.08,1.34,3.19,2.52,6.45,3.91,9.62.68,1.54.4,2.73-.54,4.02-3.47,4.75-6.89,9.54-10.31,14.32-.29.41-.47.9-.73,1.41,4.12.61,7.53-.62,10.67-2.83,2.27-1.6,3.7-3.62,4.24-6.45,1.58-8.16,2.42-16.41,2.8-24.69.46-10.06.77-20.13.97-30.2.26-13.3.41-26.6.49-39.9.09-15.65.05-31.29.04-46.94,0-1.11-.19-2.22-.3-3.4ZM359.73,328.13c-1.8.23-2.93,1.09-4,2.08-4.18,3.89-8.3,7.83-13.36,10.65-7.84,4.36-15.96,8.1-24.48,10.81-6.74,2.15-13.64,3.86-20.56,5.32-13.17,2.78-26.53,4.53-39.95,5.27-12.78.71-25.62.8-38.38-.85-4.39-.57-8.82-.9-13.18-1.64-7.21-1.22-14.39-2.68-21.58-4.06-9.51-1.83-18.81-4.44-27.75-8.18-4.59-1.93-8.98-4.34-13.45-6.55-.22-.11-.42-.25-.62-.38-4.72-3.09-9.29-6.38-13.49-10.16-.93-.84-1.91-1.05-3.12-.58.05.47.04.88.14,1.26,1.55,5.87,4.41,11.04,8.41,15.6,6.05,6.89,13.49,11.94,21.71,15.83,3.99,1.89,8.11,3.6,12.31,4.96,6.43,2.09,12.93,4,19.49,5.63,11.05,2.74,22.37,3.77,33.67,4.88,3.92.38,7.88.57,11.82.6,9.75.06,19.5.01,29.24-.09,1.05-.01,2.19-.5,3.13-1.03,3.29-1.86,6.41-4.06,9.79-5.73,4.18-2.07,8.44-4.06,12.86-5.53,12.54-4.18,25.43-5.6,38.59-3.92,1.64.21,3.2.08,4.61-.95.57-.42,1.31-.61,1.96-.92,5.66-2.64,10.78-6.03,15.26-10.44,5.47-5.37,8.72-11.89,10.59-19.21.21-.82.22-1.7.35-2.68ZM418.01,326.62c.24-1.3.42-2.32.62-3.34.97-4.89,1.91-9.79,2.95-14.67.9-4.23,3.67-6.87,7.59-8.42,3.2-1.27,6.59-2.13,9.25-4.44.97.45,1.78.82,2.57,1.2,2.52,1.18,3.87.54,4.27-2.18.26-1.75.36-3.53.37-5.3.04-5.4,0-10.81,0-16.21,0-.86,0-1.72,0-2.47,1.32-.44,1.9-.14,1.95.95.07,1.61.16,3.22.19,4.83.1,5,.26,9.99.24,14.99,0,2.03,1,3.24,2.53,4.44,1.24-1.19,2.54-2.03,2.53-3.98-.06-8.06.03-16.13-.01-24.19-.01-2.78-1.46-3.83-4.09-3.05-5.6,1.65-11.37,2.34-17.14,2.71-12.68.81-25.28-.22-37.82-2.06-3.33-.49-6.65-1.05-10.28-1.63,0,1.01,0,1.8,0,2.58,0,10.24-.01,20.49,0,30.73.01,7.58.05,15.16.13,22.74,0,.84.07,1.94.58,2.46,1.32,1.34,2.94,2.22,5,1.75,1.8-.41,3.62-.76,5.44-1.1,4.69-.88,9.26-.49,13.79,1.07,2.96,1.01,6.03,1.69,9.36,2.59ZM442.71,180.12h-48.92c-.12,1.24-.31,2.34-.31,3.44-.04,16.86-.06,33.72-.09,50.58,0,.48-.02.97.01,1.45.19,2.5,1.5,3.85,3.99,3.98,2.98.16,5.96.29,8.94.32,10.16.12,20.32.19,30.48.27.8,0,1.63,0,2.41-.16,1.34-.27,2.4-.99,2.73-2.42.22-.93.43-1.89.44-2.84.13-10.97.24-21.93.32-32.9.04-6.29,0-12.58,0-18.88,0-.87,0-1.74,0-2.85ZM103.69,282.01c-1.3-.17-2.38-.27-3.45-.46-1-.18-2.12-.16-2.69-1.3-1.34-2.67-3.68-3.04-6.19-2.33-5.96,1.68-11.87,3.52-17.79,5.34-3.15.97-6.26,2.06-9.41,3.06-1.44.46-2.91.36-4.38-.1.52-.45,1.05-.73,1.62-.92,8.85-2.98,17.7-5.94,26.54-8.94,1.8-.61,3.55-1.39,5.35-2.1-.23-1.16-.42-2.08-.65-3.22h-30.85c-.65-1.42-.23-2.08,1-2.25.8-.11,1.6-.25,2.4-.24,5.24.09,10.47.25,15.71.32,1.6.02,3.23,0,4.8-.26,1.49-.24,2-1.12,1.82-2.62-.09-.78-.3-1.55-.44-2.25,1.46-1.38,4.4-.03,4.84-2.88-4.38-4.64-9.77-7.41-15.75-9.08-13.48-3.75-26.83-2.51-39.98,1.57-3.35,1.04-6.03,3.27-7.06,7.04-.68,2.51-1.31,5.01-1.16,7.6.3,5.06.84,10.11,1.03,15.17.1,2.63,1.18,4.41,3.31,5.76,2.71,1.73,5.32,3.63,8.09,5.27,2.35,1.39,4.74,2.84,7.3,3.71,8.41,2.88,16.9,2.27,25.14-.58,5.53-1.92,10.76-4.67,16.21-6.85,4.97-2,9.29-5.14,13.96-7.65.19-.1.3-.35.68-.81ZM489.78,133.95c-.07,1.84-.07,3.52-.21,5.18-.62,7.52.03,14.96,1.36,22.37,1.27,7.13,2.52,14.27,3.56,21.44.76,5.22,2.83,7.9,8.37,8.08,7.98.25,15.95.39,23.93.62,2.59.08,4.29-1.21,5.39-3.37.54-1.06.85-2.26,1.13-3.43,1.96-8.34,2.64-16.86,3.44-25.36.6-6.34,1.18-12.67,1.75-19.01.19-2.13.31-4.26.47-6.52h-49.18ZM453.05,347.17c2.86-2.23,5.09-4.36,6.48-7.09,1.78-3.5,3.25-7.17,4.78-10.8,1.08-2.55,1.86-5.23,3.76-7.5-.21,3.12-.43,6.23-.64,9.35.19.07.38.13.57.2.98-1.42,2.04-2.8,2.94-4.28,2.37-3.88,2.61-8.03,1.38-12.34-.88-3.09-2.68-5.68-4.53-8.2-1.75-2.38-4.09-3.62-7.16-2.68-1.11.34-2-.13-2.95-.67-1.75-.99-3.54-1.89-5.35-2.76-1.56-.75-3.2-1.01-4.93-.57-3.81.97-7.64,1.89-11.46,2.85-.73.18-1.28.28-1.96-.33-2-1.81-2.64-1.69-4.65.14-3.12,2.84-5.16,6.39-6.65,10.25-.99,2.56-1.42,5.17-.8,8.02,2.2,10.21,7.41,18.61,14.94,25.68.85.8,1.83,1.47,3.11,2.49-.23-2.33-.55-4.03-1.6-5.53-1.67-2.37-3.36-4.73-4.98-7.13-1.94-2.87-3.9-5.72-5.7-8.68-2.33-3.83-1.54-9.46,1.62-12.14.15,1.89.27,3.74.45,5.57.48,5.03,1.77,9.83,4.49,14.14,1.73,2.74,4.14,4.56,7.78,5.21-.87-4.85-1.69-9.4-2.51-13.96.09-.03.19-.06.28-.09,2.85,6.24,5.71,12.49,8.63,18.88,1.02-.29,1.83-.51,2.67-.75.49-8.05.96-15.89,1.43-23.73.61.39.89.84,1.06,1.33,1.06,3.15,1.22,6.44.2,9.52-1.67,5.02-.76,10.02-.68,15.59ZM483.67,342.77c-.03.25.02.56-.1.66-2.58,2.26-5.77,3.76-7.99,6.47-.18.22-.58.26-.89.35-2.77.84-5.55,1.66-8.31,2.51-.56.17-1.09.44-1.7.69,1.08,1.36,2.02,2.53,3.06,3.82-1.29.76-2.35,1.4-3.75,2.22,2.64,1.16,4.83,2.64,7.41,2.92,3.59.4,7.22.59,10.83.67,4.11.09,8.22-.05,12.33-.07.49,0,.99.12,1.92.23-1.49.87-2.55,1.49-3.61,2.11,5.91.79,11.32-.28,16.12-3.6,2.99-2.07,5.57-4.61,7.81-7.52,2.84-3.68,3.35-7.57,1.49-11.79-1.24-2.82-2.85-5.41-4.99-7.66-2.23-2.34-4.81-4.02-8.11-4.39-1.44-.16-2.87-.38-4.31-.56-5.05-.63-9.81.16-14.09,3.04-2.13,1.44-4.61,1.55-6.93,2.21-.67-1.59.52-1.61,1.27-1.87,5.85-2.04,11.72-4.04,17.58-6.07.64-.22,1.26-.49,2.05-.8-13.76-5.8-36.14,6.39-38.99,23.47,1.93-.09,3.92.54,5.7-.4,2.48-1.31,4.83-2.87,7.24-4.33,2.74-1.66,5.59-2.88,8.98-2.34ZM434.51,176.12c.06-.77.14-1.24.14-1.71,0-16.68-.04-33.36-.01-50.05,0-3.03-1.32-5.54-2.72-8.37-.65,1.02-1.19,1.81-1.66,2.63-2.32,3.99-5.03,7.66-8.45,10.8-5.03,4.63-10.86,7.38-17.68,7.98-2.5.22-3.58,1.14-3.94,3.64-.2,1.43-.33,2.89-.35,4.33-.07,7.49-.12,14.98-.1,22.47,0,1.43.25,2.88.48,4.3.33,2.07,1.67,3.25,3.66,3.7.78.18,1.59.32,2.38.32,3.86,0,7.73-.05,11.59-.06,5.47-.01,10.94,0,16.67,0ZM109.87,297.6c.18-3.95.36-7.91.56-12.42-1.82,1.67-3.14,2.93-4.53,4.1-.51.43-1.25.93-1.84.88-1.66-.14-2.99.54-4.33,1.28-.95.52-1.87.7-2.99.64-1.32-.08-2.77.04-3.98.51-4.19,1.65-8.32,3.45-12.43,5.29-3.53,1.57-6.95,3.32-10.08,5.67-3.01,2.27-5.58,4.9-7.55,8.07-2.77,4.47-3.48,9.32-2.18,14.42.73,2.87,2.9,4.96,6.59,3.48,2.47-.99,5.04-.8,7.55.13,1.97.72,3.93,1.48,5.95,2.02,2.95.8,5.73.45,8.18-1.59,7.07-5.89,13.57-12.38,19.86-19.08,5.22-5.56,8.81-11.91,9.04-19.75.13-4.43.18-8.86.23-13.29,0-.44-.23-.89-.37-1.41-2.4.46-3.91,1.77-4.46,4.01-.3,1.23-.38,2.55-.39,3.82-.02,2.34.07,4.68.14,7.01.07,2.48-.95,4.5-2.98,6.2ZM440.69,383.57c-.73.37-1.31.51-1.65.87-1.22,1.27-2.47,2.55-3.51,3.96-1.39,1.88-2.57,3.9-3.88,5.84-1.69,2.52-4.08,4.16-7.12,5.62,2.75-3.95,5.41-7.46,7.72-11.18,2.32-3.75,3.74-7.95,5.33-12.1-.85-.62-1.48-1.09-2.27-1.66-2.15,2.06-4.18,4.12-6.34,6.03-2.15,1.91-3.83,4.39-6.62,5.61,2.94-5.2,6.87-9.69,10.17-14.67-1.03-1.04-1.88-1.74-3.12-1.71-6.12.16-12.24.2-18.35.56-1.58.09-3.28.92-4.64,1.83-5.58,3.73-8.89,9.2-11.24,15.33-.89,2.34-1.49,4.76-1.3,7.32.1,1.36.46,2.61,1.73,3.26,2.99,1.53,6.04,2.86,9.27.52.1-.07.3,0,.6,0,.2.63.43,1.3.64,1.98,1.36,4.25,4.06,7.54,7.69,9.93,5.48,3.6,11.06,2.88,16.37-.49,3.78-2.4,6.93-5.54,9.25-9.4,1.61-2.67,3.02-5.46,3-9.09-3.48,3.79-6.63,7.38-9.96,10.79-3.45,3.54-8.09,5.37-11.99,8.13-.8-.66-.73-1.12-.14-1.53.86-.6,1.73-1.19,2.58-1.79,4.21-2.97,8.47-5.88,11.97-9.72,3.59-3.94,5.49-8.57,5.79-14.22ZM299,378.21c.01-.19.02-.38.04-.57,7.84-1.79,15.82-1.97,23.78-1.41,8.91.63,17.78,1.74,26.67,2.56,1.95.18,3.92.03,6.46.03-1.11-.82-1.74-1.43-2.48-1.82-3.35-1.76-6.66-3.63-10.12-5.13-6.39-2.77-13.18-4.36-20.02-5.35-8.56-1.24-17.16-1.05-25.69.88-7.29,1.65-14.25,4.01-20.5,8.21-.65.44-1.27.92-2.11,1.53.7.6,1.18,1.14,1.77,1.48,7.64,4.37,15.55,8.17,24.05,10.53,9.4,2.61,18.96,3.37,28.72,2.53,9.86-.85,19.05-3.87,28.01-7.79.75-.33,1.42-.85,2.13-1.28l-.16-.53c-20.17-1.29-40.35-2.57-60.52-3.86ZM83.01,174.66c.82.71,1.73,1.47,2.61,2.28,3.19,2.95,6.39,5.9,9.54,8.89,4.66,4.44,9.4,8.81,13.89,13.42,3.82,3.92,7.27,8.19,10.11,12.91,1.03,1.72,2.11,3.41,3.29,5.3.62-.26,1.23-.51,2.05-.85-1.09-3.52-1.88-6.91-3.17-10.1-2.51-6.19-5.27-12.29-8-18.39-1.23-2.74-3.08-5.05-5.21-7.2-3.89-3.94-8.7-6.41-13.67-8.46-4.9-2.02-9.99-3.62-15.07-5.16-6.74-2.05-13.71-2.85-20.72-3.18-7.66-.36-15.31-.06-22.92.91-2.97.38-5.92.98-9.16,1.53.45.42.6.61.79.72.64.35,1.26.73,1.94.98,9.47,3.42,18.91,6.93,28.86,8.7,1.83.33,3.69,1.07,5.85.51-.94-2.85-2.85-4.94-4.52-7.33.44-.39.82-.73,1.26-1.11.42.47.76.8,1.06,1.18,2.22,2.87,4.52,5.68,7.47,7.85,2.46,1.81,4.89,3.66,7.43,5.35,5.86,3.89,12.29,6.68,18.68,9.53,1.26.56,1.97.08,2.37-1.22-.18-.25-.33-.54-.55-.76-3.78-3.74-7.58-7.46-11.35-11.2-1.14-1.13-2.23-2.32-3.33-3.49-.58-.61-.54-1.12.49-1.6ZM222.95,14.08c-1.25.52-2.16.83-3,1.26-5.75,2.93-11.39,6.05-16.36,10.18-2.59,2.15-5.04,4.51-7.35,6.96-3.24,3.44-5.03,7.62-5.61,12.31-.35,2.79-.59,5.61-1.12,8.37-.96,4.89.28,9.51,1.39,14.67,1.72-2.86,3.41-5.21,4.63-7.8,2.57-5.46,4.91-11.02,7.29-16.57.92-2.14,1.64-4.37,2.55-6.51,1.01-2.38,2.3-3.07,4.55-2.65-.11,2-.24,4-.32,5.99-.05,1.13,0,2.26-.02,3.38-.06,2.17-1.01,3.85-2.83,5.05-.71.47-1.39.99-2.19,1.56.95.91,1.74,1.67,2.67,2.55-5.24,4.92-11.14,9.25-12.34,17.27,1.07-.33,1.83-.53,2.57-.8,7.01-2.49,13.17-6.34,18.42-11.62,4.58-4.6,7.39-10.04,8.26-16.53,1.2-8.98-.04-17.82-1.17-27.08ZM28.2,171.19c-.1,3.04,1.06,5.2,2.67,7.31,3.67,4.8,7.14,9.78,11.74,13.76,3.16,2.73,6.54,5.22,9.85,7.77,3.32,2.56,7.18,4,11.18,4.99,3.48.86,5.34-.67,5.6-4.28.02-.23.1-.46.21-.92,7.6-1.15,15.26-2.31,23.48-3.56-1.34-1.2-2.14-2.12-3.11-2.76-4.6-3.04-9.64-4.88-15.2-4.88-4.35,0-8.7.29-13.05.34-3.07.04-6.15-.11-9.23-.18,0-.18,0-.36,0-.54,6.15-.55,12.3-1.1,18.58-1.65v-1.99c-.97-.41-1.84-.85-2.75-1.14-6.77-2.1-13.55-4.16-20.32-6.24-5-1.54-9.99-3.1-14.99-4.64-1.5-.46-3.01-.91-4.65-1.4ZM85.86,118.2c-3.46-.49-6.42-.9-9.71-1.36,2.32-1.52,5.06-1.56,7.22-3.21-2.46-2.36-4.72-4.42-6.86-6.59-2.77-2.81-5.72-5.5-8.1-8.61-3.35-4.37-7.73-6.15-12.96-6.19-2.15-.02-4.38.18-6.45.73-2.71.72-5.38,1.7-7.92,2.9-2.65,1.26-3.39,3.49-2.38,6.28.46,1.27,1.15,2.47,1.86,3.63,2.51,4.04,6.34,6.7,10.39,8.82,8.72,4.57,18.07,6.75,27.98,5.8,2.22-.21,4.47-.52,6.93-2.19ZM389.24,246.38c-.76,3.25-1.33,6.32-1.2,9.49.12,2.98,1.15,4.59,4.06,5.22,3.05.67,6.2,1.29,9.3,1.28,12.4-.06,24.8-.38,37.2-.6,1.05-.02,2.1.04,3.14-.08,2.79-.33,5.03-1.71,5.73-4.47.85-3.36.25-6.81.12-10.33-4.21.52-8.15.82-12.02,1.52-6.92,1.27-13.89,1.72-20.89,1.76-5.96.03-11.9-.24-17.7-1.88-2.47-.7-4.98-1.23-7.73-1.9ZM122.54,91.92c2.64-3.81,3.87-7.95,5.94-11.68.02,5.3-.89,10.5-.84,15.96,3.88-2.79,5.3-4.56,6.11-8.69,1.52-7.79,1.38-15.57-1.18-23.15-.71-2.1-1.89-4.1-3.14-5.94-1.14-1.67-2.99-2.21-4.95-1.51-4.74,1.69-9.15,4.05-12.99,7.3-2.91,2.46-4.22,5.66-3.21,9.52.42,1.63.82,3.28,1.37,4.87,2.45,7.13,4.4,14.34,3.59,22-.06.54.06,1.09.1,1.77.7.08,1.3.15,1.98.23.31-.96.6-1.79.84-2.63,1.29-4.49,2.55-8.99,3.84-13.47.17-.58.16-1.35,1.33-1.21.37,2.05.75,4.15,1.2,6.61ZM105.87,168.11c1.97-18.48-18.09-36.43-33.18-35.71-.47,2.37-.35,4.78.06,7.14,1.66,9.79,6.82,17.62,14.01,24.19,5.08,4.64,11.17,7.57,17.63,9.75.43.14.91.12,1.98.26-2.02-2.71-3.57-5.13-5.48-7.24-1.95-2.15-4.25-3.98-6.62-6.16,6.51-.45,8.65,1.28,11.6,7.76ZM155.4,35.13c-.32,2.95-.63,5.25-.8,7.57-.4,5.3-.7,10.61.26,15.9,1.08,5.95,3.98,10.82,8.67,14.62.6.49,1.29.86,2.31,1.54-.22-1.22-.32-1.99-.49-2.74-1.64-7.14-3.29-14.27-4.93-21.41-.35-1.53-.32-1.53,1.56-1.64,1.84,4.78,3.61,9.61,5.55,14.38,1.93,4.74,4.04,9.4,6.07,14.1h.59c.49-1.14,1.1-2.25,1.44-3.44,1-3.51.58-7.02-.33-10.49-1.49-5.68-4.25-10.77-7.51-15.59-2.49-3.68-5.38-7.03-8.66-10.03-.99-.9-2.15-1.6-3.73-2.76ZM402.16,133.4c1.65.23,3.09.73,4.46.56,3.55-.44,6.84-1.73,9.83-3.73,5.43-3.65,9.08-8.76,12.08-14.46.85-1.62.88-3.03-.03-4.54-.37-.61-.72-1.24-1.08-1.87-3.64.33-6.7,1.79-9.49,3.94-1.59,1.23-3.27,2.34-4.78,3.66-1.99,1.74-4.02,3.49-5.74,5.49-2.59,3.01-4.35,6.51-5.24,10.95ZM166.59,265.92c-8.94-7.46-30.36-3.66-38.21,5.61.96,0,1.73-.03,2.51,0,3.62.18,7.24.27,10.84.6,4.19.38,8.35.44,12.51-.17,4.7-.69,8.56-3.02,12.34-6.04ZM44.62,89.33h16.67v-17.18c-6.13-1.06-13.47,2.45-16.4,7.76-.23.41-.45.9-.45,1.36.02,2.64.11,5.27.19,8.06ZM122.92,272.33c1.06,5.6,2.05,10.84,3.11,16.44,4.11-2.58,8.04-4.77,11.66-7.39,3.64-2.63,7.87-4.42,11.43-7.87-8.94-.41-17.43-.79-26.2-1.19ZM496.37,193.84c-.08.17-.15.34-.23.51.65.57,1.26,1.18,1.96,1.69,4.24,3.1,9.11,4.57,14.25,4.62,4.08.03,8.16-.67,12.24-1.08,1.43-.15,2.91-.24,4.27-.66,2.33-.71,3.24-2.59,2.66-5.08h-35.15ZM100.59,51.3c-2.69.11-5.23.78-7.43,2.39-2.69,1.97-2.92,4.83-.32,6.87,6.05,4.73,13.19,4.73,18-2.16.6-.87.62-1.5-.09-2.33-2.67-3.14-6.08-4.6-10.15-4.76ZM497.78,202.26c.66,3.38,2.38,4.85,5.53,4.98,3.28.13,6.54.74,9.82,1.02,4.79.42,9.45-.27,14.01-1.78,1.99-.66,3.24-1.95,3.61-4.04-1.35-1.35-2.93-1.41-4.54-.94-2.35.69-4.74.79-7.16.77-6.28-.03-12.55-.01-18.83-.01-.79,0-1.57,0-2.45,0ZM167.65,260.56c2.01,2.48,4.32,3.6,7.18,3.73,5.34.25,9.79-2.71,14.88-3.72-.26-.4-.31-.59-.43-.65-4.17-2.08-8.32-4.24-12.56-6.18-1.22-.56-2.62-.35-3.81.72-1.99,1.79-3.77,3.72-5.26,6.09ZM388.32,241.93c1.94,1.82,4.02,2.39,6.1,2.9,6.77,1.66,13.68,2.12,20.6,2.34,6.53.21,13.07,0,19.53-.96,3.25-.48,6.43-1.42,9.62-2.21.42-.1.77-.52,1.17-.81-9.58.44-18.97,1-28.38,1.28-9.5.28-18.82-1.92-28.65-2.54ZM112.15,311.47c-7.41,7.47-14.63,14.45-21.85,21.9,10.81-.2,22.03-10.76,21.85-21.9ZM128.26,203.79c-.24,6,.52,14.68,1.46,16.47,1.01-.68,1.99-1.36,3-2.01.92-.6,1.23-1.35.94-2.46-1.03-3.96-1.99-7.95-3-11.92-.05-.2-.3-.35-.51-.58-.61.16-1.21.33-1.88.51Z"/>
      <path class="cls-1" d="M280.1,257.68c-14.43-.22-28.85-.62-43.28-.59-7.64.02-15.29.74-22.92,1.23-8.25.53-16.31-.27-23.87-3.77-3.71-1.72-7.16-3.99-10.72-6.02-.91-.52-1.79-1.08-2.69-1.63-3.43-2.11-6.9-4.15-10.28-6.33-5.49-3.54-9.84-8.27-13.87-13.34-2.45-3.09-4.91-6.18-7.4-9.24-3.54-4.34-6.39-9.09-8.44-14.3-3.04-7.69-5.33-15.64-5.37-23.92-.05-10.68,1.35-21.22,5.05-31.34,1.47-4.01,2.85-8.05,4.41-12.02,2.18-5.54,5.55-10.36,9.45-14.8,5.83-6.62,12.46-12.36,19.57-17.57,5.67-4.15,11.7-7.67,18.02-10.74,4.73-2.3,9.67-3.97,14.62-5.68,9.68-3.33,19.71-4.66,29.85-5.47,2.81-.22,5.6-.65,8.39-1.01,6.78-.87,13.52-.44,20.22.71,6.34,1.09,12.72,2.12,18.95,3.71,9.64,2.46,18.75,6.44,27.34,11.43,7.46,4.33,14.5,9.35,20.75,15.34,8.77,8.4,15.71,18.08,20.43,29.33,3.14,7.48,5.37,15.2,6.3,23.25.85,7.41.51,14.81-1,22.13-2.2,10.67-6.09,20.7-11.77,30-2.65,4.34-5.77,8.34-9.26,12.05-6.78,7.2-14.41,13.36-22.8,18.57-3.56,2.21-7.05,4.53-10.67,6.62-3.03,1.75-6.4,2.68-9.85,3.13-3.03.4-6.09.52-9.14.77,0-.16,0-.31-.01-.47ZM242.99,96.62c-4.96.52-9.92.97-14.87,1.56-12.36,1.49-24.02,5.14-34.99,11.11-7.94,4.32-14.93,9.75-21.21,16.22-8.1,8.36-13.96,18.06-17.83,29-2.71,7.69-4.28,15.56-3.43,23.74,1.27,12.28,5.71,23.44,12.65,33.58,5.69,8.31,12.69,15.44,20.94,21.22,6.89,4.83,14.42,8.6,22.45,11.09,11.19,3.48,22.72,5.39,34.43,5.9,8.39.36,16.77.07,24.97-1.97,5.23-1.3,10.53-2.5,15.55-4.41,5.09-1.94,10.02-4.34,14.63-7.38,4.05-2.66,7.95-5.51,11.6-8.67,4.88-4.23,9.27-8.94,13.32-13.98,4.74-5.9,8.36-12.41,10.7-19.62,2.13-6.55,3.02-13.31,3.65-20.15.5-5.36-.05-10.44-2.04-15.39-1.65-4.11-3.2-8.27-5.01-12.31-2.76-6.2-6.21-12.03-10.4-17.38-4.93-6.28-11.03-11.29-17.73-15.53-7.1-4.5-14.68-8.12-22.68-10.7-11.26-3.62-22.85-5.48-34.72-5.94Z"/>
      <path class="cls-1" d="M490.27,103.51c.39,2.04.68,4.1,1.18,6.11,1.11,4.54,2.33,9.05,3.49,13.57.18.7.33,1.43.33,2.14,0,.29-.35.74-.64.84-.29.1-.87-.03-1.03-.26-.41-.58-.64-1.29-.98-1.93-3.37-6.51-6.74-13.03-10.11-19.54-.58-1.13-1.14-2.28-1.79-3.58-.79.35-1.41.62-2.25.99,4.15,8.3,8.21,16.41,12.32,24.63-.65.43-1.17.77-1.8,1.19-2.34-2.16-4.02-4.72-5.6-7.32-2.77-4.53-5.53-9.08-8.08-13.74-4.48-8.2-8.82-16.48-13.17-24.75-1.8-3.42-3.52-6.89-5.18-10.38-2.57-5.38-2.05-7.84,2.63-11.52,2.26-1.78,4.75-3.26,7.34-5.02.73,1.76,1.39,3.3,2,4.86,1.87,4.8,3.71,9.62,5.57,14.43.17.45.31.99.64,1.28.31.26.86.24,1.7.43-2.32-7.76-4.51-15.05-6.72-22.46,1.72-.77,3.22-1.35,4.63-2.09,7.45-3.92,15.57-5.49,23.73-7.08,5.26-1.02,10.54-1.49,15.84-1.58,5.78-.1,11.59.07,17.28,1.49,3.44.85,6.94,1.42,10.37,2.3,5.14,1.33,5.97,2.72,4.95,7.99-1.34,6.88-2.75,13.74-4.13,20.61-.62,3.09-.94,6.19.07,9.51,1.25-.74,1.36-1.96,1.6-3.05.99-4.48,1.91-8.98,2.9-13.46.93-4.25,1.91-8.48,2.89-12.72.14-.61.34-1.26.7-1.76.98-1.38,2.72-2.2,3.67-1.85,1.77.66,3.63,3.28,3.36,5.16-.37,2.63-.98,5.22-1.48,7.83-.19,1-.38,2.01-.33,3.09,2.49-3.81,3.45-8.31,5.74-12.54,2.39,1.59,4.69,3.03,6.9,4.6,1.24.88,2.39,1.91,3.5,2.96,1.99,1.9,2.77,4.26,1.63,6.82-1.28,2.85-2.74,5.64-4.37,8.32-5.51,9.09-11.25,18.05-16.66,27.21-2.61,4.43-4.67,9.19-6.98,13.79-1.08,2.14-2.6,3.85-4.8,4.9-.09-.1-.19-.2-.29-.29.72-1.87,1.38-3.77,2.19-5.6,3.48-7.98,7.08-15.9,10.47-23.91,4.24-10.03,7.79-20.3,9.91-31.05-1.05,2.53-2.13,5.04-3.13,7.59-4.31,10.95-8.56,21.92-13.79,32.47-3.05,6.15-6.59,12-10.48,17.66-.26.37-.61.68-1.37.83,1.08-4.96,2.17-9.92,3.27-14.98-1.39-.1-1.37.85-1.58,1.41-2.32,6.01-4.59,12.04-6.88,18.06-.17.45-.39.87-.67,1.5-.76-.23-1.48-.44-2.49-.75,1.6-14.15,3.19-28.2,4.77-42.25-.13-.04-.26-.08-.39-.12-.27.53-.61,1.04-.81,1.6-1.9,5.42-3.06,11.02-3.73,16.71-.73,6.16-1.3,12.34-1.94,18.5-.06.56-.14,1.12-.26,1.67-.85,4.02-1.96,5.02-6.01,5.18-2.42.1-4.84.09-7.26,0-3.78-.14-5.08-1.17-5.79-4.86-.93-4.82-1.59-9.7-2.54-14.51-1.52-7.66-3.16-15.3-4.81-22.94-.5-2.32-1.83-4.21-3.92-6.28.13,1.27.14,2.03.3,2.76,2.89,13.8,5.8,27.59,8.7,41.38.25,1.2.91,2.56-.83,3.28-2.02-.85-3.19-2.41-3.88-4.4-1.57-4.57-3.17-9.14-4.75-13.7-.37-1.07-.62-2.19-1.14-3.18-.42-.8-1.14-1.45-1.73-2.16-.04-.15-.07-.3-.11-.45l-.21.21c.12.07.24.14.35.21Z"/>
      <path class="cls-1" d="M217.06,353.12h50.77c.1.69.17,1.2.29,2-3.34.53-6.56,1.43-9.81,1.5-8.78.18-17.6.39-26.36-.11-10.44-.59-20.9-1.33-31.24-3.07-3.97-.67-7.98-1.17-11.89-2.08-6.66-1.55-13.32-3.18-19.88-5.12-5.09-1.5-10.12-3.29-15-5.36-6.16-2.62-11.99-5.95-17.08-10.37-5.08-4.4-9.22-9.49-10.67-16.28-1.18-5.52-.3-10.7,2.69-15.55,2.02-3.27,4.61-6.06,7.56-8.42,3.64-2.91,7.46-5.63,11.39-8.13,8.08-5.13,16.96-8.45,26.08-11.27,8.26-2.55,16.72-4.05,25.17-5.75,10.46-2.1,21.04-2.86,31.66-3.47,9.36-.54,18.71-.35,28.03.27,7.79.52,15.59,1.24,23.3,2.46,8.82,1.4,17.57,3.28,26.27,5.29,5.32,1.23,10.58,2.88,15.73,4.72,7.46,2.66,14.54,6.21,20.89,10.96,3.27,2.45,6.38,5.21,9.15,8.21,5.13,5.56,7.51,12.14,5.97,19.79-.93,4.65-3.29,8.57-6.56,11.9-5.4,5.49-11.59,9.92-18.45,13.49-10.31,5.37-21.39,8.35-32.56,11.22-7.59,1.95-15.35,2.81-22.97,4.45-3.4.73-6.43-.09-8.84-2.64-1.05-1.11-2.23-1.42-3.67-1.4-9.99.17-19.99.28-29.99.46-5.32.1-10.63.29-15.94.46-1.13.04-2.26.1-3.38.23-.8.1-1.1.59-.66,1.59ZM245.06,267.75c-11.95.35-23.85.69-35.66,2.71-8.65,1.49-17.3,2.92-25.71,5.52-5.23,1.62-10.46,3.15-15.44,5.53-5.13,2.45-9.91,5.4-14.29,8.97-4.25,3.46-7.23,7.8-8.12,13.31-1.02,6.4.44,12.22,5.53,16.39,8.41,6.89,17.89,12.06,28.13,15.7,5.15,1.83,10.41,3.48,15.74,4.65,6.2,1.35,12.52,2.23,18.83,3.04,5.11.66,10.27.97,15.41,1.31,4.18.27,8.38.62,12.55.43,7.08-.33,14.13-1.09,21.2-1.62,9.96-.75,19.85-1.89,29.65-4,14.31-3.08,27.63-8.09,38.76-17.98,3.27-2.91,5.79-6.23,7.23-10.38,2.22-6.42.48-13.94-4.98-18.41-6.46-5.29-13.52-9.61-21.04-13.16-4.14-1.95-8.49-3.52-12.86-4.88-9.41-2.93-19.09-4.71-28.87-5.66-8.65-.84-17.37-1-26.06-1.46Z"/>
      <path class="cls-1" d="M530.51,211.23c.11,1.19.3,2.29.3,3.4,0,15.65.05,31.3-.04,46.94-.07,13.3-.23,26.61-.49,39.9-.2,10.07-.51,20.14-.97,30.2-.38,8.28-1.22,16.53-2.8,24.69-.55,2.82-1.98,4.85-4.24,6.45-3.14,2.21-6.54,3.44-10.67,2.83.26-.51.44-1,.73-1.41,3.42-4.78,6.84-9.57,10.31-14.32.94-1.29,1.22-2.48.54-4.02-1.39-3.17-2.57-6.43-3.91-9.62-1.73-4.11-4.61-7.32-8.07-10.08-1.63-1.3-3.13-2.78-4.69-4.18-1.14-1.02-1.74-2.31-1.8-3.83-.13-3.06-.33-6.11-.35-9.17-.08-17.26-.09-34.52-.18-51.78-.01-2.3-.34-4.59-.75-6.91-1.17,1.87-1.43,3.98-1.53,6.04-.18,3.78-.14,7.58-.17,11.37-.11,16.04-.21,32.09-.33,48.13,0,.88-.05,1.78-.19,2.65-.14.9-.76,1.43-1.69,1.42-.93-.01-1.49-.54-1.61-1.48-.12-.88-.31-1.76-.31-2.64.03-4.27.12-8.54.19-12.81,0-.56,0-1.13,0-1.69.04-28.07.07-56.14.13-84.2,0-1.91.19-3.83.31-5.9h32.24ZM525.48,307.11c.2,0,.39.02.59.02.03-.91.09-1.83.1-2.74,0-14.02,0-28.04,0-42.06,0-4.91,0-9.83,0-14.74,0-.73.21-1.56-.74-2.45-.18.79-.38,1.27-.4,1.75-.54,11.73-.18,58.5.45,60.21Z"/>
      <path class="cls-1" d="M359.73,328.13c-.12.98-.14,1.86-.35,2.68-1.86,7.32-5.12,13.84-10.59,19.21-4.48,4.41-9.6,7.8-15.26,10.44-.66.31-1.39.5-1.96.92-1.41,1.03-2.97,1.16-4.61.95-13.17-1.68-26.05-.25-38.59,3.92-4.41,1.47-8.68,3.46-12.86,5.53-3.38,1.67-6.5,3.87-9.79,5.73-.94.53-2.08,1.02-3.13,1.03-9.75.1-19.5.15-29.24.09-3.94-.03-7.9-.22-11.82-.6-11.3-1.1-22.62-2.13-33.67-4.88-6.56-1.63-13.06-3.54-19.49-5.63-4.2-1.36-8.31-3.07-12.31-4.96-8.22-3.89-15.65-8.94-21.71-15.83-4-4.55-6.86-9.72-8.41-15.6-.1-.38-.09-.79-.14-1.26,1.21-.47,2.18-.27,3.12.58,4.19,3.79,8.76,7.08,13.49,10.16.2.13.4.27.62.38,4.48,2.2,8.86,4.62,13.45,6.55,8.93,3.75,18.23,6.35,27.75,8.18,7.19,1.38,14.36,2.84,21.58,4.06,4.36.74,8.79,1.07,13.18,1.64,12.76,1.65,25.6,1.56,38.38.85,13.42-.74,26.78-2.49,39.95-5.27,6.92-1.46,13.82-3.17,20.56-5.32,8.52-2.72,16.64-6.46,24.48-10.81,5.07-2.82,9.19-6.75,13.36-10.65,1.07-1,2.2-1.86,4-2.08Z"/>
      <path class="cls-1" d="M418.01,326.62c-3.32-.91-6.4-1.58-9.36-2.59-4.53-1.55-9.1-1.94-13.79-1.07-1.82.34-3.64.68-5.44,1.1-2.05.47-3.68-.41-5-1.75-.51-.52-.57-1.62-.58-2.46-.08-7.58-.12-15.16-.13-22.74-.02-10.24,0-20.49,0-30.73,0-.79,0-1.57,0-2.58,3.63.58,6.95,1.14,10.28,1.63,12.54,1.84,25.15,2.87,37.82,2.06,5.77-.37,11.54-1.06,17.14-2.71,2.63-.77,4.08.27,4.09,3.05.04,8.06-.04,16.13.01,24.19.01,1.95-1.28,2.8-2.53,3.98-1.54-1.2-2.54-2.41-2.53-4.44.02-5-.14-9.99-.24-14.99-.03-1.61-.12-3.22-.19-4.83-.05-1.09-.62-1.39-1.95-.95,0,.75,0,1.61,0,2.47,0,5.4.05,10.81,0,16.21-.01,1.77-.12,3.55-.37,5.3-.4,2.72-1.75,3.36-4.27,2.18-.8-.37-1.6-.75-2.57-1.2-2.65,2.31-6.04,3.17-9.25,4.44-3.92,1.55-6.68,4.19-7.59,8.42-1.04,4.88-1.98,9.78-2.95,14.67-.2,1.02-.38,2.04-.62,3.34ZM389.76,274.86c-.12.58-.2.78-.19.99.15,9.73.28,19.46.5,29.18.06,2.89.35,5.77.58,8.66.04.51.28,1,.49,1.68,2.93-6.03,2.45-34.58-1.37-40.51Z"/>
      <path class="cls-1" d="M442.71,180.12c0,1.11,0,1.98,0,2.85,0,6.29.04,12.59,0,18.88-.08,10.97-.19,21.93-.32,32.9-.01.95-.22,1.91-.44,2.84-.33,1.42-1.39,2.15-2.73,2.42-.78.16-1.61.16-2.41.16-10.16-.08-20.32-.15-30.48-.27-2.98-.03-5.96-.17-8.94-.32-2.49-.13-3.8-1.48-3.99-3.98-.04-.48-.01-.97-.01-1.45.02-16.86.04-33.72.09-50.58,0-1.1.2-2.2.31-3.44h48.92ZM400.72,186.58c-.1.29-.22.49-.22.7.02,13.85.04,27.71.07,41.56,0,.05.09.11.16.15.06.03.13.04.2.06,2.81-7.49,2.71-36.85-.21-42.47Z"/>
      <path class="cls-1" d="M103.69,282.01c-.38.46-.49.71-.68.81-4.67,2.51-8.99,5.65-13.96,7.65-5.44,2.19-10.68,4.94-16.21,6.85-8.24,2.86-16.73,3.46-25.14.58-2.56-.88-4.96-2.32-7.3-3.71-2.76-1.64-5.38-3.54-8.09-5.27-2.13-1.36-3.21-3.14-3.31-5.76-.2-5.06-.74-10.11-1.03-15.17-.15-2.59.48-5.09,1.16-7.6,1.03-3.76,3.71-6,7.06-7.04,13.15-4.07,26.5-5.32,39.98-1.57,5.98,1.67,11.38,4.44,15.75,9.08-.44,2.84-3.38,1.49-4.84,2.88.14.7.35,1.47.44,2.25.17,1.5-.33,2.38-1.82,2.62-1.57.26-3.2.28-4.8.26-5.24-.08-10.47-.23-15.71-.32-.8-.01-1.61.12-2.4.24-1.24.18-1.65.84-1,2.25h30.85c.23,1.14.42,2.06.65,3.22-1.8.71-3.55,1.48-5.35,2.1-8.84,3-17.7,5.96-26.54,8.94-.57.19-1.1.47-1.62.92,1.48.46,2.94.55,4.38.1,3.14-1,6.26-2.09,9.41-3.06,5.92-1.82,11.83-3.65,17.79-5.34,2.51-.71,4.85-.33,6.19,2.33.57,1.14,1.69,1.11,2.69,1.3,1.07.19,2.16.29,3.45.46ZM46.76,257.08c-.06.24-.12.49-.17.73.48.19.94.46,1.43.55,5.13.94,10.26,1.88,15.4,2.76,4.43.75,8.88,1.44,13.32,2.12.58.09,1.38.37,1.58-.56.21-.97-.67-.9-1.23-1.09-.23-.08-.47-.1-.71-.14-8.33-1.28-16.65-2.57-24.98-3.83-1.53-.23-3.09-.35-4.63-.52ZM32.08,279.29c1.96.7,14.81.67,16.9,0h-16.9Z"/>
      <path class="cls-1" d="M489.78,133.95h49.18c-.16,2.26-.28,4.4-.47,6.52-.57,6.34-1.15,12.68-1.75,19.01-.8,8.5-1.48,17.02-3.44,25.36-.28,1.17-.59,2.37-1.13,3.43-1.1,2.16-2.8,3.44-5.39,3.37-7.98-.23-15.95-.37-23.93-.62-5.54-.18-7.61-2.86-8.37-8.08-1.05-7.17-2.29-14.31-3.56-21.44-1.32-7.41-1.98-14.85-1.36-22.37.14-1.67.14-3.34.21-5.18ZM532.15,135.87c-2.2,17.09-4.4,34.19-6.6,51.28.9-1.02,1.49-2.15,1.81-3.34,1.15-4.27,2.37-8.53,3.28-12.86,1.84-8.76,2.78-17.66,3.01-26.6.07-2.82,0-5.73-1.5-8.47Z"/>
      <path class="cls-1" d="M99.69,236.61c.2,1.01.28,2.05.61,3.01,1.37,3.95,2.82,7.88,4.23,11.82.18.5.29,1.02.53,1.86-7.14-2.24-13.23-6.16-19.98-8.42-.12.2-.24.41-.37.61,4.86,4,9.71,8.01,14.73,12.15-.47.8-.89,1.52-1.42,2.43-7.36-5.16-14.61-10.08-21.66-15.27-2.57-1.89-4.76-4.34-6.95-6.69-1.78-1.9-2.92-4.22-3.47-6.81-1.44-6.84-1.42-13.59,1.32-20.15,1.5-3.58,4.36-5.45,8.04-6.22,1.32-.28,2.63-.1,3.61.87,1.64,1.64,3.21,3.35,4.75,5.09,1.79,2.02,3.52,4.1,5.35,6.25.68-.9.08-1.35-.27-1.81-2.02-2.71-4.07-5.4-6.08-8.12-.71-.96-1.34-1.97-2.09-3.08.63-.48,1.08-.92,1.61-1.23,6.09-3.68,12.67-4.73,19.52-3.03,6.18,1.53,10.8,5.09,13.2,11.29,1.33,3.44,2.89,6.78,5.01,9.89,3.7,5.42,3.92,11.63,3.29,17.92-.22,2.16-.55,4.31-.79,6.47-.32,2.9-1.79,4.59-4.76,4.81-2.79.21-5.6.05-8.37.05-1.17-2.27-2.29-4.39-3.35-6.54-1.35-2.73-3.58-4.73-5.62-6.88-.14-.15-.44-.15-.66-.21-.02-.07-.04-.15-.08-.2-.02-.03-.1,0-.15,0,.09.06.18.11.26.17ZM104.66,221.77c2.59,8.32,5.1,16.41,7.68,24.69,3.78-5.14-1.13-20.79-7.68-24.69Z"/>
      <path class="cls-1" d="M380.9,353.75c1.1,4.66,4.21,7.64,8.54,9.01,3.57,1.13,7.39,1.53,11.12,2.12,2.7.42,5.43.63,8.26.95.06.64.11,1.16.16,1.62-.25.15-.38.28-.52.3-5.14.77-10.3.89-15.37-.35-5.05-1.23-9.72-3.24-13.51-7.05-3.89-3.92-4.28-10.09.22-13.58.63-.49,1.14-1.13,1.66-1.74,1.63-1.93,2.14-4.09,1.37-6.54-1.42-4.47.15-7.27,4.06-10.08,2.73-1.96,5.93-2.5,9.17-2.63,5.95-.25,11.75.7,17.26,2.92,2.21.89,4.23,2.3,6.25,3.61.74.48,1.23,1.37,1.83,2.08-.1.16-.2.33-.3.49-2.62-.8-5.24-1.59-7.85-2.39l-.2.42c2.16,1.31,4.32,2.62,6.48,3.93.74-.62,1.29-1.08,2.07-1.74,3.89,4.13,7.43,8.57,11.34,13.14-.99.58-1.75,1.1-2.58,1.49-.57.27-1.24.35-1.85.55-2.28.76-2.96,1.89-2.51,4.2.1.54.26,1.07.44,1.79-2.32.55-4.56.2-6.75.27-2.25.06-4.5.01-6.72.01-.4,1.87-.4,1.9,1.22,1.99,3.62.22,7.24.39,10.86.61,1.12.07,2.23.21,3.41.56-1.87,1.18-3.81,2.21-5.94,2.68-2.59.57-5.22,1.13-7.85,1.28-5.7.33-11.43.96-17.11-.14-5.22-1.01-9.44-3.97-13.5-7.19-1.07-.85-2.12-1.71-3.17-2.57-.05-.03-.1-.06-.15-.09.06.02.12.04.18.06ZM405.86,330.64c.02-.09.04-.18.07-.26-.52-.16-1.03-.32-1.55-.49-.5-.16-1-.31-1.5-.47-.04.19-.08.39-.12.58,1.03.21,2.07.42,3.1.63Z"/>
      <path class="cls-1" d="M453.05,347.17c-.08-5.58-.99-10.58.68-15.59,1.03-3.08.86-6.37-.2-9.52-.16-.49-.44-.94-1.06-1.33-.47,7.84-.95,15.68-1.43,23.73-.84.24-1.65.46-2.67.75-2.92-6.39-5.77-12.63-8.63-18.88-.09.03-.19.06-.28.09.82,4.55,1.64,9.1,2.51,13.96-3.64-.65-6.04-2.47-7.78-5.21-2.73-4.31-4.01-9.1-4.49-14.14-.17-1.84-.3-3.68-.45-5.57-3.16,2.68-3.95,8.31-1.62,12.14,1.8,2.95,3.76,5.81,5.7,8.68,1.62,2.4,3.32,4.76,4.98,7.13,1.05,1.49,1.37,3.19,1.6,5.53-1.29-1.02-2.26-1.69-3.11-2.49-7.53-7.07-12.74-15.47-14.94-25.68-.62-2.85-.19-5.46.8-8.02,1.5-3.86,3.53-7.41,6.65-10.25,2.01-1.83,2.65-1.95,4.65-.14.68.62,1.23.52,1.96.33,3.81-.97,7.64-1.88,11.46-2.85,1.73-.44,3.37-.18,4.93.57,1.81.87,3.61,1.77,5.35,2.76.95.54,1.84,1.01,2.95.67,3.07-.94,5.42.3,7.16,2.68,1.85,2.53,3.65,5.11,4.53,8.2,1.23,4.31.99,8.46-1.38,12.34-.9,1.47-1.95,2.85-2.94,4.28-.19-.07-.38-.13-.57-.2.21-3.12.43-6.23.64-9.35-1.9,2.26-2.68,4.94-3.76,7.5-1.53,3.63-3,7.3-4.78,10.8-1.39,2.73-3.62,4.87-6.48,7.09ZM432.64,305.83c.07-.02.14-.03.19-.06.03-.02.03-.09.04-.14-.07.08-.13.16-.2.23l-.18.37c.05-.14.09-.27.14-.41ZM430.96,309.51c.51-1.05.86-1.79,1.22-2.52q-1.7.95-1.22,2.52Z"/>
      <path class="cls-1" d="M483.67,342.77c-3.39-.54-6.24.69-8.98,2.34-2.4,1.46-4.75,3.02-7.24,4.33-1.78.94-3.76.31-5.7.4,2.85-17.08,25.23-29.27,38.99-23.47-.79.31-1.41.58-2.05.8-5.86,2.02-11.72,4.03-17.58,6.07-.76.26-1.94.27-1.27,1.87,2.32-.66,4.8-.77,6.93-2.21,4.28-2.88,9.04-3.67,14.09-3.04,1.44.18,2.87.4,4.31.56,3.3.37,5.88,2.06,8.11,4.39,2.14,2.24,3.75,4.83,4.99,7.66,1.85,4.22,1.35,8.1-1.49,11.79-2.24,2.91-4.82,5.45-7.81,7.52-4.8,3.32-10.2,4.39-16.12,3.6,1.06-.62,2.12-1.24,3.61-2.11-.93-.12-1.42-.24-1.92-.23-4.11.02-8.22.16-12.33.07-3.61-.08-7.24-.27-10.83-.67-2.58-.29-4.77-1.77-7.41-2.92,1.39-.83,2.46-1.46,3.75-2.22-1.03-1.29-1.97-2.47-3.06-3.82.61-.25,1.14-.52,1.7-.69,2.77-.85,5.54-1.67,8.31-2.51.31-.09.71-.13.89-.35,2.22-2.71,5.41-4.21,7.99-6.47.12-.11.07-.41.1-.66ZM478.22,357.89c-.18,1.49.78,1.3,1.54,1.22,4.46-.46,8.91-.95,13.37-1.45.32-.04.61-.25,1.19-.49-2.22-.57-12.21-.07-16.09.72Z"/>
      <path class="cls-1" d="M490,379.63c-1.22-1.57-2.43-3.13-3.88-4.99.89,0,1.5-.1,2.05.02,7.55,1.62,14.43,9.07,14.26,17.29-.02.82-.22,1.93-.77,2.4-3.25,2.79-5.08,6.64-7.62,9.95-1.82,2.36-3.89,4.32-6.78,5.2-1.89.58-3.17,1.7-4.15,3.42-1.22,2.15-1.97,2.43-4.38,1.94-4.17-.85-8.52-1.08-12.41-2.98-8.73-4.26-15.27-10.43-16.93-20.54-.21-1.28-.03-2.63.37-4.08,3.38,5.49,6.75,10.98,10.12,16.45,1.33-.58.81-1.28.55-1.91-1.41-3.34-2.84-6.67-4.25-10.01-1.56-3.71-3.35-7.34-3.96-11.37-.18-1.19-.27-2.41-.21-3.61.08-1.8.9-2.64,2.7-2.78,1.43-.11,2.88-.02,4.52-.02-.15-1.1-.3-2.14-.45-3.25.41.05.67.01.87.11,3.96,1.97,8.03,3.76,11.84,5.99,2.9,1.7,5.4,3.97,7.24,6.95,1.77,2.86,4.26,5.17,7.13,7.17-.12-.5-.17-1.03-.37-1.5-1.68-3.91-3.97-7.4-7.38-10-3.84-2.92-7.77-5.72-11.66-8.57-.97-.71-1.96-1.39-3.15-2.24.98-.61,1.84-.35,2.63-.26,7.86.95,14.43,4.77,20.66,9.35,1.03.76,2.09,1.47,3.13,2.21.51.29,1.01.59,1.52.89.17.16.33.33.5.49.04.04.08.08.12.13-.05-.03-.1-.06-.15-.1-.17-.16-.33-.33-.5-.5-.4-.42-.8-.83-1.21-1.25ZM466.55,384.72c.17.16.33.33.5.49,1.42,2.16,2.84,4.32,4.34,6.61.63-.52.97-.8,1.46-1.2-1.21-1.22-2.28-2.37-3.43-3.45-.75-.7-1.59-1.29-2.4-1.93-.17-.16-.33-.33-.5-.49l-.1-.11s.12.08.12.08Z"/>
      <path class="cls-1" d="M434.51,176.12c-5.73,0-11.2,0-16.67,0-3.86,0-7.73.07-11.59.06-.79,0-1.6-.15-2.38-.32-1.99-.45-3.32-1.63-3.66-3.7-.23-1.42-.48-2.86-.48-4.3-.01-7.49.04-14.98.1-22.47.01-1.45.14-2.9.35-4.33.36-2.5,1.44-3.42,3.94-3.64,6.82-.6,12.65-3.36,17.68-7.98,3.42-3.15,6.12-6.81,8.45-10.8.48-.82,1.01-1.61,1.66-2.63,1.4,2.83,2.73,5.33,2.72,8.37-.03,16.68,0,33.36.01,50.05,0,.47-.07.94-.14,1.71Z"/>
      <path class="cls-1" d="M97.27,79.79c.28.99.47,2.01.85,2.97.89,2.25,1.83,4.48,2.84,6.67.9,1.98,1.35,3.95.4,6.2-.62.1-1.38.22-2.36.38.26,1.59.47,3.09.74,4.57.41,2.26.42,2.26-1.98,3.56-2.23-3.28-4.47-6.58-6.72-9.89-1.28.29-1.28,1.03-.98,1.86.55,1.51,1.16,3.01,1.7,4.52.47,1.32.45,1.33-.98,2.59-5.25-2.08-8.77-6.08-11.66-10.74-1.69-2.71-3.25-5.5-5.32-8.12.2.84.36,1.69.61,2.51,1.63,5.4,4.93,9.73,8.9,13.6,3.12,3.03,6.33,5.97,9.49,8.96.4.38.74.82,1.23,1.37-.44.59-.85,1.14-1.47,1.96-2.89-1.85-5.8-3.43-8.38-5.44-4.38-3.41-8.64-6.98-12.77-10.67-3.38-3.02-5.11-7.04-5.53-11.52-.38-4.01-.5-8.04-.64-12.07-.03-.94.21-1.92.43-2.85.5-2.03,1.02-4.06,1.63-6.06,1.25-4.1,3.69-6.2,7.88-6.14,8.66.12,16.22,3.1,22.56,9.02,5.55,5.17,9.86,11.15,10.87,18.88.44,3.41.41,6.92.21,10.37-.07,1.29-1.23,2.51-1.97,3.91-1.7-1.12-2.48-2.43-2.85-4.05-.67-2.9-1.14-5.87-2.09-8.68-.76-2.26-2.07-4.34-3.24-6.45-.28-.51-.94-.8-1.42-1.2-.09-.06-.19-.12-.28-.18.11.05.21.1.32.14Z"/>
      <path class="cls-1" d="M109.87,297.6c2.03-1.71,3.05-3.73,2.98-6.2-.06-2.34-.16-4.68-.14-7.01.01-1.28.09-2.59.39-3.82.55-2.23,2.06-3.54,4.46-4.01.14.52.37.96.37,1.41-.05,4.43-.1,8.86-.23,13.29-.23,7.85-3.82,14.19-9.04,19.75-6.29,6.7-12.79,13.19-19.86,19.08-2.45,2.04-5.24,2.39-8.18,1.59-2.02-.55-3.98-1.3-5.95-2.02-2.51-.93-5.08-1.12-7.55-.13-3.69,1.48-5.86-.62-6.59-3.48-1.3-5.1-.59-9.95,2.18-14.42,1.97-3.18,4.53-5.81,7.55-8.07,3.13-2.35,6.55-4.1,10.08-5.67,4.11-1.83,8.25-3.64,12.43-5.29,1.22-.48,2.66-.59,3.98-.51,1.12.06,2.04-.12,2.99-.64,1.34-.74,2.67-1.42,4.33-1.28.59.05,1.32-.45,1.84-.88,1.39-1.17,2.71-2.43,4.53-4.1-.2,4.51-.38,8.46-.56,12.42ZM78.71,306.45c-4.3,4.98-8.62,9.44-12.43,14.31,1.06,1.08,1.53.3,2-.18,2.31-2.36,4.6-4.73,6.88-7.12,1.65-1.74,3.27-3.51,5.01-5.38-.49-.55-.89-.99-1.47-1.63ZM92.75,310.88c3.24-4.09,6.4-8.09,9.65-12.2-.59-.46-1-.77-1.53-1.18-3.49,3.9-6.71,7.84-9.79,12,.64.53,1.06.87,1.67,1.37ZM97.1,293.91c-1.13,1.1-2.14,1.98-3.03,2.97-.78.87-.28,1.38.61,1.67,1.2-1.16,2.33-2.24,3.54-3.41-.37-.41-.61-.68-1.11-1.24ZM90.19,302.62q1.22-.73,1.85-2.16-1.51.89-1.85,2.16Z"/>
      <path class="cls-1" d="M440.69,383.57c-.29,5.65-2.2,10.28-5.79,14.22-3.5,3.84-7.77,6.75-11.97,9.72-.86.6-1.72,1.19-2.58,1.79-.59.42-.66.87.14,1.53,3.9-2.77,8.54-4.59,11.99-8.13,3.33-3.42,6.48-7.01,9.96-10.79.02,3.63-1.39,6.42-3,9.09-2.32,3.85-5.47,7-9.25,9.4-5.3,3.37-10.88,4.09-16.37.49-3.64-2.39-6.34-5.68-7.69-9.93-.22-.68-.44-1.35-.64-1.98-.3,0-.5-.06-.6,0-3.23,2.35-6.28,1.01-9.27-.52-1.27-.65-1.63-1.89-1.73-3.26-.19-2.56.41-4.98,1.3-7.32,2.34-6.13,5.66-11.6,11.24-15.33,1.36-.91,3.05-1.73,4.64-1.83,6.11-.36,12.23-.4,18.35-.56,1.24-.03,2.09.67,3.12,1.71-3.3,4.97-7.22,9.47-10.17,14.67,2.79-1.23,4.47-3.7,6.62-5.61,2.15-1.91,4.18-3.97,6.34-6.03.79.58,1.43,1.05,2.27,1.66-1.6,4.14-3.01,8.34-5.33,12.1-2.31,3.72-4.97,7.23-7.72,11.18,3.04-1.46,5.43-3.1,7.12-5.62,1.3-1.94,2.49-3.96,3.88-5.84,1.04-1.42,2.29-2.69,3.51-3.96.34-.36.92-.49,1.65-.87ZM412.14,377.94c-4.3,2.69-5.39,4.53-4.47,6.86.2-.12.46-.19.57-.36,1.32-2.16,2.61-4.33,3.91-6.5Z"/>
      <path class="cls-1" d="M299,378.21c20.17,1.29,40.35,2.57,60.52,3.86l.16.53c-.71.43-1.38.96-2.13,1.28-8.97,3.93-18.15,6.95-28.01,7.79-9.75.84-19.32.08-28.72-2.53-8.5-2.36-16.41-6.16-24.05-10.53-.59-.34-1.07-.88-1.77-1.48.84-.61,1.46-1.09,2.11-1.53,6.25-4.19,13.21-6.55,20.5-8.21,8.53-1.93,17.13-2.12,25.69-.88,6.84.99,13.63,2.58,20.02,5.35,3.46,1.5,6.77,3.37,10.12,5.13.74.39,1.37,1,2.48,1.82-2.53,0-4.51.15-6.46-.03-8.89-.82-17.77-1.92-26.67-2.56-7.96-.56-15.93-.38-23.78,1.41-.01.19-.02.38-.04.57Z"/>
      <path class="cls-1" d="M83.01,174.66c-1.04.48-1.07.99-.49,1.6,1.1,1.17,2.19,2.36,3.33,3.49,3.77,3.74,7.57,7.47,11.35,11.2.22.22.37.5.55.76-.4,1.3-1.11,1.78-2.37,1.22-6.4-2.85-12.83-5.64-18.68-9.53-2.54-1.69-4.97-3.54-7.43-5.35-2.96-2.17-5.25-4.97-7.47-7.85-.29-.38-.64-.71-1.06-1.18-.44.39-.81.72-1.26,1.11,1.67,2.38,3.58,4.48,4.52,7.33-2.16.56-4.01-.19-5.85-.51-9.96-1.77-19.4-5.28-28.86-8.7-.68-.24-1.3-.63-1.94-.98-.19-.1-.33-.3-.79-.72,3.24-.55,6.18-1.14,9.16-1.53,7.61-.98,15.26-1.27,22.92-.91,7.01.33,13.98,1.13,20.72,3.18,5.08,1.54,10.17,3.14,15.07,5.16,4.98,2.05,9.78,4.52,13.67,8.46,2.12,2.15,3.98,4.45,5.21,7.2,2.73,6.1,5.49,12.2,8,18.39,1.29,3.19,2.09,6.58,3.17,10.1-.82.34-1.43.6-2.05.85-1.18-1.9-2.25-3.59-3.29-5.3-2.84-4.72-6.29-8.99-10.11-12.91-4.49-4.61-9.23-8.98-13.89-13.42-3.15-3-6.35-5.94-9.54-8.89-.87-.81-1.79-1.56-2.61-2.28Z"/>
      <path class="cls-1" d="M222.95,14.08c1.13,9.26,2.37,18.1,1.17,27.08-.86,6.49-3.68,11.93-8.26,16.53-5.25,5.28-11.41,9.13-18.42,11.62-.74.26-1.5.47-2.57.8,1.2-8.03,7.1-12.36,12.34-17.27-.92-.88-1.71-1.64-2.67-2.55.8-.57,1.48-1.09,2.19-1.56,1.82-1.2,2.77-2.88,2.83-5.05.03-1.13-.03-2.26.02-3.38.08-2,.21-3.99.32-5.99-2.26-.41-3.54.27-4.55,2.65-.91,2.15-1.63,4.37-2.55,6.51-2.38,5.54-4.72,11.11-7.29,16.57-1.21,2.58-2.91,4.94-4.63,7.8-1.11-5.17-2.35-9.78-1.39-14.67.54-2.76.78-5.58,1.12-8.37.58-4.69,2.37-8.87,5.61-12.31,2.31-2.45,4.76-4.81,7.35-6.96,4.98-4.13,10.62-7.25,16.36-10.18.84-.43,1.75-.74,3-1.26Z"/>
      <path class="cls-1" d="M315.58,429.83c2.93-1.1,5.86-2.16,8.77-3.31,1.12-.44,2.14-1.11,3.24-1.6,5.21-2.32,9.53-5.95,13.82-9.59,2.78-2.36,5.65-4.51,9.16-5.67.2-.07.44,0,.98,0-1.77,3.41-3.45,6.64-5.13,9.87-.09.1-.17.19-.26.29.16-.02.32-.05.48-.07,2.41-.51,3.87-2.25,5.11-4.14,1.24-1.88,2.19-3.94,3.34-5.88,1.68-2.85,3.41-5.69,6.59-7.16.28-.13.59-.22,1.05-.39,0,.56.09,1.01-.01,1.41-2.47,9.4-7.27,17.3-15.05,23.27-.51.39-1.06.73-1.61,1.07-5.53,3.34-11.28,6.12-17.45,8.16-7.57,2.5-15.31,3.7-23.23,3.92-2.79.08-5.57.01-8.7.01,1.23-1.5,2.19-2.76,3.25-3.93,4.1-4.54,8.29-9,12.34-13.58,4.12-4.65,8.57-8.96,13.43-12.79,5-3.94,10.43-7.23,16.49-9.44,3.81-1.39,7.69-2.31,11.7-2.81,2.65-.33,3-.24,4.45,1.32-.91.43-1.73.91-2.6,1.21-2.97,1.01-5.98,1.93-8.95,2.93-3.51,1.17-7,2.39-10.49,3.6-.29.1-.55.28-.77.4-.12,1.03.45,1.24,1.18,1.15,1.91-.22,3.82-.47,5.73-.74.67-.09,1.33-.27,2.45-.52-.43.77-.53,1.19-.79,1.37-3.14,2.23-6.35,4.37-9.47,6.63-4.16,3.03-8.27,6.14-12.38,9.22-2.06,1.54-4.11,3.11-6.14,4.69-.29.23-.47.61-.7.92-.19.11-.37.22-.56.33.06.05.14.16.16.14.19-.09.36-.2.54-.31Z"/>
      <path class="cls-1" d="M137.42,227.92c-1.28,1.39-2.79,2.64-3.81,4.21-3.15,4.85-4.66,10.4-6.39,15.85-.76,2.38-1.61,4.73-2.43,7.08-.24.7-.7,1.06-1.48.85-.83-.23-.84-.82-.72-1.53.98-5.54,1.3-11.26,3.76-16.43,2.24-4.72,4.68-9.37,7.38-13.84,1.07-1.77,3.07-2.97,4.6-4.38,2.05,1.57,5.56,6.54,6.25,8.51.2.57.55,1.15.98,1.57,1.22,1.17,2.5,2.28,3.78,3.38,5.63,4.81,11.28,9.6,16.9,14.42.72.62,1.32,1.37,2.16,2.25-9.22,6.1-18.69,11.01-30.37,10.34.45-1.2,1.36-1.39,2.1-1.72,2.42-1.1,4.86-2.16,7.3-3.22.93-.4,1.6-.85.72-2.14-5.38,2.32-10.8,4.65-16.37,7.04-.85-1.92-1.02-3.82-1.15-5.72-.44-6.23.74-12.2,3.13-17.93.96-2.3,2.08-4.54,3.1-6.82.25-.57.37-1.19.55-1.79.06-.12.12-.23.19-.35-.06.12-.12.23-.18.35ZM140.33,247.28c1.5-1.26,3.01-2.52,4.69-3.93-.74-.73-1.24-1.23-1.99-1.97-1,2.21-1.84,4.06-2.68,5.92l-.14.06.12-.09Z"/>
      <path class="cls-1" d="M28.2,171.19c1.64.49,3.15.94,4.65,1.4,5,1.54,9.99,3.1,14.99,4.64,6.77,2.08,13.55,4.14,20.32,6.24.91.28,1.78.73,2.75,1.14v1.99c-6.27.56-12.42,1.11-18.58,1.65,0,.18,0,.36,0,.54,3.08.07,6.15.22,9.23.18,4.35-.05,8.7-.34,13.05-.34,5.56,0,10.59,1.84,15.2,4.88.97.64,1.77,1.55,3.11,2.76-8.23,1.25-15.88,2.41-23.48,3.56-.11.46-.19.69-.21.92-.25,3.61-2.12,5.14-5.6,4.28-4-1-7.86-2.43-11.18-4.99-3.31-2.56-6.69-5.04-9.85-7.77-4.6-3.98-8.07-8.96-11.74-13.76-1.61-2.11-2.77-4.26-2.67-7.31Z"/>
      <path class="cls-1" d="M85.86,118.2c-2.46,1.67-4.71,1.98-6.93,2.19-9.91.95-19.26-1.23-27.98-5.8-4.04-2.12-7.88-4.78-10.39-8.82-.72-1.15-1.4-2.36-1.86-3.63-1.02-2.78-.27-5.02,2.38-6.28,2.53-1.2,5.21-2.18,7.92-2.9,2.07-.55,4.3-.75,6.45-.73,5.23.05,9.61,1.82,12.96,6.19,2.39,3.11,5.33,5.8,8.1,8.61,2.14,2.17,4.39,4.23,6.86,6.59-2.15,1.65-4.9,1.69-7.22,3.21,3.29.46,6.25.88,9.71,1.36Z"/>
      <path class="cls-1" d="M389.24,246.38c2.75.67,5.26,1.21,7.73,1.9,5.8,1.64,11.74,1.91,17.7,1.88,7-.04,13.98-.49,20.89-1.76,3.86-.71,7.8-1,12.02-1.52.13,3.52.73,6.97-.12,10.33-.7,2.76-2.93,4.14-5.73,4.47-1.03.12-2.09.07-3.14.08-12.4.22-24.8.54-37.2.6-3.1.02-6.25-.61-9.3-1.28-2.91-.64-3.94-2.24-4.06-5.22-.13-3.16.45-6.23,1.2-9.49Z"/>
      <path class="cls-1" d="M122.54,91.92c-.45-2.46-.83-4.56-1.2-6.61-1.17-.15-1.17.63-1.33,1.21-1.29,4.49-2.56,8.98-3.84,13.47-.24.84-.53,1.67-.84,2.63-.69-.08-1.28-.15-1.98-.23-.04-.68-.16-1.23-.1-1.77.81-7.66-1.14-14.87-3.59-22-.55-1.59-.94-3.24-1.37-4.87-1-3.87.3-7.06,3.21-9.52,3.84-3.25,8.25-5.61,12.99-7.3,1.96-.7,3.81-.16,4.95,1.51,1.25,1.85,2.43,3.84,3.14,5.94,2.56,7.58,2.7,15.36,1.18,23.15-.81,4.12-2.23,5.9-6.11,8.69-.05-5.47.86-10.66.84-15.96-2.08,3.72-3.31,7.86-5.94,11.68Z"/>
      <path class="cls-1" d="M105.87,168.11c-2.95-6.48-5.09-8.22-11.6-7.76,2.37,2.17,4.67,4.01,6.62,6.16,1.91,2.1,3.46,4.53,5.48,7.24-1.08-.13-1.56-.11-1.98-.26-6.47-2.18-12.56-5.11-17.63-9.75-7.19-6.57-12.35-14.4-14.01-24.19-.4-2.36-.52-4.77-.06-7.14,15.09-.72,35.15,17.23,33.18,35.71ZM82.68,143.38c3.69,3.07,7.19,6,10.71,8.92.18.15.39.36.6.38.35.02.86.02,1.02-.18.18-.23.12-.73,0-1.06-.1-.27-.42-.47-.66-.68-3.26-2.86-6.51-5.72-9.78-8.58-.16-.14-.42-.18-.71-.3-.35.44-.68.87-1.18,1.51Z"/>
      <path class="cls-1" d="M155.4,35.13c1.58,1.16,2.75,1.86,3.73,2.76,3.28,3,6.17,6.35,8.66,10.03,3.26,4.82,6.02,9.91,7.51,15.59.91,3.47,1.33,6.97.33,10.49-.34,1.19-.95,2.3-1.44,3.45h-.59c-2.03-4.71-4.13-9.37-6.07-14.11-1.94-4.76-3.71-9.6-5.55-14.38-1.88.11-1.91.11-1.56,1.64,1.63,7.14,3.29,14.27,4.93,21.41.17.75.27,1.52.49,2.74-1.02-.68-1.71-1.05-2.31-1.54-4.69-3.8-7.59-8.68-8.67-14.62-.96-5.28-.65-10.59-.26-15.9.17-2.31.48-4.62.8-7.57Z"/>
      <path class="cls-1" d="M402.16,133.4c.89-4.44,2.65-7.94,5.24-10.95,1.72-2,3.74-3.75,5.74-5.49,1.51-1.32,3.19-2.44,4.78-3.66,2.79-2.15,5.85-3.61,9.49-3.94.37.63.71,1.26,1.08,1.87.91,1.51.88,2.92.03,4.54-2.99,5.7-6.65,10.81-12.08,14.46-2.99,2.01-6.28,3.3-9.83,3.73-1.36.17-2.81-.33-4.46-.56Z"/>
      <path class="cls-1" d="M166.59,265.92c-3.78,3.02-7.64,5.35-12.34,6.04-4.17.61-8.33.55-12.51.17-3.6-.32-7.23-.42-10.84-.6-.77-.04-1.55,0-2.51,0,7.85-9.27,29.26-13.07,38.21-5.61Z"/>
      <path class="cls-1" d="M44.62,89.33c-.07-2.79-.16-5.42-.19-8.06,0-.45.22-.94.45-1.36,2.94-5.32,10.28-8.82,16.4-7.76v17.18h-16.67Z"/>
      <path class="cls-1" d="M122.92,272.33c8.77.4,17.26.79,26.2,1.19-3.56,3.45-7.79,5.24-11.43,7.87-3.62,2.61-7.54,4.81-11.66,7.39-1.06-5.6-2.05-10.84-3.11-16.44Z"/>
      <path class="cls-1" d="M496.37,193.84h35.15c.57,2.49-.33,4.37-2.66,5.08-1.37.41-2.84.51-4.27.66-4.08.41-8.16,1.12-12.24,1.08-5.14-.04-10.01-1.52-14.25-4.62-.69-.51-1.31-1.12-1.96-1.69.08-.17.15-.34.23-.51Z"/>
      <path class="cls-1" d="M100.59,51.3c4.07.16,7.49,1.62,10.15,4.76.71.83.7,1.47.09,2.33-4.81,6.89-11.95,6.89-18,2.16-2.6-2.03-2.37-4.9.32-6.87,2.21-1.61,4.75-2.27,7.43-2.39Z"/>
      <path class="cls-1" d="M497.78,202.26c.87,0,1.66,0,2.45,0,6.28,0,12.55-.02,18.83.01,2.42.01,4.81-.08,7.16-.77,1.6-.47,3.19-.41,4.54.94-.37,2.09-1.63,3.37-3.61,4.04-4.55,1.52-9.22,2.2-14.01,1.78-3.28-.29-6.54-.89-9.82-1.02-3.15-.13-4.87-1.6-5.53-4.98Z"/>
      <path class="cls-1" d="M167.65,260.56c1.48-2.37,3.26-4.31,5.26-6.09,1.2-1.07,2.59-1.28,3.81-.72,4.24,1.94,8.38,4.1,12.56,6.18.12.06.17.24.43.65-5.09,1-9.54,3.97-14.88,3.72-2.86-.13-5.17-1.25-7.18-3.73Z"/>
      <path class="cls-1" d="M388.32,241.93c9.83.63,19.15,2.82,28.65,2.54,9.4-.28,18.8-.84,28.38-1.28-.41.29-.75.71-1.17.81-3.2.79-6.38,1.72-9.62,2.21-6.47.96-13,1.17-19.53.96-6.93-.23-13.84-.69-20.6-2.34-2.08-.51-4.16-1.08-6.1-2.9Z"/>
      <path class="cls-1" d="M112.15,311.47c.18,11.14-11.04,21.71-21.85,21.9,7.22-7.46,14.45-14.43,21.85-21.9Z"/>
      <path class="cls-1" d="M128.26,203.79c.67-.18,1.28-.35,1.88-.51.22.24.46.39.51.58,1.01,3.97,1.96,7.95,3,11.92.29,1.11-.01,1.86-.94,2.46-1.01.65-1.99,1.33-3,2.01-.93-1.79-1.69-10.47-1.46-16.47Z"/>
      <path class="cls-1" d="M185.05,88.25c-.18,0-.37,0-.55,0,.07-.12.13-.24.2-.36.12.12.23.24.35.36Z"/>
      <path class="cls-1" d="M541.13,123.92l-.33.27c.01-.18.03-.37.04-.55.1.09.2.18.29.28Z"/>
      <path class="cls-2" d="M242.99,96.62c11.88.47,23.47,2.32,34.72,5.94,8,2.57,15.57,6.2,22.68,10.7,6.7,4.24,12.8,9.25,17.73,15.53,4.2,5.35,7.64,11.18,10.4,17.38,1.8,4.04,3.36,8.2,5.01,12.31,1.99,4.96,2.54,10.03,2.04,15.39-.64,6.85-1.53,13.6-3.65,20.15-2.34,7.21-5.96,13.72-10.7,19.62-4.05,5.03-8.44,9.75-13.32,13.98-3.65,3.16-7.55,6.01-11.6,8.67-4.61,3.03-9.55,5.44-14.63,7.38-5.02,1.91-10.32,3.11-15.55,4.41-8.2,2.04-16.58,2.33-24.97,1.97-11.72-.51-23.24-2.42-34.43-5.9-8.03-2.5-15.55-6.26-22.45-11.09-8.25-5.79-15.25-12.91-20.94-21.22-6.94-10.14-11.38-21.29-12.65-33.58-.84-8.17.72-16.05,3.43-23.74,3.86-10.95,9.72-20.65,17.83-29,6.27-6.47,13.27-11.91,21.21-16.22,10.97-5.96,22.63-9.62,34.99-11.11,4.95-.6,9.91-1.05,14.87-1.56ZM244.63,246.74c9.06-.31,18.92-.9,28.46-4.09,4.89-1.64,9.75-3.25,14.37-5.63,6.05-3.12,11.67-6.8,16.95-11.08,6.17-5.02,11.62-10.68,16.09-17.26,3-4.42,5.37-9.16,7.14-14.21,1.74-4.97,2.81-10.1,3.23-15.33.7-8.85-.03-17.54-3.2-25.94-2.09-5.54-4.98-10.66-8.1-15.64-1.87-2.99-3.86-5.99-6.25-8.57-6.37-6.84-13.91-12.24-22.13-16.61-6.77-3.6-13.93-6.25-21.39-8.19-9.27-2.41-18.67-3.71-28.21-3.48-7.81.19-15.54,1.2-23.2,3.01-13.23,3.13-25.27,8.56-35.96,16.98-3.81,3-7.31,6.29-10.53,9.93-7.56,8.51-12.49,18.34-14.92,29.42-1.85,8.43-2.31,16.91-.71,25.45.93,4.95,2.67,9.6,4.79,14.15,3.09,6.63,7.11,12.64,11.93,18.1,5.31,6.02,11.6,10.96,18.4,15.17,8.28,5.13,17.29,8.62,26.72,10.97,8.41,2.09,17.02,2.64,26.53,2.85Z"/>
      <path class="cls-2" d="M490.27,103.51c-.12-.07-.24-.14-.35-.21l.21-.21c.04.15.07.3.11.45,0,0,.03-.03.03-.03Z"/>
      <path class="cls-2" d="M245.06,267.75c8.69.46,17.41.62,26.06,1.46,9.78.95,19.47,2.72,28.87,5.66,4.37,1.36,8.72,2.93,12.86,4.88,7.51,3.55,14.58,7.87,21.04,13.16,5.46,4.47,7.2,11.99,4.98,18.41-1.44,4.15-3.96,7.47-7.23,10.38-11.13,9.9-24.45,14.9-38.76,17.98-9.8,2.11-19.69,3.25-29.65,4-7.07.53-14.12,1.29-21.2,1.62-4.17.19-8.37-.16-12.55-.43-5.14-.33-10.3-.65-15.41-1.31-6.3-.81-12.62-1.69-18.83-3.04-5.33-1.16-10.59-2.82-15.74-4.65-10.24-3.64-19.72-8.81-28.13-15.7-5.09-4.17-6.55-9.99-5.53-16.39.88-5.52,3.87-9.86,8.12-13.31,4.38-3.57,9.16-6.52,14.29-8.97,4.98-2.38,10.21-3.91,15.44-5.53,8.41-2.6,17.06-4.03,25.71-5.52,11.81-2.03,23.71-2.36,35.66-2.71ZM245.77,306.31c0,7.25.02,14.51,0,21.76,0,2.82-.22,5.64-.14,8.46.1,3.54,1.81,4.91,5.3,4.52,6.56-.73,13.11-1.52,19.67-2.16,9.78-.94,19.47-2.31,28.99-4.89,10.45-2.83,20.29-6.83,28.9-13.48,2.02-1.56,3.9-3.4,5.51-5.38,2.66-3.3,3.23-7.15,1.87-11.17-2.06-6.12-6.53-10.3-11.75-13.64-7.16-4.57-14.97-7.93-23.09-10.3-7.17-2.09-14.49-3.88-21.87-4.96-9.15-1.34-18.42-1.82-27.64-2.65-.88-.08-1.78-.08-2.66,0-1.68.16-2.82,1.26-3.04,2.92-.1.79-.07,1.61-.07,2.41,0,9.51,0,19.02,0,28.53ZM240.44,306.95s.07,0,.11,0c0-9.67.01-19.35,0-29.02,0-4.71-1.26-5.91-5.95-5.58-3.61.26-7.22.66-10.83.98-7.13.63-14.28,1.01-21.32,2.49-7.63,1.61-15.31,2.89-22.72,5.51-8.72,3.08-16.6,7.39-23.3,13.78-1.68,1.6-3.25,3.36-4.61,5.23-1.52,2.08-2,4.49-1.55,7.12.93,5.36,3.81,9.5,7.87,12.91,5.32,4.47,11.65,7.2,17.99,9.7,5.59,2.21,11.39,4.08,17.25,5.41,6.81,1.54,13.77,2.54,20.71,3.39,7.34.91,14.74,1.42,22.11,2,2.84.22,3.95-.86,4.21-3.72.06-.64.02-1.29.02-1.93,0-9.43,0-18.86,0-28.28Z"/>
      <path class="cls-2" d="M525.48,307.11c-.63-1.71-1-48.49-.45-60.21.02-.49.21-.96.4-1.75.94.89.73,1.72.74,2.45.02,4.91,0,9.83,0,14.74,0,14.02,0,28.04,0,42.06,0,.91-.06,1.83-.1,2.74-.2,0-.39-.02-.59-.02Z"/>
      <path class="cls-2" d="M389.76,274.86c3.83,5.93,4.31,34.47,1.37,40.51-.2-.68-.45-1.17-.49-1.68-.23-2.88-.52-5.77-.58-8.66-.21-9.73-.34-19.45-.5-29.18,0-.21.08-.41.19-.99Z"/>
      <path class="cls-2" d="M400.72,186.58c2.91,5.62,3.02,34.98.21,42.47-.07-.02-.14-.02-.2-.06-.06-.04-.16-.1-.16-.15-.03-13.85-.06-27.71-.07-41.56,0-.2.13-.41.22-.7Z"/>
      <path class="cls-2" d="M46.76,257.08c1.54.17,3.1.29,4.63.52,8.33,1.26,16.65,2.55,24.98,3.83.24.04.48.07.71.14.56.19,1.44.12,1.23,1.09-.2.93-1,.65-1.58.56-4.44-.68-8.89-1.36-13.32-2.12-5.14-.88-10.27-1.82-15.4-2.76-.49-.09-.95-.36-1.43-.55.06-.24.12-.49.17-.73Z"/>
      <path class="cls-2" d="M32.08,279.29h16.9c-2.09.67-14.94.7-16.9,0Z"/>
      <path class="cls-2" d="M532.15,135.87c1.5,2.74,1.57,5.65,1.5,8.47-.22,8.95-1.17,17.84-3.01,26.6-.91,4.33-2.13,8.59-3.28,12.86-.32,1.2-.92,2.32-1.81,3.34,2.2-17.09,4.4-34.19,6.6-51.28Z"/>
      <path class="cls-2" d="M104.66,221.77c6.55,3.9,11.46,19.55,7.68,24.69-2.58-8.29-5.09-16.37-7.68-24.69Z"/>
      <path class="cls-2" d="M99.69,236.61c-.09-.06-.18-.11-.26-.17.05,0,.13-.02.15,0,.04.05.05.13.08.2,0,0,.04-.04.04-.04Z"/>
      <path class="cls-2" d="M405.86,330.64c-1.03-.21-2.07-.42-3.1-.63.04-.19.08-.39.12-.58.5.16,1,.31,1.5.47.52.16,1.03.32,1.55.49-.02.09-.04.18-.07.26Z"/>
      <path class="cls-2" d="M380.9,353.75c-.06-.02-.12-.04-.18-.06.05.03.1.06.15.09,0,0,.03-.03.03-.03Z"/>
      <path class="cls-2" d="M430.96,309.51q-.48-1.57,1.22-2.52c-.36.73-.71,1.47-1.22,2.52Z"/>
      <path class="cls-2" d="M432.67,305.86c.07-.08.13-.16.2-.23-.01.05-.01.12-.04.14-.05.04-.13.04-.19.06l.03.03Z"/>
      <path class="cls-2" d="M432.64,305.83c-.05.14-.09.27-.14.41.06-.12.12-.25.18-.37,0,0-.03-.03-.03-.03Z"/>
      <path class="cls-2" d="M478.22,357.89c3.88-.79,13.88-1.29,16.09-.72-.57.24-.87.46-1.19.49-4.45.5-8.91.99-13.37,1.45-.76.08-1.72.27-1.54-1.22Z"/>
      <path class="cls-2" d="M467.02,385.25c.8.64,1.65,1.23,2.4,1.93,1.15,1.08,2.22,2.23,3.43,3.45-.49.4-.83.68-1.46,1.2-1.5-2.28-2.92-4.44-4.34-6.61l-.03.03Z"/>
      <path class="cls-2" d="M491.23,380.86c-.51-.3-1.01-.59-1.52-.89.09-.11.18-.23.28-.34.4.42.81.83,1.21,1.25l.03-.03Z"/>
      <path class="cls-2" d="M491.7,381.38l.15.1s-.08-.08-.12-.13c0,0-.03.03-.03.03Z"/>
      <polygon class="cls-2" points="466.55 384.72 466.42 384.64 466.52 384.75 466.55 384.72"/>
      <path class="cls-2" d="M467.05,385.22c-.17-.16-.33-.33-.5-.49,0,0-.03.03-.03.03.17.16.33.33.5.49,0,0,.03-.03.03-.03Z"/>
      <path class="cls-2" d="M491.2,380.88c.17.17.33.33.5.5,0,0,.03-.03.03-.03-.17-.16-.33-.33-.5-.49,0,0-.03.03-.03.03Z"/>
      <path class="cls-2" d="M97.27,79.79c-.11-.05-.21-.1-.32-.14.09.06.19.12.28.18,0,0,.04-.04.04-.04Z"/>
      <path class="cls-2" d="M78.71,306.45c.57.64.97,1.08,1.47,1.63-1.74,1.87-3.36,3.64-5.01,5.38-2.28,2.39-4.57,4.76-6.88,7.12-.47.48-.95,1.26-2,.18,3.81-4.86,8.13-9.32,12.43-14.31Z"/>
      <path class="cls-2" d="M92.75,310.88c-.61-.5-1.02-.84-1.67-1.37,3.08-4.16,6.3-8.1,9.79-12,.53.41.94.72,1.53,1.18-3.25,4.11-6.42,8.11-9.65,12.2Z"/>
      <path class="cls-2" d="M97.1,293.91c.5.56.75.83,1.11,1.24-1.21,1.17-2.34,2.26-3.54,3.41-.89-.3-1.38-.81-.61-1.67.89-.99,1.9-1.88,3.03-2.97Z"/>
      <path class="cls-2" d="M90.19,302.62q.34-1.27,1.85-2.16-.63,1.43-1.85,2.16Z"/>
      <path class="cls-2" d="M412.14,377.94c-1.3,2.17-2.59,4.34-3.91,6.5-.1.17-.37.24-.57.36-.92-2.33.18-4.16,4.47-6.86Z"/>
      <path class="cls-2" d="M315.58,429.83c-.18.11-.35.22-.54.31-.03.01-.11-.09-.16-.14.19-.11.37-.22.56-.33,0,0,.14.17.14.17Z"/>
      <path class="cls-2" d="M346.65,419.75c-.16.02-.32.05-.48.07.09-.1.17-.19.26-.29.08.07.15.15.22.22Z"/>
      <path class="cls-2" d="M140.36,247.31c.84-1.86,1.68-3.72,2.68-5.92.74.74,1.25,1.24,1.99,1.97-1.68,1.41-3.18,2.67-4.69,3.93l.03.02Z"/>
      <polygon class="cls-2" points="140.33 247.28 140.22 247.37 140.36 247.31 140.33 247.28"/>
      <path class="cls-2" d="M137.42,227.92c.06-.12.12-.23.18-.35-.06.12-.12.23-.19.35,0,0,0,0,0,0Z"/>
      <path class="cls-2" d="M82.68,143.38c.5-.63.83-1.06,1.18-1.51.3.12.55.16.71.3,3.27,2.85,6.52,5.71,9.78,8.58.24.21.56.41.66.68.12.33.17.83,0,1.06-.16.21-.67.21-1.02.18-.21-.01-.42-.22-.6-.38-3.51-2.92-7.02-5.85-10.71-8.92Z"/>
      <path class="cls-1" d="M244.63,246.74c-9.51-.21-18.12-.76-26.53-2.85-9.43-2.34-18.44-5.84-26.72-10.97-6.8-4.21-13.09-9.15-18.4-15.17-4.82-5.46-8.84-11.47-11.93-18.1-2.12-4.55-3.86-9.2-4.79-14.15-1.6-8.54-1.13-17.02.71-25.45,2.43-11.08,7.37-20.9,14.92-29.42,3.22-3.63,6.73-6.93,10.53-9.93,10.69-8.42,22.73-13.85,35.96-16.98,7.66-1.81,15.39-2.82,23.2-3.01,9.54-.23,18.94,1.07,28.21,3.48,7.46,1.94,14.62,4.59,21.39,8.19,8.22,4.37,15.77,9.77,22.13,16.61,2.39,2.57,4.38,5.57,6.25,8.57,3.12,4.98,6.01,10.1,8.1,15.64,3.16,8.4,3.9,17.09,3.2,25.94-.41,5.24-1.49,10.36-3.23,15.33-1.77,5.05-4.14,9.79-7.14,14.21-4.47,6.58-9.92,12.24-16.09,17.26-5.28,4.29-10.9,7.96-16.95,11.08-4.61,2.38-9.48,3.99-14.37,5.63-9.54,3.19-19.41,3.78-28.46,4.09ZM277.17,139.59c-2.8,2.88-5.42,5.58-8.06,8.28-6.75,6.91-13.49,13.81-20.24,20.72-7.32,7.48-14.63,14.96-21.97,22.42-4.46,4.53-8.97,9.02-13.44,13.55-1.52,1.54-2.97,3.13-4.53,4.79.59.67,1.09,1.25,1.66,1.89,22.79-23.3,45.46-46.48,68.27-69.8-.58-.64-1.09-1.19-1.68-1.84ZM248,132.49c-14.52,14.72-28.8,29.19-43.15,43.73.51.53.81.85,1.26,1.33,14.53-14.47,28.93-28.82,43.48-43.31-.65-.72-1.06-1.17-1.59-1.75ZM246.95,201c3.69-3.81,7.09-7.34,10.51-10.85,1.9-1.96,3.85-3.87,5.77-5.82,2.81-2.86,5.61-5.74,8.42-8.61,1.52-1.55,3.03-3.1,4.56-4.63.85-.86.64-1.5-.53-2.2-9.89,10.1-19.78,20.19-29.74,30.35.25.44.48.84,1,1.76Z"/>
      <path class="cls-1" d="M245.77,306.31c0-9.51,0-19.02,0-28.53,0-.81-.04-1.62.07-2.41.22-1.66,1.36-2.76,3.04-2.92.88-.08,1.78-.09,2.66,0,9.22.83,18.49,1.31,27.64,2.65,7.38,1.08,14.7,2.87,21.87,4.96,8.12,2.37,15.93,5.72,23.09,10.3,5.22,3.34,9.69,7.51,11.75,13.64,1.36,4.03.79,7.88-1.87,11.17-1.6,1.99-3.48,3.82-5.51,5.38-8.61,6.64-18.46,10.65-28.9,13.48-9.52,2.58-19.21,3.95-28.99,4.89-6.57.63-13.12,1.43-19.67,2.16-3.49.39-5.2-.98-5.3-4.52-.08-2.82.13-5.64.14-8.46.02-7.25,0-14.51,0-21.76Z"/>
      <path class="cls-1" d="M240.44,306.95c0,9.43,0,18.86,0,28.28,0,.64.04,1.29-.02,1.93-.27,2.86-1.37,3.95-4.21,3.72-7.38-.58-14.77-1.1-22.11-2-6.94-.86-13.9-1.85-20.71-3.39-5.86-1.33-11.66-3.2-17.25-5.41-6.34-2.51-12.67-5.23-17.99-9.7-4.06-3.41-6.94-7.55-7.87-12.91-.46-2.62.03-5.03,1.55-7.12,1.36-1.87,2.93-3.63,4.61-5.23,6.69-6.39,14.58-10.69,23.3-13.78,7.42-2.62,15.09-3.91,22.72-5.51,7.04-1.48,14.19-1.86,21.32-2.49,3.61-.32,7.21-.73,10.83-.98,4.69-.33,5.95.87,5.95,5.58.02,9.67,0,19.35,0,29.02-.04,0-.07,0-.11,0Z"/>
      <path class="cls-2" d="M277.17,139.59c.59.65,1.1,1.21,1.68,1.84-22.81,23.32-45.48,46.5-68.27,69.8-.57-.65-1.07-1.22-1.66-1.89,1.56-1.66,3.02-3.25,4.53-4.79,4.47-4.53,8.98-9.01,13.44-13.55,7.34-7.46,14.65-14.94,21.97-22.42,6.75-6.9,13.5-13.81,20.24-20.72,2.63-2.7,5.26-5.4,8.06-8.28Z"/>
      <path class="cls-2" d="M248,132.49c.53.58.94,1.04,1.59,1.75-14.55,14.49-28.95,28.83-43.48,43.31-.45-.47-.75-.8-1.26-1.33,14.35-14.54,28.63-29.01,43.15-43.73Z"/>
      <path class="cls-2" d="M246.95,201c-.52-.92-.75-1.32-1-1.76,9.96-10.16,19.84-20.25,29.74-30.35,1.17.7,1.38,1.34.53,2.2-1.53,1.54-3.05,3.08-4.56,4.63-2.81,2.87-5.61,5.74-8.42,8.61-1.91,1.95-3.86,3.86-5.77,5.82-3.42,3.51-6.82,7.04-10.51,10.85Z"/>
    </g>
  </g>
</svg>