<?xml version="1.0" encoding="UTF-8"?>
<svg id="Layer_2" data-name="Layer 2" xmlns="http://www.w3.org/2000/svg" viewBox="0 0 661.29 481.75">
  <defs>
    <style>
      .cls-1 {
        fill: #c464a2;
      }

      .cls-1, .cls-2 {
        stroke-width: 0px;
      }

      .cls-2 {
        fill: #fffeff;
      }
    </style>
  </defs>
  <g id="Layer_1-2" data-name="Layer 1">
    <g>
      <path class="cls-2" d="M0,481.75V0h661.29v481.75H0ZM129.99,382.88c-1.96.28-3.26-.26-4.44-1.29-3.65-3.21-7.31-6.41-10.98-9.6-5.8-5.05-11.55-10.16-17.43-15.11-5.25-4.42-11.08-8-17.55-10.25-13.21-4.59-26.52-8.89-39.79-13.31-.76-.25-1.51-.57-2.29-.67-.45-.06-1.18.1-1.37.41-.26.43-.26,1.13-.14,1.66.11.49.54.9.81,1.35,3.89,6.43,7.83,12.84,11.65,19.31,3.43,5.81,7.3,11.33,12.04,16.11,10.5,10.56,23.39,15.67,38.23,15.71,8.05.02,16.1-.31,24.15-.45,1.06-.02,2.13.06,3.17.23,4.64.77,6.18,3.02,6.15,7.78-.03,4.59-.24,9.18-.45,13.77-.48,10.14,7.25,17.94,16.01,19.62,1.99.38,4.03.56,6.05.75,5.19.49,10.39,1.31,15.59,1.32,19.56.01,39.12-.26,58.68-.4,1.4,0,2.82.16,4.22.34,1.99.26,3.34,1.3,4.19,3.2,1.89,4.22,5.3,6.81,9.64,8.11,2.28.68,4.64,1.2,7,1.46,9.23,1.01,18.48,1.83,27.7,2.84,11.45,1.26,22.94,1.76,34.44,1.74,17.17-.03,34.33-.38,51.5-.67,7.96-.13,15.93-.31,23.88-.67,8.76-.4,17.41-1.78,26.01-3.43,4.7-.9,8.31-3.38,10.56-7.67,1.71-3.26,4.42-4.63,8.05-4.47,3.09.13,6.19.19,9.29.15,4.25-.05,8.49-.24,12.74-.35,8.85-.23,17.69-.38,26.53-.72,2.72-.1,5.49-.43,8.12-1.12,5.09-1.34,8.42-4.71,9.84-9.82.66-2.38,1.16-4.81,1.74-7.22.57-2.39,1.14-4.77,1.76-7.33,1.17.38,2.08.68,3,.96,8.02,2.48,16,5.1,24.08,7.4,10.62,3.03,21.47,3.25,32.37,2.02,7.72-.87,14.94-3.54,21.95-6.79,6.93-3.21,13.34-7.31,19.68-11.53,5.15-3.43,10.18-7.08,15.59-10.05,6.97-3.83,14.26-7.09,21.41-10.6,1.17-.57,2.33-1.17,3.64-1.83-2.37-3.24-4.65-6.11-8.58-7.02-1.38-.32-2.71-.81-4.06-1.24-4.04-1.3-8.13-2.45-11.6-5.07-4.92-3.72-10.38-6.4-16.25-8.26-4.47-1.41-9.02-2.59-13.44-4.12-11.34-3.9-22.96-4.82-34.8-3.44-5.9.69-11.64,2.02-17.25,4.02-9.12,3.25-17.99,6.94-25.78,12.85-2.75,2.08-5.51,4.15-8.28,6.21-.74.55-1.53,1.04-2.66,1.8-.46-5.85-.27-11.09,1.97-16.05,1.73-3.83,4.43-6.83,8.27-8.63,2.31-1.09,4.67-2.2,7.12-2.86,4.43-1.2,8.96-2.01,13.43-3.1,9.85-2.4,18.81-6.51,26.51-13.3,8.82-7.78,15.19-17.2,19.47-28.06,1.32-3.36,2.54-6.84,3.16-10.38,1.6-9.05,2.82-18.17,4.25-27.25,2.19-13.89,5.81-27.33,12.36-39.87.45-.86.73-1.8,1.18-2.66,1-1.9-.63-3.5-2.41-3.18-1.56.28-3.11.63-4.61,1.12-4.04,1.3-8.02,2.75-12.07,4.03-5.31,1.68-10.71,3.11-15.98,4.91-11.2,3.83-21.68,9.06-31.04,16.42-5.72,4.5-11.15,9.3-15.78,14.93-5.83,7.1-10.24,15.04-13.59,23.58-.3.76-.68,1.48-1.03,2.22-.48-.59-.58-1.01-.6-1.44-.26-6.54-.62-13.08-.72-19.63-.15-9.91-.08-19.83-.19-29.75-.04-3.27-.22-6.54-.54-9.8-.84-8.5-4.48-15.58-11.23-20.9-2.91-2.29-5.95-4.43-9.05-6.46-2.29-1.5-4.21-3.2-5.19-5.82-.67-1.8-.62-3.39.72-4.93,2.16-2.49,2.78-5.47,2.44-8.69-.08-.7-.29-1.39-.38-2.09-.29-2.36-.58-4.72-.82-7.09-.47-4.48-.69-9-1.42-13.44-.73-4.4-4.12-7.08-8.61-7.1-15.75-.05-31.51,0-47.26.02-2.17,0-4.17.6-6.02,1.78-1.29.83-2.06,1.91-2.21,3.43-.22,2.2-.47,4.4-.59,6.6-.31,5.65-.56,11.31-.82,16.96-.17,3.66.17,7.22,1.75,10.63.49,1.05.63,2.4.5,3.57-.29,2.53-1.4,4.79-3.37,6.44-1.75,1.46-3.59,2.89-5.57,3.99-4.91,2.73-9.01,6.26-11.73,11.22-2.47,4.52-3.5,9.45-3.57,14.55-.1,6.99-.01,13.99-.03,20.98-.03,13.9-.09,27.8-.1,41.7,0,2.02-.6,3.79-1.71,5.54-1.99-.32-3.86-.8-5.44-2-2.62-1.97-5.29-3.88-7.76-6.02-6.57-5.69-13.47-10.91-20.99-15.27-2.33-1.35-4.98-2.29-7.6-2.99-2.47-.66-5.01-.33-7.4,1.15.52,1,.98,1.85,1.4,2.72.46.95.96,1.9,1.32,2.89,1,2.79.41,4.65-2.15,6.06-6.52,3.6-13.2,6.88-20.63,8.13-14.9,2.52-29.82,4.95-44.73,7.39-.4.06-.83-.1-1.49-.19-.11-2.54-.32-5-.32-7.46.03-25.5.18-51,.13-76.5-.03-15-6.14-27.26-17.68-36.72-2.92-2.39-6.26-4.32-9.55-6.21-3.5-2.01-5.17-4.82-5.21-8.85-.08-7.7-.31-15.4-.53-23.09-.09-3.27-.24-6.55-.47-9.81-.36-5.02-3.22-7.71-8.23-7.86-.97-.03-1.95.08-2.92.02-2.46-.14-3.52-1.15-3.71-3.6-.09-1.14-.04-2.3-.02-3.45.09-4.6.23-9.2.26-13.8.02-2.65-.27-5.31-.2-7.96.1-3.38,1.26-4.4,4.6-4.36.97,0,1.94.12,2.91.2,3.26.29,6.52.54,9.78.88,6.07.63,12.16,1.11,18.18,2.03,3.73.57,7.38,1.73,11.03,2.77,5.53,1.57,9.74-.25,12.88-5.26,2.75-4.39,2.41-8.74-4.06-10.01-3.03-.6-6.02-1.44-8.98-2.32-9.81-2.92-19.8-4.47-30.04-4.71-10.32-.24-20.47,1.2-30.65,2.43-10.56,1.28-21.01,1.09-31.27-2.04-.93-.28-1.88-.51-2.84-.63-1.83-.23-3.55.2-4.97,1.41-3.36,2.86-3.61,8.66-.34,11.59,1.42,1.27,3.23,2.12,4.92,3.05,2.27,1.24,3.71,2.96,3.71,5.66,0,7.52.03,15.04-.02,22.57-.02,2.8-1.34,4.39-4.06,5.17-.93.27-1.89.48-2.81.78-5.02,1.66-8.1,5.04-8.53,10.38-.58,7.32-.96,14.65-.1,21.99.22,1.84.26,3.71.26,5.56.01,4.43-1.73,8.16-5.07,10.97-2.21,1.87-4.67,3.52-7.21,4.91-3.63,1.99-6.67,4.68-9.49,7.58-6.78,6.96-10.03,15.58-10.72,25.11-.49,6.7-.51,13.44-.54,20.16-.05,9.12.14,18.24.14,27.35.02,40.2,0,80.4,0,120.6,0,.62.09,1.26-.05,1.85-.1.44-.45,1.08-.78,1.15-.38.08-1.04-.28-1.27-.64-1.01-1.56-1.82-3.25-2.85-4.78-1.97-2.92-3.79-6-6.13-8.61-3.26-3.63-5.3-7.75-6.08-12.46-1.53-9.27-.12-18.15,4.09-26.56.95-1.9,1.99-3.75,2.94-5.65,5.19-10.36,7.01-21.45,7-32.92,0-7.8-.6-15.58-2.35-23.19-1.4-6.11-3.24-12.12-5.04-18.13-.38-1.27-.99-2.9-2.6-3.07-1.74-.17-2.67,1.38-3.35,2.64-3.86,7.16-7.87,14.26-11.3,21.62-4.58,9.83-6.59,20.36-6.66,31.18-.07,12.31,2.85,24.03,7.93,35.2,1.67,3.67,2.62,7.5,3.45,11.39.13.62.1,1.57-.28,1.93-.72.68-1.5.05-2.05-.54-2.49-2.63-5.07-5.19-7.39-7.98-3.17-3.82-5.21-8.25-5.71-13.22-.67-6.69-1.31-13.39-1.56-20.1-.37-9.85-1.45-19.57-3.77-29.15-3.06-12.63-8.17-24.33-16.09-34.65-3.65-4.76-7.76-9.19-11.85-13.59-4.88-5.24-9.98-10.3-14.99-15.42-.27-.28-.68-.42-.98-.6-.26.26-.47.36-.49.5-.27,1.48-.52,2.96-.78,4.44-2.94,16.7-4.44,33.49-3.1,50.46.6,7.54,2,14.94,4.51,22.04,4.44,12.59,12.02,23.04,22.84,30.89,6.14,4.45,12.65,8.42,19.09,12.44,5.62,3.5,10.69,7.54,14.48,13.04,1.81,2.62,3.53,5.3,5.38,7.89,7.36,10.29,14.76,20.54,22.14,30.82.55.76,1.04,1.57,1.7,2.57ZM479.63,42.83c-1.41-2.39-2.9-5.21-4.68-7.83-3.73-5.52-9.1-7.56-15.62-6.89-6.12.62-11.05,3.46-15.06,8.05-5.93,6.79-11.87,13.57-17.81,20.34-2.81,3.2-6.2,3.55-9.65,1.03-.29-.21-.55-.44-.83-.66-.28-.22-.58-.41-.84-.64-3.86-3.31-7.69-2.23-10.52.93-3.01,3.35-5.92,6.79-8.88,10.18-3.25,3.73-6.54,7.43-9.76,11.18-2.39,2.78-2.2,4.29.71,6.61.41.33.86.63,1.28.95,2.79,2.17,5.62,4.29,8.36,6.52,2.23,1.82,2.43,3.83.59,5.96-4.69,5.4-9.41,10.78-14.18,16.12-4.48,5.01-9.1,9.89-13.56,14.92-7.57,8.52-15.06,17.12-22.58,25.68-4.03,4.58-8.1,9.12-12.09,13.73-2.91,3.36-5.52,6.99-7.04,11.17-2.47,6.78-5.41,13.23-10.09,18.83-1.86,2.23-1.87,4.55.04,6.81,1.51,1.79,3.36,3.43,5.36,4.62,3.63,2.17,5.98,1.44,8.21-2.17,1.56-2.52,3.44-4.73,5.86-6.42,3.19-2.22,6.45-4.34,9.65-6.54,4.81-3.31,9.65-6.56,13.41-11.16,2.96-3.63,6.08-7.12,9.13-10.67,6.28-7.3,12.62-14.55,18.83-21.91,8.77-10.41,17.43-20.92,26.15-31.36,1.47-1.76,2.93-3.56,4.6-5.13,2.42-2.29,4.39-2.44,7.19-.69,1.65,1.03,3.15,2.29,4.74,3.4,1.52,1.06,3.01,2.2,4.64,3.05,3.37,1.75,5.6,1.28,8.28-1.47.43-.44.87-.88,1.27-1.36,5.15-6.06,10.29-12.13,15.43-18.2,3-3.55,2.93-6.08-.18-9.6-1.17-1.32-2.3-2.68-3.37-4.08-2.11-2.76-2.29-4.7-.25-7.49,2.13-2.92,4.49-5.68,6.87-8.41,3.3-3.8,6.79-7.44,10.06-11.26,3.12-3.64,5.03-7.86,5.51-12.7.1-1.01.48-2,.84-3.43ZM321.87,255.49c7.92,0,13.68-8.1,10.81-15.56-2.06-5.35-4.6-10.52-6.92-15.78-.48-1.09-.99-2.21-2.44-1.98-1.68.27-3.72-.11-4.69,1.82-3.01,6.02-5.8,12.15-7.21,18.77-1.5,7.01,3.28,12.72,10.45,12.73Z"/>
      <path class="cls-1" d="M129.99,382.88c-.66-1-1.15-1.81-1.7-2.57-7.38-10.27-14.78-20.53-22.14-30.82-1.85-2.59-3.58-5.27-5.38-7.89-3.79-5.5-8.87-9.53-14.48-13.04-6.45-4.02-12.95-7.99-19.09-12.44-10.82-7.85-18.4-18.3-22.84-30.89-2.51-7.11-3.91-14.51-4.51-22.04-1.34-16.97.16-33.75,3.1-50.46.26-1.48.5-2.96.78-4.44.03-.14.23-.24.49-.5.3.18.71.32.98.6,5.02,5.12,10.11,10.17,14.99,15.42,4.1,4.4,8.2,8.83,11.85,13.59,7.92,10.32,13.04,22.02,16.09,34.65,2.32,9.58,3.41,19.3,3.77,29.15.25,6.71.89,13.41,1.56,20.1.49,4.96,2.53,9.4,5.71,13.22,2.31,2.78,4.9,5.34,7.39,7.98.55.58,1.33,1.22,2.05.54.38-.36.41-1.31.28-1.93-.82-3.89-1.78-7.72-3.45-11.39-5.07-11.17-8-22.89-7.93-35.2.06-10.82,2.08-21.35,6.66-31.18,3.43-7.37,7.44-14.46,11.3-21.62.68-1.26,1.61-2.81,3.35-2.64,1.61.16,2.22,1.8,2.6,3.07,1.8,6.01,3.63,12.02,5.04,18.13,1.74,7.61,2.34,15.39,2.35,23.19,0,11.46-1.81,22.55-7,32.92-.95,1.9-1.99,3.75-2.94,5.65-4.2,8.41-5.62,17.29-4.09,26.56.78,4.71,2.82,8.83,6.08,12.46,2.34,2.6,4.16,5.68,6.13,8.61,1.03,1.54,1.85,3.22,2.85,4.78.23.36.9.72,1.27.64.34-.07.68-.71.78-1.15.14-.59.05-1.23.05-1.85,0-40.2.01-80.4,0-120.6,0-9.12-.19-18.24-.14-27.35.03-6.72.05-13.46.54-20.16.69-9.53,3.95-18.15,10.72-25.11,2.83-2.9,5.86-5.59,9.49-7.58,2.54-1.39,4.99-3.05,7.21-4.91,3.33-2.81,5.08-6.54,5.07-10.97,0-1.86-.04-3.72-.26-5.56-.86-7.34-.48-14.67.1-21.99.42-5.34,3.51-8.71,8.53-10.38.92-.31,1.88-.51,2.81-.78,2.72-.78,4.04-2.36,4.06-5.17.05-7.52.02-15.04.02-22.57,0-2.7-1.44-4.42-3.71-5.66-1.7-.93-3.51-1.78-4.92-3.05-3.27-2.93-3.02-8.73.34-11.59,1.42-1.21,3.13-1.64,4.97-1.41.96.12,1.91.35,2.84.63,10.27,3.13,20.72,3.32,31.27,2.04,10.18-1.24,20.34-2.67,30.65-2.43,10.24.24,20.24,1.79,30.04,4.71,2.96.88,5.95,1.73,8.98,2.32,6.47,1.27,6.82,5.63,4.06,10.01-3.14,5-7.35,6.82-12.88,5.26-3.65-1.03-7.3-2.2-11.03-2.77-6.03-.91-12.12-1.4-18.18-2.03-3.25-.34-6.52-.59-9.78-.88-.97-.08-1.94-.19-2.91-.2-3.34-.03-4.51.99-4.6,4.36-.07,2.65.22,5.31.2,7.96-.03,4.6-.18,9.2-.26,13.8-.02,1.15-.07,2.31.02,3.45.19,2.45,1.25,3.46,3.71,3.6.97.05,1.95-.05,2.92-.02,5.01.15,7.87,2.84,8.23,7.86.23,3.26.38,6.54.47,9.81.22,7.7.44,15.39.53,23.09.04,4.03,1.71,6.85,5.21,8.85,3.29,1.89,6.63,3.81,9.55,6.21,11.54,9.47,17.65,21.72,17.68,36.72.05,25.5-.1,51-.13,76.5,0,2.46.2,4.92.32,7.46.66.09,1.1.25,1.49.19,14.91-2.45,29.83-4.88,44.73-7.39,7.43-1.26,14.11-4.54,20.63-8.13,2.56-1.41,3.15-3.28,2.15-6.06-.36-.99-.86-1.94-1.32-2.89-.42-.87-.88-1.72-1.4-2.72,2.38-1.48,4.93-1.82,7.4-1.15,2.62.7,5.27,1.64,7.6,2.99,7.51,4.36,14.42,9.59,20.99,15.27,2.47,2.14,5.14,4.05,7.76,6.02,1.59,1.19,3.45,1.67,5.44,2,1.12-1.74,1.71-3.51,1.71-5.54.01-13.9.07-27.8.1-41.7.02-6.99-.08-13.99.03-20.98.08-5.1,1.1-10.03,3.57-14.55,2.71-4.96,6.82-8.49,11.73-11.22,1.99-1.11,3.82-2.53,5.57-3.99,1.97-1.65,3.08-3.91,3.37-6.44.13-1.16,0-2.52-.5-3.57-1.58-3.41-1.92-6.96-1.75-10.63.27-5.66.51-11.31.82-16.96.12-2.2.38-4.4.59-6.6.15-1.51.92-2.6,2.21-3.43,1.85-1.19,3.85-1.78,6.02-1.78,15.75-.02,31.51-.06,47.26-.02,4.49.01,7.88,2.69,8.61,7.1.73,4.44.95,8.96,1.42,13.44.25,2.37.53,4.73.82,7.09.09.7.3,1.39.38,2.09.34,3.22-.28,6.2-2.44,8.69-1.34,1.54-1.39,3.13-.72,4.93.98,2.63,2.9,4.32,5.19,5.82,3.1,2.03,6.14,4.17,9.05,6.46,6.75,5.31,10.39,12.39,11.23,20.9.32,3.25.5,6.53.54,9.8.11,9.92.04,19.83.19,29.75.1,6.55.47,13.09.72,19.63.02.43.11.86.6,1.44.34-.74.73-1.46,1.03-2.22,3.35-8.54,7.76-16.48,13.59-23.58,4.63-5.63,10.05-10.43,15.78-14.93,9.36-7.36,19.84-12.59,31.04-16.42,5.27-1.8,10.66-3.23,15.98-4.91,4.04-1.28,8.03-2.73,12.07-4.03,1.5-.49,3.06-.84,4.61-1.12,1.78-.32,3.41,1.28,2.41,3.18-.45.85-.73,1.8-1.18,2.66-6.55,12.54-10.17,25.98-12.36,39.87-1.43,9.08-2.64,18.2-4.25,27.25-.63,3.54-1.84,7.02-3.16,10.38-4.28,10.86-10.65,20.29-19.47,28.06-7.7,6.79-16.66,10.9-26.51,13.3-4.46,1.09-9,1.9-13.43,3.1-2.45.67-4.81,1.78-7.12,2.86-3.84,1.8-6.54,4.81-8.27,8.63-2.24,4.96-2.43,10.2-1.97,16.05,1.12-.76,1.91-1.24,2.66-1.8,2.77-2.06,5.53-4.12,8.28-6.21,7.79-5.9,16.66-9.6,25.78-12.85,5.61-2,11.35-3.33,17.25-4.02,11.85-1.38,23.46-.46,34.8,3.44,4.43,1.52,8.98,2.71,13.44,4.12,5.87,1.85,11.33,4.53,16.25,8.26,3.47,2.62,7.56,3.78,11.6,5.07,1.35.43,2.69.92,4.06,1.24,3.93.92,6.21,3.78,8.58,7.02-1.31.66-2.47,1.25-3.64,1.83-7.15,3.51-14.44,6.76-21.41,10.6-5.4,2.97-10.44,6.63-15.59,10.05-6.34,4.22-12.75,8.32-19.68,11.53-7.01,3.25-14.23,5.92-21.95,6.79-10.89,1.23-21.75,1.01-32.37-2.02-8.07-2.3-16.05-4.92-24.08-7.4-.92-.28-1.83-.59-3-.96-.61,2.56-1.18,4.94-1.76,7.33-.58,2.41-1.08,4.84-1.74,7.22-1.42,5.11-4.75,8.48-9.84,9.82-2.63.69-5.4,1.02-8.12,1.12-8.84.33-17.69.49-26.53.72-4.25.11-8.49.3-12.74.35-3.09.04-6.19-.01-9.29-.15-3.64-.16-6.34,1.21-8.05,4.47-2.25,4.3-5.86,6.77-10.56,7.67-8.6,1.64-17.25,3.03-26.01,3.43-7.95.36-15.92.54-23.88.67-17.17.28-34.33.64-51.5.67-11.5.02-22.99-.48-34.44-1.74-9.23-1.01-18.48-1.83-27.7-2.84-2.36-.26-4.72-.78-7-1.46-4.34-1.3-7.74-3.89-9.64-8.11-.85-1.9-2.21-2.94-4.19-3.2-1.4-.18-2.81-.35-4.22-.34-19.56.14-39.12.41-58.68.4-5.2,0-10.39-.83-15.59-1.32-2.02-.19-4.06-.37-6.05-.75-8.76-1.68-16.49-9.48-16.01-19.62.22-4.59.42-9.18.45-13.77.03-4.76-1.51-7.01-6.15-7.78-1.04-.17-2.11-.25-3.17-.23-8.05.14-16.1.47-24.15.45-14.84-.04-27.73-5.15-38.23-15.71-4.75-4.77-8.61-10.29-12.04-16.11-3.82-6.47-7.76-12.88-11.65-19.31-.27-.45-.7-.87-.81-1.35-.12-.53-.12-1.23.14-1.66.19-.31.92-.47,1.37-.41.78.11,1.53.42,2.29.67,13.27,4.42,26.58,8.72,39.79,13.31,6.47,2.25,12.31,5.83,17.55,10.25,5.88,4.95,11.63,10.06,17.43,15.11,3.67,3.19,7.33,6.39,10.98,9.6,1.18,1.03,2.48,1.57,4.44,1.29ZM585.14,222.4c-.85.21-1.73.36-2.55.64-3.59,1.24-7.2,2.45-10.75,3.81-10.68,4.07-21.11,8.59-30.53,15.25-8.37,5.92-15.98,12.55-21.81,21.08-4.32,6.33-7.75,13.06-10.07,20.38-3.48,11-4.45,22.34-4.65,33.77-.11,6.01.24,12.03.46,18.04.08,2.33.38,4.64.62,7.4.67-.85,1.08-1.29,1.4-1.78,2.43-3.69,4.78-7.45,7.3-11.08,1.81-2.6,2.51-5.35,2.35-8.49-.47-9.54-.8-19.09-1.2-28.63-.1-2.47-.43-4.95-.34-7.41.1-2.72.53-5.44.92-8.14.06-.39.66-.71,1.01-1.06.21.08.42.16.63.24.72,13.25,1.44,26.51,2.18,40.25.55-.66.8-.88.95-1.15,3.74-7.13,7.52-14.24,11.14-21.43.85-1.7,1.42-3.67,1.6-5.57.5-5.19.77-10.4,1.05-15.6.32-5.92.86-11.81,2.22-17.6.53-2.24,1.08-4.47,1.65-6.7.23-.91.69-1.41,1.76-.68-.39,4.04-.78,8.07-1.16,12.11-.57,5.98-1.14,11.96-1.65,17.95-.04.42.36.88.55,1.32.49-.23,1.14-.34,1.44-.72.42-.54.62-1.26.85-1.93.97-2.79,2.48-5.24,4.43-7.48,4.59-5.25,8.1-11.2,10.48-17.72,1.45-3.96,2.33-8.14,3.29-12.26.8-3.43,3.23-5.16,6.66-4.26-1.48,5.3-4.21,10.16-5.78,15.56,2,.19,2.86-.99,3.76-2.04,5.95-6.9,11.9-13.8,17.82-20.71,1.43-1.67,2.79-3.41,4.18-5.11.1-.1.2-.2.31-.31-.18.02-.37.04-.55.07ZM249.69,335.57c0-1.14,0-2.02,0-2.89,0-6.64,0-13.28,0-19.92,0-4.8,1.52-6.52,6.28-7.15.61-.08,1.26,0,1.85-.16,1.1-.28,2.21-.58,3.24-1.04,4.27-1.93,6.5-5.29,6.8-9.95.07-1.14.25-2.29.24-3.43-.06-7.25-.2-14.51-.23-21.76-.06-15.93-.08-31.87-.09-47.8,0-4.43.06-8.85.08-13.28.04-8.49-2.31-16.22-7.37-23.08-3.88-5.26-8.7-9.54-14.08-13.16-3.99-2.69-8.4-4.59-13.27-5.03-3.61-.32-7.24-.48-10.86-.54-13.62-.21-27.25-.37-40.87-.51-4.55-.05-8.96.81-13.24,2.37-8.91,3.24-16.01,8.95-21.86,16.26-5.85,7.3-8.7,15.74-8.62,25.09.07,7.96.43,15.92.44,23.88.03,25.41-.06,50.81-.08,76.22-.03,32.4-.03,64.8-.04,97.2,0,1.15-.03,2.31.05,3.45.49,7.12,5.84,12.73,12.65,13.11,6.88.39,13.77.7,20.67.92,9.28.29,18.57.46,27.86.68,2.65.06,5.31.15,7.96.19,7.87.13,15.74.32,23.61.34,2.74.01,3.75-1.05,4.26-3.78.15-.77.17-1.58.16-2.37-.08-3.8-.21-7.6-.29-11.4-.19-9.38-.38-18.75-.52-28.13-.08-5.28-.71-5.95-6-5.96-15.05-.03-30.09,0-45.14-.13-3.96-.03-7.94-.44-11.88-.88-3.85-.43-5.56-2.45-5.75-6.36-.04-.88-.02-1.77-.02-2.66,0-27.35,0-54.71,0-82.06,0-6.2,0-12.39-.05-18.59-.08-9.47-.29-18.93-.28-28.4,0-4.32,1.77-5.91,6.04-5.94,4.07-.03,8.14.06,12.21.05,16.73-.01,33.45-.02,50.18-.09,3.86-.02,6.62.51,6.79,6.66.01.53,0,1.06,0,1.59-.11,9.11-.3,18.22-.32,27.34-.05,21.51-.03,43.02,0,64.54,0,2.61.35,5.22.56,8.11,3.06-.52,5.82-1,8.93-1.53ZM425.49,367.78c0-3.98.07-7.97-.03-11.95-.06-2.47-.25-4.95-.63-7.38-.69-4.43-3.37-7.06-7.75-7.98-4.57-.96-9.18-.52-13.76-.3-10.5.51-20.99,1.37-31.49,1.83-8.83.39-17.68.55-26.53.57-24.58.06-49.18.71-73.72-1.57-3.43-.32-6.86-.68-10.3-.83-3.89-.17-7.79-.33-11.67-.12-4.83.26-9.05,2.58-9.64,8.99-.15,1.58-.41,3.16-.41,4.74-.04,22.04-.06,44.08-.04,66.12,0,2.29.3,4.58.47,6.87.36,4.91,3.3,7.59,7.74,8.97,7.23,2.24,14.69,3.03,22.19,3.56,7.76.55,15.51,1.2,23.28,1.53,11.84.49,23.68.83,35.53,1.05,6.63.12,13.27-.05,19.89-.23,12.73-.35,25.46-.65,38.18-1.26,10.25-.49,20.34-2.34,30.43-4.13,3.6-.64,5.68-2.73,5.98-6.32.63-7.4,1.17-14.8,1.74-22.2.49-6.34.97-12.68,1.42-19.03.08-1.05.42-2.44-.09-3.09-1.04-1.32-.76-2.66-.77-4.02-.04-4.6-.02-9.21-.02-13.81ZM402.16,298.35c.49-4.89,1.28-9.7,1.38-14.52.24-11.68.15-23.37.18-35.05.02-5.8,1.4-7.17,7.22-7.15,12.13.05,24.25.13,36.38.13,12.57,0,25.14-.07,37.71-.1,5.27,0,6.73,1.46,6.79,6.81.03,2.39-.03,4.78-.03,7.17.01,37.01,0,74.02.06,111.03,0,5.66-1.57,8.44-8.41,8.39-15.76-.12-31.51-.05-47.27-.05-.88,0-1.78-.04-2.65.07-1.97.25-3,1.28-3.27,3.25-.11.78-.08,1.59-.07,2.39.03,6.2.09,12.39.1,18.59,0,6.99-.07,13.99-.04,20.98.01,3.72,1.09,4.77,4.75,4.76,15.85-.03,31.69-.06,47.54-.16,2.02-.01,4.09-.22,6.04-.71,6.01-1.52,9.91-6.48,10.2-13.03.19-4.23.14-8.48.15-12.71.02-13.55,0-27.09,0-40.64,0-42.68,0-85.36.01-128.04,0-4.46-.42-8.84-1.8-13.09-2.55-7.86-7.7-13.66-14.65-17.88-3.15-1.91-5.45-4.48-7.14-7.64-1.13-2.1-2.12-4.28-3.15-6.44-1.35-2.86-2.69-3.65-5.84-3.42-1.5.11-3,.19-4.5.2-11.15.05-22.31.09-33.46.13-.62,0-1.25-.03-1.86.06-2.13.31-3.99,2.07-4.18,4.18-.32,3.62-1.76,6.73-4.48,9.05-4.36,3.72-8.78,7.4-13.4,10.8-3.27,2.41-5.82,5.2-6.76,9.17-.48,2.05-.77,4.18-.83,6.29-.25,8.31-.46,16.63-.53,24.95-.12,13.72-.05,27.45-.23,41.17-.06,4.19,1.63,7.68,3.33,11.4.87-.11,1.63-.2,2.7-.33ZM488.69,307.59c0-.71,0-1.42,0-2.12.04-15.75.08-31.51.11-47.26,0-3.1.05-6.2-.11-9.29-.14-2.73-1.5-3.93-4.21-4.09-.62-.04-1.24-.03-1.85-.01-4.15.14-8.31.36-12.46.44-10.52.21-21.05.44-31.57.52-10.09.07-20.17-.04-30.26-.06-2.66,0-3.04.4-3.11,3.04,0,.35.01.71.02,1.06.3,9.19.61,18.39.91,27.58.24,7.25.45,14.5.7,21.75.11,3.31,1.34,4.99,4.53,5.99,2.92.92,4.33,2.89,4.5,5.86.05.88.07,1.77.07,2.65,0,5.31,0,10.62,0,15.93,0,.53-.02,1.06,0,1.59.11,3.06,1.1,4.31,4.01,5.1.43.12.86.22,1.28.34,4.66,1.38,7.64,4.36,8.47,9.21.34,1.99.45,4.03.48,6.06.05,4.42,0,8.85-.04,13.27-.04,5.63.71,6.39,6.42,6.35,1.95-.01,3.89-.09,5.84-.09,13.27,0,26.55,0,39.82,0,.8,0,1.6.03,2.39-.07,1.82-.23,3.2-1.11,3.59-3.01.26-1.29.45-2.61.45-3.92.03-18.94.02-37.88.02-56.82ZM169.95,300.42c0,20.98.04,41.96-.03,62.94-.01,4.29,1.81,6.67,6.57,6.62,6.19-.07,12.38.2,18.57.19,11.33-.02,22.65-.14,33.98-.23,3.04-.02,4.9-1.76,5.23-4.8.24-2.2.52-4.39.7-6.59.63-7.75,1.7-15.5,1.75-23.26.21-32.22.1-64.44.11-96.66,0-5.61-1.47-7.08-7.08-7.06-16.99.05-33.98.1-50.98.18-1.68,0-3.36.13-5.03.33-2.16.27-3.18,1.2-3.58,3.31-.21,1.12-.21,2.29-.21,3.43-.01,20.54,0,41.07,0,61.61ZM579.83,392.29c-3.29-1.48-6.26-2.82-9.24-4.15-6.38-2.85-12.71-5.81-19.15-8.52-5.1-2.15-10.5-2.61-15.88-1.42-3.61.8-7.09,2.14-10.64,3.21-2.19.66-4.02,1.8-5.35,3.7-.82,1.17-1.95,1.56-3.38,1.73-2.44.29-4.9.73-7.25,1.46-3.1.96-4.32,3.69-4.66,6.55-.31,2.58,1.78,4.07,3.74,5.36.59.39,1.24.69,1.91.93,4.66,1.66,9.28,3.47,14.01,4.89,13.17,3.97,26.58,5.81,40.34,4.15,9.16-1.11,17.82-3.82,25.81-8.41,7.13-4.09,14.13-8.41,21.12-12.75,8.57-5.32,17.06-10.76,25.58-16.17.54-.35,1.03-.79,1.65-1.27-1.76-1-3.25-1.93-4.82-2.72-6.16-3.11-12.33-6.21-18.52-9.26-6.85-3.37-13.92-6.18-21.41-7.72-5.7-1.18-11.46-2.19-17.23-2.94-7.66-1-15.38-.87-23.02.22-14.55,2.07-27.42,7.99-38.77,17.3-4.49,3.68-7.84,8.16-9.24,13.9-.27,1.12-.31,2.29-.45,3.44.22.1.43.19.65.29,2.47-2.62,4.96-5.2,7.39-7.85,2.81-3.06,5.51-6.22,8.36-9.25,1.36-1.44,2.93-2.68,4.74-3.52.15.14.3.27.45.41-4.08,5.57-8.17,11.14-12.6,17.19,1.1-.27,1.52-.36,1.94-.48,5.85-1.74,11.68-3.54,17.55-5.19,2.21-.62,4.05-1.7,5.65-3.29,2.7-2.68,5.39-5.37,8.16-7.99,5.09-4.82,10.25-9.56,17.25-11.52.41-.11.84-.16,1.76-.32-.68.59-.94.82-1.21,1.04-6.26,5.06-12.53,10.12-18.78,15.2-.84.68-1.56,1.51-2.34,2.26,1.85.36,3.41.18,4.97.15,7.21-.11,14.21-1.65,21.22-3.07,6.14-1.24,11.65-4.13,17.26-6.75,3.34-1.56,6.68-3.14,10.02-4.72.68,1.63.71,1.69-.5,2.38-2.46,1.4-4.96,2.73-7.44,4.11-1.98,1.1-3.95,2.23-6.31,3.56,1.35.24,2.21.46,3.07.54,4.58.39,9.16.73,13.74,1.13,6.69.58,13.38,1.19,20.07,1.78,2.02.18,4.05.33,6.08.5,1.05.09,1.98.32,1.35,2.07-12.34-.75-24.74-1.51-37.09-2.26-.59,1.73.58,1.88,1.42,2.22,5.26,2.1,10.51,4.2,15.79,6.25,1.25.48,2.12.99,1.14,2.63-.79-.27-1.61-.54-2.42-.83-3.83-1.37-7.62-2.86-11.49-4.11-10.69-3.46-21.57-5.64-32.88-3.96-3.74.56-7.44,1.3-11.51,3.03,10.37,4.96,20.29,9.71,30.29,14.49-.31.81-.52,1.36-.9,2.36ZM574.62,269.6c.84,1.07,1,1.76,0,2.26-.55.27-1.13.5-1.72.71-7.09,2.58-13.77,6.06-20.33,9.73-3.85,2.15-7.58,4.56-11.17,7.13-4.43,3.18-7.62,7.46-9.11,12.73-1.01,3.56-2.52,6.77-4.59,9.79-.57.83-1.46,1.72-.56,2.86.99,1.25,1.97.25,2.82-.17,6.83-3.35,13.63-6.75,20.42-10.18,2.74-1.38,6.78-2.52,8.91-2.34-5.12,3.79-10.74,6.54-16.39,9.28-4.53,2.2-9.03,4.5-13.35,7.1-6.47,3.89-10.81,9.57-12.93,16.87-.28.95-.32,1.96-.51,3.2,1.2-.17,1.98-.23,2.74-.38,3.03-.62,6.07-1.21,9.08-1.92,9.6-2.25,18.93-5.12,27.01-11.14,4.66-3.47,8.77-7.39,12.14-12.15,3.03-4.28,5.5-8.87,7.73-13.6,3.84-8.15,6.16-16.75,7.28-25.67.98-7.81,1.65-15.65,2.71-23.44,1.14-8.37,3.3-16.47,7.25-24.01.3-.57.47-1.22.71-1.86-2.02-.63-3.26.39-4.47,1.45-2.93,2.57-5.85,5.14-8.76,7.73-4.83,4.32-9.3,8.96-13.03,14.29-.2.29-.54.53-.63.85-.13.46-.29,1.11-.07,1.41.23.3.94.45,1.37.35,3.62-.83,7.22-1.75,10.83-2.61,1.92-.46,1.94-.41,2.5,2.1-1.15.08-2.27.12-3.38.23-8.62.84-15.62,4.65-21.12,11.35-5.14,6.26-9.01,13.33-13.28,20.15-.24.38-.28.87-.5,1.57,10.98-4.63,21.63-9.12,32.38-13.65ZM88.8,315.49c-.31-1.18-.6-2.01-.75-2.86-.34-1.91-.77-3.82-.88-5.74-.26-4.68-.28-9.37-.53-14.05-.45-8.68-1.86-17.21-4.29-25.56-4.21-14.46-11.42-27.17-22.1-37.84-3.82-3.82-7.69-7.57-11.52-11.38-1.41-1.4-1.38-1.43-3.54-.27-.02.32-.07.67-.07,1.02-.04,11.5-.14,23.01-.08,34.51.04,7.69-.16,15.39,1.1,23.03,2.26,13.68,9.11,24.72,19.21,33.95,5.22,4.77,11.49,7.91,17.54,11.38.25.14.58.13.96.21,0-.5.06-.77,0-1-1.81-5.63-4.4-10.85-8.56-15.1-2.59-2.64-5.57-4.87-8.26-7.42-4.11-3.9-8.24-7.76-13.21-10.58-.31-.17-.62-.36-.87-.6-.18-.17-.26-.44-.46-.8.48-.44.96-.88,1.5-1.38.6.52,1.08.9,1.53,1.32,4.51,4.25,9.04,8.46,13.49,12.77,1.32,1.28,2.57,1.59,4.25.64-.21-.53-.34-.94-.53-1.33-6.31-13.42-10.88-27.43-13.99-41.92-.17-.78-.39-1.57-.36-2.35.01-.43.47-.85,1.07-1.84,4.56,13.61,8.91,26.55,13.26,39.53,3.24-.28,2.08-3.48,3.8-4.79.3.87.62,1.66.84,2.49,1.34,5.04,2.52,10.12,4.01,15.12.85,2.86,2.08,5.62,3.33,8.35.67,1.47,1.91,2.5,4.12,2.51ZM173.15,122.38c-1.63,2.74-2.77,5.6-2.74,8.95.07,8.05-.06,16.11-.11,24.17-.03,5.04.55,5.64,5.64,5.63,14.25-.03,28.5-.08,42.75-.13,4.07-.01,8.14-.03,12.21-.12,3.24-.07,4.41-1.27,4.54-4.46.07-1.59.24-3.18.24-4.76.04-6.55.05-13.1.03-19.65,0-1.85-.21-3.71-.21-5.56,0-2.27-1.47-3.39-3.32-4.67,1.44,10.78,1.25,21.22-.92,31.59-.36-5.84-.5-11.68-.73-17.51-.09-2.29-.21-4.61-.65-6.85-.73-3.69-2.84-6.26-6.74-6.93-1.56-.27-3.15-.49-4.73-.49-11.06-.03-22.13,0-33.19.03-1.32,0-2.67.03-3.96.26-2.14.38-3.01,1.39-3.3,3.57-.12.87-.11,1.77-.12,2.65-.04,6.9-.06,13.81-.1,20.71,0,.71.04,1.43-.12,2.11-.08.32-.61.76-.9.73-.43-.05-1.05-.38-1.16-.74-.21-.65-.13-1.4-.13-2.1,0-8.06,0-16.11-.01-24.17,0-2.08-.05-2.08-2.27-2.25ZM347.32,270.58c.5,2.14.86,3.58,1.18,5.03.59,2.72-.37,4.91-2.53,6.52-1.12.83-2.4,1.5-3.69,2.02-2.21.89-4.49,1.61-6.74,2.4-8.51,2.99-17.02,6.01-25.91,7.68-8.42,1.58-16.88,2.94-25.34,4.32-4.29.7-8.55,1.41-12.26,3.92-1.48,1.01-1.52.94-.54,2.98h2.85c39.56,0,79.12,0,118.67,0,.44,0,.89-.04,1.33,0,1.53.15,2.35-.46,2.34-2.29-5.21-3.79-10.36-7.88-16.08-11.78-.16,1.45-.27,2.48-.38,3.51-2.27-4.89-6.17-7.87-10.37-10.6-3.11-2.02-6.16-4.14-9.2-6.26-4.07-2.83-8.54-4.91-13.33-7.46ZM311.6,316.12c-.18,2.07-1.58,2.03-2.76,2.07-2.56.08-5.13.03-7.7.03-13.36-.02-26.72-.02-40.08-.09-2.05-.01-3.71.62-5.26,2.1,2.13,2.15,4.25,3.46,7.34,3.21,5.9-.48,11.82-.65,17.73-.89,9.27-.38,18.55-.71,27.82-1.06,9.63-.36,19.26-.71,28.88-1.07,9.01-.34,18.02-.69,27.02-1.06,8.39-.34,16.78-.6,25.16-1.12,5.37-.34,10.72-1.04,16.06-1.7.87-.11,1.85-.67,2.46-1.33.93-1,1.57-2.27,2.38-3.51-2.63-1.3-4.94-1.99-7.67-1.62-3.4.47-6.87.59-10.31.59-8.49,0-16.97-.23-25.46-.24-35.3-.06-70.61-.09-105.91-.08-2.36,0-4.72.37-7.24.57-.07.93-.12,1.68-.18,2.47,3.97,1.33,7.83,2.06,11.85,2.07,13.36.03,26.72.07,40.08.17,1.91.01,3.81.31,5.77.49ZM44.27,338.96c.26,1.21.29,1.84.53,2.38,1.26,2.92,2.41,5.9,3.9,8.7,4.34,8.15,10.3,15.03,17.42,20.82,9.11,7.41,19.41,12.16,31.36,12.88,5.58.34,10.9-.5,16.07-2.53.42-.17.76-.54,1.36-.99-.66-.21-.97-.33-1.29-.42-6.19-1.55-12.46-2.46-18.86-2.59-3.35-.07-6.71-.28-10.05-.54-1.9-.15-3.74-.63-5.13-2.85,5.87.33,11.33.64,16.78.95.05-.18.11-.36.16-.54-10.58-6.08-21.16-12.17-31.76-18.26.78-1.81,1.78-1.08,2.69-.64,7.17,3.45,14.35,6.89,21.49,10.38,2.93,1.43,5.79,3.04,8.71,4.5,2.43,1.21,4.9,2.33,7.24,3.44,1.53-1.18,1.7-2.41.78-3.66-1.14-1.56-2.26-3.19-3.68-4.48-2.09-1.89-4.37-3.59-6.69-5.21-6.54-4.58-13.64-8.15-20.74-11.76-7.05-3.58-14.38-6.36-22.04-8.24-2.54-.62-5.17-.86-8.26-1.36ZM410.47,319.79c-1.23,0-2.19-.06-3.14,0-4.84.34-9.69.72-14.53,1.08-5.28.39-10.57.72-15.85,1.18-9.32.82-18.64,1.72-27.96,2.58-4.22.39-8.47.59-12.65,1.2-6.58.96-13.19,1.14-19.81,1.31-5.57.15-11.15.09-16.72.09-12.74,0-25.48-.04-38.22-.05-.88,0-1.78-.01-2.65.1-1.25.17-2.19.86-2.4,2.14-.62,3.87.23,5.94,4.33,6.21,4.58.3,9.18.52,13.77.54,18.75.08,37.51.07,56.26.09.78,0,1.56-.07,2.48-.11-.38-1.57-.72-2.98-1.1-4.53,1.44-.28,2.55-.61,3.68-.69,3.88-.26,7.76-.44,11.64-.63,9.44-.47,18.88-1,28.33-1.38,8.39-.34,16.79-.49,25.19-.75,1.68-.05,3.35-.2,5.02-.4,2.38-.28,3.88-1.48,4.27-3.7.24-1.34.04-2.75.04-4.31ZM116.85,247.83c-.7,1.08-1.3,1.84-1.73,2.69-2.28,4.49-4.77,8.89-6.72,13.52-5.37,12.7-8.3,25.9-6.93,39.79.55,5.6,1.98,10.96,5.13,15.72.3.46.75.82,1.47,1.6,1.47-15.21,2.9-29.93,4.34-44.83.99.05,1.73.09,2.63.13-.95,16.09-1.9,31.97-2.86,48.26,15.84-18.5,18.5-56.36,4.69-76.87ZM191.58,108.3c-.14.02-.27.05-.41.07-.14-.28-.37-.56-.4-.86-.22-2.11-.49-4.22-.56-6.33-.11-3.1.01-6.2-.14-9.29-.11-2.18-.33-4.39-1.47-6.58-.84.13-1.66.25-2.63.39,0,1.01,0,1.8,0,2.58,0,6.11,0,12.22,0,18.33,0,1.77.02,3.54.12,5.31.24,3.94,1.82,4.58,4.76,4.76,7.59.47,15.18.84,22.78,1.09,3.98.13,6.16-1.99,6.2-5.92.09-7.52-.08-15.05.12-22.57.07-2.8-2.49-5.21-5.22-5.05-6.97.4-13.96.57-20.94.86-.67.03-1.34.29-2.23.49v22.71ZM280.97,81.96c-1.13-1.66-1.97-3.26-3.99-3.84-11.16-3.24-22.51-5.49-34.13-5.83-6.7-.2-13.43.12-20.14.42-5.11.22-10.21,1.05-15.32,1.11-9.99.12-19.94-.7-29.85-2-2.06-.27-2.92.31-3.46,2.33-.77,2.94.5,4.81,3.68,5.02,6.61.43,13.23.96,19.85,1.03,7.51.08,15.02-.41,22.54-.43,8.04-.02,16.1.02,24.12.43,5.72.3,11.42,1.11,17.09,1.98,4.18.64,8.29,1.77,12.44,2.62,1.26.26,2.59.85,3.82-.11,1.1-.86,2.17-1.76,3.34-2.72ZM409.02,332.87c-1.8-1.69-3.56-2.82-6.04-2.38-1.56.27-3.16.32-4.75.39-8.91.38-17.82.76-26.74,1.08-8.03.29-16.06.55-24.03,1.7-3.56.51-7.11,1.11-11.09,1.73.48.79.66,1.46,1.07,1.66.68.34,1.52.55,2.28.53,8.03-.19,16.07-.47,24.1-.67,9.8-.25,19.61-.43,29.42-.68,3.62-.09,7.23-.32,10.85-.4,2.14-.05,3.69-.97,4.93-2.95ZM419.06,151.91c2.77,2.45,2.76,2.48,5.97,2.8,1.75.17,3.52.31,5.28.28,6.52-.11,13.05-.37,19.57-.45,6.37-.08,12.74-.05,19.1-.01,2.28.01,4.04-.82,5.36-2.63-1.67-2.31-3.71-3.42-6.45-3.17-.96.09-1.94-.03-2.92-.03-12.83.04-25.65.14-38.48.07-2.97-.02-5.29.97-7.45,3.14ZM420.68,167.94c.36,1.92,1.79,1.51,2.93,1.51,15.92.01,31.84.01,47.75,0,.69,0,1.37-.1,1.98-.15.89-2.02.38-2.54-1.33-3.08-1.41-.45-2.9-.87-4.36-.88-13.44-.07-26.88-.02-40.32-.1-2.67-.02-4.72,1.04-6.65,2.69ZM474.27,177.37c.04-.18.09-.37.13-.55-2.27-1.3-4.8-2.17-7.34-2.54-4.97-.72-9.99-1.37-15-1.48-6.61-.15-13.25.14-19.86.46-4.23.21-8.43.82-12.41,2.43-.81.33-1.89.37-2.11,1.67h56.59ZM419.38,160.83l.15.45h55.57c.06-.17.12-.35.18-.52-.9-.41-1.76-1-2.71-1.21-3.01-.65-6.03-1.39-9.09-1.69-10.48-1.04-20.99-.97-31.47.03-3.06.29-6.1.95-9.12,1.58-1.21.25-2.35.89-3.52,1.35Z"/>
      <path class="cls-1" d="M479.63,42.83c-.36,1.43-.74,2.42-.84,3.43-.48,4.83-2.39,9.06-5.51,12.7-3.28,3.82-6.76,7.46-10.06,11.26-2.38,2.73-4.73,5.49-6.87,8.41-2.04,2.79-1.86,4.73.25,7.49,1.07,1.4,2.2,2.76,3.37,4.08,3.11,3.52,3.19,6.05.18,9.6-5.14,6.07-10.28,12.14-15.43,18.2-.4.47-.84.91-1.27,1.36-2.67,2.75-4.9,3.22-8.28,1.47-1.64-.85-3.12-1.99-4.64-3.05-1.6-1.11-3.1-2.37-4.74-3.4-2.8-1.75-4.77-1.6-7.19.69-1.66,1.57-3.13,3.37-4.6,5.13-8.72,10.45-17.38,20.95-26.15,31.36-6.2,7.37-12.55,14.61-18.83,21.91-3.05,3.55-6.17,7.05-9.13,10.67-3.75,4.6-8.6,7.85-13.41,11.16-3.2,2.2-6.46,4.32-9.65,6.54-2.42,1.69-4.3,3.9-5.86,6.42-2.24,3.61-4.59,4.34-8.21,2.17-2-1.2-3.85-2.84-5.36-4.62-1.91-2.25-1.9-4.58-.04-6.81,4.67-5.6,7.62-12.05,10.09-18.83,1.52-4.18,4.13-7.81,7.04-11.17,3.99-4.61,8.07-9.15,12.09-13.73,7.53-8.56,15.02-17.15,22.58-25.68,4.46-5.02,9.08-9.91,13.56-14.92,4.77-5.33,9.49-10.71,14.18-16.12,1.85-2.13,1.65-4.15-.59-5.96-2.74-2.23-5.57-4.35-8.36-6.52-.42-.33-.86-.62-1.28-.95-2.9-2.32-3.09-3.83-.71-6.61,3.22-3.76,6.51-7.46,9.76-11.18,2.96-3.39,5.87-6.83,8.88-10.18,2.83-3.15,6.66-4.24,10.52-.93.27.23.56.43.84.64.28.22.55.45.83.66,3.45,2.52,6.85,2.17,9.65-1.03,5.95-6.77,11.89-13.55,17.81-20.34,4.01-4.59,8.94-7.42,15.06-8.05,6.51-.66,11.88,1.37,15.62,6.89,1.78,2.62,3.26,5.44,4.68,7.83ZM445.9,41.67c-.14.22-.28.45-.42.68-.83.62-1.68,1.22-2.5,1.86-1.38,1.09-1.47,2.33-.26,3.58.46.47.96.9,1.73,1.61-1.68.97-3.14,1.72-4.5,2.63-.58.39-1.03,1.06-1.36,1.69-.93,1.75-1.77,3.55-2.73,5.52-1.11-.76-2.28-.9-2.31-2.28.15-.2.3-.41.45-.61.11-.11.22-.22.34-.34-.19.04-.37.08-.56.12l-.63.39c-2.26,1.21-6.91,5.26-8.17,7.21,7.55,5.76,15.12,11.53,22.8,17.38.88-.98,1.56-1.67,2.17-2.41,4.22-5.12,8.42-10.25,12.63-15.38,2.86-3.49,5.82-6.9,8.55-10.49,1.15-1.52,2.08-3.32,2.63-5.14,1.26-4.16-.34-7.79-2.57-11.24-3.52-5.44-9.6-5.97-13.96-3.35-3.83,2.3-7.22,5.34-10.79,8.05-.17.17-.35.35-.52.52ZM397.03,81.92c0,.45.11.88-.02,1.22-.65,1.81-.08,3.31,1.17,4.6.73.76,1.52,1.48,2.37,2.11,5.26,3.89,10.48,7.84,15.84,11.59,6.87,4.81,13.29,10.28,20.76,14.21.6.32,1.23.58,1.73.81.35-.2.54-.25.65-.38,5.07-5.9,10.12-11.82,15.2-17.71,1.15-1.33,1.32-2.81,1.01-4.42-2.65-.61-3.17-.56-4.95.86-1.03.82-2.04,1.72-2.89,2.71-3.57,4.16-7.07,8.38-10.62,12.55-.34.4-.86.65-1.3.96-.17-.13-.34-.27-.51-.4.4-.7.73-1.46,1.21-2.1,4.05-5.47,8.14-10.92,12.2-16.38.51-.68.94-1.42,1.56-2.38-11.33-9.32-23.18-17.6-34.48-26.88-1.22,1.27-2.2,2.27-3.17,3.29-.97,1.03-1.89,2.1-2.86,3.12-1.04,1.09-2.11,2.14-3.17,3.21-1,1-1.97,2.03-3.01,3-.94.87-1.67,2.08-3.08,2.37,3.3-6.18,8.05-11.27,12.29-17.39-2.34.38-3.96,1.08-5.29,2.21-2.22,1.88-4.51,3.75-6.38,5.94-2.63,3.08-4.97,6.42-7.3,9.74-.83,1.17-1.51,2.54-1.42,4.33,1.57-.28,2.94-.53,4.46-.8ZM418.23,108.76c-3.32-2.86-6.3-5.63-9.5-8.12-2.85-2.23-5.21-1.94-7.79.58-.95.92-1.82,1.93-2.67,2.95-1.98,2.37-3.85,4.84-5.91,7.14-8.38,9.33-16.1,19.25-24.9,28.21-.12.12-.17.3-.34.61.34.94.38,2.14,2,2.19,4.59.13,9.18.33,13.77.47,3.91.12,6.86-1.48,9.23-4.67,2.15-2.89,4.71-5.49,7.15-8.17,5.64-6.22,11.33-12.4,16.98-18.61.64-.71,1.17-1.52,1.98-2.58ZM322.42,205.09c1.46-.14,2.75-.32,4.04-.37,1.74-.06,2.85-.89,3.88-2.31,2.79-3.79,6.5-6.47,10.93-8.07,3.68-1.33,5.69-3.9,6.36-7.72.19-1.07.67-2.22,1.37-3.04,2.99-3.49,6.07-6.9,9.19-10.27,5.76-6.23,11.62-12.37,17.35-18.62,2.31-2.51,4.52-5.15,5.73-8.59-3.45-1.35-6.89-1.76-10.45-1.64-5.49.18-9.37,2.95-11.29,8.06-.58,1.54-1.31,3.12-2.33,4.4-7.24,9.03-14.6,17.96-21.87,26.97-3.77,4.67-7.45,9.42-11.12,14.16-1.53,1.98-1.69,4.34-1.79,7.04Z"/>
      <path class="cls-1" d="M321.87,255.49c-7.17,0-11.95-5.71-10.45-12.73,1.41-6.62,4.2-12.75,7.21-18.77.96-1.93,3.01-1.55,4.69-1.82,1.45-.23,1.96.89,2.44,1.98,2.32,5.25,4.86,10.42,6.92,15.78,2.87,7.46-2.89,15.57-10.81,15.56ZM320.42,227.7c-1.13,4.29-2.26,8.41-3.28,12.56-.36,1.45-.6,2.95-.65,4.44-.12,4.08,3.78,6.81,7.56,5.38,3.51-1.32,5.11-4.18,4.61-8.25-.52-4.21-4.35-10.9-8.25-14.13Z"/>
      <path class="cls-2" d="M249.69,335.57c-3.11.53-5.87,1.01-8.93,1.53-.21-2.88-.55-5.49-.56-8.11-.04-21.51-.06-43.02,0-64.54.02-9.11.21-18.22.32-27.34,0-.53.01-1.06,0-1.59-.17-6.15-2.93-6.67-6.79-6.66-16.73.07-33.45.07-50.18.09-4.07,0-8.14-.08-12.21-.05-4.27.03-6.04,1.62-6.04,5.94-.01,9.47.2,18.93.28,28.4.05,6.2.05,12.39.05,18.59,0,27.35,0,54.71,0,82.06,0,.89-.03,1.77.02,2.66.19,3.9,1.9,5.92,5.75,6.36,3.94.44,7.92.85,11.88.88,15.04.13,30.09.1,45.14.13,5.29.01,5.92.68,6,5.96.14,9.38.33,18.75.52,28.13.08,3.8.21,7.6.29,11.4.02.79-.01,1.6-.16,2.37-.51,2.73-1.53,3.79-4.26,3.78-7.87-.03-15.74-.21-23.61-.34-2.65-.05-5.31-.13-7.96-.19-9.29-.22-18.57-.39-27.86-.68-6.89-.22-13.78-.53-20.67-.92-6.81-.38-12.16-5.99-12.65-13.11-.08-1.15-.05-2.3-.05-3.45.01-32.4.01-64.8.04-97.2.02-25.41.11-50.81.08-76.22,0-7.96-.38-15.92-.44-23.88-.08-9.35,2.77-17.79,8.62-25.09,5.85-7.31,12.96-13.01,21.86-16.26,4.28-1.56,8.69-2.41,13.24-2.37,13.62.14,27.25.3,40.87.51,3.62.06,7.25.22,10.86.54,4.87.43,9.28,2.34,13.27,5.03,5.37,3.62,10.19,7.9,14.08,13.16,5.07,6.87,7.41,14.59,7.37,23.08-.02,4.43-.08,8.85-.08,13.28.02,15.93.03,31.87.09,47.8.03,7.25.17,14.51.23,21.76,0,1.14-.16,2.29-.24,3.43-.3,4.66-2.52,8.03-6.8,9.95-1.03.46-2.14.76-3.24,1.04-.59.15-1.23.08-1.85.16-4.76.63-6.28,2.35-6.28,7.15,0,6.64,0,13.28,0,19.92,0,.87,0,1.75,0,2.89ZM146.34,251.73l.46.07c.23-.41.61-.81.67-1.24.26-2.01.6-4.03.61-6.05.1-11.14.03-22.28.18-33.41.1-7.32,2.07-14.13,6.39-20.14,3.03-4.23,6.96-7.49,11.24-10.38.86-.58,1.63-1.33,2.33-2.1.21-.23.21-.91.02-1.17-.18-.24-.76-.27-1.14-.23-.33.04-.65.28-.93.48-3.24,2.31-6.61,4.45-9.67,6.98-5.04,4.17-8.63,9.37-9.62,16-.42,2.79-.68,5.62-.75,8.44-.15,6.18-.17,12.37-.16,18.55,0,7.34.09,14.68.16,22.02,0,.73.13,1.46.21,2.19ZM143.57,413.39c-.24,2.07.89,3.07,2.21,3.77.99.52,2.15.89,3.27.97,3.17.23,6.35.39,9.53.4,18.49.04,36.98.03,55.47.04.82,0,1.63,0,2.45,0-2.87-1.58-5.89-1.97-8.98-1.97-12.56-.04-25.12-.08-37.69-.08-7.8,0-15.56-.3-23.11-2.53-.92-.27-1.9-.36-3.15-.6ZM171.85,173.49c-.42.69-.84,1.37-1.26,2.06,1.63.05,1.84-.76,1.26-2.06Z"/>
      <path class="cls-2" d="M425.49,367.78c0,4.6-.03,9.21.02,13.81.01,1.35-.27,2.7.77,4.02.51.66.17,2.05.09,3.09-.45,6.34-.94,12.69-1.42,19.03-.57,7.4-1.11,14.8-1.74,22.2-.31,3.59-2.38,5.69-5.98,6.32-10.09,1.79-20.19,3.64-30.43,4.13-12.72.6-25.45.91-38.18,1.26-6.63.18-13.27.35-19.89.23-11.85-.22-23.69-.56-35.53-1.05-7.77-.32-15.52-.98-23.28-1.53-7.5-.53-14.96-1.31-22.19-3.56-4.44-1.38-7.39-4.06-7.74-8.97-.17-2.29-.46-4.58-.47-6.87-.02-22.04,0-44.08.04-66.12,0-1.58.26-3.16.41-4.74.6-6.41,4.81-8.73,9.64-8.99,3.88-.21,7.79-.05,11.67.12,3.44.15,6.87.51,10.3.83,24.54,2.28,49.14,1.63,73.72,1.57,8.84-.02,17.69-.18,26.53-.57,10.5-.46,20.99-1.32,31.49-1.83,4.58-.22,9.19-.67,13.76.3,4.38.92,7.05,3.55,7.75,7.98.38,2.44.57,4.92.63,7.38.1,3.98.03,7.97.03,11.95ZM389.79,390.72s.09,0,.13,0c0-7.17.03-14.34-.01-21.51-.02-3.43-1.33-4.8-4.73-5.18-.61-.07-1.24-.05-1.86-.02-5.03.28-10.06.65-15.09.84-10.96.42-21.91.97-32.88,1.05-12.47.09-24.94-.26-37.41-.44-2.03-.03-4.06-.24-6.09-.3-3.63-.11-7.25-.25-10.88-.21-3.09.04-4.49,1.52-4.73,4.58-.03.44-.02.88-.02,1.33,0,12.92,0,25.85,0,38.77,0,.88-.03,1.78.07,2.65.36,3.23,1.35,4.43,4.63,4.76,4.57.45,9.16.72,13.74.88,7.87.27,15.74.41,23.61.56,10.7.2,21.4.32,32.1.54,9.13.19,18.19-.73,27.25-1.55,2.81-.25,5.64-.45,8.43-.86,2.45-.36,3.51-1.64,3.69-4.1.08-1.06.03-2.12.03-3.19,0-6.2,0-12.39,0-18.59ZM378.83,352.37c.03-.2.05-.4.08-.6-40.48-.72-80.95-1.43-121.43-2.15,3.14.57,6.29.86,9.45,1.12,10.12.83,20.23,1.78,30.36,2.43,8.2.53,16.42.87,24.63.97,9.19.11,18.39.03,27.57-.27,9.79-.32,19.56-.98,29.34-1.5ZM248.13,375.44c-1.83.5-1.65,1.58-1.63,2.52.11,4.06.25,8.13.4,12.19.39,10.6.76,21.2,1.22,31.8.25,5.69,3.9,10.11,9.39,10.94,7.24,1.09,14.53,1.83,21.8,2.7,1.55.18,3.11.26,4.64.39.42-2.22.42-2.2-1.49-2.44-7-.88-14.02-1.71-21.01-2.69-6.95-.97-10.67-4.54-11.68-11.07-.2-1.3-.16-2.64-.19-3.97-.19-10.52-.31-21.04-.58-31.56-.07-2.88-.56-5.74-.88-8.81Z"/>
      <path class="cls-2" d="M402.16,298.35c-1.07.13-1.83.22-2.7.33-1.7-3.71-3.39-7.2-3.33-11.4.18-13.72.11-27.45.23-41.17.07-8.32.28-16.63.53-24.95.06-2.1.35-4.24.83-6.29.94-3.98,3.49-6.76,6.76-9.17,4.61-3.4,9.03-7.08,13.4-10.8,2.72-2.32,4.16-5.42,4.48-9.05.19-2.11,2.04-3.87,4.18-4.18.61-.09,1.24-.05,1.86-.06,11.15-.04,22.31-.07,33.46-.13,1.5,0,3-.1,4.5-.2,3.16-.22,4.49.56,5.84,3.42,1.02,2.16,2.02,4.33,3.15,6.44,1.7,3.17,3.99,5.73,7.14,7.64,6.95,4.22,12.1,10.02,14.65,17.88,1.38,4.25,1.81,8.63,1.8,13.09-.02,42.68-.01,85.36-.01,128.04,0,13.55,0,27.09,0,40.64,0,4.24.04,8.48-.15,12.71-.3,6.54-4.19,11.51-10.2,13.03-1.95.49-4.02.7-6.04.71-15.84.1-31.69.13-47.54.16-3.66,0-4.73-1.05-4.75-4.76-.03-6.99.05-13.99.04-20.98,0-6.2-.07-12.39-.1-18.59,0-.8-.03-1.6.07-2.39.27-1.97,1.3-3,3.27-3.25.87-.11,1.77-.07,2.65-.07,15.76,0,31.52-.07,47.27.05,6.84.05,8.42-2.73,8.41-8.39-.06-37.01-.05-74.02-.06-111.03,0-2.39.06-4.78.03-7.17-.06-5.35-1.52-6.82-6.79-6.81-12.57.02-25.14.1-37.71.1-12.13,0-24.25-.08-36.38-.13-5.83-.02-7.21,1.36-7.22,7.15-.03,11.69.05,23.37-.18,35.05-.1,4.82-.89,9.63-1.38,14.52ZM405.13,230.31c.49-.98.77-1.51,1.02-2.06,2.72-6.04,5.46-12.08,8.13-18.15.51-1.15,1.21-1.75,2.43-2.14,2.01-.63,4.03-1.37,5.86-2.41,3.16-1.8,4.27-4.67,3.51-8.46-.46.33-.91.57-1.27.9-2.34,2.15-4.67,4.32-7,6.5-1.74,1.62-3.34,3.4-5.71,4.2-.8.27-1.5.93-2.16,1.51-4.19,3.67-5.94,8.45-6.22,13.87-.11,2.03.11,4.03,1.41,6.24ZM489.13,395.84c-.15,3.08-.31,6.16-.44,9.25-.3,7.2-2.68,10.17-9.67,11.89-2.57.63-5.18,1.11-7.76,1.69-.58.13-1.14.41-2.11.77,3.51.63,6.46.82,9.48.3,6.4-1.11,10.61-4.88,11.95-11.17.93-4.32.39-8.57-1.46-12.72ZM440.24,419.6c2.49.84,17,.75,18.84-.04-6.27-.27-12.55-.2-18.84.04Z"/>
      <path class="cls-2" d="M488.69,307.59c0,18.94,0,37.88-.02,56.82,0,1.31-.19,2.64-.45,3.92-.39,1.9-1.77,2.78-3.59,3.01-.79.1-1.59.07-2.39.07-13.27,0-26.55,0-39.82,0-1.95,0-3.89.07-5.84.09-5.71.04-6.46-.72-6.42-6.35.03-4.42.09-8.85.04-13.27-.02-2.02-.13-4.07-.48-6.06-.84-4.84-3.82-7.83-8.47-9.21-.42-.13-.85-.23-1.28-.34-2.92-.79-3.9-2.04-4.01-5.1-.02-.53,0-1.06,0-1.59,0-5.31,0-10.62,0-15.93,0-.88-.02-1.77-.07-2.65-.17-2.97-1.58-4.94-4.5-5.86-3.19-1.01-4.41-2.69-4.53-5.99-.25-7.25-.47-14.5-.7-21.75-.3-9.19-.61-18.39-.91-27.58-.01-.35-.03-.71-.02-1.06.07-2.65.45-3.05,3.11-3.04,10.09.02,20.17.13,30.26.06,10.52-.08,21.05-.31,31.57-.52,4.15-.08,8.31-.3,12.46-.44.62-.02,1.24-.02,1.85.01,2.72.15,4.07,1.35,4.21,4.09.16,3.09.11,6.19.11,9.29-.03,15.75-.07,31.51-.11,47.26,0,.71,0,1.42,0,2.12Z"/>
      <path class="cls-2" d="M169.95,300.42c0-20.54,0-41.07,0-61.61,0-1.15,0-2.32.21-3.43.4-2.11,1.42-3.04,3.58-3.31,1.66-.2,3.35-.32,5.03-.33,16.99-.08,33.98-.13,50.98-.18,5.61-.01,7.08,1.46,7.08,7.06,0,32.22.1,64.44-.11,96.66-.05,7.76-1.12,15.51-1.75,23.26-.18,2.2-.47,4.39-.7,6.59-.33,3.04-2.19,4.77-5.23,4.8-11.33.09-22.65.21-33.98.23-6.19.01-12.38-.26-18.57-.19-4.76.05-6.58-2.33-6.57-6.62.07-20.98.03-41.96.03-62.94Z"/>
      <path class="cls-2" d="M579.83,392.29c.38-1,.59-1.54.9-2.36-10-4.79-19.92-9.53-30.29-14.49,4.07-1.73,7.77-2.48,11.51-3.03,11.32-1.68,22.19.5,32.88,3.96,3.87,1.25,7.66,2.74,11.49,4.11.81.29,1.63.56,2.42.83.98-1.64.11-2.15-1.14-2.63-5.28-2.05-10.53-4.15-15.79-6.25-.85-.34-2.01-.49-1.42-2.22,12.35.75,24.75,1.51,37.09,2.26.63-1.75-.3-1.98-1.35-2.07-2.03-.18-4.05-.33-6.08-.5-6.69-.59-13.38-1.2-20.07-1.78-4.58-.39-9.16-.73-13.74-1.13-.87-.07-1.72-.29-3.07-.54,2.36-1.34,4.33-2.46,6.31-3.56,2.47-1.38,4.98-2.7,7.44-4.11,1.21-.69,1.18-.74.5-2.38-3.34,1.57-6.68,3.15-10.02,4.72-5.61,2.62-11.12,5.51-17.26,6.75-7.01,1.42-14.01,2.95-21.22,3.07-1.56.02-3.12.21-4.97-.15.78-.76,1.5-1.58,2.34-2.26,6.25-5.08,12.52-10.13,18.78-15.2.27-.22.52-.45,1.21-1.04-.92.16-1.35.21-1.76.32-7,1.96-12.17,6.7-17.25,11.52-2.76,2.62-5.45,5.31-8.16,7.99-1.6,1.59-3.44,2.67-5.65,3.29-5.87,1.65-11.7,3.45-17.55,5.19-.41.12-.83.21-1.94.48,4.44-6.05,8.52-11.62,12.6-17.19-.15-.14-.3-.27-.45-.41-1.81.84-3.39,2.08-4.74,3.52-2.85,3.03-5.55,6.19-8.36,9.25-2.43,2.65-4.93,5.24-7.39,7.85-.22-.1-.43-.19-.65-.29.14-1.15.18-2.33.45-3.44,1.39-5.74,4.75-10.22,9.24-13.9,11.34-9.3,24.22-15.23,38.77-17.3,7.65-1.09,15.36-1.22,23.02-.22,5.77.75,11.53,1.77,17.23,2.94,7.49,1.54,14.57,4.35,21.41,7.72,6.19,3.05,12.36,6.15,18.52,9.26,1.57.79,3.06,1.72,4.82,2.72-.62.48-1.1.92-1.65,1.27-8.52,5.4-17.01,10.84-25.58,16.17-6.98,4.34-13.99,8.66-21.12,12.75-7.99,4.59-16.66,7.3-25.81,8.41-13.76,1.67-27.17-.18-40.34-4.15-4.73-1.43-9.35-3.24-14.01-4.89-.66-.24-1.32-.54-1.91-.93-1.96-1.29-4.05-2.78-3.74-5.36.34-2.86,1.57-5.59,4.66-6.55,2.35-.72,4.81-1.17,7.25-1.46,1.43-.17,2.56-.56,3.38-1.73,1.33-1.89,3.16-3.04,5.35-3.7,3.55-1.07,7.03-2.41,10.64-3.21,5.39-1.19,10.78-.73,15.88,1.42,6.44,2.72,12.77,5.67,19.15,8.52,2.98,1.33,5.95,2.67,9.24,4.15ZM528.17,389.74c8.9,4.4,18.28,7.64,27.93,11.62-4.23-5.3-20.79-12.16-27.93-11.62Z"/>
      <path class="cls-2" d="M574.62,269.6c-10.75,4.53-21.4,9.02-32.38,13.65.21-.7.26-1.19.5-1.57,4.27-6.82,8.15-13.89,13.28-20.15,5.5-6.71,12.5-10.51,21.12-11.35,1.11-.11,2.23-.15,3.38-.23-.56-2.5-.59-2.55-2.5-2.1-3.61.86-7.21,1.78-10.83,2.61-.43.1-1.14-.05-1.37-.35-.22-.29-.06-.95.07-1.41.09-.32.42-.56.63-.85,3.72-5.33,8.2-9.97,13.03-14.29,2.9-2.6,5.83-5.16,8.76-7.73,1.21-1.06,2.45-2.09,4.47-1.45-.24.64-.4,1.28-.71,1.86-3.95,7.54-6.11,15.65-7.25,24.01-1.06,7.79-1.73,15.64-2.71,23.44-1.12,8.92-3.44,17.52-7.28,25.67-2.23,4.73-4.7,9.31-7.73,13.6-3.36,4.75-7.47,8.68-12.14,12.15-8.08,6.02-17.41,8.89-27.01,11.14-3.01.71-6.05,1.3-9.08,1.92-.76.16-1.54.22-2.74.38.19-1.24.23-2.26.51-3.2,2.12-7.29,6.46-12.97,12.93-16.87,4.31-2.59,8.81-4.9,13.35-7.1,5.65-2.74,11.27-5.5,16.39-9.28-2.13-.18-6.17.96-8.91,2.34-6.79,3.43-13.6,6.82-20.42,10.18-.85.42-1.83,1.42-2.82.17-.9-1.14,0-2.03.56-2.86,2.06-3.02,3.58-6.23,4.59-9.79,1.49-5.26,4.68-9.55,9.11-12.73,3.59-2.57,7.32-4.98,11.17-7.13,6.56-3.67,13.23-7.15,20.33-9.73.58-.21,1.16-.43,1.72-.71,1.01-.5.84-1.19,0-2.26Z"/>
      <path class="cls-2" d="M88.8,315.49c-2.21-.01-3.45-1.04-4.12-2.51-1.25-2.72-2.48-5.48-3.33-8.35-1.49-4.99-2.68-10.08-4.01-15.12-.22-.82-.55-1.62-.84-2.49-1.72,1.32-.56,4.52-3.8,4.79-4.35-12.97-8.69-25.91-13.26-39.53-.6.99-1.06,1.41-1.07,1.84-.02.78.2,1.57.36,2.35,3.1,14.49,7.68,28.49,13.99,41.92.18.39.32.8.53,1.33-1.67.94-2.92.64-4.25-.64-4.45-4.31-8.98-8.52-13.49-12.77-.44-.42-.92-.8-1.53-1.32-.54.49-1.02.93-1.5,1.38.2.37.29.63.46.8.25.24.56.43.87.6,4.97,2.82,9.1,6.68,13.21,10.58,2.68,2.55,5.67,4.79,8.26,7.42,4.16,4.25,6.76,9.47,8.56,15.1.07.23,0,.51,0,1-.38-.08-.72-.07-.96-.21-6.06-3.47-12.33-6.61-17.54-11.38-10.1-9.23-16.94-20.28-19.21-33.95-1.27-7.64-1.07-15.34-1.1-23.03-.06-11.5.05-23.01.08-34.51,0-.35.05-.7.07-1.02,2.16-1.16,2.13-1.13,3.54.27,3.83,3.81,7.71,7.56,11.52,11.38,10.67,10.68,17.89,23.38,22.1,37.84,2.43,8.35,3.84,16.88,4.29,25.56.24,4.68.27,9.37.53,14.05.11,1.92.54,3.83.88,5.74.15.85.44,1.68.75,2.86Z"/>
      <path class="cls-2" d="M173.15,122.38c2.22.18,2.27.18,2.27,2.25.02,8.06,0,16.11.01,24.17,0,.71-.08,1.45.13,2.1.11.35.74.69,1.16.74.28.03.82-.42.9-.73.16-.67.11-1.4.12-2.11.04-6.9.06-13.81.1-20.71,0-.88,0-1.78.12-2.65.29-2.18,1.17-3.18,3.3-3.57,1.3-.23,2.64-.26,3.96-.26,11.06-.03,22.13-.06,33.19-.03,1.58,0,3.17.22,4.73.49,3.9.67,6.02,3.24,6.74,6.93.44,2.24.56,4.56.65,6.85.23,5.83.37,11.67.73,17.51,2.17-10.37,2.36-20.8.92-31.59,1.85,1.27,3.31,2.4,3.32,4.67,0,1.85.21,3.71.21,5.56.02,6.55,0,13.1-.03,19.65,0,1.59-.18,3.18-.24,4.76-.14,3.19-1.31,4.39-4.54,4.46-4.07.08-8.14.1-12.21.12-14.25.05-28.5.1-42.75.13-5.08.01-5.67-.59-5.64-5.63.05-8.06.17-16.11.11-24.17-.03-3.35,1.11-6.2,2.74-8.95Z"/>
      <path class="cls-2" d="M585.39,222.64c-1.39,1.71-2.75,3.44-4.18,5.11-5.93,6.92-11.87,13.81-17.82,20.71-.9,1.05-1.76,2.23-3.76,2.04,1.57-5.4,4.29-10.27,5.78-15.56-3.44-.89-5.86.83-6.66,4.26-.96,4.12-1.85,8.3-3.29,12.26-2.38,6.52-5.9,12.47-10.48,17.72-1.95,2.23-3.46,4.68-4.43,7.48-.23.67-.43,1.39-.85,1.93-.3.38-.95.49-1.44.72-.19-.44-.59-.9-.55-1.32.52-5.99,1.09-11.97,1.65-17.95.38-4.04.77-8.07,1.16-12.11-1.07-.73-1.53-.23-1.76.68-.57,2.23-1.12,4.46-1.65,6.7-1.36,5.79-1.9,11.68-2.22,17.6-.28,5.21-.55,10.42-1.05,15.6-.18,1.9-.74,3.87-1.6,5.57-3.61,7.19-7.4,14.3-11.14,21.43-.14.28-.4.49-.95,1.15-.74-13.75-1.46-27-2.18-40.25-.21-.08-.42-.16-.63-.24-.35.35-.96.67-1.01,1.06-.39,2.7-.82,5.42-.92,8.14-.09,2.46.24,4.94.34,7.41.4,9.54.73,19.09,1.2,28.63.15,3.14-.54,5.9-2.35,8.49-2.53,3.63-4.87,7.39-7.3,11.08-.33.49-.73.94-1.4,1.78-.24-2.76-.53-5.08-.62-7.4-.22-6.01-.57-12.03-.46-18.04.2-11.42,1.17-22.77,4.65-33.77,2.32-7.32,5.74-14.05,10.07-20.38,5.83-8.54,13.44-15.16,21.81-21.08,9.41-6.66,19.85-11.18,30.53-15.25,3.55-1.35,7.16-2.57,10.75-3.81.83-.29,1.7-.43,2.55-.64.08.08.16.16.25.24Z"/>
      <path class="cls-2" d="M347.32,270.58c4.79,2.56,9.26,4.63,13.33,7.46,3.04,2.12,6.09,4.23,9.2,6.26,4.2,2.73,8.1,5.71,10.37,10.6.11-1.03.22-2.06.38-3.51,5.72,3.9,10.87,7.99,16.08,11.78.01,1.83-.81,2.45-2.34,2.29-.44-.04-.88,0-1.33,0-39.56,0-79.12,0-118.67,0h-2.85c-.98-2.04-.94-1.98.54-2.98,3.71-2.52,7.97-3.22,12.26-3.92,8.45-1.39,16.92-2.75,25.34-4.32,8.89-1.66,17.4-4.68,25.91-7.68,2.25-.79,4.53-1.51,6.74-2.4,1.29-.52,2.57-1.19,3.69-2.02,2.16-1.61,3.12-3.8,2.53-6.52-.32-1.45-.68-2.9-1.18-5.03Z"/>
      <path class="cls-2" d="M311.6,316.12c-1.96-.17-3.86-.47-5.77-.49-13.36-.09-26.72-.14-40.08-.17-4.02,0-7.89-.74-11.85-2.07.06-.79.11-1.54.18-2.47,2.52-.21,4.88-.57,7.24-.57,35.3,0,70.61.02,105.91.08,8.49.01,16.97.24,25.46.24,3.44,0,6.91-.12,10.31-.59,2.73-.38,5.04.32,7.67,1.62-.82,1.24-1.46,2.51-2.38,3.51-.6.65-1.58,1.22-2.46,1.33-5.34.66-10.69,1.37-16.06,1.7-8.38.52-16.77.78-25.16,1.12-9.01.37-18.02.71-27.02,1.06-9.63.37-19.25.71-28.88,1.07-9.27.35-18.55.68-27.82,1.06-5.91.24-11.84.41-17.73.89-3.1.25-5.21-1.05-7.34-3.21,1.55-1.49,3.2-2.11,5.26-2.1,13.36.07,26.72.07,40.08.09,2.57,0,5.13.06,7.7-.03,1.17-.04,2.58,0,2.76-2.07Z"/>
      <path class="cls-2" d="M44.27,338.96c3.09.49,5.72.73,8.26,1.36,7.66,1.88,14.98,4.65,22.04,8.24,7.1,3.61,14.21,7.18,20.74,11.76,2.31,1.62,4.6,3.32,6.69,5.21,1.42,1.28,2.54,2.92,3.68,4.48.92,1.25.74,2.47-.78,3.66-2.34-1.11-4.82-2.22-7.24-3.44-2.92-1.46-5.77-3.06-8.71-4.5-7.15-3.49-14.33-6.93-21.49-10.38-.91-.44-1.91-1.17-2.69.64,10.6,6.09,21.18,12.18,31.76,18.26-.05.18-.11.36-.16.54-5.46-.31-10.91-.62-16.78-.95,1.38,2.22,3.22,2.69,5.13,2.85,3.34.27,6.7.48,10.05.54,6.39.13,12.67,1.04,18.86,2.59.32.08.64.2,1.29.42-.6.45-.94.83-1.36.99-5.17,2.03-10.49,2.87-16.07,2.53-11.95-.72-22.24-5.47-31.36-12.88-7.11-5.79-13.08-12.67-17.42-20.82-1.49-2.8-2.64-5.78-3.9-8.7-.23-.54-.27-1.17-.53-2.38Z"/>
      <path class="cls-2" d="M410.47,319.79c0,1.56.19,2.97-.04,4.31-.39,2.21-1.89,3.41-4.27,3.7-1.67.2-3.34.35-5.02.4-8.4.26-16.79.41-25.19.75-9.45.38-18.89.91-28.33,1.38-3.88.19-7.76.37-11.64.63-1.13.08-2.24.41-3.68.69.38,1.55.72,2.95,1.1,4.53-.93.04-1.7.11-2.48.11-18.75-.02-37.51-.01-56.26-.09-4.59-.02-9.19-.24-13.77-.54-4.1-.27-4.95-2.34-4.33-6.21.2-1.28,1.15-1.98,2.4-2.14.87-.12,1.76-.1,2.65-.1,12.74.02,25.48.05,38.22.05,5.57,0,11.15.06,16.72-.09,6.62-.18,13.23-.35,19.81-1.31,4.19-.61,8.43-.81,12.65-1.2,9.32-.86,18.63-1.76,27.96-2.58,5.28-.46,10.57-.79,15.85-1.18,4.84-.36,9.68-.74,14.53-1.08.95-.07,1.9,0,3.14,0Z"/>
      <path class="cls-2" d="M116.85,247.83c13.82,20.51,11.15,58.37-4.69,76.87.97-16.29,1.91-32.17,2.86-48.26-.9-.04-1.64-.08-2.63-.13-1.44,14.9-2.87,29.62-4.34,44.83-.72-.77-1.16-1.14-1.47-1.6-3.15-4.77-4.58-10.12-5.13-15.72-1.37-13.9,1.56-27.09,6.93-39.79,1.96-4.63,4.44-9.03,6.72-13.52.43-.85,1.03-1.61,1.73-2.69Z"/>
      <path class="cls-2" d="M191.58,108.3v-22.71c.89-.2,1.55-.47,2.23-.49,6.98-.29,13.97-.46,20.94-.86,2.73-.16,5.29,2.25,5.22,5.05-.2,7.52-.03,15.05-.12,22.57-.05,3.93-2.22,6.06-6.2,5.92-7.6-.25-15.19-.62-22.78-1.09-2.95-.18-4.53-.82-4.76-4.76-.11-1.77-.12-3.54-.12-5.31-.01-6.11,0-12.22,0-18.33,0-.79,0-1.57,0-2.58.97-.14,1.79-.27,2.63-.39,1.13,2.19,1.36,4.4,1.47,6.58.15,3.09.03,6.2.14,9.29.08,2.11.34,4.22.56,6.33.03.3.26.57.4.86.14-.02.27-.05.41-.07Z"/>
      <path class="cls-2" d="M280.97,81.96c-1.17.95-2.24,1.86-3.34,2.72-1.23.96-2.56.37-3.82.11-4.15-.85-8.26-1.98-12.44-2.62-5.67-.87-11.37-1.68-17.09-1.98-8.03-.42-16.08-.45-24.12-.43-7.51.02-15.03.51-22.54.43-6.62-.07-13.24-.6-19.85-1.03-3.18-.21-4.45-2.07-3.68-5.02.53-2.02,1.4-2.6,3.46-2.33,9.91,1.3,19.86,2.12,29.85,2,5.11-.06,10.2-.89,15.32-1.11,6.71-.29,13.43-.61,20.14-.42,11.62.34,22.97,2.59,34.13,5.83,2.01.58,2.85,2.19,3.99,3.84Z"/>
      <path class="cls-2" d="M409.02,332.87c-1.24,1.98-2.79,2.9-4.93,2.95-3.62.09-7.23.31-10.85.4-9.81.25-19.61.43-29.42.68-8.03.2-16.07.48-24.1.67-.76.02-1.6-.19-2.28-.53-.41-.2-.58-.87-1.07-1.66,3.98-.62,7.53-1.21,11.09-1.73,7.97-1.15,16-1.41,24.03-1.7,8.91-.32,17.83-.7,26.74-1.08,1.59-.07,3.19-.11,4.75-.39,2.48-.44,4.24.69,6.04,2.38Z"/>
      <path class="cls-2" d="M419.06,151.91c2.16-2.18,4.47-3.16,7.45-3.14,12.82.07,25.65-.04,38.48-.07.97,0,1.95.12,2.92.03,2.74-.25,4.79.87,6.45,3.17-1.33,1.81-3.09,2.64-5.36,2.63-6.37-.03-12.74-.07-19.1.01-6.52.08-13.05.34-19.57.45-1.76.03-3.53-.11-5.28-.28-3.21-.31-3.2-.34-5.97-2.8Z"/>
      <path class="cls-2" d="M420.68,167.94c1.94-1.65,3.98-2.7,6.65-2.69,13.44.08,26.88.02,40.32.1,1.46,0,2.95.43,4.36.88,1.71.54,2.21,1.06,1.33,3.08-.61.05-1.29.15-1.98.15-15.92,0-31.84.01-47.75,0-1.15,0-2.57.4-2.93-1.51Z"/>
      <path class="cls-2" d="M474.27,177.37h-56.59c.22-1.3,1.3-1.34,2.11-1.67,3.98-1.61,8.19-2.23,12.41-2.43,6.61-.32,13.24-.61,19.86-.46,5.01.11,10.03.76,15,1.48,2.55.37,5.07,1.23,7.34,2.54-.04.18-.09.37-.13.55Z"/>
      <path class="cls-2" d="M419.38,160.83c1.17-.46,2.3-1.1,3.52-1.35,3.02-.63,6.05-1.29,9.12-1.58,10.48-1,20.99-1.07,31.47-.03,3.06.3,6.08,1.04,9.09,1.69.94.2,1.81.79,2.71,1.21-.06.17-.12.35-.18.52h-55.57l-.15-.45Z"/>
      <path class="cls-2" d="M585.14,222.4c.18-.02.37-.04.55-.07-.1.1-.2.2-.31.31-.08-.08-.17-.16-.25-.24Z"/>
      <path class="cls-2" d="M397.03,81.92c-1.53.27-2.89.52-4.46.8-.09-1.79.59-3.16,1.42-4.33,2.34-3.32,4.67-6.66,7.3-9.74,1.88-2.2,4.17-4.06,6.38-5.94,1.33-1.13,2.95-1.83,5.29-2.21-4.24,6.13-8.99,11.22-12.29,17.39,1.41-.3,2.13-1.5,3.08-2.37,1.04-.96,2.01-1.99,3.01-3,1.06-1.07,2.13-2.12,3.17-3.21.97-1.02,1.9-2.09,2.86-3.12.96-1.03,1.95-2.03,3.17-3.29,11.3,9.28,23.15,17.56,34.48,26.88-.63.96-1.06,1.7-1.56,2.38-4.06,5.47-8.15,10.91-12.2,16.38-.48.64-.81,1.4-1.21,2.1.17.13.34.27.51.4.44-.32.96-.56,1.3-.96,3.55-4.17,7.05-8.39,10.62-12.55.86-1,1.86-1.89,2.89-2.71,1.78-1.42,2.3-1.47,4.95-.86.31,1.61.14,3.09-1.01,4.42-5.08,5.89-10.13,11.81-15.2,17.71-.11.12-.3.18-.65.38-.5-.23-1.13-.49-1.73-.81-7.47-3.93-13.9-9.39-20.76-14.21-5.36-3.76-10.58-7.7-15.84-11.59-.85-.63-1.63-1.35-2.37-2.11-1.25-1.29-1.82-2.79-1.17-4.6.12-.34.02-.77.02-1.22Z"/>
      <path class="cls-2" d="M433.55,56.96c.02,1.38,1.2,1.52,2.31,2.28.97-1.97,1.8-3.77,2.73-5.52.34-.63.79-1.3,1.36-1.69,1.35-.91,2.81-1.66,4.5-2.63-.77-.71-1.28-1.14-1.73-1.61-1.21-1.25-1.12-2.49.26-3.58.82-.64,1.66-1.24,2.5-1.86.15.13.3.25.45.38.05.46-.07,1.13.19,1.36.97.83,1.99.46,2.89-.23,1.75-1.34,3.51-2.68,5.21-4.09,3.21-2.67,6.83-3.96,11.49-3.35-2.49-1.56-4.68-2.34-7.11-1.44-1.48.55-2.92,1.24-4.28,2.04-2.51,1.47-4.95,3.08-7.41,4.62-.16-.16-.31-.33-.47-.49,3.58-2.71,6.97-5.75,10.8-8.05,4.37-2.62,10.44-2.09,13.96,3.35,2.23,3.45,3.83,7.08,2.57,11.24-.55,1.82-1.48,3.63-2.63,5.14-2.72,3.59-5.68,7-8.55,10.49-4.21,5.13-8.41,10.26-12.63,15.38-.61.74-1.29,1.43-2.17,2.41-7.68-5.85-15.25-11.62-22.8-17.38,1.26-1.94,5.91-5.99,8.17-7.2.14.15.27.29.4.44Z"/>
      <path class="cls-2" d="M418.23,108.76c-.81,1.06-1.34,1.87-1.98,2.58-5.65,6.21-11.33,12.39-16.98,18.61-2.43,2.68-4.99,5.28-7.15,8.17-2.37,3.19-5.32,4.79-9.23,4.67-4.59-.14-9.18-.35-13.77-.47-1.62-.04-1.66-1.25-2-2.19.17-.31.22-.49.34-.61,8.8-8.96,16.52-18.88,24.9-28.21,2.06-2.3,3.93-4.77,5.91-7.14.85-1.02,1.72-2.02,2.67-2.95,2.58-2.52,4.94-2.81,7.79-.58,3.2,2.49,6.18,5.26,9.5,8.12Z"/>
      <path class="cls-2" d="M322.42,205.09c.1-2.7.26-5.06,1.79-7.04,3.68-4.75,7.35-9.49,11.12-14.16,7.27-9.01,14.63-17.94,21.87-26.97,1.02-1.27,1.75-2.85,2.33-4.4,1.92-5.11,5.8-7.89,11.29-8.06,3.56-.11,7,.29,10.45,1.64-1.21,3.45-3.42,6.08-5.73,8.59-5.73,6.25-11.59,12.4-17.35,18.62-3.12,3.37-6.2,6.78-9.19,10.27-.7.81-1.19,1.97-1.37,3.04-.67,3.82-2.68,6.39-6.36,7.72-4.43,1.6-8.14,4.28-10.93,8.07-1.04,1.41-2.14,2.24-3.88,2.31-1.29.05-2.58.23-4.04.37Z"/>
      <path class="cls-2" d="M434,56.35c-.15.2-.3.41-.45.61-.13-.14-.27-.29-.4-.43.21-.13.42-.26.63-.39.07.07.15.14.23.22Z"/>
      <path class="cls-2" d="M433.78,56.13c.19-.04.37-.08.56-.12-.11.11-.22.22-.34.34-.08-.07-.15-.14-.22-.22Z"/>
      <path class="cls-2" d="M445.48,42.34c.14-.22.28-.45.42-.68.15.16.31.32.46.48-.15.19-.29.38-.44.58-.15-.13-.3-.25-.45-.38Z"/>
      <path class="cls-2" d="M445.9,41.67c.17-.17.35-.35.52-.52.15.16.31.33.47.49-.17.17-.35.34-.52.51-.15-.16-.31-.32-.46-.48Z"/>
      <path class="cls-2" d="M320.42,227.7c3.9,3.23,7.73,9.92,8.25,14.13.5,4.07-1.1,6.93-4.61,8.25-3.79,1.43-7.69-1.3-7.56-5.38.05-1.49.29-2.99.65-4.44,1.02-4.15,2.15-8.27,3.28-12.56Z"/>
      <path class="cls-1" d="M146.34,251.73c-.07-.73-.2-1.46-.21-2.19-.07-7.34-.15-14.68-.16-22.02,0-6.18.01-12.37.16-18.55.07-2.82.33-5.65.75-8.44.99-6.63,4.59-11.83,9.62-16,3.05-2.53,6.43-4.67,9.67-6.98.29-.2.61-.45.93-.48.38-.04.96,0,1.14.23.19.26.19.94-.02,1.17-.7.77-1.47,1.52-2.33,2.1-4.28,2.89-8.21,6.15-11.24,10.38-4.32,6.02-6.29,12.83-6.39,20.14-.15,11.14-.08,22.27-.18,33.41-.02,2.02-.35,4.04-.61,6.05-.06.44-.44.83-.67,1.24l-.46-.07Z"/>
      <path class="cls-1" d="M143.57,413.39c1.25.23,2.23.32,3.15.6,7.56,2.23,15.31,2.53,23.11,2.53,12.56,0,25.12.04,37.69.08,3.09,0,6.11.4,8.98,1.97-.82,0-1.63,0-2.45,0-18.49,0-36.98,0-55.47-.04-3.18,0-6.36-.16-9.53-.4-1.11-.08-2.28-.45-3.27-.97-1.32-.7-2.45-1.71-2.21-3.77Z"/>
      <path class="cls-1" d="M171.85,173.49c.59,1.29.38,2.1-1.26,2.06.42-.69.84-1.37,1.26-2.06Z"/>
      <path class="cls-1" d="M389.79,390.72c0,6.2,0,12.39,0,18.59,0,1.06.05,2.13-.03,3.19-.18,2.45-1.24,3.74-3.69,4.1-2.79.41-5.62.61-8.43.86-9.07.82-18.13,1.74-27.25,1.55-10.7-.22-21.4-.34-32.1-.54-7.87-.15-15.74-.29-23.61-.56-4.59-.16-9.18-.42-13.74-.88-3.28-.33-4.28-1.53-4.63-4.76-.1-.88-.07-1.77-.07-2.65,0-12.92,0-25.85,0-38.77,0-.44-.02-.89.02-1.33.24-3.06,1.64-4.53,4.73-4.58,3.62-.05,7.25.1,10.88.21,2.03.06,4.06.27,6.09.3,12.47.19,24.94.53,37.41.44,10.96-.08,21.92-.63,32.88-1.05,5.03-.19,10.06-.56,15.09-.84.62-.03,1.24-.05,1.86.02,3.39.38,4.7,1.75,4.73,5.18.05,7.17.01,14.34.01,21.51-.04,0-.09,0-.13,0ZM385.01,390.65c-.07,0-.14,0-.22,0,0-5.75,0-11.5,0-17.26,0-4.83-.54-5.4-5.32-5.26-8.58.24-17.15.61-25.73.85-6.64.18-13.29-.01-19.91.39-12.75.77-25.46.01-38.18-.53-3.62-.16-7.25-.27-10.88-.27-2.48,0-3.31.83-3.7,3.25-.08.52-.09,1.06-.09,1.59-.03,11.86-.06,23.73-.06,35.59,0,4.41,1.49,5.97,5.83,6.06,3.1.07,6.19-.05,9.29-.05,8.85,0,17.71-.01,26.56.01.77,0,2.11.01,2.22.34.69,2.03,2.25,1.35,3.54,1.29,13.26-.58,26.51-1.2,39.77-1.81,3.8-.17,7.6-.34,11.4-.54.61-.03,1.22-.18,1.83-.24,1.72-.17,2.75-1.22,3.21-2.76.3-1,.42-2.08.43-3.12.04-5.84.02-11.69.02-17.53Z"/>
      <path class="cls-1" d="M378.83,352.37c-9.78.51-19.56,1.18-29.34,1.5-9.18.3-18.38.38-27.57.27-8.21-.1-16.43-.44-24.63-.97-10.13-.65-20.24-1.6-30.36-2.43-3.16-.26-6.31-.55-9.45-1.12,40.48.72,80.95,1.43,121.43,2.15-.03.2-.05.4-.08.6Z"/>
      <path class="cls-1" d="M248.13,375.44c.32,3.07.8,5.93.88,8.81.27,10.52.39,21.04.58,31.56.02,1.32-.01,2.67.19,3.97,1.01,6.53,4.73,10.1,11.68,11.07,6.99.98,14,1.81,21.01,2.69,1.91.24,1.92.22,1.49,2.44-1.53-.12-3.09-.2-4.64-.39-7.27-.87-14.56-1.61-21.8-2.7-5.49-.83-9.14-5.25-9.39-10.94-.46-10.6-.83-21.2-1.22-31.8-.15-4.06-.29-8.13-.4-12.19-.03-.94-.21-2.01,1.63-2.52Z"/>
      <path class="cls-1" d="M405.13,230.31c-1.3-2.21-1.51-4.21-1.41-6.24.28-5.42,2.03-10.2,6.22-13.87.66-.58,1.36-1.24,2.16-1.51,2.37-.8,3.97-2.57,5.71-4.2,2.33-2.17,4.66-4.34,7-6.5.36-.33.8-.58,1.27-.9.77,3.79-.34,6.66-3.51,8.46-1.82,1.04-3.85,1.77-5.86,2.41-1.22.38-1.92.99-2.43,2.14-2.67,6.07-5.41,12.1-8.13,18.15-.25.55-.53,1.08-1.02,2.06Z"/>
      <path class="cls-1" d="M489.13,395.84c1.85,4.15,2.39,8.4,1.46,12.72-1.35,6.29-5.56,10.05-11.95,11.17-3.02.53-5.97.34-9.48-.3.97-.36,1.53-.63,2.11-.77,2.58-.58,5.19-1.06,7.76-1.69,6.98-1.72,9.36-4.69,9.67-11.89.13-3.08.29-6.16.44-9.25Z"/>
      <path class="cls-1" d="M440.24,419.6c6.29-.24,12.56-.31,18.84-.04-1.84.79-16.34.88-18.84.04Z"/>
      <path class="cls-1" d="M528.17,389.74c7.14-.54,23.7,6.32,27.93,11.62-9.66-3.98-19.03-7.22-27.93-11.62Z"/>
      <path class="cls-1" d="M446.36,42.15c.17-.17.35-.34.52-.51,2.47-1.55,4.9-3.15,7.41-4.62,1.36-.8,2.8-1.49,4.28-2.04,2.43-.9,4.62-.12,7.11,1.44-4.66-.62-8.28.68-11.49,3.35-1.7,1.41-3.45,2.75-5.21,4.09-.9.69-1.92,1.06-2.89.23-.26-.22-.14-.89-.19-1.36.15-.19.29-.38.44-.57Z"/>
      <path class="cls-2" d="M385.01,390.65c0,5.84.02,11.69-.02,17.53,0,1.04-.13,2.12-.43,3.12-.46,1.54-1.49,2.59-3.21,2.76-.61.06-1.22.21-1.83.24-3.8.19-7.6.36-11.4.54-13.26.61-26.51,1.22-39.77,1.81-1.29.06-2.84.74-3.54-1.29-.11-.33-1.45-.34-2.22-.34-8.85-.02-17.71-.02-26.56-.01-3.1,0-6.2.12-9.29.05-4.34-.09-5.83-1.66-5.83-6.06,0-11.86.03-23.73.06-35.59,0-.53,0-1.07.09-1.59.39-2.42,1.22-3.25,3.7-3.25,3.63,0,7.26.11,10.88.27,12.72.54,25.43,1.31,38.18.53,6.62-.4,13.27-.21,19.91-.39,8.58-.23,17.15-.6,25.73-.85,4.79-.14,5.32.44,5.32,5.26,0,5.75,0,11.5,0,17.26.07,0,.14,0,.22,0Z"/>
    </g>
  </g>
</svg>